<svg xmlns="http://www.w3.org/2000/svg" width="24" height="24" fill="currentColor" viewBox="0 0 24 24">
  <path d="M6.28 7.78a.75.75 0 0 1-1.06-1.06l4.25-4.25a.75.75 0 0 1 1.06 0l4.25 4.25a.75.75 0 0 1-1.06 1.06L10 4.06 6.28 7.78Zm0 8.44a.75.75 0 0 0-1.06 1.06l4.25 4.25a.75.75 0 0 0 1.06 0l1.144-1.144a6.45 6.45 0 0 1-.542-1.578L10 19.939l-3.72-3.72Z"/>
  <path fill-rule="evenodd" d="M13 12c0 .339-.056.664-.16.968-.418.43-.777.918-1.065 1.45A3 3 0 1 1 13 12Zm-1.5 0a1.5 1.5 0 1 1-3 0 1.5 1.5 0 0 1 3 0ZM23 17.5a5.5 5.5 0 1 1-11 0 5.5 5.5 0 0 1 11 0ZM17.5 14a.5.5 0 0 1 .5.5V17h2.5a.5.5 0 0 1 0 1H18v2.5a.5.5 0 0 1-1 0V18h-2.5a.5.5 0 1 1 0-1H17v-2.5a.5.5 0 0 1 .5-.5Z" clip-rule="evenodd"/>
</svg>
