<svg xmlns="http://www.w3.org/2000/svg" width="24" height="24" fill="currentColor" viewBox="0 0 24 24">
  <path d="M12.75 2.75a.75.75 0 0 0-1.5 0V5a.75.75 0 0 0 1.5 0V2.75Zm6.321 3.24a.75.75 0 0 0-1.06-1.061l-1.592 1.59a.75.75 0 1 0 1.061 1.062l1.591-1.591Zm2.179 6.76a.75.75 0 0 0 0-1.5H19a.75.75 0 0 0 0 1.5h2.25Zm-3.24 6.321a.75.75 0 0 0 1.061-1.06l-1.59-1.591a.75.75 0 1 0-1.062 1.06l1.591 1.591Zm-6.76 2.179a.75.75 0 0 0 1.5 0V19a.75.75 0 0 0-1.5 0v2.25Zm-6.321-3.24a.75.75 0 0 0 1.06 1.061l1.592-1.59a.75.75 0 1 0-1.061-1.062L4.929 18.01ZM2.75 11.25a.75.75 0 0 0 0 1.5H5a.75.75 0 0 0 0-1.5H2.75Zm3.24-6.321a.75.75 0 0 0-1.061 1.06l1.59 1.592A.75.75 0 0 0 7.582 6.52L5.99 4.929Z"/>
  <path fill-rule="evenodd" d="M17 12a5 5 0 1 1-10 0 5 5 0 0 1 10 0Zm-8 0a.75.75 0 0 1 .75-.75h1.5v-1.5a.75.75 0 0 1 1.5 0v1.5h1.5a.75.75 0 0 1 0 1.5h-1.5v1.5a.75.75 0 0 1-1.5 0v-1.5h-1.5A.75.75 0 0 1 9 12Z" clip-rule="evenodd"/>
</svg>
