<svg xmlns="http://www.w3.org/2000/svg" width="24" height="24" fill="currentColor" viewBox="0 0 24 24">
  <path d="M9.25 2a.75.75 0 0 1 .75.75v1.591a5.99 5.99 0 0 1 2-.34c.701 0 1.375.12 2 .34v-1.59a.75.75 0 0 1 1.5 0v2.375A6.024 6.024 0 0 1 17.456 7.5h2.796a.75.75 0 0 1 0 1.5H3.747a.75.75 0 0 1 0-1.5h2.797A6.024 6.024 0 0 1 8.5 5.126V2.751A.75.75 0 0 1 9.25 2ZM2.997 12.25a.75.75 0 0 1 .75-.75H6v-1h5.25v10.454A6.006 6.006 0 0 1 6.342 17H3.766a.75.75 0 0 1 0-1.5h2.255A6.083 6.083 0 0 1 6 15v-2H3.746a.75.75 0 0 1-.75-.75Zm9.753-1.75H18v1h2.25a.75.75 0 1 1 0 1.5H18v2c0 .168-.007.335-.02.5h2.27a.75.75 0 1 1 0 1.5h-2.59a6.006 6.006 0 0 1-4.909 3.954V10.5Z"/>
</svg>
