<svg xmlns="http://www.w3.org/2000/svg" width="24" height="24" fill="currentColor" viewBox="0 0 24 24">
  <path fill-rule="evenodd" d="M1 4.75A.75.75 0 0 1 1.75 4h1.326a1.75 1.75 0 0 1 1.622 1.093L5.065 6H20.25a.75.75 0 0 1 .7 1.018l-2.758 7.214A2.75 2.75 0 0 1 15.623 16H9.348A2.75 2.75 0 0 1 6.8 14.282L3.308 5.656a.25.25 0 0 0-.232-.156H1.75A.75.75 0 0 1 1 4.75ZM5.672 7.5l2.517 6.219c.191.472.65.781 1.16.781h6.274c.519 0 .983-.32 1.168-.804l2.37-6.196H5.671Z" clip-rule="evenodd"/>
  <path d="M8.5 17a1.5 1.5 0 1 1 0 3 1.5 1.5 0 0 1 0-3Zm9.5 1.5a1.5 1.5 0 1 0-3 0 1.5 1.5 0 0 0 3 0Z"/>
</svg>
