<svg xmlns="http://www.w3.org/2000/svg" width="24" height="24" fill="currentColor" viewBox="0 0 24 24">
  <path fill-rule="evenodd" d="M6.481 3.005c-.21-1.077-1.751-1.077-1.962 0L3.037 10.56a2.001 2.001 0 0 0-.037.384V20a2 2 0 0 0 2 2h3.5a2 2 0 0 0 2-2v-2.5a1.5 1.5 0 0 1 3 0V20a2 2 0 0 0 2 2H19a2 2 0 0 0 2-2v-9.056c0-.129-.012-.258-.037-.385L19.48 3.005c-.21-1.077-1.751-1.077-1.962 0l-1.482 7.555a1.996 1.996 0 0 0-.037.384v.556l-3.25-3.25v-1.5a.75.75 0 0 0-1.5 0v1.5L8 11.5v-.556a2 2 0 0 0-.037-.384L6.48 3.005ZM6.324 10H4.676L5.5 5.796 6.324 10Zm13 0h-1.648l.824-4.204.824 4.204Z" clip-rule="evenodd"/>
</svg>
