<svg xmlns="http://www.w3.org/2000/svg" width="24" height="24" fill="currentColor" viewBox="0 0 24 24">
  <path fill-rule="evenodd" d="M21 11h-8V3c0-.552.45-1.006.998-.944a9 9 0 0 1 7.947 7.946c.06.549-.393.998-.945.998Zm-1.07-2.87c.183.443.323.902.419 1.37H14.5V3.652a7.499 7.499 0 0 1 5.43 4.478Z" clip-rule="evenodd"/>
  <path fill-rule="evenodd" d="M11 5c0-.552-.45-1.006-.998-.944a9 9 0 1 0 9.943 9.942c.06-.549-.393-.998-.945-.998h-8V5Zm-1.5 9.5h8.849A7.5 7.5 0 1 1 9.5 5.652V14.5Z" clip-rule="evenodd"/>
</svg>
