<svg xmlns="http://www.w3.org/2000/svg" width="24" height="24" fill="currentColor" viewBox="0 0 24 24">
  <path fill-rule="evenodd" d="M11.058 2.78a.75.75 0 0 1 .174.892 2.861 2.861 0 0 0-.294 1.269 2.873 2.873 0 0 0 4.539 2.345c.34-.243.627-.558.835-.923a.75.75 0 0 1 1.265-.058A13.38 13.38 0 0 1 20 14.003a8 8 0 1 1-16 0c0-4.737 2.452-8.9 6.152-11.293a.75.75 0 0 1 .906.07ZM12 20.503l.132-.001a2.5 2.5 0 0 0 2.368-2.497c0-1.255-.692-2.561-1.477-3.617A12.909 12.909 0 0 0 12 13.18c-.284.297-.655.712-1.023 1.208-.785 1.056-1.477 2.362-1.477 3.617a2.5 2.5 0 0 0 2.5 2.498Zm6.5-6.5a6.49 6.49 0 0 1-2.709 5.28c.136-.401.209-.83.209-1.278 0-1.75-.933-3.381-1.773-4.512a14.432 14.432 0 0 0-1.684-1.884l-.033-.029-.009-.008-.003-.002-.001-.002a.751.751 0 0 0-.994 0l-.001.002-.003.002-.01.008-.032.03-.113.105a14.437 14.437 0 0 0-1.57 1.778C8.932 14.623 8 16.256 8 18.005c0 .447.073.877.209 1.278a6.492 6.492 0 0 1-2.709-5.28c0-3.517 1.52-6.679 3.942-8.864a4.372 4.372 0 0 0 7.462 2.897 11.88 11.88 0 0 1 1.596 5.967Z" clip-rule="evenodd"/>
</svg>
