<svg xmlns="http://www.w3.org/2000/svg" width="24" height="24" fill="currentColor" viewBox="0 0 24 24">
  <path d="M12 2.75a.75.75 0 0 0-.75.75v1a.75.75 0 0 0 1.5 0v-1a.75.75 0 0 0-.75-.75ZM3.463 17.943A.75.75 0 0 1 3 17.25V6.75a.75.75 0 0 1 1.28-.53l5.25 5.25a.75.75 0 0 1 0 1.06l-5.25 5.25a.75.75 0 0 1-.817.163ZM11.25 7.5a.75.75 0 0 1 1.5 0v1a.75.75 0 0 1-1.5 0v-1Zm1.5 9a.75.75 0 0 1-1.5 0v-1a.75.75 0 0 1 1.5 0v1ZM12 21.25a.75.75 0 0 0 .75-.75v-1a.75.75 0 0 0-1.5 0v1c0 .414.336.75.75.75Zm8.537-3.307A.75.75 0 0 0 21 17.25V6.75a.75.75 0 0 0-1.28-.53l-5.25 5.25a.75.75 0 0 0 0 1.06l5.25 5.25a.75.75 0 0 0 .817.163ZM12 10.75a.75.75 0 0 0-.75.75v1a.75.75 0 0 0 1.5 0v-1a.75.75 0 0 0-.75-.75Z"/>
</svg>
