<svg xmlns="http://www.w3.org/2000/svg" width="24" height="24" fill="currentColor" viewBox="0 0 24 24">
  <path fill-rule="evenodd" d="M10.5 19a2 2 0 0 1-2 2H5a2 2 0 0 1-2-2V8.978A2 2 0 0 1 3.772 7.4l7-5.444a2 2 0 0 1 2.456 0l7 5.444A2 2 0 0 1 21 8.98V19a2 2 0 0 1-2 2h-3.5a2 2 0 0 1-2-2v-6h-3v6ZM9 13a1.5 1.5 0 0 1 1.5-1.5h3A1.5 1.5 0 0 1 15 13v6a.5.5 0 0 0 .5.5H19a.5.5 0 0 0 .5-.5V8.978a.5.5 0 0 0-.193-.395l-7-5.444a.5.5 0 0 0-.614 0l-7 5.444a.5.5 0 0 0-.193.395V19a.5.5 0 0 0 .5.5h3.5A.5.5 0 0 0 9 19v-6Z" clip-rule="evenodd"/>
</svg>
