<svg xmlns="http://www.w3.org/2000/svg" width="24" height="24" fill="currentColor" viewBox="0 0 24 24">
  <path fill-rule="evenodd" d="M12.75 15.997a73.844 73.844 0 0 0 5.104-.193c1.61-.123 2.85-1.338 2.995-2.946a37.571 37.571 0 0 0 0-6.716c-.145-1.608-1.385-2.823-2.995-2.946C16.49 3.091 14.564 3 12 3c-2.565 0-4.49.091-5.854.196-1.61.123-2.85 1.338-2.995 2.946a37.599 37.599 0 0 0 0 6.716c.145 1.608 1.385 2.822 2.995 2.946 1.228.094 2.91.178 5.104.193v5.253a.75.75 0 0 0 1.5 0v-5.253ZM6.261 4.692C7.584 4.59 9.471 4.5 12 4.5c2.53 0 4.416.09 5.739.192.886.068 1.537.712 1.616 1.584a36.106 36.106 0 0 1 0 6.448c-.079.872-.73 1.517-1.616 1.584-1.323.102-3.21.192-5.739.192-2.53 0-4.416-.09-5.739-.192-.886-.067-1.537-.712-1.616-1.584a36.105 36.105 0 0 1 0-6.448c.079-.872.73-1.516 1.616-1.584Z" clip-rule="evenodd"/>
</svg>
