<svg xmlns="http://www.w3.org/2000/svg" width="24" height="24" fill="currentColor" viewBox="0 0 24 24">
  <path d="m13.449 8.997.022.016 8.291 4.765a10.022 10.022 0 0 1-3.365 5.854A9.938 9.938 0 0 1 11.962 22a9.878 9.878 0 0 1-7.044-2.929A9.956 9.956 0 0 1 2 12.001a9.957 9.957 0 0 1 2.918-7.072A9.875 9.875 0 0 1 11.962 2a9.87 9.87 0 0 1 5.652 1.766 9.986 9.986 0 0 1 3.857 5.256l-1.771 1.03a7.878 7.878 0 0 0-.219-.724c-1.128-3.192-4.15-5.337-7.52-5.337-4.4 0-7.979 3.593-7.979 8.01 0 4.415 3.58 8.009 7.98 8.009 1.71 0 3.34-.537 4.716-1.554a8.001 8.001 0 0 0 2.859-3.947l.005-.035L9.873 8.92v6.021l3.334-1.928 1.716.984-4.997 2.89-1.766-1.01V7.995l1.764-1.02 3.526 2.023-.001-.001Z"/>
</svg>
