<svg width="24" height="24" viewBox="0 0 24 24" fill="none" xmlns="http://www.w3.org/2000/svg">
<path d="M6.03846 3H17.9621C19.7694 3 21.2311 4.4616 21.2311 6.2688V17.7312C21.2311 19.5384 19.7694 21 17.9621 21H6.03846C4.23119 21 2.76953 19.5384 2.76953 17.7312V6.2688C2.76953 4.4616 4.23119 3 6.03846 3Z" fill="#00005B"/>
<path d="M10.0198 13.7712H7.16126L6.57804 15.5856C6.56364 15.6576 6.49883 15.7008 6.43403 15.6936H4.98677C4.90037 15.6936 4.87877 15.6504 4.90037 15.5568L7.37727 8.44323C7.39887 8.36403 7.42047 8.28483 7.45647 8.19123C7.49247 8.03283 7.52127 7.86723 7.52127 7.70163C7.51407 7.66563 7.54288 7.62243 7.58608 7.61523C7.59328 7.61523 7.60048 7.61523 7.60768 7.61523H9.58056C9.63096 7.61523 9.67416 7.63683 9.68136 7.68003L12.4751 15.5712C12.4967 15.6576 12.4751 15.6936 12.3959 15.6936H10.7902C10.7398 15.7008 10.6822 15.6648 10.6678 15.6072L10.0198 13.7712ZM7.60768 12.2376H9.55896C9.51575 12.0792 9.45095 11.8848 9.37895 11.6832C9.30695 11.4744 9.24214 11.2512 9.17014 11.0208C9.09094 10.7832 9.02613 10.5528 8.94693 10.3152C8.86773 10.0776 8.80293 9.85443 8.73812 9.63123C8.67332 9.41523 8.62292 9.21363 8.56532 9.03363H8.55092C8.47891 9.36483 8.39971 9.69603 8.2917 10.0272C8.1765 10.3944 8.0613 10.7832 7.93889 11.1648C7.84529 11.5536 7.72288 11.9136 7.60768 12.2376Z" fill="#9999FF"/>
<path d="M18.3726 9.63135V14.3473C18.3726 14.5561 18.3726 14.7361 18.3798 14.9017C18.387 15.0601 18.3942 15.2041 18.4014 15.3265C18.4158 15.4489 18.423 15.5209 18.4302 15.6001C18.4374 15.6721 18.4086 15.7009 18.3438 15.7009H17.0261C16.9613 15.7081 16.9037 15.6721 16.8821 15.6145C16.8677 15.5497 16.8533 15.4849 16.8389 15.4201C16.8245 15.3697 16.8245 15.3121 16.8245 15.2617C16.5797 15.4849 16.2773 15.6433 15.9533 15.7369C15.6797 15.8161 15.3844 15.8521 15.0964 15.8521C14.8084 15.8521 14.5276 15.8161 14.2612 15.7225C14.0164 15.6361 13.786 15.4921 13.606 15.2977C13.4044 15.0817 13.2604 14.8297 13.174 14.5489C13.0659 14.1961 13.0155 13.8289 13.0227 13.4545V9.63855C13.0155 9.59535 13.0443 9.54495 13.102 9.53775C13.1092 9.53775 13.1164 9.53775 13.1236 9.53775H14.5924C14.6356 9.53055 14.686 9.55935 14.6932 9.61695C14.6932 9.62415 14.6932 9.63135 14.6932 9.63855V13.2529C14.6932 13.5913 14.7724 13.8577 14.9164 14.0521C15.0604 14.2465 15.3628 14.3473 15.7085 14.3473C15.8885 14.3473 16.0613 14.3185 16.2341 14.2537C16.4141 14.1889 16.5725 14.1097 16.7165 14.0017V9.63135C16.7165 9.58095 16.7525 9.54495 16.8245 9.54495H18.2934C18.3294 9.53775 18.3798 9.56655 18.3798 9.60975C18.3726 9.61695 18.3726 9.62415 18.3726 9.63135Z" fill="#9999FF"/>
</svg>
