<svg width="24" height="24" viewBox="0 0 24 24" fill="none" xmlns="http://www.w3.org/2000/svg">
<path d="M6.03876 3H17.9618C19.7695 3 21.2311 4.46154 21.2311 6.26923V17.7308C21.2311 19.5385 19.7695 21 17.9618 21H6.03876C4.23107 21 2.76953 19.5385 2.76953 17.7308V6.26923C2.76953 4.46154 4.23107 3 6.03876 3Z" fill="#00005B"/>
<path d="M11.5991 14.1769V15.4538C11.6068 15.5307 11.5683 15.6 11.4991 15.6307C11.2606 15.7153 11.0222 15.7692 10.7683 15.8C10.4453 15.8384 10.1222 15.8538 9.7991 15.8538C9.33757 15.8538 8.87603 15.8 8.42987 15.6846C8.01449 15.5769 7.61449 15.4077 7.24526 15.1769C6.89141 14.9538 6.58372 14.6692 6.32987 14.3384C6.06834 13.9923 5.86064 13.6 5.73757 13.1846C5.59141 12.7 5.52218 12.2 5.52987 11.7C5.52987 10.8692 5.71449 10.1307 6.07603 9.49996C6.43757 8.86919 6.97603 8.35381 7.62218 8.02304C8.36064 7.64612 9.18372 7.45381 10.0145 7.46919C10.3376 7.46919 10.653 7.48458 10.976 7.51535C11.1991 7.53842 11.4145 7.59227 11.6299 7.6615C11.676 7.69996 11.6991 7.75381 11.6914 7.80765V9.19996C11.6914 9.27688 11.6606 9.29996 11.6068 9.27689C11.376 9.16919 11.1222 9.09227 10.8683 9.05381C10.5683 9.00765 10.2683 8.98458 9.96064 8.98458C9.46064 8.97689 8.96833 9.09227 8.53757 9.33073C8.15295 9.54612 7.82987 9.8615 7.62218 10.2538C7.3991 10.6846 7.29141 11.1615 7.2991 11.6461C7.29141 11.9923 7.34526 12.3307 7.45295 12.6615C7.54526 12.9384 7.69141 13.1923 7.88372 13.4153C8.05295 13.623 8.26834 13.7923 8.4991 13.923C8.72987 14.0461 8.97603 14.1384 9.23757 14.2C9.48372 14.2692 9.74526 14.3077 9.9991 14.3153C10.276 14.3153 10.5606 14.3077 10.8376 14.2769C11.0683 14.2461 11.2914 14.1923 11.5068 14.1077C11.5376 14.0846 11.5606 14.0769 11.5837 14.0923C11.5991 14.1153 11.6068 14.1461 11.5991 14.1769Z" fill="#9999FF"/>
<path d="M14.4457 11.2537V15.5922C14.4457 15.6614 14.415 15.6922 14.3611 15.6922H12.815C12.7611 15.6999 12.715 15.6614 12.7073 15.6075C12.7073 15.5999 12.7073 15.5922 12.7073 15.5768V7.03063C12.7073 6.97678 12.738 6.94601 12.8073 6.94601H14.3688C14.4073 6.93832 14.4534 6.96909 14.4534 7.00755C14.4534 7.01524 14.4534 7.02293 14.4534 7.03063L14.4611 9.9537C14.6842 9.80755 14.9226 9.68447 15.1765 9.59216C15.438 9.49986 15.738 9.47678 16.0842 9.47678C16.3303 9.47678 16.5765 9.51524 16.8073 9.58447C17.0534 9.6537 17.2842 9.77678 17.4842 9.94601C17.6919 10.1306 17.838 10.3845 17.9611 10.6999C18.0842 11.0152 18.1457 11.4306 18.1457 11.9306V15.5768C18.1457 15.6537 18.115 15.6845 18.0457 15.6845H16.5919C16.5303 15.6922 16.4765 15.6537 16.4688 15.5922C16.4688 15.5845 16.4688 15.5691 16.4688 15.5614V12.0999C16.4765 11.8768 16.438 11.6537 16.3534 11.446C16.2842 11.2922 16.1765 11.1537 16.0303 11.0537C15.8611 10.9537 15.6611 10.9075 15.4611 10.9152C15.2765 10.9152 15.0919 10.9383 14.915 10.9922C14.7457 11.0614 14.5842 11.146 14.4457 11.2537Z" fill="#9999FF"/>
</svg>
