<svg width="24" height="24" viewBox="0 0 24 24" fill="none" xmlns="http://www.w3.org/2000/svg">
<path d="M19.6239 5.00577C18.2217 4.36238 16.7181 3.88835 15.1459 3.61686C15.1173 3.61162 15.0887 3.62472 15.0739 3.65091C14.8805 3.99485 14.6663 4.44356 14.5163 4.79624C12.8254 4.54309 11.1431 4.54309 9.4868 4.79624C9.33676 4.43572 9.11478 3.99485 8.92053 3.65091C8.90578 3.62559 8.87718 3.6125 8.84855 3.61686C7.27725 3.88749 5.7736 4.36151 4.37052 5.00577C4.35838 5.011 4.34797 5.01974 4.34106 5.03108C1.48894 9.29208 0.707629 13.4483 1.09092 17.5531C1.09265 17.5732 1.10392 17.5924 1.11953 17.6046C3.00127 18.9865 4.82407 19.8254 6.61301 20.3815C6.64164 20.3902 6.67197 20.3798 6.69019 20.3562C7.11337 19.7783 7.49059 19.169 7.81402 18.5282C7.83311 18.4907 7.81489 18.4461 7.77588 18.4313C7.17754 18.2043 6.6078 17.9276 6.05975 17.6133C6.0164 17.588 6.01293 17.526 6.05281 17.4963C6.16814 17.4099 6.2835 17.32 6.39363 17.2292C6.41355 17.2126 6.44131 17.2091 6.46474 17.2196C10.0652 18.8634 13.9631 18.8634 17.521 17.2196C17.5445 17.2082 17.5722 17.2117 17.593 17.2283C17.7032 17.3191 17.8185 17.4099 17.9347 17.4963C17.9746 17.526 17.972 17.588 17.9286 17.6133C17.3806 17.9337 16.8108 18.2043 16.2116 18.4304C16.1726 18.4453 16.1553 18.4907 16.1744 18.5282C16.5047 19.1681 16.882 19.7774 17.2973 20.3553C17.3147 20.3798 17.3459 20.3902 17.3745 20.3815C19.1721 19.8254 20.9949 18.9865 22.8766 17.6046C22.8931 17.5924 22.9035 17.574 22.9053 17.5539C23.364 12.8084 22.137 8.68624 19.6525 5.03195C19.6465 5.01974 19.6361 5.011 19.6239 5.00577ZM8.35169 15.0537C7.26771 15.0537 6.37454 14.0586 6.37454 12.8364C6.37454 11.6142 7.25039 10.619 8.35169 10.619C9.46163 10.619 10.3462 11.6229 10.3288 12.8364C10.3288 14.0586 9.45296 15.0537 8.35169 15.0537ZM15.6619 15.0537C14.5779 15.0537 13.6847 14.0586 13.6847 12.8364C13.6847 11.6142 14.5606 10.619 15.6619 10.619C16.7718 10.619 17.6563 11.6229 17.639 12.8364C17.639 14.0586 16.7718 15.0537 15.6619 15.0537Z" fill="#5865F2"/>
</svg>
