<svg xmlns="http://www.w3.org/2000/svg" width="24" height="24" fill="currentColor" viewBox="0 0 24 24">
  <path d="M9.625 6.782c-1.04 0-1.89-.85-1.89-1.891 0-1.04.85-1.891 1.89-1.891 1.041 0 1.891.85 1.891 1.89v1.892h-1.89ZM4.89 16.265c1.042 0 1.892-.85 1.892-1.89v-1.891H4.89c-1.04 0-1.891.85-1.891 1.89 0 1.041.85 1.891 1.89 1.891Zm4.735-3.781c-1.04 0-1.89.85-1.89 1.89v4.735c0 1.04.85 1.891 1.89 1.891 1.041 0 1.891-.85 1.891-1.89v-4.735c0-1.041-.85-1.891-1.89-1.891Zm1.891-2.859c0-1.04-.85-1.89-1.89-1.89H4.89c-1.04 0-1.89.85-1.89 1.89 0 1.041.85 1.891 1.89 1.891h4.735c1.041 0 1.891-.85 1.891-1.89Zm5.702 0c0-1.04.85-1.89 1.891-1.89 1.04 0 1.891.85 1.891 1.89 0 1.041-.85 1.891-1.89 1.891h-1.892v-1.89Zm-2.843 1.891c1.04 0 1.89-.85 1.89-1.89V4.89c0-1.04-.85-1.891-1.89-1.891-1.041 0-1.891.85-1.891 1.89v4.735c0 1.041.85 1.891 1.89 1.891Zm0 5.702c1.04 0 1.89.85 1.89 1.891 0 1.04-.85 1.891-1.89 1.891a1.895 1.895 0 0 1-1.891-1.89v-1.892h1.89Zm-1.891-2.843c0 1.04.85 1.89 1.89 1.89h4.735c1.04 0 1.891-.85 1.891-1.89 0-1.041-.85-1.891-1.89-1.891h-4.735c-1.041 0-1.891.85-1.891 1.89Z"/>
</svg>
