<svg width="24" height="24" viewBox="0 0 24 24" fill="none" xmlns="http://www.w3.org/2000/svg">
<path d="M8.87551 21.3758C10.6007 21.3758 12.0008 19.9757 12.0008 18.2505V15.1253H8.87551C7.15035 15.1253 5.75022 16.5254 5.75022 18.2505C5.75022 19.9757 7.15035 21.3758 8.87551 21.3758Z" fill="#0ACF83"/>
<path d="M5.75022 11.9998C5.75022 10.2746 7.15035 8.87452 8.87551 8.87452H12.0008V15.1253H8.87551C7.15035 15.1253 5.75022 13.725 5.75022 11.9998Z" fill="#A259FF"/>
<path d="M5.75 5.74932C5.75 4.02416 7.15013 2.62403 8.87529 2.62403H12.0006L12.0008 8.87452H8.87551C7.15035 8.87452 5.75 7.47448 5.75 5.74932Z" fill="#F24E1E"/>
<path d="M12.0006 2.62403L15.1262 2.62402C16.8514 2.62402 18.2515 4.02415 18.2515 5.74931C18.2515 7.47447 16.8514 8.8746 15.1262 8.8746L12.0008 8.87452L12.0006 2.62403Z" fill="#FF7262"/>
<path d="M18.2515 11.9998C18.2515 13.725 16.8514 15.1251 15.1262 15.1251C13.4011 15.1251 12.001 13.725 12.001 11.9998C12.001 10.2746 13.4011 8.8746 15.1262 8.8746C16.8514 8.8746 18.2515 10.2746 18.2515 11.9998Z" fill="#1ABCFE"/>
</svg>
