<svg xmlns="http://www.w3.org/2000/svg" width="24" height="24" fill="currentColor" viewBox="0 0 24 24">
  <path fill-rule="evenodd" d="M16 4.5H8v15h3.313c.173.534.412 1.037.709 1.5H5a2 2 0 0 1-2-2V5a2 2 0 0 1 2-2h14a2 2 0 0 1 2 2v7.022a6.471 6.471 0 0 0-1.5-.709V5a.5.5 0 0 0-.5-.5h-1.5V11a6.52 6.52 0 0 0-1.5.174V4.5Zm-11 0h1.5v15H5a.5.5 0 0 1-.5-.5V5a.5.5 0 0 1 .5-.5Z" clip-rule="evenodd"/>
  <path fill-rule="evenodd" d="M17.5 23a5.5 5.5 0 1 0 0-11 5.5 5.5 0 0 0 0 11Zm-3-6a.5.5 0 1 0 0 1h6a.5.5 0 0 0 0-1h-6Z" clip-rule="evenodd"/>
</svg>
