<svg xmlns="http://www.w3.org/2000/svg" width="24" height="24" fill="currentColor" viewBox="0 0 24 24">
  <path d="m4.713 16.419-1.075 3.943 3.943-1.075.52.268a8.45 8.45 0 0 0 3.629.94 6.532 6.532 0 0 0 1.05 1.475 9.958 9.958 0 0 1-5.37-1.082L3.19 22.04a1 1 0 0 1-1.228-1.228l1.152-4.224A9.957 9.957 0 0 1 2 12C2 6.477 6.477 2 12 2s10 4.477 10 10c0 .263-.01.523-.03.78a6.52 6.52 0 0 0-1.474-1.05 8.5 8.5 0 1 0-16.051 4.169l.268.52Z"/>
  <path fill-rule="evenodd" d="M23 17.5a5.5 5.5 0 1 1-11 0 5.5 5.5 0 0 1 11 0Zm-3-2a.5.5 0 0 0-.5-.5h-2.828a.5.5 0 0 0 0 1h1.62l-3.146 3.147a.5.5 0 0 0 .707.707L19 16.707v1.621a.5.5 0 1 0 1 0V15.5Z" clip-rule="evenodd"/>
</svg>
