<svg xmlns="http://www.w3.org/2000/svg" width="24" height="24" fill="currentColor" viewBox="0 0 24 24">
  <path d="m4.713 16.419-1.075 3.943 3.943-1.075.52.268a8.43 8.43 0 0 0 3.629.94 6.532 6.532 0 0 0 1.05 1.475 9.958 9.958 0 0 1-5.369-1.082L3.189 22.04a1 1 0 0 1-1.228-1.228l1.152-4.224A9.957 9.957 0 0 1 2 12C2 6.477 6.477 2 12 2s10 4.477 10 10c0 .263-.01.523-.03.781a6.52 6.52 0 0 0-1.474-1.051A8.5 8.5 0 0 0 3.5 12c0 1.409.341 2.733.945 3.899l.268.52Z"/>
  <path fill-rule="evenodd" d="M17.5 23a5.5 5.5 0 1 0 0-11 5.5 5.5 0 0 0 0 11Zm-2.354-7.146 2 2a.5.5 0 0 0 .708 0l2-2a.5.5 0 0 0-.708-.708L17.5 16.793l-1.646-1.647a.5.5 0 0 0-.708.708ZM15.5 20a.5.5 0 0 1 0-1h4a.5.5 0 0 1 0 1h-4Z" clip-rule="evenodd"/>
</svg>
