<svg xmlns="http://www.w3.org/2000/svg" width="24" height="24" fill="currentColor" viewBox="0 0 24 24">
  <path d="M6.499 4a.75.75 0 1 0-1.5 0v4.25c0 .414.336.75.75.75h4.25a.75.75 0 0 0 0-1.5h-2.69a6.5 6.5 0 0 1 9.286-.096.75.75 0 0 0 1.06-1.06A8 8 0 0 0 6.5 6.19V4Zm-1.001 7.982a.75.75 0 0 0-1.5-.002 8.05 8.05 0 0 0 .442 2.643.75.75 0 0 0 1.418-.49 6.548 6.548 0 0 1-.36-2.15Zm14.06-2.605a.75.75 0 1 0-1.418.49 6.553 6.553 0 0 1 .36 2.15.75.75 0 1 0 1.5.003 8.045 8.045 0 0 0-.442-2.643ZM7.39 16.585a.75.75 0 0 0-1.062 1.059 8.044 8.044 0 0 0 2.181 1.555.75.75 0 0 0 .655-1.349 6.541 6.541 0 0 1-1.774-1.265Zm11.808-1.095a.75.75 0 1 0-1.349-.655 6.543 6.543 0 0 1-1.265 1.773.75.75 0 0 0 1.058 1.063 8.042 8.042 0 0 0 1.556-2.181Zm-7.216 3.011a.75.75 0 0 0-.003 1.5 8.044 8.044 0 0 0 2.643-.442.75.75 0 1 0-.49-1.418 6.551 6.551 0 0 1-2.15.36Z"/>
</svg>
