<svg xmlns="http://www.w3.org/2000/svg" width="24" height="24" fill="currentColor" viewBox="0 0 24 24">
  <path d="M16.57 2.359c.333-.844 1.528-.844 1.86 0l.909 2.303 2.303.908c.844.333.844 1.527 0 1.86l-2.303.908-.909 2.303c-.332.844-1.527.844-1.86 0l-.908-2.303-2.303-.908c-.844-.333-.844-1.527 0-1.86l2.303-.909.908-2.302Zm0 11c.333-.844 1.528-.844 1.86 0l.909 2.303 2.303.908c.844.333.844 1.527 0 1.86l-2.303.909-.909 2.302c-.332.844-1.527.844-1.86 0l-.908-2.302-2.303-.909c-.844-.333-.844-1.527 0-1.86l2.303-.909.908-2.302Zm-7.64-7c-.332-.844-1.527-.844-1.86 0L5.737 9.737 2.36 11.07c-.844.333-.844 1.527 0 1.86l3.378 1.333L7.07 17.64c.333.844 1.528.844 1.86 0l1.333-3.378 3.379-1.333c.844-.333.844-1.527 0-1.86l-3.379-1.333L8.93 6.36Z"/>
</svg>
