<svg xmlns="http://www.w3.org/2000/svg" width="24" height="24" fill="currentColor" viewBox="0 0 24 24">
  <path d="M8.75 9.75a1.25 1.25 0 1 1-2.5 0 1.25 1.25 0 0 1 2.5 0ZM7.5 15.5a1.25 1.25 0 1 0 0-2.5 1.25 1.25 0 0 0 0 2.5Zm5.75-5.75a1.25 1.25 0 1 1-2.5 0 1.25 1.25 0 0 1 2.5 0ZM12 15.5a1.25 1.25 0 1 0 0-2.5 1.25 1.25 0 0 0 0 2.5Zm5.75-5.75a1.25 1.25 0 1 1-2.5 0 1.25 1.25 0 0 1 2.5 0ZM16.5 15.5a1.25 1.25 0 1 0 0-2.5 1.25 1.25 0 0 0 0 2.5Z"/>
  <path fill-rule="evenodd" d="M4 4a2 2 0 0 0-2 2v12a2 2 0 0 0 2 2h16a2 2 0 0 0 2-2V6a2 2 0 0 0-2-2H4Zm16 1.5H4a.5.5 0 0 0-.5.5v12a.5.5 0 0 0 .5.5h16a.5.5 0 0 0 .5-.5V6a.5.5 0 0 0-.5-.5Z" clip-rule="evenodd"/>
</svg>
