<svg xmlns="http://www.w3.org/2000/svg" width="24" height="24" fill="currentColor" viewBox="0 0 24 24">
  <path fill-rule="evenodd" d="M10 12.758V5.5a2.5 2.5 0 0 0-5 0v7.258a4.5 4.5 0 1 0 5 0Zm-3.5.8-.666.446a3 3 0 1 0 3.331 0L8.5 13.56V5.5a1 1 0 0 0-2 0v8.059Z" clip-rule="evenodd"/>
  <path d="M14.75 14a.75.75 0 0 0 0 1.5h2.5a.75.75 0 0 0 0-1.5h-2.5Zm5.5-1.5a.75.75 0 0 0 0-1.5h-7.5a.75.75 0 0 0 0 1.5h7.5Zm-3-4.5h-4.5a.75.75 0 0 0 0 1.5h4.5a.75.75 0 0 0 0-1.5Zm-4.5-3h7.5a.75.75 0 0 1 0 1.5h-7.5a.75.75 0 0 1 0-1.5Z"/>
</svg>
