<svg xmlns="http://www.w3.org/2000/svg" width="24" height="24" fill="currentColor" viewBox="0 0 24 24">
  <path d="M10.88 2.063a10 10 0 0 1 2.24 0 .75.75 0 0 1-.168 1.49 8.5 8.5 0 0 0-1.904 0 .753.753 0 0 1-.156.002.752.752 0 0 1-.151.039 8.5 8.5 0 0 0 .3 16.852h.007a8.499 8.499 0 0 0 1.904 0 .75.75 0 1 1 .168 1.491 9.99 9.99 0 0 1-2.24 0h-.008a9.999 9.999 0 0 1-2.863-.768l-.008-.003c-.342-.15-.676-.318-1.001-.506l-.008-.005A9.999 9.999 0 0 1 10.518 2.11a.752.752 0 0 1 .184-.005.751.751 0 0 1 .178-.042Zm4.131 1.159A.75.75 0 0 1 16 2.834a9.997 9.997 0 0 1 1.94 1.12.75.75 0 0 1-.892 1.207 8.5 8.5 0 0 0-1.648-.952.75.75 0 0 1-.387-.987Zm3.986 2.682a.75.75 0 0 1 1.049.158 10.003 10.003 0 0 1 1.12 1.94.75.75 0 1 1-1.375.599 8.493 8.493 0 0 0-.952-1.648.75.75 0 0 1 .158-1.05Zm2.111 4.315a.75.75 0 0 1 .829.661 9.993 9.993 0 0 1 0 2.24.75.75 0 0 1-1.49-.168 8.5 8.5 0 0 0 0-1.904.75.75 0 0 1 .66-.829Zm-.33 4.793a.75.75 0 0 1 .388.987 10.003 10.003 0 0 1-1.12 1.94.75.75 0 0 1-1.207-.892 8.521 8.521 0 0 0 .952-1.648.75.75 0 0 1 .987-.387Zm-2.682 3.985a.75.75 0 0 1-.158 1.049 10.001 10.001 0 0 1-1.94 1.12.75.75 0 1 1-.599-1.375 8.495 8.495 0 0 0 1.648-.952.75.75 0 0 1 1.05.158Z"/>
  <path d="M12 5a.75.75 0 0 1 .75.75v5.94l3.03 3.03a.75.75 0 1 1-1.06 1.06l-3.25-3.25a.75.75 0 0 1-.22-.53V5.75A.75.75 0 0 1 12 5Z"/>
</svg>
