<svg xmlns="http://www.w3.org/2000/svg" width="24" height="24" fill="currentColor" viewBox="0 0 24 24">
  <path d="M11.6 1.534a.5.5 0 0 1 .8 0l2 2.666a.5.5 0 0 1-.4.8h-1.25v7.787l4.362-2.181a.25.25 0 0 0 .138-.224V9H17a1 1 0 0 1-1-1V6a1 1 0 0 1 1-1h2a1 1 0 0 1 1 1v2a1 1 0 0 1-1 1h-.25v1.382a1.75 1.75 0 0 1-.967 1.565l-5.033 2.517v3.682a2 2 0 1 1-1.5 0v-1.682l-5.033-2.517a1.75 1.75 0 0 1-.967-1.565v-1.527a2 2 0 1 1 1.5 0v1.527a.25.25 0 0 0 .138.224l4.362 2.18V5H10a.5.5 0 0 1-.4-.8l2-2.667Z"/>
</svg>
