<svg xmlns="http://www.w3.org/2000/svg" width="24" height="24" fill="currentColor" viewBox="0 0 24 24">
  <path d="M2.75 2a.75.75 0 0 0-.75.75v2.5a.75.75 0 0 0 1.5 0V3.5h1.75a.75.75 0 0 0 0-1.5h-2.5ZM2 18.75v2.5a.75.75 0 0 0 .75.75h2.5a.75.75 0 0 0 0-1.5H3.5v-1.75a.75.75 0 0 0-1.5 0Zm20-13.5v-2.5a.75.75 0 0 0-.75-.75h-2.5a.75.75 0 0 0 0 1.5h1.75v1.75a.75.75 0 0 0 1.5 0Zm-11-.755a2 2 0 0 1 2 0l5 2.886a2 2 0 0 1 .23.156L12 11.134 5.77 7.537c.072-.057.149-.109.23-.156l5-2.886Zm7.98 4.341-6.23 3.597v.63A6.482 6.482 0 0 1 17.5 11c.516 0 1.018.06 1.5.174v-2.06c0-.094-.006-.187-.02-.278Zm-7.73 3.597v3.276c-.163.569-.25 1.17-.25 1.791s.087 1.222.25 1.791v.337a2.01 2.01 0 0 1-.25-.122l-5-2.887a2 2 0 0 1-1-1.732V9.113c0-.093.007-.186.02-.277l6.23 3.597Z"/>
  <path fill-rule="evenodd" d="M17.5 23a5.5 5.5 0 1 0 0-11 5.5 5.5 0 0 0 0 11Zm2.854-6.646a.5.5 0 0 0-.708-.708L16.5 18.793l-1.646-1.647a.5.5 0 0 0-.708.708l2 2a.5.5 0 0 0 .708 0l3.5-3.5Z" clip-rule="evenodd"/>
</svg>
