<svg xmlns="http://www.w3.org/2000/svg" width="24" height="24" fill="currentColor" viewBox="0 0 24 24">
  <path d="M2.75 2a.75.75 0 0 0-.75.75v2.5a.75.75 0 0 0 1.5 0V3.5h1.75a.75.75 0 0 0 0-1.5h-2.5ZM2 18.75v2.5a.75.75 0 0 0 .75.75h2.5a.75.75 0 0 0 0-1.5H3.5v-1.75a.75.75 0 0 0-1.5 0ZM21.25 22h-2.5a.75.75 0 0 1 0-1.5h1.75v-1.75a.75.75 0 0 1 1.5 0v2.5a.75.75 0 0 1-.75.75ZM22 5.25v-2.5a.75.75 0 0 0-.75-.75h-2.5a.75.75 0 0 0 0 1.5h1.75v1.75a.75.75 0 0 0 1.5 0Z"/>
  <path fill-rule="evenodd" d="M13 4.494a2 2 0 0 0-2 0L6 7.381a2 2 0 0 0-1 1.732v5.774a2 2 0 0 0 1 1.732l5 2.887a2 2 0 0 0 2 0l5-2.887a2 2 0 0 0 1-1.732V9.113a2 2 0 0 0-1-1.732l-5-2.887Zm3.75 3.898-4.5-2.598a.5.5 0 0 0-.5 0l-4.5 2.598L12 11.134l4.75-2.742Zm.75 1.299-4.75 2.742v5.485l4.5-2.598a.5.5 0 0 0 .25-.433V9.69Zm-6.25 8.227v-5.485L6.5 9.691v5.196a.5.5 0 0 0 .25.433l4.5 2.598Z" clip-rule="evenodd"/>
</svg>
