<svg width="24" height="24" viewBox="0 0 24 24" fill="currentColor" xmlns="http://www.w3.org/2000/svg"><path fill-rule="evenodd" clip-rule="evenodd" d="M22 12C22 17.5228 17.5228 22 12 22C6.47715 22 2 17.5228 2 12C2 6.47715 6.47715 2 12 2C17.5228 2 22 6.47715 22 12ZM16 9C16 11.2091 14.2091 13 12 13C9.79086 13 8 11.2091 8 9C8 6.79086 9.79086 5 12 5C14.2091 5 16 6.79086 16 9ZM12 20.5C14.8253 20.5 17.3287 19.1215 18.8743 17.0004C17.7851 15.4861 16.0077 14.5 14 14.5H10C7.99229 14.5 6.21488 15.4861 5.12573 17.0005C6.67129 19.1215 9.17466 20.5 12 20.5Z"/></svg>