<svg width="24" height="24" viewBox="0 0 24 24" fill="currentColor" xmlns="http://www.w3.org/2000/svg"><path d="M12.75 2.75C12.75 2.33579 12.4142 2 12 2C11.5858 2 11.25 2.33579 11.25 2.75V5C11.25 5.41421 11.5858 5.75 12 5.75C12.4142 5.75 12.75 5.41421 12.75 5V2.75Z"/><path d="M19.071 5.98956C19.3639 5.69667 19.3639 5.22179 19.071 4.9289C18.7781 4.63601 18.3033 4.63601 18.0104 4.9289L16.4194 6.51989C16.1265 6.81278 16.1265 7.28766 16.4194 7.58055C16.7123 7.87344 17.1872 7.87344 17.4801 7.58055L19.071 5.98956Z"/><path d="M21.25 12.75C21.6642 12.75 22 12.4142 22 12C22 11.5858 21.6642 11.25 21.25 11.25H19C18.5858 11.25 18.25 11.5858 18.25 12C18.25 12.4142 18.5858 12.75 19 12.75H21.25Z"/><path d="M18.0104 19.0711C18.3033 19.364 18.7782 19.364 19.0711 19.0711C19.364 18.7782 19.364 18.3033 19.0711 18.0104L17.4801 16.4195C17.1872 16.1266 16.7123 16.1266 16.4195 16.4195C16.1266 16.7123 16.1266 17.1872 16.4195 17.4801L18.0104 19.0711Z"/><path d="M11.25 21.25C11.25 21.6642 11.5858 22 12 22C12.4142 22 12.75 21.6642 12.75 21.25V19C12.75 18.5858 12.4142 18.25 12 18.25C11.5858 18.25 11.25 18.5858 11.25 19V21.25Z"/><path d="M4.92896 18.0104C4.63607 18.3033 4.63607 18.7782 4.92896 19.0711C5.22185 19.364 5.69673 19.364 5.98962 19.0711L7.58061 17.4801C7.8735 17.1872 7.8735 16.7123 7.58061 16.4195C7.28772 16.1266 6.81284 16.1266 6.51995 16.4195L4.92896 18.0104Z"/><path d="M2.75 11.25C2.33579 11.25 2 11.5858 2 12C2 12.4142 2.33579 12.75 2.75 12.75H5C5.41421 12.75 5.75 12.4142 5.75 12C5.75 11.5858 5.41421 11.25 5 11.25H2.75Z"/><path d="M5.98956 4.9289C5.69667 4.63601 5.22179 4.63601 4.9289 4.9289C4.63601 5.22179 4.63601 5.69667 4.9289 5.98956L6.51989 7.58055C6.81278 7.87344 7.28766 7.87344 7.58055 7.58055C7.87344 7.28766 7.87344 6.81278 7.58055 6.51989L5.98956 4.9289Z"/><path d="M12 9.5C12.4142 9.5 12.75 9.83579 12.75 10.25V11.25H13.75C14.1642 11.25 14.5 11.5858 14.5 12C14.5 12.4142 14.1642 12.75 13.75 12.75H12.75V13.75C12.75 14.1642 12.4142 14.5 12 14.5C11.5858 14.5 11.25 14.1642 11.25 13.75V12.75H10.25C9.83579 12.75 9.5 12.4142 9.5 12C9.5 11.5858 9.83579 11.25 10.25 11.25H11.25V10.25C11.25 9.83579 11.5858 9.5 12 9.5Z"/><path fill-rule="evenodd" clip-rule="evenodd" d="M17 12C17 14.7614 14.7614 17 12 17C9.23858 17 7 14.7614 7 12C7 9.23858 9.23858 7 12 7C14.7614 7 17 9.23858 17 12ZM15.5 12C15.5 13.933 13.933 15.5 12 15.5C10.067 15.5 8.5 13.933 8.5 12C8.5 10.067 10.067 8.5 12 8.5C13.933 8.5 15.5 10.067 15.5 12Z"/></svg>