<svg xmlns="http://www.w3.org/2000/svg" width="24" height="24" fill="currentColor" viewBox="0 0 24 24">
  <path fill-rule="evenodd" d="M10 2.75a.75.75 0 1 0-1.5 0v2.376A6.024 6.024 0 0 0 6.544 7.5H3.747a.75.75 0 0 0 0 1.5h2.336A6.04 6.04 0 0 0 6 10v1.5H3.747a.75.75 0 1 0 0 1.5H6v2c0 .168.007.335.02.5H3.767a.75.75 0 1 0 0 1.5h2.576a6.003 6.003 0 0 0 11.317 0h2.591a.75.75 0 0 0 0-1.5h-2.27a6.37 6.37 0 0 0 .02-.5v-2h2.25a.75.75 0 0 0 0-1.5H18V10c0-.34-.028-.675-.083-1h2.335a.75.75 0 0 0 0-1.5h-2.796A6.024 6.024 0 0 0 15.5 5.126V2.751a.75.75 0 0 0-1.5 0v1.59a5.99 5.99 0 0 0-2-.34 5.99 5.99 0 0 0-2 .34v-1.59ZM7.5 15v-4.5h3.941a.747.747 0 0 0-.19.5v8.438A4.501 4.501 0 0 1 7.5 15Zm9 0c0 2.23-1.622 4.08-3.75 4.438V11a.747.747 0 0 0-.19-.5h3.94V15ZM12 5.5A4.502 4.502 0 0 1 16.39 9H7.612A4.502 4.502 0 0 1 12 5.5Z" clip-rule="evenodd"/>
</svg>
