<svg xmlns="http://www.w3.org/2000/svg" width="24" height="24" fill="currentColor" viewBox="0 0 24 24">
  <path d="M2 2.75A.75.75 0 0 1 2.75 2h2.5a.75.75 0 0 1 0 1.5H3.5v1.75a.75.75 0 0 1-1.5 0v-2.5Zm0 18.5v-2.5a.75.75 0 0 1 1.5 0v1.75h1.75a.75.75 0 0 1 0 1.5h-2.5a.75.75 0 0 1-.75-.75Zm20-18.5v2.5a.75.75 0 0 1-1.5 0V3.5h-1.75a.75.75 0 0 1 0-1.5h2.5a.75.75 0 0 1 .75.75ZM17 6.5h-2v4.998a6.491 6.491 0 0 0-1.5.878V6.5H7a.5.5 0 0 0-.5.5v6.5h5.876a6.52 6.52 0 0 0-.878 1.5H6.5v2a.5.5 0 0 0 .5.5h4c0 .516.06 1.018.174 1.5H7a2 2 0 0 1-2-2V7a2 2 0 0 1 2-2h10a2 2 0 0 1 2 2v4.174A6.52 6.52 0 0 0 17.5 11V7a.5.5 0 0 0-.5-.5Z"/>
  <path fill-rule="evenodd" d="M23 17.5a5.5 5.5 0 1 1-11 0 5.5 5.5 0 0 1 11 0Zm-6.532-2.277a2.5 2.5 0 1 1-.736 4.045.5.5 0 1 0-.707.707A3.5 3.5 0 1 0 15 15.05v-.55a.5.5 0 0 0-1 0v2a.5.5 0 0 0 .5.5h2a.5.5 0 0 0 0-1h-1a2.5 2.5 0 0 1 .968-.777Z" clip-rule="evenodd"/>
</svg>
