<svg xmlns="http://www.w3.org/2000/svg" width="24" height="24" fill="currentColor" viewBox="0 0 24 24">
  <path d="M14 3.75a.75.75 0 0 1 .75-.75h5.5a.75.75 0 0 1 0 1.5h-5.5a.75.75 0 0 1-.75-.75Zm0 5.5a.75.75 0 0 1 .75-.75h5.5a.75.75 0 0 1 0 1.5h-5.5a.75.75 0 0 1-.75-.75Zm-11 5.5a.75.75 0 0 1 .75-.75h8.272a6.471 6.471 0 0 0-.709 1.5H3.75a.75.75 0 0 1-.75-.75Zm8.845 5.957a6.467 6.467 0 0 1-.53-1.204.762.762 0 0 0-.065-.003h-7.5a.75.75 0 0 0 0 1.5h7.5a.749.749 0 0 0 .595-.293ZM3 5a2 2 0 0 1 2-2h3a2 2 0 0 1 2 2v3a2 2 0 0 1-2 2H5a2 2 0 0 1-2-2V5Z"/>
  <path fill-rule="evenodd" d="M17.5 23a5.5 5.5 0 1 0 0-11 5.5 5.5 0 0 0 0 11Zm2-8a.5.5 0 0 1 .5.5v2.828a.5.5 0 1 1-1 0v-1.62l-3.147 3.146a.5.5 0 1 1-.707-.707L18.293 16h-1.621a.5.5 0 0 1 0-1H19.5Z" clip-rule="evenodd"/>
</svg>
