<svg xmlns="http://www.w3.org/2000/svg" width="24" height="24" fill="currentColor" viewBox="0 0 24 24">
  <path d="M11.25 3.5a.75.75 0 0 1 1.5 0v1a.75.75 0 0 1-1.5 0v-1ZM5.75 5a.75.75 0 0 1 .75.75v12.5a.75.75 0 0 1-1.5 0V5.75A.75.75 0 0 1 5.75 5Zm-3 3a.75.75 0 0 1 .75.75v6.5a.75.75 0 0 1-1.5 0v-6.5A.75.75 0 0 1 2.75 8Zm6 0a.75.75 0 0 1 .75.75v6.5a.75.75 0 0 1-1.5 0v-6.5A.75.75 0 0 1 8.75 8Zm8.75 6.25a.75.75 0 0 0 1.5 0v-4.5a.75.75 0 0 0-1.5 0v4.5Zm-2.25-3.5a.75.75 0 0 0-.75.75v1a.75.75 0 0 0 1.5 0v-1a.75.75 0 0 0-.75-.75Zm5.25.75a.75.75 0 0 1 1.5 0v1a.75.75 0 0 1-1.5 0v-1ZM12 6.75a.75.75 0 0 0-.75.75v1a.75.75 0 0 0 1.5 0v-1a.75.75 0 0 0-.75-.75Zm0 10.5a.75.75 0 0 0 .75-.75v-1a.75.75 0 0 0-1.5 0v1c0 .414.336.75.75.75Zm.75 3.25a.75.75 0 0 1-1.5 0v-1a.75.75 0 0 1 1.5 0v1ZM12 10.75a.75.75 0 0 0-.75.75v1a.75.75 0 0 0 1.5 0v-1a.75.75 0 0 0-.75-.75Z"/>
</svg>
