<svg width="20" height="20" viewBox="0 0 20 20" fill="currentColor" xmlns="http://www.w3.org/2000/svg"><path fill-rule="evenodd" clip-rule="evenodd" d="M9.25 2.3501C9.7141 2.08215 10.2859 2.08215 10.75 2.3501L16.25 5.52553C16.7141 5.79348 17 6.28867 17 6.82457V13.1754C17 13.7113 16.7141 14.2065 16.25 14.4745L10.75 17.6499C10.2859 17.9178 9.7141 17.9178 9.25 17.6499L3.75 14.4745C3.2859 14.2065 3 13.7113 3 13.1754V6.82457C3 6.28867 3.2859 5.79348 3.75 5.52553L9.25 2.3501ZM10.25 3.21613L15.5 6.24722L9.99987 9.42273L4.49986 6.2473L9.75 3.21613C9.9047 3.12681 10.0953 3.12681 10.25 3.21613ZM4 7.11341V13.1754C4 13.3541 4.0953 13.5191 4.25 13.6084L9.5 16.6395V10.2888L4 7.11341ZM10.5 10.2887L16 7.11325V13.1754C16 13.3541 15.9047 13.5191 15.75 13.6084L10.5 16.6395V10.2887Z"/></svg>