<svg xmlns="http://www.w3.org/2000/svg" width="24" height="24" fill="currentColor" viewBox="0 0 24 24">
  <path fill-rule="evenodd" d="M14 18h-4a3 3 0 1 1-6 0 2 2 0 0 1-2-2V6a2 2 0 0 1 2-2h11a2 2 0 0 1 2 2v1h.868a2 2 0 0 1 1.715.971l2.132 3.554A2 2 0 0 1 22 12.554V16a2 2 0 0 1-2 2 3 3 0 1 1-6 0Zm1-12.5H4a.5.5 0 0 0-.5.5v10a.5.5 0 0 0 .5.5h.401a2.999 2.999 0 0 1 5.198 0H14.4a3.016 3.016 0 0 1 1.099-1.099V6a.5.5 0 0 0-.5-.5Zm4.599 11A2.999 2.999 0 0 0 17 15V8.5h.868a.5.5 0 0 1 .428.243l2.133 3.554a.5.5 0 0 1 .071.257V16a.5.5 0 0 1-.5.5h-.401ZM7 19.5a1.5 1.5 0 1 0 0-3 1.5 1.5 0 0 0 0 3Zm10 0a1.5 1.5 0 1 0 0-3 1.5 1.5 0 0 0 0 3Z" clip-rule="evenodd"/>
</svg>
