<svg width="24" height="24" viewBox="0 0 24 24" fill="currentColor" xmlns="http://www.w3.org/2000/svg"><path fill-rule="evenodd" clip-rule="evenodd" d="M22 12C22 17.5228 17.5228 22 12 22C6.47715 22 2 17.5228 2 12C2 6.47715 6.47715 2 12 2C17.5228 2 22 6.47715 22 12ZM20.5 12C20.5 16.6944 16.6944 20.5 12 20.5C7.30558 20.5 3.5 16.6944 3.5 12C3.5 9.92282 4.24508 8.01967 5.48256 6.54322L10.7197 11.7803C11.0126 12.0732 11.4874 12.0732 11.7803 11.7803C12.0732 11.4874 12.0732 11.0126 11.7803 10.7197L6.54322 5.48256C8.01967 4.24508 9.92282 3.5 12 3.5C16.6944 3.5 20.5 7.30558 20.5 12Z"/></svg>