<svg xmlns="http://www.w3.org/2000/svg" width="24" height="24" fill="currentColor" viewBox="0 0 24 24">
  <path d="M3.604 20.98c.309.116.76-.013 1.665-.271l3.434-.981c.297-.085.445-.128.584-.191a2 2 0 0 0 .349-.205c.123-.09.232-.2.45-.418l8.384-8.384-5-5-8.384 8.384c-.218.218-.327.327-.418.45-.08.11-.148.226-.205.35-.064.138-.106.287-.19.584L3.29 18.73c-.258.905-.387 1.357-.27 1.666a1 1 0 0 0 .583.584ZM14.53 4.47l5 5 .706-.706c.793-.793 1.189-1.189 1.337-1.646.13-.401.13-.834 0-1.236-.148-.457-.544-.853-1.337-1.645l-.474-.475c-.792-.792-1.188-1.188-1.644-1.336a1.999 1.999 0 0 0-1.236 0c-.456.148-.852.544-1.644 1.336l-.708.708Z"/>
</svg>
