<svg xmlns="http://www.w3.org/2000/svg" width="24" height="24" fill="currentColor" viewBox="0 0 24 24">
  <path d="M10 3.75a.75.75 0 0 0-1.5 0V8a.5.5 0 0 1-.5.5H3.75a.75.75 0 0 0 0 1.5H8a2 2 0 0 0 2-2V3.75Zm4 16.5a.75.75 0 0 0 1.5 0V16a.5.5 0 0 1 .5-.5h4.25a.75.75 0 0 0 0-1.5H16a2 2 0 0 0-2 2v4.25Zm7-11a.75.75 0 0 1-.75.75H16a2 2 0 0 1-2-2V3.75a.75.75 0 0 1 1.5 0V8a.5.5 0 0 0 .5.5h4.25a.75.75 0 0 1 .75.75ZM3.75 14a.75.75 0 0 0 0 1.5H8a.5.5 0 0 1 .5.5v4.25a.75.75 0 0 0 1.5 0V16a2 2 0 0 0-2-2H3.75Z"/>
</svg>
