<svg xmlns="http://www.w3.org/2000/svg" width="24" height="24" fill="currentColor" viewBox="0 0 24 24">
  <path d="M2.75 2a.75.75 0 0 0-.75.75v2.5a.75.75 0 0 0 1.5 0V3.5h1.75a.75.75 0 0 0 0-1.5h-2.5ZM2 18.75v2.5a.75.75 0 0 0 .75.75h2.5a.75.75 0 0 0 0-1.5H3.5v-1.75a.75.75 0 0 0-1.5 0Zm20-13.5v-2.5a.75.75 0 0 0-.75-.75h-2.5a.75.75 0 0 0 0 1.5h1.75v1.75a.75.75 0 0 0 1.5 0Z"/>
  <path fill-rule="evenodd" d="M16 9c0 .912-.305 1.753-.82 2.426a6.506 6.506 0 0 0-2.268 1.47A4 4 0 1 1 16 9Zm-1.5 0a2.5 2.5 0 1 1-5 0 2.5 2.5 0 0 1 5 0Z" clip-rule="evenodd"/>
  <path d="M6.343 16.843a8 8 0 0 1 5.387-2.338 6.451 6.451 0 0 0-.569 1.55 6.5 6.5 0 0 0-3.757 1.849.75.75 0 1 1-1.06-1.06Z"/>
  <path fill-rule="evenodd" d="M23 17.5a5.5 5.5 0 1 1-11 0 5.5 5.5 0 0 1 11 0Zm-2.646-1.854a.5.5 0 0 1 0 .708l-3.5 3.5a.5.5 0 0 1-.708 0l-2-2a.5.5 0 0 1 .708-.708l1.646 1.647 3.146-3.147a.5.5 0 0 1 .708 0Z" clip-rule="evenodd"/>
</svg>
