<svg width="24" height="24" viewBox="0 0 24 24" fill="currentColor" xmlns="http://www.w3.org/2000/svg"><path fill-rule="evenodd" clip-rule="evenodd" d="M2.21967 20.7197C1.92678 21.0126 1.92678 21.4874 2.21967 21.7803C2.51256 22.0732 2.98744 22.0732 3.28033 21.7803L5.64826 19.4124C5.67537 19.4269 5.70263 19.4411 5.73005 19.455C6.0993 19.6432 6.50794 19.7664 7 19.847V21C7 22.1046 7.89543 23 9 23H15C16.1046 23 17 22.1046 17 21V19.847C17.4921 19.7664 17.9007 19.6432 18.27 19.455C19.2108 18.9757 19.9757 18.2108 20.455 17.27C21 16.2004 21 14.8003 21 12V10C21 7.19974 21 5.79961 20.455 4.73005C20.4411 4.70263 20.4269 4.67537 20.4124 4.64826L21.7803 3.28033C22.0732 2.98744 22.0732 2.51256 21.7803 2.21967C21.4874 1.92678 21.0126 1.92678 20.7197 2.21967L2.21967 20.7197ZM12 17C10.8715 17 9.8157 16.6884 8.91404 16.1466L10.019 15.0416C10.6168 15.3352 11.2891 15.5 12 15.5C14.4853 15.5 16.5 13.4853 16.5 11C16.5 10.2891 16.3352 9.61676 16.0416 9.01902L17.1466 7.91404C17.6884 8.8157 18 9.87147 18 11C18 12.3865 17.5297 13.6632 16.7399 14.6792L17.7803 15.7197C18.0732 16.0126 18.0732 16.4874 17.7803 16.7803C17.4874 17.0732 17.0126 17.0732 16.7197 16.7803L15.6792 15.7399C14.6632 16.5297 13.3865 17 12 17ZM8.5 21V19.9756C9.18888 20 10.0063 20 11 20H13C13.9937 20 14.8111 20 15.5 19.9756V21C15.5 21.2761 15.2761 21.5 15 21.5H9C8.72386 21.5 8.5 21.2761 8.5 21Z"/><path d="M3.547 17.2739L6.80939 14.0115C6.29474 13.1264 6 12.0976 6 11C6 9.61347 6.47031 8.33678 7.26011 7.32077L6.21967 6.28033C5.92678 5.98744 5.92678 5.51256 6.21967 5.21967C6.51256 4.92678 6.98744 4.92678 7.28033 5.21967L8.32077 6.26011C9.33678 5.47031 10.6135 5 12 5C13.0976 5 14.1264 5.29474 15.0115 5.80939L18.2739 2.547L18.27 2.54497C17.2004 2 15.8003 2 13 2H11C8.19974 2 6.79961 2 5.73005 2.54497C4.78924 3.02433 4.02433 3.78924 3.54497 4.73005C3 5.79961 3 7.19974 3 10V12C3 14.8003 3 16.2004 3.54497 17.27L3.547 17.2739Z"/><path d="M7.92002 12.9009L13.9009 6.92002C13.3234 6.65052 12.6793 6.5 12 6.5C9.51472 6.5 7.5 8.51472 7.5 11C7.5 11.6793 7.65052 12.3234 7.92002 12.9009Z"/></svg>