<svg xmlns="http://www.w3.org/2000/svg" width="24" height="24" fill="currentColor" viewBox="0 0 24 24">
  <path fill-rule="evenodd" d="M12 20.5a8.5 8.5 0 1 0 0-17 8.5 8.5 0 0 0 0 17Zm0 1.5c5.523 0 10-4.477 10-10S17.523 2 12 2 2 6.477 2 12s4.477 10 10 10Z" clip-rule="evenodd"/>
  <path d="M8 8.5a1.25 1.25 0 1 1-2.5 0 1.25 1.25 0 0 1 2.5 0ZM8 12a1.25 1.25 0 1 1-2.5 0A1.25 1.25 0 0 1 8 12Zm0 3.5a1.25 1.25 0 1 1-2.5 0 1.25 1.25 0 0 1 2.5 0Zm10.5-7a1.25 1.25 0 1 1-2.5 0 1.25 1.25 0 0 1 2.5 0Zm0 3.5a1.25 1.25 0 1 1-2.5 0 1.25 1.25 0 0 1 2.5 0Zm0 3.5a1.25 1.25 0 1 1-2.5 0 1.25 1.25 0 0 1 2.5 0Zm-3.5-7a1.25 1.25 0 1 1-2.5 0 1.25 1.25 0 0 1 2.5 0Zm0 3.5a1.25 1.25 0 1 1-2.5 0 1.25 1.25 0 0 1 2.5 0Zm0 3.5a1.25 1.25 0 1 1-2.5 0 1.25 1.25 0 0 1 2.5 0Zm-3.5-7a1.25 1.25 0 1 1-2.5 0 1.25 1.25 0 0 1 2.5 0Zm0 3.5A1.25 1.25 0 1 1 9 12a1.25 1.25 0 0 1 2.5 0Zm0 3.5a1.25 1.25 0 1 1-2.5 0 1.25 1.25 0 0 1 2.5 0Z"/>
</svg>
