<svg xmlns="http://www.w3.org/2000/svg" width="24" height="24" fill="currentColor" viewBox="0 0 24 24">
  <path d="M6.844 9.998c.319 0 .573.062.761.186.19.123.284.358.284.703 0 .15-.033.27-.098.361a.842.842 0 0 1-.264.234.865.865 0 0 1-.351.118l-.371.039h-.899V9.998h.938ZM22 15.33v4.59a.8.8 0 0 1-.244.586.8.8 0 0 1-.586.244H9.705a.8.8 0 0 1-.586-.244.8.8 0 0 1-.244-.586V17H2.83a.8.8 0 0 1-.586-.244A.8.8 0 0 1 2 16.17V7.83a.8.8 0 0 1 .244-.586A.8.8 0 0 1 2.83 7H4.5V4.08a.8.8 0 0 1 .244-.586.8.8 0 0 1 .586-.244h8.965a.8.8 0 0 1 .586.244.8.8 0 0 1 .244.586v4.795h2.295a.8.8 0 0 1 .586.244.8.8 0 0 1 .244.586V14.5h2.92a.8.8 0 0 1 .586.244.8.8 0 0 1 .244.586Zm-5-5.205h-5V14.5h5v-4.375Zm-7.51.713c0-.378-.062-.7-.185-.967a1.76 1.76 0 0 0-.528-.664 2.066 2.066 0 0 0-.78-.371 4.46 4.46 0 0 0-.977-.117H4.373v6.553h1.533v-2.286h1.035c.32 0 .629-.045.928-.136.3-.091.573-.228.82-.41.248-.183.44-.407.577-.674a2.19 2.19 0 0 0 .224-.928ZM5.75 7h5.42a.8.8 0 0 1 .586.244.8.8 0 0 1 .244.586v1.045h1.875V4.5H5.75V7Zm15 12.5v-3.75H12v.42a.8.8 0 0 1-.244.586.8.8 0 0 1-.586.244h-1.045v2.5H20.75Z"/>
</svg>
