<svg xmlns="http://www.w3.org/2000/svg" width="24" height="24" fill="currentColor" viewBox="0 0 24 24">
  <path d="M16.185 14.385c.308 0 .554-.154.585-.37.092-.369-.216-.492-.493-.553a7.536 7.536 0 0 0-.83-.062c-.4 0-.831.03-1.231.092a4.42 4.42 0 0 0 1.692.862c.092.03.185.03.277.03ZM11.539 7.03a.448.448 0 0 0-.277.186c-.185.307-.246 1.2.277 2.523a7.852 7.852 0 0 0 .369-2.062c0-.308-.061-.646-.37-.646Zm.431 6.34a12.12 12.12 0 0 1 1.015-.247c-.076-.098-.157-.196-.238-.296a9.733 9.733 0 0 1-.439-.565 4.389 4.389 0 0 1-.248-.355l-.09-.138c-.123.339-.247.677-.4 1.016a20.25 20.25 0 0 0-.37.8c.157-.035.304-.08.447-.123.109-.033.216-.066.323-.093Zm-4.677 3.569c.43 0 1.2-.8 1.969-2.031-1.292.584-2.185 1.23-2.246 1.692a.249.249 0 0 0 .092.277.33.33 0 0 0 .185.062Z"/>
  <path fill-rule="evenodd" d="M17.97 3H6.03C4.246 3 2.77 4.477 2.77 6.262v11.476c0 1.785 1.476 3.262 3.261 3.231H17.97a3.263 3.263 0 0 0 3.261-3.261V6.262C21.231 4.477 19.754 3 17.97 3Zm-2.462 9.846c1.015 0 1.723.185 2.092.585.246.246.308.615.185.954-.092.277-.4.615-1.17.615-.553 0-1.692-.184-2.984-1.292-.351.07-.72.158-1.108.25-.12.03-.244.059-.369.088-.492.123-.954.277-1.415.431-.831 1.446-2.031 3.108-3.231 3.108a1.138 1.138 0 0 1-.83-.277c-.247-.185-.34-.492-.278-.8.185-1.016 2.185-1.939 3.139-2.308a11.6 11.6 0 0 0 .861-1.754 41.65 41.65 0 0 0 .739-2c-.646-1.446-.8-2.83-.4-3.507a.906.906 0 0 1 .769-.462c.923 0 1.262.892 1.262 1.723a10.09 10.09 0 0 1-.554 2.708c.184.338.4.646.615.954.308.4.616.8.985 1.138a10.487 10.487 0 0 1 1.692-.154Z" clip-rule="evenodd"/>
</svg>
