<svg width="24" height="24" viewBox="0 0 24 24" fill="currentColor" xmlns="http://www.w3.org/2000/svg"><path fill-rule="evenodd" clip-rule="evenodd" d="M22 12C22 17.5228 17.5228 22 12 22C6.47715 22 2 17.5228 2 12C2 6.47715 6.47715 2 12 2C17.5228 2 22 6.47715 22 12ZM8 8.5C8 9.19036 7.44036 9.75 6.75 9.75C6.05964 9.75 5.5 9.19036 5.5 8.5C5.5 7.80964 6.05964 7.25 6.75 7.25C7.44036 7.25 8 7.80964 8 8.5ZM6.75 13.25C7.44036 13.25 8 12.6904 8 12C8 11.3096 7.44036 10.75 6.75 10.75C6.05964 10.75 5.5 11.3096 5.5 12C5.5 12.6904 6.05964 13.25 6.75 13.25ZM8 15.5C8 16.1904 7.44036 16.75 6.75 16.75C6.05964 16.75 5.5 16.1904 5.5 15.5C5.5 14.8096 6.05964 14.25 6.75 14.25C7.44036 14.25 8 14.8096 8 15.5ZM17.25 9.75C17.9404 9.75 18.5 9.19036 18.5 8.5C18.5 7.80964 17.9404 7.25 17.25 7.25C16.5596 7.25 16 7.80964 16 8.5C16 9.19036 16.5596 9.75 17.25 9.75ZM18.5 12C18.5 12.6904 17.9404 13.25 17.25 13.25C16.5596 13.25 16 12.6904 16 12C16 11.3096 16.5596 10.75 17.25 10.75C17.9404 10.75 18.5 11.3096 18.5 12ZM17.25 16.75C17.9404 16.75 18.5 16.1904 18.5 15.5C18.5 14.8096 17.9404 14.25 17.25 14.25C16.5596 14.25 16 14.8096 16 15.5C16 16.1904 16.5596 16.75 17.25 16.75ZM15 8.5C15 9.19036 14.4404 9.75 13.75 9.75C13.0596 9.75 12.5 9.19036 12.5 8.5C12.5 7.80964 13.0596 7.25 13.75 7.25C14.4404 7.25 15 7.80964 15 8.5ZM13.75 13.25C14.4404 13.25 15 12.6904 15 12C15 11.3096 14.4404 10.75 13.75 10.75C13.0596 10.75 12.5 11.3096 12.5 12C12.5 12.6904 13.0596 13.25 13.75 13.25ZM15 15.5C15 16.1904 14.4404 16.75 13.75 16.75C13.0596 16.75 12.5 16.1904 12.5 15.5C12.5 14.8096 13.0596 14.25 13.75 14.25C14.4404 14.25 15 14.8096 15 15.5ZM10.25 9.75C10.9404 9.75 11.5 9.19036 11.5 8.5C11.5 7.80964 10.9404 7.25 10.25 7.25C9.55964 7.25 9 7.80964 9 8.5C9 9.19036 9.55964 9.75 10.25 9.75ZM11.5 12C11.5 12.6904 10.9404 13.25 10.25 13.25C9.55964 13.25 9 12.6904 9 12C9 11.3096 9.55964 10.75 10.25 10.75C10.9404 10.75 11.5 11.3096 11.5 12ZM10.25 16.75C10.9404 16.75 11.5 16.1904 11.5 15.5C11.5 14.8096 10.9404 14.25 10.25 14.25C9.55964 14.25 9 14.8096 9 15.5C9 16.1904 9.55964 16.75 10.25 16.75Z"/></svg>