<svg xmlns="http://www.w3.org/2000/svg" width="24" height="24" fill="currentColor" viewBox="0 0 24 24">
  <path d="M20.566 10.186a4.982 4.982 0 0 0-.428-4.093 5.04 5.04 0 0 0-5.428-2.417A4.984 4.984 0 0 0 10.952 2a5.04 5.04 0 0 0-4.807 3.49 4.985 4.985 0 0 0-3.332 2.417 5.04 5.04 0 0 0 .62 5.909 4.982 4.982 0 0 0 .429 4.092 5.04 5.04 0 0 0 5.427 2.418A4.981 4.981 0 0 0 13.047 22a5.04 5.04 0 0 0 4.809-3.492 4.984 4.984 0 0 0 3.332-2.417 5.04 5.04 0 0 0-.621-5.907l-.001.002Zm-7.517 10.507a3.736 3.736 0 0 1-2.4-.868c.03-.016.084-.046.118-.067l3.983-2.3a.647.647 0 0 0 .327-.567v-5.614l1.683.972a.06.06 0 0 1 .033.046v4.65a3.753 3.753 0 0 1-3.744 3.748Zm-8.053-3.44a3.732 3.732 0 0 1-.447-2.511c.03.017.081.05.118.07l3.983 2.3a.649.649 0 0 0 .654 0l4.862-2.807v1.944a.063.063 0 0 1-.024.052l-4.025 2.324a3.752 3.752 0 0 1-5.12-1.372h-.001ZM3.948 8.56a3.735 3.735 0 0 1 1.95-1.643l-.001.137v4.601a.648.648 0 0 0 .326.566l4.862 2.807L9.402 16a.06.06 0 0 1-.057.005L5.32 13.68a3.752 3.752 0 0 1-1.373-5.12Zm13.829 3.218-4.862-2.807 1.683-.972a.06.06 0 0 1 .057-.005l4.026 2.325a3.75 3.75 0 0 1-.579 6.764v-4.738a.647.647 0 0 0-.325-.567Zm1.675-2.521a5.623 5.623 0 0 0-.119-.07l-3.982-2.3a.649.649 0 0 0-.654 0L9.835 9.693V7.75a.062.062 0 0 1 .023-.052l4.026-2.322a3.748 3.748 0 0 1 5.566 3.881h.002ZM8.92 12.721l-1.684-.972a.06.06 0 0 1-.033-.046v-4.65a3.749 3.749 0 0 1 6.147-2.878 2.81 2.81 0 0 0-.118.067l-3.982 2.3a.646.646 0 0 0-.328.566L8.92 12.72v.001Zm.914-1.97L12 9.498l2.165 1.25v2.501L12 14.5l-2.166-1.25v-2.5Z"/>
</svg>
