<svg xmlns="http://www.w3.org/2000/svg" width="24" height="24" fill="currentColor" viewBox="0 0 24 24">
  <path fill-rule="evenodd" d="M22.936 17.515a10.72 10.72 0 0 0-.189-.952 10.992 10.992 0 0 0-1.734-3.779 11.049 11.049 0 0 0-1.79-1.962c-.43-.371-.89-.71-1.375-1.012a.217.217 0 0 0 .006-.01l.004-.007.002-.004.331-.57.003-.005.333-.574.651-1.123.467-.806a1.013 1.013 0 0 0-.978-1.513 1.01 1.01 0 0 0-.77.498l-.468.807-.651 1.122-.333.575-.333.574-.029.05-.044.076-.028-.01A11.038 11.038 0 0 0 12 8.14h-.114a11.043 11.043 0 0 0-3.905.752l-.068-.117-.337-.582-.33-.567-.65-1.123c-.157-.268-.313-.537-.468-.806a1.02 1.02 0 0 0-.615-.47 1.036 1.036 0 0 0-.346-.03 1.005 1.005 0 0 0-.89.748 1.012 1.012 0 0 0 .102.767l.467.806.652 1.122a748 748 0 0 0 .666 1.15l.002.004.003.005a11.1 11.1 0 0 0-4.484 5.392 10.995 10.995 0 0 0-.601 2.191l-.02.118-.002.016c-.024.16-.045.322-.063.484h22a11.323 11.323 0 0 0-.063-.484h.001Zm-5.215-2.556c.44-.292.504-.97.142-1.513-.36-.543-1.01-.745-1.45-.453-.44.293-.505.97-.143 1.514.36.543 1.01.745 1.45.453ZM7.603 12.995c.44.293.504.97.143 1.514-.361.543-1.011.745-1.451.452-.44-.293-.504-.97-.143-1.513.361-.543 1.01-.746 1.45-.453Z" clip-rule="evenodd"/>
</svg>
