<svg xmlns="http://www.w3.org/2000/svg" width="24" height="24" fill="currentColor" viewBox="0 0 24 24">
  <path d="M7.608 12.238h1.951a8.035 8.035 0 0 0-.18-.555c-.05-.146-.097-.299-.145-.456l-.064-.206c-.04-.119-.075-.236-.111-.353-.036-.117-.072-.234-.112-.353-.08-.237-.144-.46-.209-.684l-.079-.276a9.042 9.042 0 0 0-.094-.321h-.014c-.072.33-.151.662-.26.993l-.143.464c-.068.223-.137.45-.21.674a10.46 10.46 0 0 1-.33 1.073Z"/>
  <path fill-rule="evenodd" d="M6.038 3h11.924a3.266 3.266 0 0 1 3.27 3.269V17.73A3.266 3.266 0 0 1 17.961 21H6.038a3.266 3.266 0 0 1-3.268-3.269V6.27A3.266 3.266 0 0 1 6.038 3Zm3.982 10.771H7.16l-.583 1.815a.133.133 0 0 1-.144.108H4.987c-.087 0-.108-.044-.087-.137l2.477-7.114c.022-.079.043-.158.08-.252.035-.158.064-.324.064-.49-.007-.035.022-.079.065-.086h1.995c.05 0 .093.022.1.065l2.794 7.891c.022.087 0 .123-.08.123H10.79a.115.115 0 0 1-.122-.087l-.648-1.836Zm8.352.576V9.631c0-.007 0-.014.008-.021 0-.043-.05-.072-.087-.065h-1.469c-.072 0-.108.036-.108.086v4.37a1.806 1.806 0 0 1-.482.253 1.472 1.472 0 0 1-.526.093c-.345 0-.648-.1-.792-.295-.144-.194-.223-.46-.223-.8V9.618a.088.088 0 0 0-.1-.08h-1.491a.088.088 0 0 0-.08.102v3.816c-.007.374.044.741.152 1.094.086.28.23.533.432.749.18.194.41.338.655.425.266.093.547.13.835.13.288 0 .584-.037.857-.116.324-.094.627-.252.871-.475 0 .05 0 .108.015.158l.043.194c.021.058.08.094.144.087h1.318c.064 0 .093-.029.086-.1a9.428 9.428 0 0 0-.029-.275 32.856 32.856 0 0 1-.021-.424c-.008-.166-.008-.346-.008-.555Z" clip-rule="evenodd"/>
</svg>
