<svg width="24" height="24" viewBox="0 0 24 24" fill="none" xmlns="http://www.w3.org/2000/svg">
<path d="M6.04072 3H17.9638C19.7715 3 21.233 4.46154 21.233 6.26923V17.7308C21.233 19.5385 19.7715 21 17.9638 21H6.04072C4.23302 21 2.77148 19.5385 2.77148 17.7308V6.26923C2.77148 4.46154 4.23302 3 6.04072 3Z" fill="#00005B"/>
<path d="M7.1543 15.6154V7.69229C7.1543 7.63845 7.17737 7.60768 7.23122 7.60768C7.36199 7.60768 7.48507 7.60768 7.66199 7.59998C7.8466 7.59229 8.03891 7.59229 8.2466 7.5846C8.4543 7.57691 8.67737 7.57691 8.91584 7.56922C9.1543 7.56152 9.38507 7.56152 9.61584 7.56152C10.2466 7.56152 10.7697 7.63845 11.2005 7.79999C11.5851 7.93075 11.9389 8.14614 12.2312 8.43075C12.4774 8.67691 12.6697 8.97691 12.7928 9.30768C12.9081 9.63075 12.9697 9.96152 12.9697 10.3077C12.9697 10.9692 12.8158 11.5154 12.5081 11.9461C12.2005 12.3769 11.7697 12.7 11.2697 12.8846C10.7466 13.0769 10.1697 13.1461 9.53891 13.1461C9.3543 13.1461 9.23122 13.1461 9.1543 13.1384C9.07737 13.1308 8.96968 13.1308 8.82353 13.1308V15.6C8.83122 15.6538 8.79276 15.7 8.73891 15.7077H7.2466C7.18507 15.7077 7.1543 15.6769 7.1543 15.6077V15.6154ZM8.83122 9.09999V11.6846C8.93891 11.6923 9.03891 11.7 9.13122 11.7H9.53891C9.83891 11.7 10.1389 11.6538 10.4235 11.5615C10.6697 11.4923 10.8851 11.3461 11.0543 11.1538C11.2158 10.9615 11.2928 10.7 11.2928 10.3615C11.3005 10.1231 11.2389 9.8846 11.1158 9.67691C10.9851 9.47691 10.8005 9.32306 10.5774 9.23845C10.2928 9.12306 9.98507 9.07691 9.66968 9.0846C9.46968 9.0846 9.29276 9.0846 9.1466 9.09229C8.99276 9.0846 8.88507 9.09229 8.83122 9.09999Z" fill="#9999FF"/>
<path d="M14.0771 9.55375H15.4232C15.5001 9.55375 15.5617 9.6076 15.5848 9.67683C15.6078 9.73837 15.6232 9.7999 15.6309 9.86913C15.6463 9.94606 15.6617 10.0307 15.6694 10.1076C15.6771 10.1922 15.6848 10.2845 15.6848 10.3845C15.9155 10.1153 16.1924 9.89221 16.5078 9.72298C16.8617 9.52298 17.2694 9.42298 17.6771 9.42298C17.7309 9.41529 17.7771 9.45375 17.7848 9.5076V11.0384C17.7848 11.0999 17.7463 11.123 17.6617 11.123C17.3848 11.1153 17.1001 11.1384 16.8309 11.1999C16.6078 11.2461 16.3924 11.3153 16.1848 11.4076C16.0386 11.4768 15.9001 11.5691 15.7924 11.6922V15.6153C15.7924 15.6922 15.7617 15.723 15.6924 15.723H14.1771C14.1155 15.7307 14.0617 15.6922 14.054 15.6307V11.3384C14.054 11.1537 14.054 10.9614 14.0463 10.7614C14.0386 10.5614 14.0386 10.3614 14.0309 10.1614C14.0309 9.98452 14.0155 9.81529 14.0001 9.63837C13.9924 9.5999 14.0155 9.56144 14.054 9.55375C14.054 9.54606 14.0694 9.54606 14.0771 9.55375Z" fill="#9999FF"/>
</svg>
