<svg xmlns="http://www.w3.org/2000/svg" width="24" height="24" fill="currentColor" viewBox="0 0 24 24">
  <path d="M16.45 11.32a6.495 6.495 0 0 0-.244-.11c-.143-2.645-1.588-4.16-4.015-4.175h-.033c-1.452 0-2.659.62-3.402 1.747l1.335.916c.555-.842 1.426-1.022 2.068-1.022h.022c.799.005 1.402.238 1.792.69.284.33.474.786.568 1.361a10.215 10.215 0 0 0-2.294-.11c-2.307.133-3.79 1.479-3.69 3.348.05.949.522 1.765 1.33 2.298.682.45 1.562.67 2.475.621 1.207-.066 2.154-.527 2.814-1.368.502-.64.819-1.468.959-2.512.575.347 1.001.804 1.236 1.353.4.933.424 2.467-.827 3.717-1.097 1.095-2.415 1.57-4.406 1.584-2.21-.017-3.88-.725-4.967-2.106C6.154 16.259 5.628 14.39 5.608 12c.02-2.39.546-4.259 1.563-5.552 1.086-1.381 2.757-2.09 4.967-2.106 2.225.017 3.925.729 5.053 2.116.553.68.97 1.537 1.245 2.534L20 8.575c-.333-1.228-.858-2.286-1.571-3.164-1.446-1.78-3.56-2.69-6.286-2.71h-.01c-2.72.019-4.811.934-6.216 2.72-1.25 1.59-1.895 3.8-1.917 6.572v.013c.022 2.772.667 4.984 1.917 6.573 1.405 1.786 3.496 2.7 6.215 2.72h.011c2.418-.017 4.122-.65 5.526-2.053 1.837-1.835 1.781-4.135 1.176-5.547-.434-1.013-1.262-1.835-2.395-2.378Zm-4.174 3.925c-1.011.057-2.062-.396-2.114-1.369-.038-.72.513-1.525 2.176-1.62a9.72 9.72 0 0 1 .56-.017c.605 0 1.17.059 1.683.17-.191 2.394-1.315 2.782-2.305 2.836Z"/>
</svg>
