<svg width="24" height="24" viewBox="0 0 24 24" fill="currentColor" xmlns="http://www.w3.org/2000/svg"><path d="M2 6C2 4.89543 2.89543 4 4 4H20C21.1046 4 22 4.89543 22 6V18C22 19.1046 21.1046 20 20 20H12.75C12.3358 20 12 19.6642 12 19.25C12 14.1414 7.85863 10 2.75 10C2.33579 10 2 9.66421 2 9.25V6Z"/><path d="M2.75 11.5C2.33579 11.5 2 11.8358 2 12.25C2 12.6642 2.33579 13 2.75 13C3.57076 13 4.38349 13.1617 5.14177 13.4758C5.90006 13.7898 6.58905 14.2502 7.16942 14.8306C7.74978 15.4109 8.21016 16.0999 8.52425 16.8582C8.83834 17.6165 9 18.4292 9 19.25C9 19.6642 9.33579 20 9.75 20C10.1642 20 10.5 19.6642 10.5 19.25C10.5 18.2323 10.2995 17.2245 9.91007 16.2842C9.52059 15.3439 8.94973 14.4896 8.23008 13.7699C7.51042 13.0503 6.65607 12.4794 5.7158 12.0899C4.77552 11.7005 3.76774 11.5 2.75 11.5Z"/><path d="M2 15.25C2 14.8358 2.33579 14.5 2.75 14.5C3.37378 14.5 3.99145 14.6229 4.56775 14.8616C5.14404 15.1003 5.66768 15.4502 6.10876 15.8912C6.54984 16.3323 6.89972 16.856 7.13843 17.4323C7.37714 18.0086 7.5 18.6262 7.5 19.25C7.5 19.6642 7.16421 20 6.75 20C6.33579 20 6 19.6642 6 19.25C6 18.8232 5.91594 18.4006 5.75261 18.0063C5.58928 17.612 5.34989 17.2537 5.0481 16.9519C4.74631 16.6501 4.38803 16.4107 3.99372 16.2474C3.59941 16.0841 3.1768 16 2.75 16C2.33579 16 2 15.6642 2 15.25Z"/><path d="M3.25 20C3.94036 20 4.5 19.4404 4.5 18.75C4.5 18.0596 3.94036 17.5 3.25 17.5C2.55964 17.5 2 18.0596 2 18.75C2 19.4404 2.55964 20 3.25 20Z"/></svg>