<svg xmlns="http://www.w3.org/2000/svg" width="24" height="24" fill="currentColor" viewBox="0 0 24 24">
  <path d="M12 22c.263 0 .523-.01.78-.03a6.5 6.5 0 0 1 9.189-9.19c.02-.257.031-.517.031-.78 0-5.523-4.477-10-10-10S2 6.477 2 12c0 1.654.401 3.214 1.112 4.588L1.96 20.812a1 1 0 0 0 1.228 1.227l4.224-1.151A9.958 9.958 0 0 0 12 22Z"/>
  <path fill-rule="evenodd" d="M23 17.5a5.5 5.5 0 1 1-11 0 5.5 5.5 0 0 1 11 0Zm-3-2a.5.5 0 0 0-.5-.5h-2.828a.5.5 0 0 0 0 1h1.62l-3.146 3.147a.5.5 0 0 0 .707.707L19 16.707v1.621a.5.5 0 1 0 1 0V15.5Z" clip-rule="evenodd"/>
</svg>
