<svg xmlns="http://www.w3.org/2000/svg" width="24" height="24" fill="currentColor" viewBox="0 0 24 24">
  <path fill-rule="evenodd" d="M12 2C6.477 2 2 6.477 2 12s4.477 10 10 10h1a2 2 0 0 0 2-2v-1a2 2 0 0 1 2-2 5 5 0 0 0 5-5c0-5.523-4.477-10-10-10Zm5.5 11a1.5 1.5 0 1 0 0-3 1.5 1.5 0 0 0 0 3Zm-2.433-7.312a1.5 1.5 0 1 1-1.5 2.598 1.5 1.5 0 0 1 1.5-2.598Zm-4.951 1.049a1.5 1.5 0 1 0-2.598 1.5 1.5 1.5 0 0 0 2.598-1.5ZM5 12.5a1.5 1.5 0 1 1 3 0 1.5 1.5 0 0 1-3 0Zm3.384 3.763a1.5 1.5 0 1 0 2.598 1.5 1.5 1.5 0 0 0-2.598-1.5Z" clip-rule="evenodd"/>
</svg>
