<svg width="24" height="24" viewBox="0 0 24 24" fill="currentColor" xmlns="http://www.w3.org/2000/svg"><path fill-rule="evenodd" clip-rule="evenodd" d="M14.9786 14.5214L16.4308 13.0692C16.7774 12.7226 17.2946 12.6105 17.7536 12.7826L20.1888 13.6959C20.6767 13.8788 20.9999 14.3452 20.9999 14.8663V19C20.9999 20.1046 20.1018 21.0115 19.004 20.889C17.3254 20.7018 15.6782 20.2788 14.1116 19.6299C11.9278 18.7253 9.9435 17.3994 8.27204 15.7279C6.60059 14.0565 5.27472 12.0722 4.37014 9.8883C3.72124 8.32174 3.29825 6.67449 3.11097 4.9959C2.98848 3.89814 3.8954 3 4.99997 3H9.13372C9.65477 3 10.1212 3.32322 10.3041 3.8111L11.2174 6.24636C11.3895 6.70533 11.2774 7.22254 10.9308 7.56915L9.47859 9.02138C10.087 10.1856 10.8709 11.2558 11.8076 12.1924C12.7442 13.129 13.8144 13.913 14.9786 14.5214ZM16.0392 15.5821C15.5757 16.0456 14.8648 16.1544 14.2838 15.8508C12.9853 15.1722 11.7916 14.2978 10.7469 13.2531C9.70218 12.2083 8.82783 11.0146 8.1492 9.71616C7.84555 9.13516 7.95438 8.42427 8.41793 7.96072L9.75633 6.62231L8.96047 4.5H4.99997C4.8558 4.5 4.74188 4.55836 4.67411 4.62851C4.61335 4.6914 4.59339 4.755 4.60171 4.82957C4.77339 6.36829 5.16114 7.87826 5.75595 9.31428C6.58516 11.3161 7.80054 13.1351 9.3327 14.6673C10.8649 16.1994 12.6838 17.4148 14.6857 18.244C16.1217 18.8389 17.6317 19.2266 19.1704 19.3983C19.2449 19.4066 19.3085 19.3867 19.3714 19.3259C19.4416 19.2581 19.4999 19.1442 19.4999 19V15.0395L17.3776 14.2437L16.0392 15.5821Z"/><path d="M14.2499 3.75C14.2499 3.33579 14.5857 3 14.9999 3C15.7879 3 16.5681 3.15519 17.296 3.45672C18.024 3.75825 18.6854 4.20021 19.2426 4.75736C19.7997 5.31451 20.2417 5.97595 20.5432 6.7039C20.8447 7.43185 20.9999 8.21207 20.9999 9C20.9999 9.41421 20.6642 9.75 20.2499 9.75C19.8357 9.75 19.4999 9.41421 19.4999 9C19.4999 8.40905 19.3835 7.82389 19.1574 7.27792C18.9313 6.73196 18.5998 6.23588 18.1819 5.81802C17.7641 5.40016 17.268 5.06869 16.722 4.84254C16.176 4.6164 15.5909 4.5 14.9999 4.5C14.5857 4.5 14.2499 4.16421 14.2499 3.75Z"/><path d="M14.9999 6C14.5857 6 14.2499 6.33579 14.2499 6.75C14.2499 7.16421 14.5857 7.5 14.9999 7.5C15.1969 7.5 15.392 7.5388 15.574 7.61418C15.756 7.68956 15.9213 7.80005 16.0606 7.93934C16.1999 8.07863 16.3104 8.24399 16.3858 8.42597C16.4611 8.60796 16.4999 8.80302 16.4999 9C16.4999 9.41421 16.8357 9.75 17.2499 9.75C17.6642 9.75 17.9999 9.41421 17.9999 9C17.9999 8.60603 17.9223 8.21593 17.7716 7.85195C17.6208 7.48797 17.3998 7.15726 17.1213 6.87868C16.8427 6.6001 16.512 6.37913 16.148 6.22836C15.784 6.0776 15.3939 6 14.9999 6Z"/></svg>