<svg width="24" height="24" viewBox="0 0 24 24" fill="currentColor" xmlns="http://www.w3.org/2000/svg"><path d="M6 7C6 6.44772 6.44772 6 7 6C7.55228 6 8 6.44772 8 7C8 7.55228 7.55228 8 7 8C6.44772 8 6 7.55228 6 7Z"/><path fill-rule="evenodd" clip-rule="evenodd" d="M5 3C3.89543 3 3 3.89543 3 5V9C3 10.1046 3.89543 11 5 11H9C10.1046 11 11 10.1046 11 9V5C11 3.89543 10.1046 3 9 3H5ZM9 4.5H5C4.72386 4.5 4.5 4.72386 4.5 5V9C4.5 9.27614 4.72386 9.5 5 9.5H9C9.27614 9.5 9.5 9.27614 9.5 9V5C9.5 4.72386 9.27614 4.5 9 4.5Z"/><path d="M6 17C6 16.4477 6.44772 16 7 16C7.55228 16 8 16.4477 8 17C8 17.5523 7.55228 18 7 18C6.44772 18 6 17.5523 6 17Z"/><path fill-rule="evenodd" clip-rule="evenodd" d="M5 13C3.89543 13 3 13.8954 3 15V19C3 20.1046 3.89543 21 5 21H9C10.1046 21 11 20.1046 11 19V15C11 13.8954 10.1046 13 9 13H5ZM5 14.5C4.72386 14.5 4.5 14.7239 4.5 15V19C4.5 19.2761 4.72386 19.5 5 19.5H9C9.27614 19.5 9.5 19.2761 9.5 19V15C9.5 14.7239 9.27614 14.5 9 14.5H5Z"/><path d="M17 6C16.4477 6 16 6.44772 16 7C16 7.55228 16.4477 8 17 8C17.5523 8 18 7.55228 18 7C18 6.44772 17.5523 6 17 6Z"/><path fill-rule="evenodd" clip-rule="evenodd" d="M13 5C13 3.89543 13.8954 3 15 3H19C20.1046 3 21 3.89543 21 5V9C21 10.1046 20.1046 11 19 11H15C13.8954 11 13 10.1046 13 9V5ZM15 4.5H19C19.2761 4.5 19.5 4.72386 19.5 5V9C19.5 9.27614 19.2761 9.5 19 9.5H15C14.7239 9.5 14.5 9.27614 14.5 9V5C14.5 4.72386 14.7239 4.5 15 4.5Z"/><path d="M14 13C13.4477 13 13 13.4477 13 14C13 14.5523 13.4477 15 14 15C14.5523 15 15 14.5523 15 14C15 13.4477 14.5523 13 14 13Z"/><path d="M13 20C13 19.4477 13.4477 19 14 19C14.5523 19 15 19.4477 15 20C15 20.5523 14.5523 21 14 21C13.4477 21 13 20.5523 13 20Z"/><path d="M17 16C16.4477 16 16 16.4477 16 17C16 17.5523 16.4477 18 17 18C17.5523 18 18 17.5523 18 17C18 16.4477 17.5523 16 17 16Z"/><path d="M19 14C19 13.4477 19.4477 13 20 13C20.5523 13 21 13.4477 21 14C21 14.5523 20.5523 15 20 15C19.4477 15 19 14.5523 19 14Z"/><path d="M20 19C19.4477 19 19 19.4477 19 20C19 20.5523 19.4477 21 20 21C20.5523 21 21 20.5523 21 20C21 19.4477 20.5523 19 20 19Z"/></svg>