<svg xmlns="http://www.w3.org/2000/svg" width="24" height="24" fill="currentColor" viewBox="0 0 24 24">
  <path d="M15.53 10.28a.75.75 0 0 0-1.06-1.06L11 12.69l-1.47-1.47a.75.75 0 1 0-1.06 1.06l2 2a.75.75 0 0 0 1.06 0l4-4Z"/>
  <path fill-rule="evenodd" d="m4.029 6.429 7-3.89a2 2 0 0 1 1.942 0l7 3.89c.635.352 1.038 1.025.994 1.75-.496 8.203-6.09 12.194-8.182 13.407a1.545 1.545 0 0 1-1.566 0C9.126 20.373 3.531 16.382 3.035 8.18c-.044-.725.359-1.398.994-1.75Zm.728 1.31 7-3.888a.5.5 0 0 1 .486 0l7 3.889c.174.097.23.248.225.348-.452 7.466-5.527 11.092-7.438 12.2-.018.011-.027.011-.03.011-.003 0-.012 0-.03-.01-1.911-1.109-6.986-4.735-7.438-12.2-.006-.1.05-.252.225-.35Z" clip-rule="evenodd"/>
</svg>
