<svg width="20" height="20" viewBox="0 0 20 20" fill="currentColor" xmlns="http://www.w3.org/2000/svg"><path d="M2.99999 4.5C2.99999 3.67157 3.67156 3 4.49999 3H7.49999C8.32841 3 8.99999 3.67157 8.99999 4.5V7.5C8.99999 8.32843 8.32841 9 7.49999 9H4.49999C3.67156 9 2.99999 8.32843 2.99999 7.5V4.5Z"/><path d="M11 12.5C11 11.6716 11.6716 11 12.5 11H15.5C16.3284 11 17 11.6716 17 12.5V15.5C17 16.3284 16.3284 17 15.5 17H12.5C11.6716 17 11 16.3284 11 15.5V12.5Z"/><path d="M11 6C11 4.34315 12.3431 3 14 3C15.6568 3 17 4.34315 17 6C17 7.65685 15.6568 9 14 9C12.3431 9 11 7.65685 11 6Z"/><path d="M7.29907 11.75C6.72172 10.75 5.27835 10.75 4.701 11.75L2.96895 14.75C2.3916 15.75 3.11329 17 4.26799 17H7.73209C8.88679 17 9.60847 15.75 9.03112 14.75L7.29907 11.75Z"/></svg>