<svg xmlns="http://www.w3.org/2000/svg" width="24" height="24" fill="currentColor" viewBox="0 0 24 24">
  <path fill-rule="evenodd" d="M5 3a2 2 0 0 0-2 2v14a2 2 0 0 0 2 2h14a2 2 0 0 0 2-2V5a2 2 0 0 0-2-2H5Zm2 5a1 1 0 1 0 0-2 1 1 0 0 0 0 2Zm1 2a1 1 0 1 1-2 0 1 1 0 0 1 2 0Zm-1 8a1 1 0 1 0 0-2 1 1 0 0 0 0 2Zm4.333-11a1 1 0 1 1-2 0 1 1 0 0 1 2 0Zm-1 4a1 1 0 1 0 0-2 1 1 0 0 0 0 2Zm1 6a1 1 0 1 1-2 0 1 1 0 0 1 2 0Zm2.333-9a1 1 0 1 0 0-2 1 1 0 0 0 0 2Zm1 2a1 1 0 1 1-2 0 1 1 0 0 1 2 0Zm-1 8a1 1 0 1 0 0-2 1 1 0 0 0 0 2ZM18 7a1 1 0 1 1-2 0 1 1 0 0 1 2 0Zm-1 4a1 1 0 1 0 0-2 1 1 0 0 0 0 2Zm1 6a1 1 0 1 1-2 0 1 1 0 0 1 2 0ZM6.75 12.75a.75.75 0 0 0 0 1.5h10.5a.75.75 0 0 0 0-1.5H6.75Z" clip-rule="evenodd"/>
</svg>
