<svg xmlns="http://www.w3.org/2000/svg" width="24" height="24" fill="currentColor" viewBox="0 0 24 24">
  <path fill-rule="evenodd" d="M3.172 5.172C2 6.343 2 8.229 2 12c0 3.771 0 5.657 1.172 6.828C4.343 20 6.229 20 10 20h4c3.771 0 5.657 0 6.828-1.172C22 17.657 22 15.771 22 12c0-3.771 0-5.657-1.172-6.828C19.657 4 17.771 4 14 4h-4C6.229 4 4.343 4 3.172 5.172ZM6 9a1 1 0 1 1 2 0 1 1 0 0 1-2 0Zm10 0a1 1 0 1 1 2 0 1 1 0 0 1-2 0Zm-3.334 0a1 1 0 1 1 2 0 1 1 0 0 1-2 0ZM9.333 9a1 1 0 1 1 2 0 1 1 0 0 1-2 0ZM9 15.255a.75.75 0 0 1 .75-.75h4.5a.75.75 0 0 1 0 1.5h-4.5a.75.75 0 0 1-.75-.75ZM6 15.5a.5.5 0 0 1 .5-.5h1a.5.5 0 1 1 0 1h-1a.5.5 0 0 1-.5-.5Zm10.5-.5a.5.5 0 0 0 0 1h1a.5.5 0 0 0 0-1h-1ZM7 11a1 1 0 1 0 0 2 1 1 0 0 0 0-2Zm10 0a1 1 0 1 0 0 2 1 1 0 0 0 0-2Zm-3.334 0a1 1 0 1 0 0 2 1 1 0 0 0 0-2Zm-3.333 0a1 1 0 1 0 0 2 1 1 0 0 0 0-2Z" clip-rule="evenodd"/>
</svg>
