<svg xmlns="http://www.w3.org/2000/svg" width="24" height="24" fill="currentColor" viewBox="0 0 24 24">
  <path d="M9 2.25a.75.75 0 0 1 .75-.75h4.5a.75.75 0 0 1 0 1.5h-4.5A.75.75 0 0 1 9 2.25Z"/>
  <path fill-rule="evenodd" d="M20 13a8 8 0 1 1-16 0 8 8 0 0 1 16 0Zm-5.53-3.53-3 3a.75.75 0 1 0 1.06 1.06l3-3a.75.75 0 0 0-1.06-1.06Z" clip-rule="evenodd"/>
  <path d="M2.984 6.813a.75.75 0 0 1 0-1.06l1.768-1.769a.75.75 0 0 1 1.06 1.061L4.046 6.813a.75.75 0 0 1-1.06 0Zm15.203-2.829a.75.75 0 0 1 1.06 0l1.768 1.768a.75.75 0 0 1-1.06 1.06l-1.768-1.767a.75.75 0 0 1 0-1.06Z"/>
</svg>
