<svg width="24" height="24" viewBox="0 0 24 24" fill="currentColor" xmlns="http://www.w3.org/2000/svg"><path d="M8.67155 4.67157C9.4217 3.92143 10.4391 3.5 11.5 3.5C12.5608 3.5 13.5783 3.92143 14.3284 4.67157C15.0786 5.42172 15.5 6.43913 15.5 7.5C15.5 7.91421 15.8358 8.25 16.25 8.25C16.6642 8.25 17 7.91421 17 7.5C17 6.04131 16.4205 4.64236 15.3891 3.61091C14.3576 2.57946 12.9587 2 11.5 2C10.0413 2 8.64234 2.57946 7.61089 3.61091C6.57944 4.64236 5.99998 6.04131 5.99998 7.5C5.99998 7.91421 6.33576 8.25 6.74998 8.25C7.16419 8.25 7.49998 7.91421 7.49998 7.5C7.49998 6.43913 7.92141 5.42172 8.67155 4.67157Z"/><path d="M13 6.5V11.1641L18.169 12.8861C19.1906 13.2265 19.7594 14.3146 19.4556 15.3477L17.9221 20.5641C17.6718 21.4154 16.8906 22 16.0033 22H10.8955C10.3257 22 9.78303 21.757 9.40358 21.332L4.56583 15.9137C4.09133 15.3823 4.0575 14.59 4.48496 14.02C4.92577 13.4323 5.72815 13.2517 6.37828 13.5938L9.99998 15.5V6.5C9.99998 5.67157 10.6716 5 11.5 5C12.3284 5 13 5.67157 13 6.5Z"/></svg>