<svg width="20" height="20" viewBox="0 0 20 20" fill="currentColor" xmlns="http://www.w3.org/2000/svg"><path fill-rule="evenodd" clip-rule="evenodd" d="M13.2942 9.13397C13.9609 9.51887 13.9609 10.4811 13.2942 10.866L8.5 13.634C7.83333 14.0189 7 13.5377 7 12.7679L7 7.23205C7 6.46225 7.83333 5.98113 8.5 6.36603L13.2942 9.13397ZM12.7942 10L8 12.7679L8 7.23205L12.7942 10Z"/><path fill-rule="evenodd" clip-rule="evenodd" d="M3 4.5C3 3.67157 3.67157 3 4.5 3H15.5C16.3284 3 17 3.67157 17 4.5V15.5C17 16.3284 16.3284 17 15.5 17H4.5C3.67157 17 3 16.3284 3 15.5V4.5ZM4.5 4H15.5C15.7761 4 16 4.22386 16 4.5V15.5C16 15.7761 15.7761 16 15.5 16H4.5C4.22386 16 4 15.7761 4 15.5V4.5C4 4.22386 4.22386 4 4.5 4Z"/></svg>