<svg xmlns="http://www.w3.org/2000/svg" width="24" height="24" fill="currentColor" viewBox="0 0 24 24">
  <path d="M18.778 4.222a.75.75 0 0 0-1.06 1.06 9.5 9.5 0 0 1 0 13.436.75.75 0 1 0 1.06 1.06 11 11 0 0 0 0-15.556ZM11 5.414v13.172c0 .89-1.077 1.337-1.707.707L6 16H4a2 2 0 0 1-2-2v-4a2 2 0 0 1 2-2h2l3.293-3.293c.63-.63 1.707-.184 1.707.707Zm2.828 3.758a.75.75 0 1 0-1.06 1.06 2.5 2.5 0 0 1 0 3.536.75.75 0 0 0 1.06 1.06 4 4 0 0 0 0-5.656Z"/>
  <path d="M15.243 6.697a.75.75 0 0 1 1.06 0 7.5 7.5 0 0 1 0 10.606.75.75 0 0 1-1.06-1.06 6 6 0 0 0 0-8.486.75.75 0 0 1 0-1.06Z"/>
</svg>
