<svg xmlns="http://www.w3.org/2000/svg" width="24" height="24" fill="currentColor" viewBox="0 0 24 24">
  <path d="M12 8a.75.75 0 0 1 .75.75v4.5a.75.75 0 0 1-1.5 0v-4.5A.75.75 0 0 1 12 8Zm0 9a1 1 0 1 0 0-2 1 1 0 0 0 0 2Z"/>
  <path fill-rule="evenodd" d="M13.732 3.947c-.77-1.333-2.694-1.333-3.464 0L2.732 17c-.77 1.333.192 3 1.732 3h15.072c1.54 0 2.502-1.667 1.732-3L13.732 3.947Zm6.237 13.803L12.433 4.697a.5.5 0 0 0-.866 0L4.03 17.75a.5.5 0 0 0 .433.75h15.072a.5.5 0 0 0 .433-.75Z" clip-rule="evenodd"/>
</svg>
