<svg width="24" height="24" viewBox="0 0 24 24" fill="currentColor" xmlns="http://www.w3.org/2000/svg"><path fill-rule="evenodd" clip-rule="evenodd" d="M2.32575 10.4937L6.00004 12.8319L6 16.6422C6 17.3448 6.3686 17.9958 6.97102 18.3572L10.971 20.7572C11.6044 21.1373 12.3956 21.1373 13.029 20.7572L17.029 18.3573C17.6314 17.9959 18 17.3448 18 16.6423V12.8318L19.5 11.8773V16.25C19.5 16.6642 19.8358 17 20.25 17C20.6642 17 21 16.6642 21 16.25V10.9228L21.6742 10.4937C22.2917 10.1007 22.2917 9.19933 21.6742 8.80637L13.0738 3.33331C12.4186 2.9164 11.5814 2.9164 10.9262 3.33331L2.32575 8.80637C1.70825 9.19933 1.70825 10.1007 2.32575 10.4937ZM3.79394 9.65003L11.7316 14.7012C11.8953 14.8055 12.1047 14.8055 12.2684 14.7012L20.2061 9.65003L12.2684 4.5988C12.1047 4.49457 11.8953 4.49457 11.7316 4.5988L3.79394 9.65003ZM7.5 16.6422L7.50003 13.7864L10.9262 15.9667C11.5814 16.3836 12.4186 16.3836 13.0737 15.9667L16.5 13.7864V16.6423C16.5 16.8179 16.4079 16.9807 16.2573 17.0711L12.2573 19.471C12.0989 19.566 11.9011 19.566 11.7428 19.471L7.74276 17.071C7.59215 16.9806 7.5 16.8179 7.5 16.6422Z"/></svg>