<svg width="20" height="20" viewBox="0 0 20 20" fill="currentColor" xmlns="http://www.w3.org/2000/svg"><path fill-rule="evenodd" clip-rule="evenodd" d="M5 7.5C5 6.11929 6.11929 5 7.5 5H12.5C13.8807 5 15 6.11929 15 7.5V12.5C15 13.8807 13.8807 15 12.5 15H7.5C6.11929 15 5 13.8807 5 12.5V7.5ZM8 11.5C8 11.2239 8.22386 11 8.5 11H11.5C11.7761 11 12 11.2239 12 11.5C12 11.7761 11.7761 12 11.5 12H8.5C8.22386 12 8 11.7761 8 11.5Z"/><path d="M3.6644 6C3.97661 6 4.18587 6.3289 4.10863 6.6314C4.0377 6.90914 4 7.20017 4 7.5V12.5C4 12.7998 4.0377 13.0909 4.10863 13.3686C4.18587 13.6711 3.97661 14 3.6644 14H3.5C2.11929 14 1 12.8807 1 11.5V8.5C1 7.11929 2.11929 6 3.5 6H3.6644Z"/><path d="M16.3356 14C16.0234 14 15.8141 13.6711 15.8914 13.3686C15.9623 13.0909 16 12.7998 16 12.5V7.5C16 7.20017 15.9623 6.90914 15.8914 6.6314C15.8141 6.3289 16.0234 6 16.3356 6H16.5C17.8807 6 19 7.11929 19 8.5V11.5C19 12.8807 17.8807 14 16.5 14H16.3356Z"/></svg>