<svg width="20" height="20" viewBox="0 0 20 20" fill="currentColor" xmlns="http://www.w3.org/2000/svg"><path fill-rule="evenodd" clip-rule="evenodd" d="M18 10C18 14.4183 14.4183 18 10 18C5.58172 18 2 14.4183 2 10C2 5.58172 5.58172 2 10 2C14.4183 2 18 5.58172 18 10ZM10 5C10.2761 5 10.5 5.22386 10.5 5.5V9.5H14.5C14.7761 9.5 15 9.72386 15 10C15 10.2761 14.7761 10.5 14.5 10.5H10.5V14.5C10.5 14.7761 10.2761 15 10 15C9.72386 15 9.5 14.7761 9.5 14.5V10.5H5.5C5.22386 10.5 5 10.2761 5 10C5 9.72386 5.22386 9.5 5.5 9.5H9.5V5.5C9.5 5.22386 9.72386 5 10 5Z"/></svg>