<svg width="20" height="20" viewBox="0 0 20 20" fill="currentColor" xmlns="http://www.w3.org/2000/svg"><path fill-rule="evenodd" clip-rule="evenodd" d="M14 14.95L14 17.5C14 17.7761 13.7761 18 13.5 18C13.2239 18 13 17.7761 13 17.5L13 14.95C11.8589 14.7184 11 13.7095 11 12.5C11 11.2905 11.8589 10.2816 13 10.05L13 2.5C13 2.22386 13.2239 2 13.5 2C13.7761 2 14 2.22386 14 2.5L14 10.05C15.1411 10.2816 16 11.2905 16 12.5C16 13.7095 15.1411 14.7184 14 14.95ZM12 12.5C12 13.3284 12.6716 14 13.5 14C14.3284 14 15 13.3284 15 12.5C15 11.6716 14.3284 11 13.5 11C12.6716 11 12 11.6716 12 12.5Z"/><path fill-rule="evenodd" clip-rule="evenodd" d="M7 9.94999C8.14112 9.71836 9 8.70948 9 7.5C9 6.29052 8.14112 5.28164 7 5.05001L7 2.5C7 2.22386 6.77614 2 6.5 2C6.22386 2 6 2.22386 6 2.5L6 5.05001C4.85888 5.28164 4 6.29052 4 7.5C4 8.70948 4.85888 9.71836 6 9.94999L6 17.5C6 17.7761 6.22386 18 6.5 18C6.77614 18 7 17.7761 7 17.5L7 9.94999ZM5 7.5C5 8.32843 5.67157 9 6.5 9C7.32843 9 8 8.32843 8 7.5C8 6.67157 7.32843 6 6.5 6C5.67157 6 5 6.67157 5 7.5Z"/></svg>