<svg width="20" height="20" viewBox="0 0 20 20" fill="currentColor" xmlns="http://www.w3.org/2000/svg"><path fill-rule="evenodd" clip-rule="evenodd" d="M12 6C12.4766 6 12.8869 6.33638 12.9805 6.80371C13.4059 8.93098 15.069 10.5941 17.1963 11.0195C17.6636 11.1131 18 11.5234 18 12C18 12.4766 17.6636 12.8869 17.1963 12.9805C15.069 13.4059 13.4059 15.069 12.9805 17.1963C12.8869 17.6636 12.4766 18 12 18C11.5234 18 11.1131 17.6636 11.0195 17.1963C10.5941 15.069 8.93098 13.4059 6.80371 12.9805C6.33638 12.8869 6 12.4766 6 12C6 11.5234 6.33638 11.1131 6.80371 11.0195C8.93098 10.5941 10.5941 8.93098 11.0195 6.80371L11.041 6.71777C11.1649 6.29575 11.5532 6 12 6Z"/><path fill-rule="evenodd" clip-rule="evenodd" d="M5.5 2C5.97662 2 6.38691 2.33638 6.48047 2.80371C6.65361 3.66941 7.33059 4.34639 8.19629 4.51953C8.66362 4.61309 9 5.02338 9 5.5C9 5.97662 8.66362 6.38691 8.19629 6.48047C7.33059 6.65361 6.65361 7.33059 6.48047 8.19629C6.38691 8.66362 5.97662 9 5.5 9C5.02338 9 4.61309 8.66362 4.51953 8.19629C4.34639 7.33059 3.66941 6.65361 2.80371 6.48047C2.33638 6.38691 2 5.97662 2 5.5C2 5.02338 2.33638 4.61309 2.80371 4.51953C3.66941 4.34639 4.34639 3.66941 4.51953 2.80371L4.54102 2.71777C4.66493 2.29575 5.05317 2 5.5 2Z"/></svg>