<svg width="20" height="20" viewBox="0 0 20 20" fill="currentColor" xmlns="http://www.w3.org/2000/svg"><path fill-rule="evenodd" clip-rule="evenodd" d="M10 2C10.2761 2 10.5 2.22386 10.5 2.5V5H15.5C16.3284 5 17 5.67157 17 6.5V7.5C17 8.32843 16.3284 9 15.5 9H10.5V11H13.5C14.3284 11 15 11.6716 15 12.5V13.5C15 14.3284 14.3284 15 13.5 15H10.5V17.5C10.5 17.7761 10.2761 18 10 18C9.72386 18 9.5 17.7761 9.5 17.5V15H6.5C5.67157 15 5 14.3284 5 13.5V12.5C5 11.6716 5.67157 11 6.5 11H9.5V9H4.5C3.67157 9 3 8.32843 3 7.5V6.5C3 5.67157 3.67157 5 4.5 5H9.5V2.5C9.5 2.22386 9.72386 2 10 2ZM4.5 6H15.5C15.7761 6 16 6.22386 16 6.5V7.5C16 7.77614 15.7761 8 15.5 8H4.5C4.22386 8 4 7.77614 4 7.5V6.5C4 6.22386 4.22386 6 4.5 6ZM6 12.5C6 12.2239 6.22386 12 6.5 12H13.5C13.7761 12 14 12.2239 14 12.5V13.5C14 13.7761 13.7761 14 13.5 14H6.5C6.22386 14 6 13.7761 6 13.5V12.5Z"/></svg>