<svg width="20" height="20" viewBox="0 0 20 20" fill="currentColor" xmlns="http://www.w3.org/2000/svg"><path fill-rule="evenodd" clip-rule="evenodd" d="M2 6.5C2 5.67157 2.67157 5 3.5 5L13.5 5C14.3284 5 15 5.67157 15 6.5L15 7.5C15 8.32843 14.3284 9 13.5 9L3.5 9C2.67157 9 2 8.32843 2 7.5L2 6.5ZM3 7.5L3 6.5C3 6.22386 3.22386 6 3.5 6L13.5 6C13.7761 6 14 6.22386 14 6.5L14 7.5C14 7.77614 13.7761 8 13.5 8L3.5 8C3.22386 8 3 7.77614 3 7.5Z"/><path d="M17.5 2C17.2239 2 17 2.22386 17 2.5L17 17.5C17 17.7761 17.2239 18 17.5 18C17.7761 18 18 17.7761 18 17.5L18 2.5C18 2.22386 17.7761 2 17.5 2Z"/><path fill-rule="evenodd" clip-rule="evenodd" d="M7.5 11C6.67157 11 6 11.6716 6 12.5L6 13.5C6 14.3284 6.67157 15 7.5 15L13.5 15C14.3284 15 15 14.3284 15 13.5L15 12.5C15 11.6716 14.3284 11 13.5 11L7.5 11ZM7 12.5L7 13.5C7 13.7761 7.22386 14 7.5 14L13.5 14C13.7761 14 14 13.7761 14 13.5L14 12.5C14 12.2239 13.7761 12 13.5 12L7.5 12C7.22386 12 7 12.2239 7 12.5Z"/></svg>