<svg width="20" height="20" viewBox="0 0 20 20" fill="currentColor" xmlns="http://www.w3.org/2000/svg"><path d="M2 10C2 9.72386 2.22386 9.5 2.5 9.5L5 9.5L5 4.5C5 3.67157 5.67157 3 6.5 3L7.5 3C8.32843 3 9 3.67157 9 4.5L9 9.5L11 9.5L11 6.5C11 5.67157 11.6716 5 12.5 5L13.5 5C14.3284 5 15 5.67157 15 6.5L15 9.5L17.5 9.5C17.7761 9.5 18 9.72386 18 10C18 10.2761 17.7761 10.5 17.5 10.5L15 10.5L15 13.5C15 14.3284 14.3284 15 13.5 15L12.5 15C11.6716 15 11 14.3284 11 13.5L11 10.5L9 10.5L9 15.5C9 16.3284 8.32843 17 7.5 17L6.5 17C5.67157 17 5 16.3284 5 15.5L5 10.5L2.5 10.5C2.22386 10.5 2 10.2761 2 10Z"/></svg>