<svg width="20" height="20" viewBox="0 0 20 20" fill="currentColor" xmlns="http://www.w3.org/2000/svg"><path d="M5 3.5C5 2.67157 5.67157 2 6.5 2H7.5C8.32843 2 9 2.67157 9 3.5V13.5C9 14.3284 8.32843 15 7.5 15H6.5C5.67157 15 5 14.3284 5 13.5V3.5Z"/><path d="M2 17.5C2 17.2239 2.22386 17 2.5 17H17.5C17.7761 17 18 17.2239 18 17.5C18 17.7761 17.7761 18 17.5 18H2.5C2.22386 18 2 17.7761 2 17.5Z"/><path d="M12.5 6C11.6716 6 11 6.67157 11 7.5V13.5C11 14.3284 11.6716 15 12.5 15H13.5C14.3284 15 15 14.3284 15 13.5V7.5C15 6.67157 14.3284 6 13.5 6H12.5Z"/></svg>