<svg width="20" height="20" viewBox="0 0 20 20" fill="currentColor" xmlns="http://www.w3.org/2000/svg"><path d="M10 2C10.2761 2 10.5 2.22386 10.5 2.5V5H15.5C16.3284 5 17 5.67157 17 6.5V7.5C17 8.32843 16.3284 9 15.5 9H10.5V11H13.5C14.3284 11 15 11.6716 15 12.5V13.5C15 14.3284 14.3284 15 13.5 15H10.5V17.5C10.5 17.7761 10.2761 18 10 18C9.72386 18 9.5 17.7761 9.5 17.5V15H6.5C5.67157 15 5 14.3284 5 13.5V12.5C5 11.6716 5.67157 11 6.5 11H9.5V9H4.5C3.67157 9 3 8.32843 3 7.5V6.5C3 5.67157 3.67157 5 4.5 5H9.5V2.5C9.5 2.22386 9.72386 2 10 2Z"/></svg>