<svg width="20" height="20" viewBox="0 0 20 20" fill="currentColor" xmlns="http://www.w3.org/2000/svg"><path fill-rule="evenodd" clip-rule="evenodd" d="M9.5 3C8.67157 3 8 3.67157 8 4.5V15.5C8 16.3284 8.67157 17 9.5 17H10.5C11.3284 17 12 16.3284 12 15.5V4.5C12 3.67157 11.3284 3 10.5 3H9.5ZM10.5 4H9.5C9.22386 4 9 4.22386 9 4.5V15.5C9 15.7761 9.22386 16 9.5 16H10.5C10.7761 16 11 15.7761 11 15.5V4.5C11 4.22386 10.7761 4 10.5 4Z"/><path fill-rule="evenodd" clip-rule="evenodd" d="M4.5 9C3.67157 9 3 9.67157 3 10.5V15.5C3 16.3284 3.67157 17 4.5 17H5.5C6.32843 17 7 16.3284 7 15.5V10.5C7 9.67157 6.32843 9 5.5 9H4.5ZM5.5 10H4.5C4.22386 10 4 10.2239 4 10.5V15.5C4 15.7761 4.22386 16 4.5 16H5.5C5.77614 16 6 15.7761 6 15.5V10.5C6 10.2239 5.77614 10 5.5 10Z"/><path fill-rule="evenodd" clip-rule="evenodd" d="M13 7.5C13 6.67157 13.6716 6 14.5 6H15.5C16.3284 6 17 6.67157 17 7.5V15.5C17 16.3284 16.3284 17 15.5 17H14.5C13.6716 17 13 16.3284 13 15.5V7.5ZM14.5 7H15.5C15.7761 7 16 7.22386 16 7.5V15.5C16 15.7761 15.7761 16 15.5 16H14.5C14.2239 16 14 15.7761 14 15.5V7.5C14 7.22386 14.2239 7 14.5 7Z"/></svg>