<svg width="20" height="20" viewBox="0 0 20 20" fill="currentColor" xmlns="http://www.w3.org/2000/svg"><path d="M8 4.5C8 3.67157 8.67157 3 9.5 3H10.5C11.3284 3 12 3.67157 12 4.5V15.5C12 16.3284 11.3284 17 10.5 17H9.5C8.67157 17 8 16.3284 8 15.5V4.5Z"/><path d="M3 10.5C3 9.67157 3.67157 9 4.5 9H5.5C6.32843 9 7 9.67157 7 10.5V15.5C7 16.3284 6.32843 17 5.5 17H4.5C3.67157 17 3 16.3284 3 15.5V10.5Z"/><path d="M14.5 6C13.6716 6 13 6.67157 13 7.5V15.5C13 16.3284 13.6716 17 14.5 17H15.5C16.3284 17 17 16.3284 17 15.5V7.5C17 6.67157 16.3284 6 15.5 6H14.5Z"/></svg>