<svg width="20" height="20" viewBox="0 0 20 20" fill="currentColor" xmlns="http://www.w3.org/2000/svg"><path d="M7 11C8.10457 11 9 11.8954 9 13V15C9 16.1046 8.10457 17 7 17H5C3.89543 17 3 16.1046 3 15V13C3 11.8954 3.89543 11 5 11H7Z"/><path d="M14 11C14.2761 11 14.5 11.2239 14.5 11.5V13.5H16.5049C16.781 13.5 17.0049 13.7239 17.0049 14C17.0049 14.2761 16.781 14.5 16.5049 14.5H14.5V16.5C14.5 16.7761 14.2761 17 14 17C13.7239 17 13.5 16.7761 13.5 16.5V14.5H11.5C11.2239 14.5 11 14.2761 11 14C11 13.7239 11.2239 13.5 11.5 13.5H13.5V11.5C13.5 11.2239 13.7239 11 14 11Z"/><path d="M7 3C8.10457 3 9 3.89543 9 5V7C9 8.10457 8.10457 9 7 9H5C3.89543 9 3 8.10457 3 7V5C3 3.89543 3.89543 3 5 3H7Z"/><path d="M15 3C16.1046 3 17 3.89543 17 5V7C17 8.10457 16.1046 9 15 9H13C11.8954 9 11 8.10457 11 7V5C11 3.89543 11.8954 3 13 3H15Z"/></svg>