<svg width="20" height="20" viewBox="0 0 20 20" fill="currentColor" xmlns="http://www.w3.org/2000/svg"><path d="M4 2C2.89543 2 2 2.89543 2 4V4.5C2 4.77614 2.22386 5 2.5 5C2.77614 5 3 4.77614 3 4.5V4C3 3.44772 3.44772 3 4 3H4.5C4.77614 3 5 2.77614 5 2.5C5 2.22386 4.77614 2 4.5 2H4Z"/><path fill-rule="evenodd" clip-rule="evenodd" d="M9 3.64913C9.6188 3.29186 10.3812 3.29186 11 3.64913L15 5.95853C15.6188 6.31579 16 6.97605 16 7.69058V12.3094C16 13.0239 15.6188 13.6842 15 14.0414L11 16.3508C10.3812 16.7081 9.6188 16.7081 9 16.3508L5 14.0414C4.3812 13.6842 4 13.0239 4 12.3094V7.69058C4 6.97605 4.3812 6.31579 5 5.95853L9 3.64913ZM14.5 6.82453L10.5 4.51515C10.1906 4.33652 9.8094 4.33652 9.5 4.51515L5.50005 6.82453L10.0001 9.42253L14.5 6.82453ZM5 7.69053C5 7.69051 5 7.69055 5 7.69053V12.3094C5 12.6666 5.1906 12.9968 5.5 13.1754L9.5 15.4848L9.5001 10.2886L5 7.69053ZM10.5 15.4848L14.5 13.1754C14.8094 12.9968 15 12.6666 15 12.3094V7.69058C15 7.69057 15 7.69059 15 7.69058L10.5001 10.2886L10.5 15.4848Z"/><path d="M2 16C2 17.1046 2.89543 18 4 18H4.5C4.77614 18 5 17.7761 5 17.5C5 17.2239 4.77614 17 4.5 17H4C3.44772 17 3 16.5523 3 16V15.5C3 15.2239 2.77614 15 2.5 15C2.22386 15 2 15.2239 2 15.5V16Z"/><path d="M16 2C17.1046 2 18 2.89543 18 4V4.5C18 4.77614 17.7761 5 17.5 5C17.2239 5 17 4.77614 17 4.5V4C17 3.44772 16.5523 3 16 3H15.5C15.2239 3 15 2.77614 15 2.5C15 2.22386 15.2239 2 15.5 2H16Z"/><path d="M18 16C18 17.1046 17.1046 18 16 18H15.5C15.2239 18 15 17.7761 15 17.5C15 17.2239 15.2239 17 15.5 17H16C16.5523 17 17 16.5523 17 16V15.5C17 15.2239 17.2239 15 17.5 15C17.7761 15 18 15.2239 18 15.5V16Z"/></svg>