<svg width="20" height="20" viewBox="0 0 20 20" fill="currentColor" xmlns="http://www.w3.org/2000/svg"><path fill-rule="evenodd" clip-rule="evenodd" d="M13 8C13 9.65685 11.6569 11 10 11C8.34315 11 7 9.65685 7 8C7 6.34315 8.34315 5 10 5C11.6569 5 13 6.34315 13 8ZM12 8C12 9.10457 11.1046 10 10 10C8.89543 10 8 9.10457 8 8C8 6.89543 8.89543 6 10 6C11.1046 6 12 6.89543 12 8Z"/><path fill-rule="evenodd" clip-rule="evenodd" d="M10 18C14.4183 18 18 14.4183 18 10C18 5.58172 14.4183 2 10 2C5.58172 2 2 5.58172 2 10C2 14.4183 5.58172 18 10 18ZM10 17C11.7903 17 13.4236 16.3279 14.6614 15.2223C14.1177 14.5514 13.435 14.005 12.6591 13.6214C11.8103 13.2018 10.8742 12.989 9.92739 13.0004C8.98056 13.0119 8.04988 13.2473 7.21146 13.6874C6.48815 14.067 5.85121 14.5897 5.33858 15.2223C6.57639 16.3279 8.20971 17 10 17ZM13.1023 12.725C13.9715 13.1547 14.7406 13.7596 15.362 14.5001C16.3843 13.2833 17 11.7136 17 10C17 6.13401 13.866 3 10 3C6.13401 3 3 6.13401 3 10C3 11.7136 3.61572 13.2833 4.63799 14.5001C5.2225 13.8036 5.93837 13.2262 6.74671 12.8019C7.72486 12.2885 8.81065 12.0139 9.91529 12.0005C11.0199 11.9871 12.112 12.2354 13.1023 12.725Z"/></svg>