<svg width="20" height="20" viewBox="0 0 20 20" fill="currentColor" xmlns="http://www.w3.org/2000/svg"><path d="M3.5 3C3.77614 3 4 3.22386 4 3.5V16.5C4 16.7761 3.77614 17 3.5 17C3.22386 17 3 16.7761 3 16.5V3.5C3 3.22386 3.22386 3 3.5 3Z"/><path d="M13.3662 16C13.6423 16.0001 13.8662 16.2239 13.8662 16.5C13.8662 16.7761 13.6423 16.9999 13.3662 17H6.36621C6.09007 17 5.86621 16.7761 5.86621 16.5C5.86621 16.2239 6.09007 16 6.36621 16H13.3662Z"/><path d="M16.5 11.667C16.7761 11.667 17 11.8909 17 12.167C16.9998 12.443 16.776 12.667 16.5 12.667H6.5C6.22398 12.667 6.0002 12.443 6 12.167C6 11.8909 6.22386 11.667 6.5 11.667H16.5Z"/><path d="M13.5 7.33301C13.776 7.33301 13.9998 7.55701 14 7.83301C14 8.10915 13.7761 8.33301 13.5 8.33301H6.5C6.22386 8.33301 6 8.10915 6 7.83301C6.00016 7.55701 6.22396 7.33301 6.5 7.33301H13.5Z"/><path d="M16.5 3C16.7761 3 17 3.22386 17 3.5C17 3.77614 16.7761 4 16.5 4H6.5C6.22386 4 6 3.77614 6 3.5C6 3.22386 6.22386 3 6.5 3H16.5Z"/></svg>