<svg width="20" height="20" viewBox="0 0 20 20" fill="currentColor" xmlns="http://www.w3.org/2000/svg"><path fill-rule="evenodd" clip-rule="evenodd" d="M5 3.75C5 3.33579 5.33579 3 5.75 3H10.25C12.3211 3 14 4.67893 14 6.75C14 7.81165 13.5588 8.77026 12.8498 9.4525C14.1278 10.1202 15 11.4583 15 13C15 15.2091 13.2091 17 11 17H5.75C5.33579 17 5 16.6642 5 16.25V3.75ZM10.25 9C11.4926 9 12.5 7.99264 12.5 6.75C12.5 5.50736 11.4926 4.5 10.25 4.5H6.5V9H10.25ZM6.5 10.5V15.5H11C12.3807 15.5 13.5 14.3807 13.5 13C13.5 11.6193 12.3807 10.5 11 10.5H6.5Z"/></svg>