<svg width="20" height="20" viewBox="0 0 20 20" fill="currentColor" xmlns="http://www.w3.org/2000/svg"><path d="M10 2C10.2761 2 10.5 2.22386 10.5 2.5V4.5C10.5 4.77614 10.2761 5 10 5C9.72386 5 9.5 4.77614 9.5 4.5V2.5C9.5 2.22386 9.72386 2 10 2Z"/><path fill-rule="evenodd" clip-rule="evenodd" d="M10 14C12.2091 14 14 12.2091 14 10C14 7.79086 12.2091 6 10 6C7.79086 6 6 7.79086 6 10C6 12.2091 7.79086 14 10 14ZM10 13C11.6569 13 13 11.6569 13 10C13 8.34315 11.6569 7 10 7C8.34315 7 7 8.34315 7 10C7 11.6569 8.34315 13 10 13Z"/><path d="M15.6569 5.05027C15.8522 4.85501 15.8522 4.53842 15.6569 4.34316C15.4616 4.1479 15.1451 4.1479 14.9498 4.34316L13.5356 5.75738C13.3403 5.95264 13.3403 6.26922 13.5356 6.46448C13.7308 6.65975 14.0474 6.65975 14.2427 6.46448L15.6569 5.05027Z"/><path d="M18 10.0001C18 10.2762 17.7761 10.5001 17.5 10.5001H15.5C15.2239 10.5001 15 10.2762 15 10.0001C15 9.72392 15.2239 9.50006 15.5 9.50006H17.5C17.7761 9.50006 18 9.72392 18 10.0001Z"/><path d="M14.9498 15.657C15.1451 15.8522 15.4616 15.8522 15.6569 15.657C15.8522 15.4617 15.8522 15.1451 15.6569 14.9499L14.2427 13.5356C14.0474 13.3404 13.7308 13.3404 13.5356 13.5356C13.3403 13.7309 13.3403 14.0475 13.5356 14.2427L14.9498 15.657Z"/><path d="M10 18.0001C9.72386 18.0001 9.5 17.7762 9.5 17.5001V15.5001C9.5 15.2239 9.72386 15.0001 10 15.0001C10.2761 15.0001 10.5 15.2239 10.5 15.5001V17.5001C10.5 17.7762 10.2761 18.0001 10 18.0001Z"/><path d="M4.3431 14.9499C4.14784 15.1451 4.14784 15.4617 4.3431 15.657C4.53836 15.8522 4.85495 15.8522 5.05021 15.657L6.46442 14.2427C6.65968 14.0475 6.65968 13.7309 6.46442 13.5356C6.26916 13.3404 5.95258 13.3404 5.75732 13.5356L4.3431 14.9499Z"/><path d="M2 10.0001C2 9.72398 2.22386 9.50012 2.5 9.50012H4.5C4.77614 9.50012 5 9.72398 5 10.0001C5 10.2763 4.77614 10.5001 4.5 10.5001H2.5C2.22386 10.5001 2 10.2763 2 10.0001Z"/><path d="M5.05021 4.34329C4.85495 4.14802 4.53836 4.14802 4.3431 4.34328C4.14784 4.53855 4.14784 4.85513 4.3431 5.05039L5.75732 6.46461C5.95258 6.65987 6.26916 6.65987 6.46442 6.46461C6.65968 6.26934 6.65968 5.95276 6.46442 5.7575L5.05021 4.34329Z"/></svg>