<svg width="20" height="20" viewBox="0 0 20 20" fill="currentColor" xmlns="http://www.w3.org/2000/svg"><path fill-rule="evenodd" clip-rule="evenodd" d="M17.8536 2.85355C18.0488 2.65829 18.0488 2.34171 17.8536 2.14645C17.6583 1.95118 17.3417 1.95118 17.1464 2.14645L2.14645 17.1464C1.95118 17.3417 1.95118 17.6583 2.14645 17.8536C2.34171 18.0488 2.65829 18.0488 2.85355 17.8536L3.72575 16.9814C3.81541 16.9936 3.90696 17 4 17H16C17.1046 17 18 16.1046 18 15V6C18 5.10882 17.4171 4.35378 16.6118 4.09531L17.8536 2.85355ZM15.7071 5L13.1599 7.54718C13.6865 8.22452 14 9.07564 14 10C14 12.2091 12.2091 14 10 14C9.07564 14 8.22452 13.6865 7.54718 13.1599L4.70711 16H16C16.5523 16 17 15.5523 17 15V6C17 5.44772 16.5523 5 16 5H15.7071ZM8.26173 12.4454C8.75214 12.7946 9.35209 13 10 13C11.6569 13 13 11.6569 13 10C13 9.35209 12.7946 8.75214 12.4454 8.26173L8.26173 12.4454Z"/><path d="M13.7 3.6C13.784 3.71203 13.8893 3.80354 14.0081 3.87063L13.2878 4.59084C13.1428 4.48031 13.0119 4.34925 12.9 4.2L12.3 3.4C12.1111 3.14819 11.8148 3 11.5 3H8.5C8.18524 3 7.88885 3.14819 7.7 3.4L7.1 4.2C6.72229 4.70361 6.12952 5 5.5 5H4C3.44772 5 3 5.44772 3 6V14.8787L2.1406 15.7381C2.04987 15.5097 2 15.2607 2 15V6C2 4.89543 2.89543 4 4 4H5.5C5.81476 4 6.11115 3.85181 6.3 3.6L6.9 2.8C7.27771 2.29639 7.87049 2 8.5 2H11.5C12.1295 2 12.7223 2.29639 13.1 2.8L13.7 3.6Z"/><path d="M10 6C10.5543 6 11.0822 6.11274 11.5622 6.31653L10.7771 7.10162C10.5292 7.03534 10.2687 7 10 7C8.34315 7 7 8.34315 7 10C7 10.2687 7.03534 10.5292 7.10162 10.7771L6.31653 11.5622C6.11274 11.0822 6 10.5543 6 10C6 7.79086 7.79086 6 10 6Z"/></svg>