<svg width="20" height="20" viewBox="0 0 20 20" fill="currentColor" xmlns="http://www.w3.org/2000/svg"><path fill-rule="evenodd" clip-rule="evenodd" d="M14 10C14 12.2091 12.2091 14 10 14C7.79086 14 6 12.2091 6 10C6 7.79086 7.79086 6 10 6C12.2091 6 14 7.79086 14 10ZM13 10C13 11.6569 11.6569 13 10 13C8.34315 13 7 11.6569 7 10C7 8.34315 8.34315 7 10 7C11.6569 7 13 8.34315 13 10Z"/><path fill-rule="evenodd" clip-rule="evenodd" d="M6.9 2.8L6.3 3.6C6.11115 3.85181 5.81476 4 5.5 4H4C2.89543 4 2 4.89543 2 6V15C2 16.1046 2.89543 17 4 17H16C17.1046 17 18 16.1046 18 15V6C18 4.89543 17.1046 4 16 4H14.5C14.1852 4 13.8889 3.85181 13.7 3.6L13.1 2.8C12.7223 2.29639 12.1295 2 11.5 2H8.5C7.87049 2 7.27771 2.29639 6.9 2.8ZM17 15C17 15.5523 16.5523 16 16 16H4C3.44772 16 3 15.5523 3 15V6C3 5.44772 3.44772 5 4 5H5.5C6.12952 5 6.72229 4.70361 7.1 4.2L7.7 3.4C7.88885 3.14819 8.18524 3 8.5 3H11.5C11.8148 3 12.1111 3.14819 12.3 3.4L12.9 4.2C13.2777 4.70361 13.8705 5 14.5 5H16C16.5523 5 17 5.44772 17 6V15Z"/></svg>