<svg width="20" height="20" viewBox="0 0 20 20" fill="currentColor" xmlns="http://www.w3.org/2000/svg"><path d="M1.5 3C1.22386 3 1 3.22386 1 3.5C1 3.77614 1.22386 4 1.5 4H2.38395C2.82556 4 3.21489 4.28967 3.34178 4.71265L5.70039 12.5747C5.95418 13.4207 6.73283 14 7.61605 14H13.384C14.2672 14 15.0458 13.4207 15.2996 12.5747L17.3789 5.64367C17.4243 5.49229 17.3955 5.32834 17.3011 5.20153C17.2068 5.07473 17.0581 5 16.9 5H4.47202L4.29961 4.4253C4.04582 3.57934 3.26717 3 2.38395 3H1.5Z"/><path d="M8 16C8 16.5523 7.55228 17 7 17C6.44772 17 6 16.5523 6 16C6 15.4477 6.44772 15 7 15C7.55228 15 8 15.4477 8 16Z"/><path d="M14 17C14.5523 17 15 16.5523 15 16C15 15.4477 14.5523 15 14 15C13.4477 15 13 15.4477 13 16C13 16.5523 13.4477 17 14 17Z"/></svg>