<svg width="20" height="20" viewBox="0 0 20 20" fill="currentColor" xmlns="http://www.w3.org/2000/svg"><path d="M1 3.5C1 3.22386 1.22386 3 1.5 3H2.38395C3.26717 3 4.04582 3.57934 4.29961 4.4253L6.65822 12.2873C6.78511 12.7103 7.17444 13 7.61605 13H13.384C13.8256 13 14.2149 12.7103 14.3418 12.2873L16.4211 5.35633C16.5004 5.09183 16.7792 4.94174 17.0437 5.02109C17.3082 5.10044 17.4583 5.37918 17.3789 5.64367L15.2996 12.5747C15.0458 13.4207 14.2672 14 13.384 14H7.61605C6.73283 14 5.95418 13.4207 5.70039 12.5747L3.34178 4.71265C3.21489 4.28967 2.82556 4 2.38395 4H1.5C1.22386 4 1 3.77614 1 3.5Z"/><path d="M8 16C8 16.5523 7.55228 17 7 17C6.44772 17 6 16.5523 6 16C6 15.4477 6.44772 15 7 15C7.55228 15 8 15.4477 8 16Z"/><path d="M14 17C14.5523 17 15 16.5523 15 16C15 15.4477 14.5523 15 14 15C13.4477 15 13 15.4477 13 16C13 16.5523 13.4477 17 14 17Z"/><path d="M7.64645 10.3536C7.45118 10.1583 7.45118 9.84171 7.64645 9.64645L9.79289 7.5L7.64645 5.35355C7.45118 5.15829 7.45118 4.84171 7.64645 4.64645C7.84171 4.45118 8.15829 4.45118 8.35355 4.64645L10.5 6.79289L12.6464 4.64645C12.8417 4.45118 13.1583 4.45118 13.3536 4.64645C13.5488 4.84171 13.5488 5.15829 13.3536 5.35355L11.2071 7.5L13.3536 9.64645C13.5488 9.84171 13.5488 10.1583 13.3536 10.3536C13.1583 10.5488 12.8417 10.5488 12.6464 10.3536L10.5 8.20711L8.35355 10.3536C8.15829 10.5488 7.84171 10.5488 7.64645 10.3536Z"/></svg>