<svg width="20" height="20" viewBox="0 0 20 20" fill="currentColor" xmlns="http://www.w3.org/2000/svg"><path fill-rule="evenodd" clip-rule="evenodd" d="M10 18C14.4183 18 18 14.4183 18 10C18 5.58172 14.4183 2 10 2C5.58172 2 2 5.58172 2 10C2 14.4183 5.58172 18 10 18ZM13.8536 7.85355C14.0488 7.65829 14.0488 7.34171 13.8536 7.14645C13.6583 6.95118 13.3417 6.95118 13.1464 7.14645L8.5 11.7929L6.35355 9.64645C6.15829 9.45118 5.84171 9.45118 5.64645 9.64645C5.45118 9.84171 5.45118 10.1583 5.64645 10.3536L8.14645 12.8536C8.24022 12.9473 8.36739 13 8.5 13C8.63261 13 8.75978 12.9473 8.85355 12.8536L13.8536 7.85355Z"/></svg>