<svg width="20" height="20" viewBox="0 0 20 20" fill="currentColor" xmlns="http://www.w3.org/2000/svg"><path d="M4.22498 12.0817C4.41896 11.9538 4.68312 11.9755 4.85388 12.1461C5.02454 12.3169 5.0462 12.581 4.91834 12.775L4.85388 12.8531L2.7074 14.9996L4.85388 17.1461L4.91834 17.2242C5.04635 17.4182 5.02444 17.6823 4.85388 17.8531C4.68306 18.024 4.41904 18.0457 4.22498 17.9176L4.14685 17.8531L1.64685 15.3531C1.45175 15.1579 1.45165 14.8413 1.64685 14.6461L4.14685 12.1461L4.22498 12.0817Z"/><path d="M7.14685 12.1461C7.31768 11.9756 7.58181 11.9537 7.77576 12.0817L7.85388 12.1461L10.3539 14.6461C10.5489 14.8413 10.5488 15.1579 10.3539 15.3531L7.85388 17.8531L7.77576 17.9176C7.58172 18.0457 7.31772 18.0239 7.14685 17.8531C6.97614 17.6823 6.95428 17.4183 7.0824 17.2242L7.14685 17.1461L9.29334 14.9996L7.14685 12.8531L7.0824 12.775C6.95441 12.581 6.97606 12.3169 7.14685 12.1461Z"/><path d="M4.00037 4.80432C4.00037 3.26472 5.66704 2.30211 7.00037 3.0719L16.0004 8.26819C17.3333 9.03806 17.3334 10.9622 16.0004 11.7321L11.7435 14.1891C11.5309 14.3116 11.2606 14.2613 11.1058 14.0709C10.9122 13.8323 10.9776 13.4767 11.2435 13.3229L15.5004 10.8658C16.1666 10.4809 16.1666 9.51939 15.5004 9.1344L6.50037 3.93811C5.8337 3.55321 5.00037 4.03452 5.00037 4.80432V10.4996C5.00037 10.7757 4.7764 10.9995 4.50037 10.9996C4.22423 10.9996 4.00037 10.7758 4.00037 10.4996V4.80432Z"/></svg>