<svg width="20" height="20" viewBox="0 0 20 20" fill="currentColor" xmlns="http://www.w3.org/2000/svg"><path d="M11.6122 3.01253C11.8812 3.07459 12.0491 3.34317 11.9872 3.61214L8.98723 16.6121C8.92515 16.8812 8.65665 17.0491 8.38762 16.9871C8.1186 16.9251 7.95062 16.6565 8.01262 16.3875L11.0126 3.38753C11.0748 3.11861 11.3433 2.95054 11.6122 3.01253Z"/><path d="M5.14641 6.14631C5.34166 5.95118 5.65821 5.95116 5.85344 6.14631C6.04867 6.34154 6.0486 6.65808 5.85344 6.85335L2.70696 9.99983L5.85344 13.1463C6.04867 13.3415 6.0486 13.6581 5.85344 13.8533C5.65818 14.0486 5.34167 14.0486 5.14641 13.8533L1.64641 10.3533C1.45122 10.1581 1.45117 9.84155 1.64641 9.64632L5.14641 6.14631Z"/><path d="M14.1464 6.14631C14.3417 5.95118 14.6582 5.95116 14.8534 6.14631L18.3534 9.64632C18.5487 9.84154 18.5486 10.1581 18.3534 10.3533L14.8534 13.8533C14.6582 14.0486 14.3417 14.0486 14.1464 13.8533C13.9512 13.6581 13.9512 13.3416 14.1464 13.1463L17.2929 9.99983L14.1464 6.85335C13.9512 6.65808 13.9512 6.34155 14.1464 6.14631Z"/></svg>