<svg width="20" height="20" viewBox="0 0 20 20" fill="currentColor" xmlns="http://www.w3.org/2000/svg"><path fill-rule="evenodd" clip-rule="evenodd" d="M18 10C18 14.4183 14.4183 18 10 18C5.58172 18 2 14.4183 2 10C2 5.58172 5.58172 2 10 2C14.4183 2 18 5.58172 18 10ZM14.5841 15.2904C13.4738 16.2532 12.0575 16.8724 10.5005 16.9824V13.969C11.2309 13.8778 11.9001 13.5897 12.4533 13.1596L14.5841 15.2904ZM15.2911 14.5832C16.2536 13.473 16.8726 12.0568 16.9824 10.5L13.9691 10.5C13.878 11.2301 13.5902 11.8992 13.1603 12.4524L15.2911 14.5832ZM15.2912 5.41689C16.2537 6.5271 16.8726 7.94328 16.9824 9.5H13.9691C13.878 8.76989 13.5902 8.10088 13.1604 7.54773L15.2912 5.41689ZM14.5842 4.70972L12.4534 6.8405C11.9 6.41018 11.2306 6.12205 10.5 6.03095V3.01758C12.0572 3.12748 13.4738 3.74672 14.5842 4.70972ZM5.41663 15.291C6.527 16.2537 7.94346 16.8727 9.50049 16.9825L9.50049 13.9691C8.77007 13.8781 8.10079 13.5902 7.54745 13.1601L5.41663 15.291ZM6.84029 12.4531C6.41009 11.8998 6.12204 11.2305 6.03095 10.5H3.01758C3.12747 12.0571 3.74663 13.4736 4.70949 14.5839L6.84029 12.4531ZM6.03095 9.5H3.01758C3.12747 7.943 3.74656 6.52659 4.70933 5.41629L6.84014 7.54709C6.41002 8.10037 6.12203 8.76961 6.03095 9.5ZM7.54726 6.84C8.10051 6.40996 8.76968 6.12202 9.5 6.03095V3.01758C7.94308 3.12746 6.52673 3.7465 5.41645 4.70919L7.54726 6.84ZM13 10C13 11.6569 11.6569 13 10 13C8.34315 13 7 11.6569 7 10C7 8.34315 8.34315 7 10 7C11.6569 7 13 8.34315 13 10Z"/></svg>