<svg width="20" height="20" viewBox="0 0 20 20" fill="currentColor" xmlns="http://www.w3.org/2000/svg"><path d="M10.5 3.00018C10.7761 3.00018 11 3.22404 11 3.50018C10.9999 3.77624 10.7761 4.00018 10.5 4.00018H5C4.44772 4.00018 4 4.4479 4 5.00018V15.0002C4.0001 15.5524 4.44778 16.0002 5 16.0002H15C15.5522 16.0002 15.9999 15.5524 16 15.0002V9.50018C16 9.22404 16.2239 9.00018 16.5 9.00018C16.7761 9.00018 17 9.22404 17 9.50018V15.0002C16.9999 16.0358 16.2127 16.8872 15.2041 16.9894L15 17.0002H5L4.7959 16.9894C3.85441 16.894 3.10628 16.1458 3.01074 15.2043L3 15.0002V5.00018C3 3.89561 3.89543 3.00018 5 3.00018H10.5Z"/><path fill-rule="evenodd" clip-rule="evenodd" d="M14.124 2.66913C15.0096 1.78391 16.4455 1.78376 17.3311 2.66913C18.2163 3.55465 18.2162 4.99059 17.3311 5.87616L10.3535 12.8537C10.2936 12.9136 10.2192 12.9573 10.1377 12.9807L6.6377 13.9807C6.4632 14.0305 6.27488 13.9819 6.14648 13.8537C6.01819 13.7253 5.96968 13.537 6.01953 13.3625L7.01953 9.86249L7.04004 9.80292C7.06498 9.74471 7.10146 9.69175 7.14648 9.64667L14.124 2.66913ZM7.94434 10.2619L7.22754 12.7707L9.7373 12.0539L15.042 6.74921L13.249 4.95624L7.94434 10.2619ZM16.624 3.37616C16.129 2.88131 15.3261 2.88146 14.8311 3.37616L13.9561 4.24921L15.749 6.04218L16.624 5.16913C17.1187 4.67408 17.1188 3.87115 16.624 3.37616Z"/></svg>