<svg width="20" height="20" viewBox="0 0 20 20" fill="currentColor" xmlns="http://www.w3.org/2000/svg"><path fill-rule="evenodd" clip-rule="evenodd" d="M5.5 2C5.77614 2 6 2.22386 6 2.5V5H13C14.1046 5 15 5.89543 15 7V14H17.5C17.7761 14 18 14.2239 18 14.5C18 14.7761 17.7761 15 17.5 15H15V17.5C15 17.7761 14.7761 18 14.5 18C14.2239 18 14 17.7761 14 17.5V15H7C5.89543 15 5 14.1046 5 13V6H2.5C2.22386 6 2 5.77614 2 5.5C2 5.22386 2.22386 5 2.5 5H5V2.5C5 2.22386 5.22386 2 5.5 2ZM6 13C6 13.5523 6.44772 14 7 14H14V7C14 6.44772 13.5523 6 13 6H6V13Z"/></svg>