<svg width="20" height="20" viewBox="0 0 20 20" fill="currentColor" xmlns="http://www.w3.org/2000/svg"><path d="M11 2.49442C10.3812 2.13715 9.6188 2.13715 9 2.49442L4 5.38117C3.84118 5.47287 3.69801 5.58452 3.57292 5.71193L10.0001 9.42266L16.4271 5.712C16.302 5.58456 16.1588 5.47288 16 5.38117L11 2.49442Z"/><path d="M9.5 10.2886L3.07291 6.57795C3.02511 6.74999 3 6.92982 3 7.11322V12.8867C3 13.6013 3.3812 14.2615 4 14.6188L9 17.5055C9.15882 17.5972 9.32711 17.6654 9.5 17.71V10.2886Z"/><path d="M10.5 17.71V10.2887L16.9271 6.57804C16.9749 6.75006 17 6.92985 17 7.11322V12.8867C17 13.6013 16.6188 14.2615 16 14.6188L11 17.5055C10.8412 17.5972 10.6729 17.6654 10.5 17.71Z"/></svg>