<svg width="20" height="20" viewBox="0 0 20 20" fill="currentColor" xmlns="http://www.w3.org/2000/svg"><path fill-rule="evenodd" clip-rule="evenodd" d="M9 2.49442C9.6188 2.13715 10.3812 2.13715 11 2.49442L16 5.38117C16.6188 5.73844 17 6.39869 17 7.11322V12.8867C17 13.6013 16.6188 14.2615 16 14.6188L11 17.5055C10.3812 17.8628 9.6188 17.8628 9 17.5055L4 14.6188C3.3812 14.2615 3 13.6013 3 12.8867V7.11322C3 6.39869 3.3812 5.73844 4 5.38117L9 2.49442ZM10.5 3.36045L15.5 6.2472L10.0001 9.42266L4.50001 6.24719L9.5 3.36045C9.8094 3.18181 10.1906 3.18181 10.5 3.36045ZM4 7.11322V12.8867C4 13.244 4.1906 13.5741 4.5 13.7527L9.5 16.6395L9.5 10.2886L4 7.11322ZM10.5 10.2887L16 7.11331V12.8867C16 13.244 15.8094 13.5741 15.5 13.7527L10.5 16.6395L10.5 10.2887Z"/></svg>