<svg width="20" height="20" viewBox="0 0 20 20" fill="currentColor" xmlns="http://www.w3.org/2000/svg"><path fill-rule="evenodd" clip-rule="evenodd" d="M10 3C13.866 3 17 4.34315 17 6V14C17 15.6569 13.866 17 10 17C6.13401 17 3 15.6569 3 14V6C3 4.34315 6.13401 3 10 3ZM16 11.5439C15.7084 11.752 15.3573 11.9466 14.9502 12.1211C13.6374 12.6837 11.8565 13 10 13C8.14348 13 6.36256 12.6837 5.0498 12.1211C4.64272 11.9466 4.29159 11.752 4 11.5439V14C4 14.076 4.03186 14.2318 4.26172 14.4648C4.49608 14.7023 4.88507 14.9625 5.44434 15.2021C6.55931 15.68 8.16926 16 10 16C11.8307 16 13.4407 15.68 14.5557 15.2021C15.1149 14.9625 15.5039 14.7023 15.7383 14.4648C15.9681 14.2318 16 14.076 16 14V11.5439ZM16 7.54395C15.7084 7.75198 15.3573 7.9466 14.9502 8.12109C13.6374 8.6837 11.8565 9 10 9C8.14348 9 6.36256 8.6837 5.0498 8.12109C4.64272 7.9466 4.29159 7.75198 4 7.54395V10C4 10.0689 4.02875 10.2222 4.25195 10.4531C4.47986 10.6889 4.86641 10.9545 5.44434 11.2021C6.60132 11.698 8.24019 12 10 12C11.7598 12 13.3987 11.698 14.5557 11.2021C15.1336 10.9545 15.5201 10.6889 15.748 10.4531C15.9712 10.2222 16 10.0689 16 10V7.54395ZM10 4C8.16926 4 6.55931 4.32003 5.44434 4.79785C4.88507 5.03754 4.49608 5.29769 4.26172 5.53516C4.03186 5.76816 4 5.92398 4 6C4 6.06895 4.02875 6.22219 4.25195 6.45312C4.47986 6.68891 4.86641 6.95447 5.44434 7.20215C6.60132 7.69797 8.24019 8 10 8C11.7598 8 13.3987 7.69797 14.5557 7.20215C15.1336 6.95447 15.5201 6.68891 15.748 6.45312C15.9712 6.22219 16 6.06895 16 6C16 5.92398 15.9681 5.76816 15.7383 5.53516C15.5039 5.29769 15.1149 5.03754 14.5557 4.79785C13.4407 4.32003 11.8307 4 10 4Z"/></svg>