<svg width="20" height="20" viewBox="0 0 20 20" fill="currentColor" xmlns="http://www.w3.org/2000/svg"><path fill-rule="evenodd" clip-rule="evenodd" d="M6 10.9997C7.30569 10.9997 8.41394 11.8352 8.82617 12.9997H10C10.276 12.9997 10.4997 13.2237 10.5 13.4997C10.4999 13.7757 10.2761 13.9997 10 13.9997H9V14.9997H10L10.1006 15.0094C10.3284 15.0559 10.4998 15.2582 10.5 15.4997C10.4999 15.7413 10.3285 15.9433 10.1006 15.9899L10 15.9997H9C8.99998 16.3505 8.93684 16.6868 8.82617 16.9997H10C10.276 16.9997 10.4997 17.2237 10.5 17.4997C10.4999 17.7757 10.2761 17.9997 10 17.9997H8.23145C7.68219 18.612 6.88734 18.9997 6 18.9997C5.11266 18.9997 4.31781 18.612 3.76855 17.9997H2C1.72391 17.9997 1.50008 17.7757 1.5 17.4997C1.50026 17.2237 1.72402 16.9997 2 16.9997H3.17383C3.06316 16.6868 3.00002 16.3505 3 15.9997H2C1.72391 15.9997 1.50008 15.7757 1.5 15.4997C1.50026 15.2237 1.72402 14.9997 2 14.9997H3V13.9997H2C1.72391 13.9997 1.50008 13.7757 1.5 13.4997C1.50026 13.2237 1.72402 12.9997 2 12.9997H3.17383C3.58606 11.8352 4.69431 10.9997 6 10.9997ZM4 15.9997C4.00008 17.1042 4.89548 17.9997 6 17.9997C7.10452 17.9997 7.99992 17.1042 8 15.9997V14.9997H4V15.9997ZM6 11.9997C4.89559 11.9997 4.00026 12.8953 4 13.9997H8C7.99974 12.8953 7.10441 11.9997 6 11.9997Z"/><path d="M4 4.80338C4.00044 3.26416 5.66691 2.30243 7 3.07193L16 8.26822L16.1211 8.34342C17.2927 9.13061 17.2926 10.8686 16.1211 11.6559L16 11.7311L12.248 13.8981C12.009 14.0359 11.7035 13.9535 11.5654 13.7145C11.4277 13.4755 11.5092 13.17 11.748 13.0319L15.5 10.8659L15.6172 10.7868C16.1272 10.3908 16.1274 9.60846 15.6172 9.21256L15.5 9.13346L6.5 3.93717C5.83354 3.55275 5.00044 4.03412 5 4.80338V9.7565C4.99992 10.0326 4.77609 10.2565 4.5 10.2565C4.22391 10.2565 4.00008 10.0326 4 9.7565V4.80338Z"/></svg>