<svg width="20" height="20" viewBox="0 0 20 20" fill="currentColor" xmlns="http://www.w3.org/2000/svg"><path fill-rule="evenodd" clip-rule="evenodd" d="M3.41416 8.10056C3.78923 7.72549 3.99994 7.21678 3.99994 6.68635V6.00001C3.99994 4.89544 4.89537 4.00001 5.99994 4.00001H6.68629C7.21672 4.00001 7.72543 3.78929 8.1005 3.41422L8.58578 2.92894C9.36683 2.14789 10.6332 2.14789 11.4142 2.92894L11.8995 3.41422C12.2746 3.78929 12.7833 4.00001 13.3137 4.00001H13.9999C15.1045 4.00001 15.9999 4.89544 15.9999 6.00001V6.68625C15.9999 7.21668 16.2107 7.72539 16.5857 8.10046L17.0711 8.58579C17.8521 9.36684 17.8521 10.6332 17.0711 11.4142L16.5857 11.8996C16.2107 12.2746 15.9999 12.7833 15.9999 13.3138V14C15.9999 15.1046 15.1045 16 13.9999 16H13.3137C12.7833 16 12.2746 16.2107 11.8995 16.5858L11.4142 17.0711C10.6332 17.8521 9.36683 17.8521 8.58578 17.0711L8.1005 16.5858C7.72543 16.2107 7.21672 16 6.68629 16H5.99994C4.89537 16 3.99994 15.1046 3.99994 14V13.3137C3.99994 12.7832 3.78923 12.2745 3.41416 11.8995L2.92893 11.4142C2.14788 10.6332 2.14788 9.36684 2.92893 8.58579L3.41416 8.10056ZM12.8535 7.85356C13.0488 7.65829 13.0488 7.34171 12.8535 7.14645C12.6582 6.95119 12.3417 6.95119 12.1464 7.14645L7.14639 12.1464C6.95113 12.3417 6.95113 12.6583 7.14639 12.8536C7.34165 13.0488 7.65823 13.0488 7.8535 12.8536L12.8535 7.85356ZM8.99994 8C8.99994 8.55229 8.55223 9 7.99994 9C7.44766 9 6.99994 8.55229 6.99994 8C6.99994 7.44772 7.44766 7 7.99994 7C8.55223 7 8.99994 7.44772 8.99994 8ZM11.9999 13C12.5522 13 12.9999 12.5523 12.9999 12C12.9999 11.4477 12.5522 11 11.9999 11C11.4477 11 10.9999 11.4477 10.9999 12C10.9999 12.5523 11.4477 13 11.9999 13Z"/></svg>