<svg width="20" height="20" viewBox="0 0 20 20" fill="currentColor" xmlns="http://www.w3.org/2000/svg"><path d="M12.8535 7.85356C13.0488 7.65829 13.0488 7.34171 12.8535 7.14645C12.6582 6.95119 12.3417 6.95119 12.1464 7.14645L7.14639 12.1464C6.95113 12.3417 6.95113 12.6583 7.14639 12.8536C7.34165 13.0488 7.65823 13.0488 7.8535 12.8536L12.8535 7.85356Z"/><path d="M8.99994 8C8.99994 8.55229 8.55223 9 7.99994 9C7.44766 9 6.99994 8.55229 6.99994 8C6.99994 7.44772 7.44766 7 7.99994 7C8.55223 7 8.99994 7.44772 8.99994 8Z"/><path d="M11.9999 13C12.5522 13 12.9999 12.5523 12.9999 12C12.9999 11.4477 12.5522 11 11.9999 11C11.4477 11 10.9999 11.4477 10.9999 12C10.9999 12.5523 11.4477 13 11.9999 13Z"/><path fill-rule="evenodd" clip-rule="evenodd" d="M3.99994 6.68635C3.99994 7.21678 3.78923 7.72549 3.41416 8.10056L2.92893 8.58579C2.14788 9.36684 2.14788 10.6332 2.92893 11.4142L3.41416 11.8995C3.78923 12.2745 3.99994 12.7832 3.99994 13.3137V14C3.99994 15.1046 4.89537 16 5.99994 16H6.68629C7.21672 16 7.72543 16.2107 8.1005 16.5858L8.58578 17.0711C9.36683 17.8521 10.6332 17.8521 11.4142 17.0711L11.8995 16.5858C12.2746 16.2107 12.7833 16 13.3137 16H13.9999C15.1045 16 15.9999 15.1046 15.9999 14V13.3138C15.9999 12.7833 16.2107 12.2746 16.5857 11.8996L17.0711 11.4142C17.8521 10.6332 17.8521 9.36684 17.0711 8.58579L16.5857 8.10046C16.2107 7.72539 15.9999 7.21668 15.9999 6.68625V6.00001C15.9999 4.89544 15.1045 4.00001 13.9999 4.00001H13.3137C12.7833 4.00001 12.2746 3.78929 11.8995 3.41422L11.4142 2.92894C10.6332 2.14789 9.36683 2.14789 8.58578 2.92894L8.1005 3.41422C7.72543 3.78929 7.21672 4.00001 6.68629 4.00001H5.99994C4.89537 4.00001 3.99994 4.89544 3.99994 6.00001V6.68635ZM3.63603 9.2929L4.12126 8.80767C4.68387 8.24506 4.99994 7.482 4.99994 6.68635V6.00001C4.99994 5.44772 5.44766 5.00001 5.99994 5.00001H6.68629C7.48194 5.00001 8.245 4.68394 8.80761 4.12133L9.29289 3.63605C9.68341 3.24552 10.3166 3.24552 10.7071 3.63605L11.1924 4.12133C11.755 4.68394 12.5181 5.00001 13.3137 5.00001H13.9999C14.5522 5.00001 14.9999 5.44773 14.9999 6.00001V6.68625C14.9999 7.4819 15.316 8.24496 15.8786 8.80757L16.364 9.2929C16.7545 9.68343 16.7545 10.3166 16.364 10.7071L15.8786 11.1924C15.316 11.7551 14.9999 12.5181 14.9999 13.3138V14C14.9999 14.5523 14.5522 15 13.9999 15H13.3137C12.5181 15 11.755 15.3161 11.1924 15.8787L10.7071 16.364C10.3166 16.7545 9.68341 16.7545 9.29289 16.364L8.80761 15.8787C8.245 15.3161 7.48194 15 6.68629 15H5.99994C5.44766 15 4.99994 14.5523 4.99994 14V13.3137C4.99994 12.518 4.68387 11.755 4.12126 11.1923L3.63603 10.7071C3.24551 10.3166 3.24551 9.68343 3.63603 9.2929Z"/></svg>