<svg width="20" height="20" viewBox="0 0 20 20" fill="currentColor" xmlns="http://www.w3.org/2000/svg"><path d="M7 6C7.55228 6 8 5.55228 8 5C8 4.44772 7.55228 4 7 4C6.44772 4 6 4.44772 6 5C6 5.55228 6.44772 6 7 6Z"/><path d="M7 11C7.55228 11 8 10.5523 8 10C8 9.44771 7.55228 9 7 9C6.44772 9 6 9.44771 6 10C6 10.5523 6.44772 11 7 11Z"/><path d="M8 15C8 15.5523 7.55228 16 7 16C6.44772 16 6 15.5523 6 15C6 14.4477 6.44772 14 7 14C7.55228 14 8 14.4477 8 15Z"/><path d="M13 6C13.5523 6 14 5.55228 14 5C14 4.44772 13.5523 4 13 4C12.4477 4 12 4.44772 12 5C12 5.55228 12.4477 6 13 6Z"/><path d="M14 10C14 10.5523 13.5523 11 13 11C12.4477 11 12 10.5523 12 10C12 9.44771 12.4477 9 13 9C13.5523 9 14 9.44771 14 10Z"/><path d="M13 16C13.5523 16 14 15.5523 14 15C14 14.4477 13.5523 14 13 14C12.4477 14 12 14.4477 12 15C12 15.5523 12.4477 16 13 16Z"/></svg>