<svg width="20" height="20" viewBox="0 0 20 20" fill="currentColor" xmlns="http://www.w3.org/2000/svg"><path fill-rule="evenodd" clip-rule="evenodd" d="M3.8507 12.4479C3.94889 12.1534 4.1143 11.8857 4.33385 11.6662L12.5858 3.41422C13.3668 2.63317 14.6332 2.63317 15.4142 3.41422L16.5858 4.58579C17.3668 5.36684 17.3668 6.63317 16.5858 7.41422L8.33385 15.6662C8.1143 15.8857 7.84665 16.0511 7.5521 16.1493L4.84605 17.0513L4.52983 16.1026L7.23587 15.2006C7.38315 15.1515 7.51697 15.0688 7.62675 14.959L13.9393 8.64645L11.3536 6.06066L5.04096 12.3733C4.93119 12.483 4.84848 12.6169 4.79938 12.7641L3.89737 15.4702C3.76708 15.8611 4.13895 16.2329 4.52983 16.1026L4.84605 17.0513C3.67342 17.4422 2.55781 16.3266 2.94869 15.154L3.8507 12.4479ZM12.0607 5.35356L14.6465 7.93934L15.8787 6.70711C16.2692 6.31659 16.2692 5.68342 15.8787 5.2929L14.7071 4.12132C14.3166 3.7308 13.6834 3.7308 13.2929 4.12132L12.0607 5.35356Z"/></svg>