<svg width="20" height="20" viewBox="0 0 20 20" fill="currentColor" xmlns="http://www.w3.org/2000/svg"><path d="M8 3.5C8 3.22386 7.77614 3 7.5 3C7.22386 3 7 3.22386 7 3.5V6C7 6.55228 6.55228 7 6 7H3.5C3.22386 7 3 7.22386 3 7.5C3 7.77614 3.22386 8 3.5 8H6C7.10457 8 8 7.10457 8 6V3.5Z"/><path d="M12 16.5C12 16.7761 12.2239 17 12.5 17C12.7761 17 13 16.7761 13 16.5V14C13 13.4477 13.4477 13 14 13H16.5C16.7761 13 17 12.7761 17 12.5C17 12.2239 16.7761 12 16.5 12H14C12.8954 12 12 12.8954 12 14V16.5Z"/><path d="M12.5 3C12.2239 3 12 3.22386 12 3.5V6C12 7.10457 12.8954 8 14 8H16.5C16.7761 8 17 7.77614 17 7.5C17 7.22386 16.7761 7 16.5 7H14C13.4477 7 13 6.55228 13 6V3.5C13 3.22386 12.7761 3 12.5 3Z"/><path d="M8 16.5C8 16.7761 7.77614 17 7.5 17C7.22386 17 7 16.7761 7 16.5V14C7 13.4477 6.55228 13 6 13H3.5C3.22386 13 3 12.7761 3 12.5C3 12.2239 3.22386 12 3.5 12H6C7.10457 12 8 12.8954 8 14V16.5Z"/></svg>