<svg width="20" height="20" viewBox="0 0 20 20" fill="currentColor" xmlns="http://www.w3.org/2000/svg"><path d="M4 5C4 4.44772 4.44772 4 5 4H7.5C7.77614 4 8 3.77614 8 3.5C8 3.22386 7.77614 3 7.5 3H5C3.89543 3 3 3.89543 3 5V15C3 16.1046 3.89543 17 5 17H15C16.1046 17 17 16.1046 17 15V12.5C17 12.2239 16.7761 12 16.5 12C16.2239 12 16 12.2239 16 12.5V15C16 15.5523 15.5523 16 15 16H5C4.44772 16 4 15.5523 4 15V5Z"/><path d="M11.5 3C11.2239 3 11 3.22386 11 3.5C11 3.77614 11.2239 4 11.5 4H15.2929L9.14645 10.1464C8.95118 10.3417 8.95118 10.6583 9.14645 10.8536C9.34171 11.0488 9.65829 11.0488 9.85355 10.8536L16 4.70711V8.5C16 8.77614 16.2239 9 16.5 9C16.7761 9 17 8.77614 17 8.5V3.5C17 3.22386 16.7761 3 16.5 3H11.5Z"/></svg>