<svg width="20" height="20" viewBox="0 0 20 20" fill="currentColor" xmlns="http://www.w3.org/2000/svg"><path fill-rule="evenodd" clip-rule="evenodd" d="M10 13C11.6569 13 13 11.6569 13 10C13 8.34315 11.6569 7 10 7C8.34314 7 7 8.34315 7 10C7 11.6569 8.34314 13 10 13ZM10 12C11.1046 12 12 11.1046 12 10C12 8.89543 11.1046 8 10 8C8.89543 8 8 8.89543 8 10C8 11.1046 8.89543 12 10 12Z"/><path fill-rule="evenodd" clip-rule="evenodd" d="M5.25381 4C4.60568 4 3.99812 4.31547 3.62525 4.84561C1.45044 7.93776 1.45044 12.0622 3.62525 15.1544C3.99812 15.6845 4.60568 16 5.25381 16H14.7424C15.3898 16 15.9968 15.6851 16.3695 15.1557C18.547 12.0634 18.547 7.93655 16.3695 4.84425C15.9968 4.31493 15.3898 4 14.7424 4H5.25381ZM14.7424 5H5.25381C4.93121 5 4.62879 5.15703 4.4432 5.4209C3.67849 6.50817 3.21645 7.73911 3.05708 9H5C5.27614 9 5.5 9.22386 5.5 9.5C5.5 9.77614 5.27614 10 5 10H2.99414C2.99414 11.6028 3.47716 13.2056 4.4432 14.5791C4.62879 14.843 4.93121 15 5.25381 15H14.7424C15.0645 15 15.3664 14.8433 15.5519 14.58C17.4862 11.833 17.4862 8.16698 15.5519 5.42C15.3664 5.15667 15.0645 5 14.7424 5Z"/></svg>