<svg width="20" height="20" viewBox="0 0 20 20" fill="currentColor" xmlns="http://www.w3.org/2000/svg"><path fill-rule="evenodd" clip-rule="evenodd" d="M9.08579 3.58579C8.71071 3.21071 8.20201 3 7.67157 3H4C2.89543 3 2 3.89543 2 5V15C2 16.1046 2.89543 17 4 17H16C17.1046 17 18 16.1046 18 15V7C18 5.89543 17.1046 5 16 5H10.9142C10.649 5 10.3946 4.89464 10.2071 4.70711L9.08579 3.58579ZM9.5 5.41421L8.37868 4.29289C8.19114 4.10536 7.93679 4 7.67157 4H4C3.44772 4 3 4.44772 3 5V8H17V7C17 6.44772 16.5523 6 16 6H10.9142C10.3838 6 9.87507 5.78928 9.5 5.41421ZM3 9H17V15C17 15.5523 16.5523 16 16 16H4C3.44772 16 3 15.5523 3 15V9Z"/></svg>