<svg width="20" height="20" viewBox="0 0 20 20" fill="currentColor" xmlns="http://www.w3.org/2000/svg"><path d="M7.67157 3C8.20201 3 8.71071 3.21071 9.08579 3.58579L10.2071 4.70711C10.3946 4.89464 10.649 5 10.9142 5H16C17.1046 5 18 5.89543 18 7V7.04508C17.8303 7.0155 17.655 7 17.4751 7H5.69143C4.40014 7 3.25372 7.82629 2.84538 9.05132L2 11.5875V5C2 3.89543 2.89543 3 4 3H7.67157Z"/><path d="M17.4751 8H5.69152C4.83066 8 4.06638 8.55086 3.79415 9.36754L2.12748 14.3675C1.6958 15.6626 2.65974 17 4.02485 17H15.8085C16.6693 17 17.4336 16.4491 17.7058 15.6325L19.3725 10.6325C19.8042 9.33739 18.8403 8 17.4751 8Z"/></svg>