<svg width="20" height="20" viewBox="0 0 20 20" fill="currentColor" xmlns="http://www.w3.org/2000/svg"><path d="M5 3C3.89543 3 3 3.89543 3 5V7.5C3 7.77614 3.22386 8 3.5 8C3.77614 8 4 7.77614 4 7.5V5C4 4.44772 4.44772 4 5 4H7.5C7.77614 4 8 3.77614 8 3.5C8 3.22386 7.77614 3 7.5 3H5Z"/><path d="M5 17C3.89543 17 3 16.1046 3 15V12.5C3 12.2239 3.22386 12 3.5 12C3.77614 12 4 12.2239 4 12.5V15C4 15.5523 4.44772 16 5 16H7.5C7.77614 16 8 16.2239 8 16.5C8 16.7761 7.77614 17 7.5 17H5Z"/><path d="M17 5C17 3.89543 16.1046 3 15 3H12.5C12.2239 3 12 3.22386 12 3.5C12 3.77614 12.2239 4 12.5 4H15C15.5523 4 16 4.44772 16 5V7.5C16 7.77614 16.2239 8 16.5 8C16.7761 8 17 7.77614 17 7.5V5Z"/><path d="M15 17C16.1046 17 17 16.1046 17 15V12.5C17 12.2239 16.7761 12 16.5 12C16.2239 12 16 12.2239 16 12.5V15C16 15.5523 15.5523 16 15 16H12.5C12.2239 16 12 16.2239 12 16.5C12 16.7761 12.2239 17 12.5 17H15Z"/></svg>