<svg width="20" height="20" viewBox="0 0 20 20" fill="currentColor" xmlns="http://www.w3.org/2000/svg"><path d="M11.9962 10.5C11.9316 14.6854 11.0626 18 10 18C8.93741 18 8.06837 14.6854 8.00384 10.5H11.9962Z"/><path d="M12.9963 10.5C12.9653 12.572 12.7427 14.4661 12.3844 15.8994C12.1994 16.6391 11.9656 17.3087 11.6713 17.8252C15.1294 17.0902 17.7613 14.121 17.9846 10.5H12.9963Z"/><path d="M17.9846 9.5H12.9963C12.9653 7.42804 12.7427 5.53389 12.3844 4.10061C12.1994 3.36093 11.9656 2.69133 11.6713 2.17483C15.1294 2.90979 17.7613 5.87903 17.9846 9.5Z"/><path d="M11.9962 9.5H8.00384C8.06837 5.31464 8.93741 2 10 2C11.0626 2 11.9316 5.31464 11.9962 9.5Z"/><path d="M7.00373 9.5C7.03471 7.42804 7.25732 5.53389 7.61564 4.10061C7.80056 3.36093 8.03436 2.69134 8.32873 2.17484C4.87064 2.90981 2.23867 5.87904 2.01538 9.5H7.00373Z"/><path d="M2.01538 10.5C2.23867 14.121 4.87064 17.0902 8.32873 17.8252C8.03436 17.3087 7.80056 16.6391 7.61564 15.8994C7.25732 14.4661 7.03471 12.572 7.00373 10.5H2.01538Z"/></svg>