<svg width="20" height="20" viewBox="0 0 20 20" fill="currentColor" xmlns="http://www.w3.org/2000/svg"><path fill-rule="evenodd" clip-rule="evenodd" d="M18 10C18 5.58172 14.4183 2 10 2C5.58172 2 2 5.58172 2 10C2 14.4183 5.58172 18 10 18C14.4183 18 18 14.4183 18 10ZM10.4195 16.7079C10.1696 16.9898 10.0255 17 10 17C9.97447 17 9.83042 16.9898 9.58052 16.7079C9.33166 16.4272 9.06185 15.964 8.81501 15.3057C8.36303 14.1005 8.05247 12.415 8.00604 10.5H11.994C11.9475 12.415 11.637 14.1005 11.185 15.3057C10.9381 15.964 10.6683 16.4272 10.4195 16.7079ZM11.994 9.5H8.00604C8.05247 7.58499 8.36303 5.89954 8.81501 4.69427C9.06185 4.03602 9.33166 3.57279 9.58052 3.29209C9.83042 3.01022 9.97447 3 10 3C10.0255 3 10.1696 3.01022 10.4195 3.29209C10.6683 3.57279 10.9381 4.03602 11.185 4.69427C11.637 5.89954 11.9475 7.58499 11.994 9.5ZM12.9942 10.5C12.9323 13.1778 12.3764 15.4992 11.5665 16.824C14.5211 16.1486 16.7634 13.6036 16.9824 10.5H12.9942ZM16.9824 9.5H12.9942C12.9323 6.82221 12.3764 4.50084 11.5665 3.17596C14.5211 3.85141 16.7634 6.3964 16.9824 9.5ZM7.00576 9.5C7.06769 6.82221 7.6236 4.50084 8.43348 3.17596C5.47889 3.85141 3.23662 6.3964 3.01758 9.5H7.00576ZM3.01758 10.5C3.23662 13.6036 5.47889 16.1486 8.43348 16.824C7.6236 15.4992 7.06769 13.1778 7.00576 10.5H3.01758Z"/></svg>