<svg width="20" height="20" viewBox="0 0 20 20" fill="currentColor" xmlns="http://www.w3.org/2000/svg"><path d="M10 6C10 7.65685 8.65685 9 7 9C5.34315 9 4 7.65685 4 6C4 4.34315 5.34315 3 7 3C8.65685 3 10 4.34315 10 6Z"/><path d="M7 10C4.23858 10 2 12.2386 2 15C2 16.1046 2.89543 17 4 17H10C10.1727 17 10.3402 16.9781 10.5 16.937C10.5319 16.9288 10.5635 16.9198 10.5947 16.9101C11.4089 16.6569 12 15.8975 12 15C12 13.5268 11.3628 12.2024 10.3491 11.2873C9.4626 10.4872 8.28819 10 7 10Z"/><path d="M16 17H13.3546C12.9224 17 12.6606 16.4534 12.8117 16.0485C12.9334 15.7221 13 15.3688 13 15C13 13.5279 12.4699 12.1797 11.5901 11.1358C11.379 10.8852 11.4204 10.4948 11.7213 10.3652C12.2669 10.1302 12.8683 10 13.5 10C15.9853 10 18 12.0147 18 14.5V15C18 16.1046 17.1046 17 16 17Z"/><path d="M13.5 9C14.8807 9 16 7.88071 16 6.5C16 5.11929 14.8807 4 13.5 4C12.1193 4 11 5.11929 11 6.5C11 7.88071 12.1193 9 13.5 9Z"/></svg>