<svg width="20" height="20" viewBox="0 0 20 20" fill="currentColor" xmlns="http://www.w3.org/2000/svg"><path d="M10 3C6.13401 3 3 6.13401 3 10V14.5C3 14.7761 2.77614 15 2.5 15C2.22386 15 2 14.7761 2 14.5V10C2 5.58172 5.58172 2 10 2C14.4183 2 18 5.58172 18 10V14.5C18 14.7761 17.7761 15 17.5 15C17.2239 15 17 14.7761 17 14.5V10C17 6.13401 13.866 3 10 3Z"/><path fill-rule="evenodd" clip-rule="evenodd" d="M5.5 11C4.67157 11 4 11.6716 4 12.5V16.5C4 17.3284 4.67157 18 5.5 18H6.5C7.32843 18 8 17.3284 8 16.5V12.5C8 11.6716 7.32843 11 6.5 11H5.5ZM6.5 12H5.5C5.22386 12 5 12.2239 5 12.5V16.5C5 16.7761 5.22386 17 5.5 17H6.5C6.77614 17 7 16.7761 7 16.5V12.5C7 12.2239 6.77614 12 6.5 12Z"/><path fill-rule="evenodd" clip-rule="evenodd" d="M12 12.5C12 11.6716 12.6716 11 13.5 11H14.5C15.3284 11 16 11.6716 16 12.5V16.5C16 17.3284 15.3284 18 14.5 18H13.5C12.6716 18 12 17.3284 12 16.5V12.5ZM13.5 12H14.5C14.7761 12 15 12.2239 15 12.5V16.5C15 16.7761 14.7761 17 14.5 17H13.5C13.2239 17 13 16.7761 13 16.5V12.5C13 12.2239 13.2239 12 13.5 12Z"/></svg>