<svg width="20" height="20" viewBox="0 0 20 20" fill="currentColor" xmlns="http://www.w3.org/2000/svg"><path d="M17 7.25C17 5.45507 15.5449 4 13.75 4C12.5099 4 11.4305 4.69459 10.8818 5.7207L10 7.37012L9.11816 5.7207C8.56949 4.69459 7.49011 4 6.25 4C4.45507 4 3 5.45507 3 7.25C3 9.30906 4.23199 11.2905 5.83691 12.9717C7.38733 14.5957 9.14852 15.7948 10 16.3311C10.8515 15.7948 12.6127 14.5957 14.1631 12.9717C15.768 11.2905 17 9.30906 17 7.25ZM18 7.25C18 12.1444 12.2035 16.1332 10.4785 17.2119C10.1825 17.3969 9.81753 17.3969 9.52148 17.2119C7.79648 16.1332 2 12.1444 2 7.25C2 4.90279 3.90279 3 6.25 3C7.87369 3 9.28439 3.91071 10 5.24902C10.7156 3.91071 12.1263 3 13.75 3C16.0972 3 18 4.90279 18 7.25Z"/></svg>