<svg width="20" height="20" viewBox="0 0 20 20" fill="currentColor" xmlns="http://www.w3.org/2000/svg"><path d="M10 6C8.73529 6 8.12674 7.05459 7.98507 7.62127C7.9181 7.88916 7.64663 8.05205 7.37873 7.98507C7.11083 7.9181 6.94795 7.64663 7.01493 7.37873C7.20659 6.61208 8.06471 5 10 5C11.7406 5 13 6.18961 13 7.75C13 8.92544 12.1236 9.49723 11.5225 9.88797L11.465 9.9253C11.1609 10.1228 10.9232 10.2771 10.7471 10.4561C10.5797 10.6262 10.5 10.7879 10.5 11C10.5 11.2761 10.2761 11.5 10 11.5C9.72386 11.5 9.5 11.2761 9.5 11C9.5 10.4621 9.73278 10.0613 10.0342 9.75485C10.2913 9.49341 10.6208 9.28033 10.8992 9.10025L10.9775 9.04953C11.6264 8.62777 12 8.32456 12 7.75C12 6.81039 11.2594 6 10 6Z"/><path d="M11 14C11 14.5523 10.5523 15 10 15C9.44772 15 9 14.5523 9 14C9 13.4477 9.44772 13 10 13C10.5523 13 11 13.4477 11 14Z"/><path fill-rule="evenodd" clip-rule="evenodd" d="M18 10C18 14.4183 14.4183 18 10 18C5.58172 18 2 14.4183 2 10C2 5.58172 5.58172 2 10 2C14.4183 2 18 5.58172 18 10ZM17 10C17 13.866 13.866 17 10 17C6.13401 17 3 13.866 3 10C3 6.13401 6.13401 3 10 3C13.866 3 17 6.13401 17 10Z"/></svg>