<svg width="20" height="20" viewBox="0 0 20 20" fill="currentColor" xmlns="http://www.w3.org/2000/svg"><path fill-rule="evenodd" clip-rule="evenodd" d="M5 3C3.89543 3 3 3.89543 3 5V7C3 8.10457 3.89543 9 5 9H15C16.1046 9 17 8.10457 17 7V5C17 3.89543 16.1046 3 15 3H5ZM5.5 5.5C5.22386 5.5 5 5.72386 5 6C5 6.27614 5.22386 6.5 5.5 6.5H9.5C9.77614 6.5 10 6.27614 10 6C10 5.72386 9.77614 5.5 9.5 5.5H5.5Z"/><path d="M6 12C6 11.7239 5.77614 11.5 5.5 11.5C5.22386 11.5 5 11.7239 5 12V13.5H3.5C3.22386 13.5 3 13.7239 3 14C3 14.2761 3.22386 14.5 3.5 14.5H5V16C5 16.2761 5.22386 16.5 5.5 16.5C5.77614 16.5 6 16.2761 6 16V14.5H7.5C7.77614 14.5 8 14.2761 8 14C8 13.7239 7.77614 13.5 7.5 13.5H6V12Z"/><path fill-rule="evenodd" clip-rule="evenodd" d="M10 13C10 11.8954 10.8954 11 12 11H15C16.1046 11 17 11.8954 17 13V15C17 16.1046 16.1046 17 15 17H12C10.8954 17 10 16.1046 10 15V13ZM12 14C12 13.7239 12.2239 13.5 12.5 13.5H14.5C14.7761 13.5 15 13.7239 15 14C15 14.2761 14.7761 14.5 14.5 14.5H12.5C12.2239 14.5 12 14.2761 12 14Z"/></svg>