<svg width="20" height="20" viewBox="0 0 20 20" fill="currentColor" xmlns="http://www.w3.org/2000/svg"><path d="M15 3C16.1046 3 17 3.89543 17 5V15C17 16.0357 16.2128 16.887 15.2041 16.9893L15 17H5L4.7959 16.9893C3.85435 16.8938 3.1062 16.1457 3.01074 15.2041L3 15V6.5C3 6.22386 3.22386 6 3.5 6C3.77614 6 4 6.22386 4 6.5V15C4 15.5523 4.44772 16 5 16H15C15.5523 16 16 15.5523 16 15V5C16 4.44772 15.5523 4 15 4H10.5C10.2239 4 10 3.77614 10 3.5C10 3.22386 10.2239 3 10.5 3H15Z"/><path d="M3.5 3C4.41925 3 5.32943 3.18142 6.17871 3.5332C7.02796 3.88499 7.8002 4.39981 8.4502 5.0498C9.10019 5.6998 9.61501 6.47204 9.9668 7.32129C10.3186 8.17057 10.5 9.08075 10.5 10V11.793L12.6465 9.64648C12.8417 9.45122 13.1583 9.45122 13.3535 9.64648C13.5488 9.84175 13.5488 10.1583 13.3535 10.3535L10.3535 13.3535C10.1583 13.5488 9.84175 13.5488 9.64648 13.3535L6.64648 10.3535C6.45122 10.1583 6.45122 9.84175 6.64648 9.64648C6.84175 9.45122 7.15825 9.45122 7.35352 9.64648L9.5 11.793V10C9.5 9.21209 9.34448 8.43204 9.04297 7.7041C8.74144 6.97615 8.29934 6.31496 7.74219 5.75781C7.18504 5.20066 6.52385 4.75856 5.7959 4.45703C5.06796 4.15552 4.28791 4 3.5 4C3.22386 4 3 3.77614 3 3.5C3 3.22386 3.22386 3 3.5 3Z"/></svg>