<svg width="20" height="20" viewBox="0 0 20 20" fill="currentColor" xmlns="http://www.w3.org/2000/svg"><path d="M10 8.5C10.2761 8.5 10.5 8.72386 10.5 9V14.5C10.5 14.7761 10.2761 15 10 15C9.72386 15 9.5 14.7761 9.5 14.5V9C9.5 8.72386 9.72386 8.5 10 8.5Z"/><path d="M10 7C10.5523 7 11 6.55228 11 6C11 5.44772 10.5523 5 10 5C9.44771 5 9 5.44772 9 6C9 6.55228 9.44771 7 10 7Z"/><path fill-rule="evenodd" clip-rule="evenodd" d="M10 18C14.4183 18 18 14.4183 18 10C18 5.58172 14.4183 2 10 2C5.58172 2 2 5.58172 2 10C2 14.4183 5.58172 18 10 18ZM10 17C13.866 17 17 13.866 17 10C17 6.13401 13.866 3 10 3C6.13401 3 3 6.13401 3 10C3 13.866 6.13401 17 10 17Z"/></svg>