<svg width="20" height="20" viewBox="0 0 20 20" fill="currentColor" xmlns="http://www.w3.org/2000/svg"><path d="M15.5 3.00001H12.0113C12.0036 2.99983 11.996 2.99983 11.9884 3.00001H8.5C8.22386 3.00001 8 3.22387 8 3.50001C8 3.77615 8.22386 4.00001 8.5 4.00001H11.323L7.63071 16H4.5C4.22386 16 4 16.2239 4 16.5C4 16.7762 4.22386 17 4.5 17H7.98872C7.99637 17.0002 8.004 17.0002 8.01161 17H11.5C11.7761 17 12 16.7762 12 16.5C12 16.2239 11.7761 16 11.5 16H8.67698L12.3693 4.00001H15.5C15.7761 4.00001 16 3.77615 16 3.50001C16 3.22387 15.7761 3.00001 15.5 3.00001Z"/></svg>