<svg width="20" height="20" viewBox="0 0 20 20" fill="currentColor" xmlns="http://www.w3.org/2000/svg"><path fill-rule="evenodd" clip-rule="evenodd" d="M6 8V6C6 3.79086 7.79086 2 10 2C12.2091 2 14 3.79086 14 6V8C15.1046 8 16 8.89543 16 10V16C16 17.1046 15.1046 18 14 18H6C4.89543 18 4 17.1046 4 16V10C4 8.89543 4.89543 8 6 8ZM7 6C7 4.34315 8.34315 3 10 3C11.6569 3 13 4.34315 13 6V8H7V6ZM11 13C11 13.5523 10.5523 14 10 14C9.44772 14 9 13.5523 9 13C9 12.4477 9.44772 12 10 12C10.5523 12 11 12.4477 11 13Z"/></svg>