<svg width="20" height="20" viewBox="0 0 20 20" fill="currentColor" xmlns="http://www.w3.org/2000/svg"><path d="M10 14C10.5523 14 11 13.5523 11 13C11 12.4477 10.5523 12 10 12C9.44771 12 9 12.4477 9 13C9 13.5523 9.44771 14 10 14Z"/><path fill-rule="evenodd" clip-rule="evenodd" d="M6 6V8C4.89543 8 4 8.89543 4 10V16C4 17.1046 4.89543 18 6 18H14C15.1046 18 16 17.1046 16 16V10C16 8.89543 15.1046 8 14 8V6C14 3.79086 12.2091 2 10 2C7.79086 2 6 3.79086 6 6ZM10 3C8.34315 3 7 4.34315 7 6V8H13V6C13 4.34315 11.6569 3 10 3ZM6 9H14C14.5523 9 15 9.44772 15 10V16C15 16.5523 14.5523 17 14 17H6C5.44772 17 5 16.5523 5 16V10C5 9.44772 5.44772 9 6 9Z"/></svg>