<svg width="20" height="20" viewBox="0 0 20 20" fill="currentColor" xmlns="http://www.w3.org/2000/svg"><path d="M9.99919 1.99927C5.58054 1.99927 1.99854 5.58127 1.99854 9.99992C1.99854 14.4186 5.58054 18.0006 9.99919 18.0006C14.4178 18.0006 17.9998 14.4186 17.9998 9.99992C17.9998 5.58127 14.4178 1.99927 9.99919 1.99927ZM14.9482 10.2178L8.77928 6.65641L7.71252 7.27208V12.727L8.77928 13.3427L12.4367 11.2313L11.37 10.6156L8.77928 12.1113V7.88775L13.8555 10.819C13.7938 11.725 13.6315 12.5898 13.3755 13.3777C12.3529 13.7099 11.2008 13.8859 9.99766 13.8859C8.79452 13.8859 7.64242 13.7092 6.61986 13.3777C6.28764 12.3552 6.11163 11.2031 6.11163 9.99992C6.11163 8.79677 6.2884 7.64468 6.61986 6.62212C7.64242 6.28991 8.79452 6.11389 9.99766 6.11389C11.2008 6.11389 12.3521 6.28991 13.3747 6.62212C13.5461 7.15093 13.6764 7.71478 13.7618 8.30226L14.9078 8.96365C14.8567 8.32893 14.7599 7.71859 14.6228 7.1395C14.7851 7.22331 14.9428 7.3117 15.0937 7.40466C15.7802 7.82984 16.9316 8.73201 16.9316 9.99992C16.9316 11.2678 15.7802 12.17 15.0937 12.5952C14.9428 12.6889 14.7851 12.7765 14.6228 12.8603C14.8179 12.0359 14.9314 11.1467 14.9474 10.2178H14.9482ZM9.99919 16.9338C8.73127 16.9338 7.8291 15.7825 7.40392 15.096C7.31096 14.9458 7.22334 14.7881 7.13952 14.6266C8.02798 14.8369 8.9911 14.9527 9.99919 14.9527C11.0073 14.9527 11.9704 14.8369 12.8588 14.6266C12.775 14.7881 12.6874 14.9451 12.5944 15.096C12.1693 15.7825 11.2671 16.9338 9.99919 16.9338ZM5.37252 12.8596C5.21098 12.7758 5.05402 12.6881 4.90315 12.5952C4.21662 12.17 3.06529 11.2678 3.06529 9.99992C3.06529 8.73201 4.21662 7.82984 4.90315 7.40466C5.05326 7.3117 5.21098 7.22408 5.37252 7.14026C5.16221 8.02871 5.0464 8.99184 5.0464 9.99992C5.0464 11.008 5.16221 11.9711 5.37252 12.8596ZM9.99919 3.06602C11.2671 3.06602 12.1693 4.21735 12.5944 4.90388C12.6874 5.05475 12.7758 5.21172 12.8588 5.37326C11.9704 5.16296 11.0065 5.04713 9.99919 5.04713C8.99187 5.04713 8.02798 5.16296 7.13952 5.37326C7.22334 5.21172 7.31096 5.05475 7.40392 4.90388C7.8291 4.21735 8.73127 3.06602 9.99919 3.06602ZM16.1803 6.85604C15.6233 6.43696 14.9573 6.07579 14.2091 5.78853C13.9218 5.04028 13.5606 4.37508 13.1415 3.81808C14.4475 4.48328 15.5151 5.55003 16.1803 6.85604ZM6.85455 3.81884C6.43547 4.37508 6.07506 5.04104 5.78779 5.78853C5.04031 6.07579 4.37435 6.43697 3.81811 6.85529C4.48331 5.55004 5.55006 4.48404 6.85531 3.81808L6.85455 3.81884ZM3.81735 13.1446C4.37359 13.5636 5.03954 13.924 5.78703 14.2113C6.07429 14.9588 6.43547 15.6248 6.85379 16.181C5.54854 15.5158 4.48255 14.449 3.81659 13.1438L3.81735 13.1446ZM13.1415 16.1825C13.5606 15.6255 13.9218 14.9603 14.2091 14.2121C14.9573 13.9248 15.6233 13.5636 16.1803 13.1446C15.5143 14.4506 14.4475 15.5173 13.1415 16.1825Z"/></svg>