<svg width="20" height="20" viewBox="0 0 20 20" fill="none" xmlns="http://www.w3.org/2000/svg"><path d="M2 6C2 3.79086 3.79086 2 6 2H14C16.2091 2 18 3.79086 18 6V14C18 16.2091 16.2091 18 14 18H6C3.79086 18 2 16.2091 2 14V6Z" fill="url(#paint0_linear_9941_228)"/><path d="M10.0017 7.22236C10.2319 7.22236 10.4184 7.40891 10.4184 7.63902V12.3612C10.4184 12.5914 10.2319 12.7779 10.0017 12.7779C9.77162 12.7779 9.58507 12.5914 9.58507 12.3612V7.63902C9.58507 7.40891 9.77162 7.22236 10.0017 7.22236Z" fill="white"/><path d="M7.08507 8.05569C7.31519 8.05569 7.50174 8.24224 7.50174 8.47236V11.5279C7.50174 11.758 7.31519 11.9446 7.08507 11.9446C6.85495 11.9446 6.6684 11.758 6.6684 11.5279V8.47236C6.6684 8.24224 6.85495 8.05569 7.08507 8.05569Z" fill="white"/><path d="M11.5295 8.05569C11.7596 8.05569 11.9462 8.24224 11.9462 8.47236V11.5279C11.9462 11.758 11.7596 11.9446 11.5295 11.9446C11.2994 11.9446 11.1128 11.758 11.1128 11.5279V8.47236C11.1128 8.24224 11.2994 8.05569 11.5295 8.05569Z" fill="white"/><path d="M8.47396 9.1668C8.70408 9.1668 8.89062 9.35335 8.89062 9.58347V10.4168C8.89062 10.6469 8.70408 10.8335 8.47396 10.8335C8.24384 10.8335 8.05729 10.6469 8.05729 10.4168V9.58347C8.05729 9.35335 8.24384 9.1668 8.47396 9.1668Z" fill="white"/><path d="M12.9184 9.1668C13.1485 9.1668 13.3351 9.35335 13.3351 9.58347V10.4168C13.3351 10.6469 13.1485 10.8335 12.9184 10.8335C12.6883 10.8335 12.5017 10.6469 12.5017 10.4168V9.58347C12.5017 9.35335 12.6883 9.1668 12.9184 9.1668Z" fill="white"/><path fill-rule="evenodd" clip-rule="evenodd" d="M9.58507 4.44458C9.81519 4.44458 10.0017 4.63113 10.0017 4.86125V5.55569H13.8906C14.5043 5.55569 15.0017 6.05315 15.0017 6.6668V7.22236H15.6962C15.9263 7.22236 16.1128 7.40891 16.1128 7.63902C16.1128 7.86914 15.9263 8.05569 15.6962 8.05569H15.0017V9.58347H15.6962C15.9263 9.58347 16.1128 9.77002 16.1128 10.0001C16.1128 10.2303 15.9263 10.4168 15.6962 10.4168H15.0017V11.9446H15.6962C15.9263 11.9446 16.1128 12.1311 16.1128 12.3612C16.1128 12.5914 15.9263 12.7779 15.6962 12.7779H15.0017V13.3335C15.0017 13.9471 14.5043 14.4446 13.8906 14.4446H13.3351V15.139C13.3351 15.3691 13.1485 15.5557 12.9184 15.5557C12.6883 15.5557 12.5017 15.3691 12.5017 15.139V14.4446H10.8351V15.139C10.8351 15.3691 10.6485 15.5557 10.4184 15.5557C10.1883 15.5557 10.0017 15.3691 10.0017 15.139V14.4446H6.11285C5.4992 14.4446 5.00174 13.9471 5.00174 13.3335V12.7779H4.30729C4.07717 12.7779 3.89062 12.5914 3.89062 12.3612C3.89062 12.1311 4.07717 11.9446 4.30729 11.9446H5.00174V10.4168H4.30729C4.07717 10.4168 3.89062 10.2303 3.89062 10.0001C3.89062 9.77002 4.07717 9.58347 4.30729 9.58347H5.00174V8.05569H4.30729C4.07717 8.05569 3.89062 7.86914 3.89062 7.63902C3.89062 7.40891 4.07717 7.22236 4.30729 7.22236H5.00174V6.6668C5.00174 6.05315 5.4992 5.55569 6.11285 5.55569H6.6684V4.86125C6.6684 4.63113 6.85495 4.44458 7.08507 4.44458C7.31519 4.44458 7.50174 4.63113 7.50174 4.86125V5.55569H9.1684V4.86125C9.1684 4.63113 9.35495 4.44458 9.58507 4.44458ZM6.11285 6.38902C5.95943 6.38902 5.83507 6.51339 5.83507 6.6668V13.3335C5.83507 13.4869 5.95943 13.6112 6.11285 13.6112H13.8906C14.044 13.6112 14.1684 13.4869 14.1684 13.3335V6.6668C14.1684 6.51339 14.044 6.38902 13.8906 6.38902H6.11285Z" fill="white"/><defs><linearGradient id="paint0_linear_9941_228" x1="2" y1="2" x2="18" y2="18" gradientUnits="userSpaceOnUse"><stop stop-color="#17A9E5"/><stop offset="1" stop-color="#44CB62"/></linearGradient></defs></svg>