<svg width="20" height="20" viewBox="0 0 20 20" fill="currentColor" xmlns="http://www.w3.org/2000/svg"><path fill-rule="evenodd" clip-rule="evenodd" d="M14 2C16.2091 2 18 3.79086 18 6V14C18 16.2091 16.2091 18 14 18H6C3.79086 18 2 16.2091 2 14V6C2 3.79086 3.79086 2 6 2H14ZM10 4.66667C9.72386 4.66667 9.5 4.89052 9.5 5.16667V14.8333C9.5 15.1095 9.72386 15.3333 10 15.3333C10.2761 15.3333 10.5 15.1095 10.5 14.8333V5.16667C10.5 4.89052 10.2761 4.66667 10 4.66667ZM5.16667 6.66667C4.89052 6.66667 4.66667 6.89052 4.66667 7.16667V12.8333C4.66667 13.1095 4.89052 13.3333 5.16667 13.3333C5.44281 13.3333 5.66667 13.1095 5.66667 12.8333V7.16667C5.66667 6.89052 5.44281 6.66667 5.16667 6.66667ZM12.4167 6.66667C12.1405 6.66667 11.9167 6.89052 11.9167 7.16667V12.8333C11.9167 13.1095 12.1405 13.3333 12.4167 13.3333C12.6928 13.3333 12.9167 13.1095 12.9167 12.8333V7.16667C12.9167 6.89052 12.6928 6.66667 12.4167 6.66667ZM7.58333 8.66667C7.30719 8.66667 7.08333 8.89052 7.08333 9.16667V10.8333C7.08333 11.1095 7.30719 11.3333 7.58333 11.3333C7.85948 11.3333 8.08333 11.1095 8.08333 10.8333V9.16667C8.08333 8.89052 7.85948 8.66667 7.58333 8.66667ZM14.8333 8.66667C14.5572 8.66667 14.3333 8.89052 14.3333 9.16667V10.8333C14.3333 11.1095 14.5572 11.3333 14.8333 11.3333C15.1095 11.3333 15.3333 11.1095 15.3333 10.8333V9.16667C15.3333 8.89052 15.1095 8.66667 14.8333 8.66667Z"/></svg>