<svg width="20" height="20" viewBox="0 0 20 20" fill="none" xmlns="http://www.w3.org/2000/svg"><path d="M2 6C2 3.79086 3.79086 2 6 2H14C16.2091 2 18 3.79086 18 6V14C18 16.2091 16.2091 18 14 18H6C3.79086 18 2 16.2091 2 14V6Z" fill="url(#paint0_linear_8360_980)"/><path d="M5.16602 12.0001C5.44216 12.0001 5.66602 12.2239 5.66602 12.5001V13.3334C5.66602 13.8857 6.11373 14.3334 6.66602 14.3334H7.49935C7.77549 14.3334 7.99935 14.5573 7.99935 14.8334C7.99935 15.1096 7.77549 15.3334 7.49935 15.3334H6.66602C5.56145 15.3334 4.66602 14.438 4.66602 13.3334V12.5001C4.66602 12.2239 4.88987 12.0001 5.16602 12.0001Z" fill="white"/><path d="M14.8327 12.0001C15.1088 12.0001 15.3327 12.2239 15.3327 12.5001V13.3334C15.3327 14.438 14.4373 15.3334 13.3327 15.3334H12.4993C12.2232 15.3334 11.9993 15.1096 11.9993 14.8334C11.9993 14.5573 12.2232 14.3334 12.4993 14.3334H13.3327C13.885 14.3334 14.3327 13.8857 14.3327 13.3334V12.5001C14.3327 12.2239 14.5565 12.0001 14.8327 12.0001Z" fill="white"/><path fill-rule="evenodd" clip-rule="evenodd" d="M7.66927 8.55737C7.73345 7.6187 8.73706 7.03923 9.58203 7.45321L9.66602 7.49813L11.9993 8.84513C12.8881 9.35832 12.8881 10.6411 11.9993 11.1544L9.66602 12.5014C8.80496 12.9985 7.73541 12.4123 7.66927 11.4421L7.66602 11.3471V8.65242L7.66927 8.55737ZM9.16602 8.36401C8.94395 8.23594 8.66636 8.39616 8.66602 8.65242V11.3471C8.66616 11.6036 8.94385 11.7638 9.16602 11.6355L11.4993 10.2885C11.7214 10.1601 11.7215 9.83929 11.4993 9.71102L9.16602 8.36401Z" fill="white"/><path d="M7.49935 4.66675C7.77549 4.66675 7.99935 4.89061 7.99935 5.16675C7.99935 5.44289 7.77549 5.66675 7.49935 5.66675H6.66602C6.11373 5.66675 5.66602 6.11446 5.66602 6.66675V7.50008C5.66602 7.77622 5.44216 8.00008 5.16602 8.00008C4.88987 8.00008 4.66602 7.77622 4.66602 7.50008V6.66675C4.66602 5.56218 5.56145 4.66675 6.66602 4.66675H7.49935Z" fill="white"/><path d="M13.3327 4.66675C14.4373 4.66675 15.3327 5.56218 15.3327 6.66675V7.50008C15.3327 7.77622 15.1088 8.00008 14.8327 8.00008C14.5565 8.00008 14.3327 7.77622 14.3327 7.50008V6.66675C14.3327 6.11446 13.885 5.66675 13.3327 5.66675H12.4993C12.2232 5.66675 11.9993 5.44289 11.9993 5.16675C11.9993 4.89061 12.2232 4.66675 12.4993 4.66675H13.3327Z" fill="white"/><defs><linearGradient id="paint0_linear_8360_980" x1="2" y1="2" x2="18" y2="18" gradientUnits="userSpaceOnUse"><stop stop-color="#FF3C4E"/><stop offset="1" stop-color="#E845BA"/></linearGradient></defs></svg>