<svg width="20" height="20" viewBox="0 0 20 20" fill="none" xmlns="http://www.w3.org/2000/svg"><path d="M10 2C14.4183 2 18 5.5817 18 10C18 14.4183 14.4183 18 10 18C5.5817 18 2 14.4183 2 10C2 5.5817 5.5817 2 10 2Z" fill="url(#paint0_radial_6597_14)"/><path d="M9.96114 2.09424C14.2884 2.09424 17.7963 5.60215 17.7963 9.9294C17.7963 14.2567 14.2884 17.7646 9.96114 17.7646C5.63389 17.7646 2.12598 14.2567 2.12598 9.9294C2.12598 5.60215 5.63389 2.09424 9.96114 2.09424Z" fill="url(#paint1_radial_6597_14)"/><path d="M2.80469 9.92945C2.80469 13.8818 6.00855 17.0855 9.9607 17.0855C13.9128 17.0855 17.1169 13.8818 17.1169 9.92945C17.1169 5.9773 13.913 2.77344 9.9607 2.77344C6.00839 2.77344 2.80469 5.9773 2.80469 9.92945Z" fill="url(#paint2_radial_6597_14)"/><mask id="mask0_6597_14" style="mask-type:luminance" maskUnits="userSpaceOnUse" x="2" y="2" width="16" height="16"><path d="M2.80469 9.92945C2.80469 13.8818 6.00855 17.0855 9.9607 17.0855C13.9128 17.0855 17.1169 13.8818 17.1169 9.92945C17.1169 5.9773 13.913 2.77344 9.9607 2.77344C6.00839 2.77344 2.80469 5.9773 2.80469 9.92945Z" fill="white"/></mask><g mask="url(#mask0_6597_14)"><path d="M17.1169 2.77344H2.80469V17.0855H17.1169V2.77344Z" fill="url(#paint3_radial_6597_14)"/></g><mask id="mask1_6597_14" style="mask-type:luminance" maskUnits="userSpaceOnUse" x="2" y="2" width="16" height="16"><path d="M2.86426 9.92944C2.86426 13.849 6.0417 17.0265 9.9613 17.0265C13.8809 17.0265 17.0583 13.8492 17.0583 9.92944C17.0583 6.00984 13.8809 2.8324 9.9613 2.8324C6.0417 2.8324 2.86426 6.00984 2.86426 9.92944Z" fill="white"/></mask><g mask="url(#mask1_6597_14)"><path d="M17.0583 2.8324H2.86426V17.0263H17.0583V2.8324Z" fill="url(#paint4_radial_6597_14)"/></g><path d="M12.7459 7.64757C12.5319 8.02036 12.2451 8.34636 11.9027 8.60624C11.5603 8.86613 11.1692 9.0546 10.7526 9.16048C10.336 9.26635 9.90233 9.28748 9.47739 9.22261C9.05244 9.15773 8.64486 9.00818 8.27881 8.78281C8.00934 8.61611 7.76557 8.41108 7.55513 8.17419C7.00127 7.54978 6.71283 6.73396 6.75114 5.90019C6.75571 5.8069 6.76352 5.71388 6.77574 5.62128C6.78778 5.53001 6.80387 5.43915 6.82372 5.34939C6.84409 5.25724 6.86851 5.16614 6.89698 5.07608C6.92461 4.98843 6.9561 4.9021 6.99146 4.8171C7.02811 4.72872 7.06897 4.64221 7.11306 4.55733C7.15948 4.46794 7.21091 4.38098 7.26583 4.29656C7.31647 4.2187 7.37042 4.14317 7.42766 4.06998C7.48977 3.99021 7.55576 3.91325 7.62538 3.83996C7.69565 3.76597 7.76907 3.69528 7.84563 3.62788C7.92359 3.5592 8.00534 3.49495 8.08958 3.43417C8.133 3.40284 8.17723 3.3727 8.22229 3.34375C7.30706 3.81136 6.61092 4.61827 6.28253 5.59216C5.95414 6.56605 6.01952 7.62973 6.4647 8.55608C6.47352 8.57438 6.48247 8.59262 6.49157 8.61078C6.4957 8.61903 6.49987 8.62727 6.50406 8.63549C6.50602 8.64069 6.50856 8.64564 6.51163 8.65027C6.51684 8.65605 6.51815 8.65508 6.52613 8.65494C6.56766 8.65418 6.60924 8.65438 6.65077 8.65527C6.72752 8.65693 6.80414 8.66131 6.88064 8.6684C7.58806 8.73528 8.25342 9.03459 8.77277 9.51957C9.29211 10.0045 9.6362 10.6479 9.75129 11.3491C9.80328 11.6699 9.80676 11.9967 9.76162 12.3185C9.67589 12.9255 9.41775 13.4952 9.01784 13.9598C8.78855 14.226 8.5177 14.4533 8.2158 14.633C7.61311 14.9889 6.91087 15.1388 6.21539 15.0599C6.08962 15.0455 5.96479 15.0239 5.84153 14.995C5.7617 14.9762 5.68266 14.9542 5.60449 14.9294C5.95564 15.085 6.3278 15.188 6.70898 15.2351C7.06461 15.279 7.42455 15.2747 7.77903 15.2222C8.413 15.1278 9.01418 14.8795 9.53 14.499C9.90856 14.22 10.2345 13.8759 10.4925 13.4827C10.5037 13.4656 10.5147 13.4485 10.5256 13.4313C10.5299 13.4246 10.5393 13.4141 10.5381 13.407C10.5338 13.3958 10.5282 13.3853 10.5212 13.3756C10.4997 13.3353 10.479 13.2945 10.4592 13.2532C10.4195 13.1703 10.3834 13.0858 10.3509 12.9997C10.2852 12.8253 10.2348 12.6454 10.2004 12.4621C10.1268 12.0681 10.1271 11.6639 10.2011 11.2701C10.2641 10.9355 10.3803 10.6131 10.5452 10.3153C10.8204 9.81549 11.2239 9.39811 11.7141 9.10621C12.2044 8.81432 12.7636 8.65846 13.3342 8.65472C13.413 8.65417 13.4917 8.65645 13.5704 8.66156C13.6463 8.66661 13.722 8.67422 13.7974 8.68441C13.8721 8.69462 13.9464 8.70748 14.0202 8.72298C14.0925 8.73824 14.1642 8.75591 14.2354 8.77599C14.3051 8.79577 14.3741 8.81789 14.4423 8.84235C14.5115 8.86719 14.5798 8.89439 14.6471 8.92394C14.7157 8.95391 14.7832 8.98639 14.8495 9.02136C14.9157 9.05619 14.9807 9.09329 15.0445 9.13265C15.1043 9.16967 15.1631 9.20846 15.2203 9.24948C15.2793 9.2918 15.3369 9.33588 15.3931 9.38174C15.4512 9.42896 15.5072 9.47872 15.5617 9.53001C15.6197 9.58462 15.6756 9.64135 15.7294 9.70021C15.7831 9.75872 15.8345 9.81925 15.8836 9.8818C15.9384 9.95138 15.9906 10.0231 16.0393 10.0971C16.0893 10.1731 16.1366 10.2511 16.1802 10.331C16.241 10.4425 16.2952 10.5574 16.3424 10.6753C16.3933 10.8034 16.4362 10.9345 16.4709 11.0679C16.3771 10.3544 16.0891 9.68025 15.6382 9.11926C15.3068 8.7062 14.8958 8.36385 14.4296 8.1125C13.9515 7.85485 13.425 7.69953 12.8836 7.65645C12.8377 7.65278 12.7919 7.64991 12.7459 7.64784L12.7459 7.64757Z" fill="url(#paint5_radial_6597_14)"/><defs><radialGradient id="paint0_radial_6597_14" cx="0" cy="0" r="1" gradientUnits="userSpaceOnUse" gradientTransform="translate(10 10) scale(8)"><stop offset="0.91341"/><stop offset="1" stop-opacity="0"/></radialGradient><radialGradient id="paint1_radial_6597_14" cx="0" cy="0" r="1" gradientUnits="userSpaceOnUse" gradientTransform="translate(9.96114 9.92942) scale(7.83517)"><stop offset="0.99" stop-color="white"/><stop offset="0.99505" stop-color="#FDFDFD"/><stop offset="0.99687" stop-color="#F6F6F6"/><stop offset="0.99817" stop-color="#EBEBEB"/><stop offset="0.99921" stop-color="#DADADA"/><stop offset="1" stop-color="#C7C7C7"/></radialGradient><radialGradient id="paint2_radial_6597_14" cx="0" cy="0" r="1" gradientUnits="userSpaceOnUse" gradientTransform="translate(9.96073 9.92945) scale(7.15601)"><stop offset="0.99" stop-opacity="0.5"/><stop offset="1" stop-opacity="0"/></radialGradient><radialGradient id="paint3_radial_6597_14" cx="0" cy="0" r="1" gradientUnits="userSpaceOnUse" gradientTransform="translate(9.96073 9.92945) scale(7.15601)"><stop offset="0.99" stop-opacity="0.5"/><stop offset="1" stop-opacity="0"/></radialGradient><radialGradient id="paint4_radial_6597_14" cx="0" cy="0" r="1" gradientUnits="userSpaceOnUse" gradientTransform="translate(9.96121 9.95381) scale(7.09693 7.09693)"><stop/><stop offset="1" stop-color="#322F32"/></radialGradient><radialGradient id="paint5_radial_6597_14" cx="0" cy="0" r="1" gradientUnits="userSpaceOnUse" gradientTransform="translate(11.0376 9.30457) scale(5.70296 6.25672)"><stop stop-color="#C2C0C2"/><stop offset="1" stop-color="#EBEBEB"/></radialGradient></defs></svg>