<svg width="20" height="20" viewBox="0 0 20 20" fill="currentColor" xmlns="http://www.w3.org/2000/svg"><path fill-rule="evenodd" clip-rule="evenodd" d="M14 2C16.2091 2 18 3.79086 18 6V14C18 16.2091 16.2091 18 14 18H6C3.79086 18 2 16.2091 2 14V6C2 3.79086 3.79086 2 6 2H14ZM7.61068 7C7.33453 7 7.11068 7.22386 7.11068 7.5V14.8333C7.11068 15.1095 7.33453 15.3333 7.61068 15.3333C7.88682 15.3333 8.11068 15.1095 8.11068 14.8333V7.5C8.11068 7.22386 7.88682 7 7.61068 7ZM6.66667 4.66667C5.5621 4.66667 4.66667 5.5621 4.66667 6.66667V8.16667C4.66667 8.44281 4.89052 8.66667 5.16667 8.66667C5.44281 8.66667 5.66667 8.44281 5.66667 8.16667V6.66667C5.66667 6.11438 6.11438 5.66667 6.66667 5.66667H13.3333C13.8856 5.66667 14.3333 6.11438 14.3333 6.66667V13.3333C14.3333 13.8856 13.8856 14.3333 13.3333 14.3333H11.8333C11.5572 14.3333 11.3333 14.5572 11.3333 14.8333C11.3333 15.1095 11.5572 15.3333 11.8333 15.3333H13.3333C14.4379 15.3333 15.3333 14.4379 15.3333 13.3333V6.66667C15.3333 5.5621 14.4379 4.66667 13.3333 4.66667H6.66667ZM10.0547 8.33333C9.77855 8.33333 9.55469 8.55719 9.55469 8.83333V13.5C9.55469 13.7761 9.77855 14 10.0547 14C10.3308 14 10.5547 13.7761 10.5547 13.5V8.83333C10.5547 8.55719 10.3308 8.33333 10.0547 8.33333ZM5.16667 10C4.89052 10 4.66667 10.2239 4.66667 10.5V11.8333C4.66667 12.1095 4.89052 12.3333 5.16667 12.3333C5.44281 12.3333 5.66667 12.1095 5.66667 11.8333V10.5C5.66667 10.2239 5.44281 10 5.16667 10ZM12.4987 10C12.2226 10 11.9987 10.2239 11.9987 10.5V11.8333C11.9987 12.1095 12.2226 12.3333 12.4987 12.3333C12.7748 12.3333 12.9987 12.1095 12.9987 11.8333V10.5C12.9987 10.2239 12.7748 10 12.4987 10Z"/></svg>