<svg width="20" height="20" viewBox="0 0 20 20" fill="none" xmlns="http://www.w3.org/2000/svg"><path d="M2 6C2 3.79086 3.79086 2 6 2H14C16.2091 2 18 3.79086 18 6V14C18 16.2091 16.2091 18 14 18H6C3.79086 18 2 16.2091 2 14V6Z" fill="url(#paint0_linear_8360_837)"/><path d="M10.0013 4.66675C10.2774 4.66675 10.5013 4.89061 10.5013 5.16675V14.8334C10.5013 15.1096 10.2774 15.3334 10.0013 15.3334C9.72516 15.3334 9.5013 15.1096 9.5013 14.8334V5.16675C9.5013 4.89061 9.72516 4.66675 10.0013 4.66675Z" fill="white"/><path d="M5.16797 6.66675C5.44411 6.66675 5.66797 6.89061 5.66797 7.16675V12.8334C5.66797 13.1096 5.44411 13.3334 5.16797 13.3334C4.89183 13.3334 4.66797 13.1096 4.66797 12.8334V7.16675C4.66797 6.89061 4.89183 6.66675 5.16797 6.66675Z" fill="white"/><path d="M12.418 6.66675C12.6941 6.66675 12.918 6.89061 12.918 7.16675V12.8334C12.918 13.1096 12.6941 13.3334 12.418 13.3334C12.1418 13.3334 11.918 13.1096 11.918 12.8334V7.16675C11.918 6.89061 12.1418 6.66675 12.418 6.66675Z" fill="white"/><path d="M7.58464 8.66675C7.86078 8.66675 8.08464 8.89061 8.08464 9.16675V10.8334C8.08464 11.1096 7.86078 11.3334 7.58464 11.3334C7.30849 11.3334 7.08464 11.1096 7.08464 10.8334V9.16675C7.08464 8.89061 7.30849 8.66675 7.58464 8.66675Z" fill="white"/><path d="M14.8346 8.66675C15.1108 8.66675 15.3346 8.89061 15.3346 9.16675V10.8334C15.3346 11.1096 15.1108 11.3334 14.8346 11.3334C14.5585 11.3334 14.3346 11.1096 14.3346 10.8334V9.16675C14.3346 8.89061 14.5585 8.66675 14.8346 8.66675Z" fill="white"/><defs><linearGradient id="paint0_linear_8360_837" x1="2" y1="2" x2="18" y2="18" gradientUnits="userSpaceOnUse"><stop stop-color="#17A9E5"/><stop offset="1" stop-color="#44CB62"/></linearGradient></defs></svg>