<svg width="20" height="20" viewBox="0 0 20 20" fill="none" xmlns="http://www.w3.org/2000/svg"><path d="M10 2C14.4183 2 18 5.58171 18 10C18 14.4183 14.4183 18 10 18C5.58171 18 2 14.4183 2 10C2 5.58171 5.58171 2 10 2Z" fill="url(#paint0_radial_6597_14)"/><path d="M2.69336 10C2.69336 14.0355 5.96463 17.3066 9.99992 17.3066C14.0352 17.3066 17.3066 14.0355 17.3066 10C17.3066 5.96475 14.0354 2.69348 9.99992 2.69348C5.96446 2.69348 2.69336 5.96475 2.69336 10Z" fill="url(#paint1_radial_6597_14)"/><mask id="mask0_6597_14" style="mask-type:luminance" maskUnits="userSpaceOnUse" x="2" y="2" width="16" height="16"><path d="M2.69336 10C2.69336 14.0355 5.96463 17.3066 9.99992 17.3066C14.0352 17.3066 17.3066 14.0355 17.3066 10C17.3066 5.96475 14.0354 2.69348 9.99992 2.69348C5.96446 2.69348 2.69336 5.96475 2.69336 10Z" fill="white"/></mask><g mask="url(#mask0_6597_14)"><path d="M17.3066 2.69348H2.69336V17.3066H17.3066V2.69348Z" fill="url(#paint2_radial_6597_14)"/></g><mask id="mask1_6597_14" style="mask-type:luminance" maskUnits="userSpaceOnUse" x="2" y="2" width="16" height="16"><path d="M2.75391 10C2.75391 14.0021 5.99819 17.2464 10.0003 17.2464C14.0023 17.2464 17.2466 14.0022 17.2466 10C17.2466 5.99795 14.0023 2.75366 10.0003 2.75366C5.99819 2.75366 2.75391 5.99795 2.75391 10Z" fill="white"/></mask><g mask="url(#mask1_6597_14)"><path d="M17.2466 2.75366H2.75391V17.2462H17.2466V2.75366Z" fill="url(#paint3_radial_6597_14)"/></g><path d="M12.8434 7.67012C12.6249 8.05075 12.3321 8.38361 11.9825 8.64896C11.6329 8.91431 11.2335 9.10675 10.8082 9.21485C10.3828 9.32296 9.94001 9.34453 9.50613 9.27829C9.07225 9.21205 8.65609 9.05935 8.28233 8.82925C8.0072 8.65903 7.75829 8.4497 7.54344 8.20781C6.97792 7.57028 6.68341 6.73729 6.72253 5.88598C6.7272 5.79073 6.73517 5.69574 6.74764 5.6012C6.75994 5.50801 6.77637 5.41524 6.79663 5.32359C6.81743 5.2295 6.84237 5.13648 6.87144 5.04453C6.89965 4.95504 6.93181 4.8669 6.96791 4.7801C7.00533 4.68986 7.04705 4.60154 7.09206 4.51487C7.13946 4.4236 7.19197 4.3348 7.24804 4.24861C7.29975 4.16911 7.35483 4.092 7.41328 4.01727C7.47669 3.93582 7.54407 3.85724 7.61516 3.7824C7.68691 3.70686 7.76187 3.63468 7.84004 3.56587C7.91964 3.49574 8.00312 3.43014 8.08912 3.36808C8.13346 3.33609 8.17862 3.30531 8.22462 3.27576C7.29014 3.75321 6.57936 4.57709 6.24406 5.57147C5.90876 6.56584 5.97551 7.65191 6.43007 8.59774C6.43907 8.61643 6.44821 8.63505 6.4575 8.65359C6.46172 8.66202 6.46597 8.67043 6.47025 8.67882C6.47225 8.68413 6.47484 8.68919 6.47798 8.69391C6.4833 8.69982 6.48463 8.69883 6.49278 8.69868C6.53519 8.69791 6.57764 8.69811 6.62005 8.69902C6.69841 8.70072 6.77664 8.70518 6.85475 8.71243C7.57706 8.78072 8.25641 9.08632 8.78668 9.5815C9.31696 10.0767 9.66829 10.7336 9.7858 11.4495C9.83887 11.7771 9.84243 12.1107 9.79635 12.4393C9.70881 13.0591 9.44523 13.6407 9.03692 14.1151C8.8028 14.3869 8.52625 14.6191 8.218 14.8025C7.60263 15.1659 6.88562 15.319 6.17551 15.2384C6.04709 15.2237 5.91963 15.2016 5.79378 15.1721C5.71227 15.153 5.63157 15.1305 5.55176 15.1051C5.91029 15.264 6.29028 15.3692 6.67948 15.4173C7.0426 15.4621 7.4101 15.4577 7.77204 15.4041C8.41935 15.3077 9.03317 15.0542 9.55985 14.6657C9.94638 14.3808 10.2791 14.0294 10.5426 13.628C10.554 13.6106 10.5653 13.5931 10.5764 13.5755C10.5807 13.5687 10.5904 13.5579 10.5892 13.5507C10.5848 13.5393 10.579 13.5286 10.5719 13.5187C10.5499 13.4775 10.5288 13.4358 10.5086 13.3937C10.4681 13.3091 10.4312 13.2228 10.3981 13.1349C10.3309 12.9567 10.2795 12.773 10.2444 12.5859C10.1692 12.1837 10.1695 11.771 10.2451 11.3688C10.3094 11.0272 10.428 10.6981 10.5964 10.394C10.8774 9.88364 11.2894 9.45749 11.7899 9.15945C12.2905 8.86141 12.8615 8.70228 13.4441 8.69846C13.5245 8.6979 13.6049 8.70023 13.6853 8.70544C13.7628 8.7106 13.84 8.71837 13.9171 8.72877C13.9933 8.73919 14.0691 8.75232 14.1445 8.76815C14.2184 8.78373 14.2916 8.80178 14.3642 8.82228C14.4354 8.84247 14.5058 8.86506 14.5755 8.89003C14.6462 8.9154 14.7159 8.94317 14.7846 8.97334C14.8547 9.00394 14.9236 9.0371 14.9913 9.07281C15.0589 9.10837 15.1252 9.14625 15.1903 9.18644C15.2514 9.22424 15.3115 9.26384 15.3699 9.30573C15.4301 9.34894 15.4889 9.39395 15.5463 9.44077C15.6056 9.48899 15.6628 9.53979 15.7184 9.59216C15.7777 9.64792 15.8348 9.70584 15.8897 9.76594C15.9445 9.82569 15.997 9.88749 16.0471 9.95135C16.1031 10.0224 16.1563 10.0957 16.206 10.1712C16.2571 10.2488 16.3054 10.3284 16.35 10.41C16.4121 10.5238 16.4674 10.6412 16.5156 10.7615C16.5676 10.8923 16.6114 11.0262 16.6468 11.1624C16.551 10.4338 16.2569 9.74557 15.7966 9.17277C15.4581 8.75102 15.0385 8.40147 14.5625 8.14483C14.0743 7.88176 13.5368 7.72318 12.984 7.67918C12.9372 7.67544 12.8903 7.67251 12.8434 7.67039L12.8434 7.67012Z" fill="url(#paint4_radial_6597_14)"/><defs><radialGradient id="paint0_radial_6597_14" cx="0" cy="0" r="1" gradientUnits="userSpaceOnUse" gradientTransform="translate(10 10) scale(7.81895)"><stop offset="0.99" stop-color="white"/><stop offset="0.99505" stop-color="#FDFDFD"/><stop offset="0.99687" stop-color="#F6F6F6"/><stop offset="0.99817" stop-color="#EBEBEB"/><stop offset="0.99921" stop-color="#DADADA"/><stop offset="1" stop-color="#C7C7C7"/></radialGradient><radialGradient id="paint1_radial_6597_14" cx="0" cy="0" r="1" gradientUnits="userSpaceOnUse" gradientTransform="translate(9.99995 10) scale(7.30656)"><stop offset="0.99" stop-opacity="0.5"/><stop offset="1" stop-opacity="0"/></radialGradient><radialGradient id="paint2_radial_6597_14" cx="0" cy="0" r="1" gradientUnits="userSpaceOnUse" gradientTransform="translate(9.99995 10) scale(7.30656)"><stop offset="0.99" stop-opacity="0.5"/><stop offset="1" stop-opacity="0"/></radialGradient><radialGradient id="paint3_radial_6597_14" cx="0" cy="0" r="1" gradientUnits="userSpaceOnUse" gradientTransform="translate(10.0002 10.0249) scale(7.24624 7.24624)"><stop/><stop offset="1" stop-color="#322F32"/></radialGradient><radialGradient id="paint4_radial_6597_14" cx="0" cy="0" r="1" gradientUnits="userSpaceOnUse" gradientTransform="translate(11.0992 9.36198) scale(5.82294 6.38835)"><stop stop-color="#C2C0C2"/><stop offset="1" stop-color="#EBEBEB"/></radialGradient></defs></svg>