<svg width="20" height="20" viewBox="0 0 20 20" fill="currentColor" xmlns="http://www.w3.org/2000/svg"><path d="M8.66667 8.65234C8.66701 8.39608 8.9446 8.23586 9.16667 8.36393L11.5 9.71094C11.7222 9.83921 11.7221 10.1601 11.5 10.2884L9.16667 11.6354C8.94451 11.7637 8.66681 11.6035 8.66667 11.347V8.65234Z"/><path fill-rule="evenodd" clip-rule="evenodd" d="M14 2C16.2091 2 18 3.79086 18 6V14C18 16.2091 16.2091 18 14 18H6C3.79086 18 2 16.2091 2 14V6C2 3.79086 3.79086 2 6 2H14ZM5.16667 12C4.89052 12 4.66667 12.2239 4.66667 12.5V13.3333C4.66667 14.4379 5.5621 15.3333 6.66667 15.3333H7.5C7.77614 15.3333 8 15.1095 8 14.8333C8 14.5572 7.77614 14.3333 7.5 14.3333H6.66667C6.11438 14.3333 5.66667 13.8856 5.66667 13.3333V12.5C5.66667 12.2239 5.44281 12 5.16667 12ZM14.8333 12C14.5572 12 14.3333 12.2239 14.3333 12.5V13.3333C14.3333 13.8856 13.8856 14.3333 13.3333 14.3333H12.5C12.2239 14.3333 12 14.5572 12 14.8333C12 15.1095 12.2239 15.3333 12.5 15.3333H13.3333C14.4379 15.3333 15.3333 14.4379 15.3333 13.3333V12.5C15.3333 12.2239 15.1095 12 14.8333 12ZM9.58268 7.45312C8.73771 7.03914 7.7341 7.61862 7.66992 8.55729L7.66667 8.65234V11.347L7.66992 11.4421C7.73606 12.4122 8.80561 12.9984 9.66667 12.5013L12 11.1543C12.8887 10.641 12.8888 9.35824 12 8.84505L9.66667 7.49805L9.58268 7.45312ZM6.66667 4.66667C5.5621 4.66667 4.66667 5.5621 4.66667 6.66667V7.5C4.66667 7.77614 4.89052 8 5.16667 8C5.44281 8 5.66667 7.77614 5.66667 7.5V6.66667C5.66667 6.11438 6.11438 5.66667 6.66667 5.66667H7.5C7.77614 5.66667 8 5.44281 8 5.16667C8 4.89052 7.77614 4.66667 7.5 4.66667H6.66667ZM12.5 4.66667C12.2239 4.66667 12 4.89052 12 5.16667C12 5.44281 12.2239 5.66667 12.5 5.66667H13.3333C13.8856 5.66667 14.3333 6.11438 14.3333 6.66667V7.5C14.3333 7.77614 14.5572 8 14.8333 8C15.1095 8 15.3333 7.77614 15.3333 7.5V6.66667C15.3333 5.5621 14.4379 4.66667 13.3333 4.66667H12.5Z"/></svg>