<svg width="20" height="20" viewBox="0 0 20 20" fill="none" xmlns="http://www.w3.org/2000/svg"><path d="M2 6C2 3.79086 3.79086 2 6 2H14C16.2091 2 18 3.79086 18 6V14C18 16.2091 16.2091 18 14 18H6C3.79086 18 2 16.2091 2 14V6Z" fill="url(#paint0_linear_8360_854)"/><path d="M7.61198 7.00008C7.88812 7.00008 8.11198 7.22394 8.11198 7.50008V14.8334C8.11198 15.1096 7.88812 15.3334 7.61198 15.3334C7.33584 15.3334 7.11198 15.1096 7.11198 14.8334V7.50008C7.11198 7.22394 7.33584 7.00008 7.61198 7.00008Z" fill="white"/><path d="M13.3346 4.66675C14.4392 4.66675 15.3346 5.56218 15.3346 6.66675V13.3334C15.3346 14.438 14.4392 15.3334 13.3346 15.3334H11.8346C11.5585 15.3334 11.3346 15.1096 11.3346 14.8334C11.3346 14.5573 11.5585 14.3334 11.8346 14.3334H13.3346C13.8869 14.3334 14.3346 13.8857 14.3346 13.3334V6.66675C14.3346 6.11446 13.8869 5.66675 13.3346 5.66675H6.66797C6.11568 5.66675 5.66797 6.11446 5.66797 6.66675V8.16675C5.66797 8.44289 5.44411 8.66675 5.16797 8.66675C4.89183 8.66675 4.66797 8.44289 4.66797 8.16675V6.66675C4.66797 5.56218 5.5634 4.66675 6.66797 4.66675H13.3346Z" fill="white"/><path d="M10.056 8.33341C10.3321 8.33341 10.556 8.55727 10.556 8.83341V13.5001C10.556 13.7762 10.3321 14.0001 10.056 14.0001C9.77985 14.0001 9.55599 13.7762 9.55599 13.5001V8.83341C9.55599 8.55727 9.77985 8.33341 10.056 8.33341Z" fill="white"/><path d="M5.16797 10.0001C5.44411 10.0001 5.66797 10.2239 5.66797 10.5001V11.8334C5.66797 12.1096 5.44411 12.3334 5.16797 12.3334C4.89183 12.3334 4.66797 12.1096 4.66797 11.8334V10.5001C4.66797 10.2239 4.89183 10.0001 5.16797 10.0001Z" fill="white"/><path d="M12.5 10.0001C12.7761 10.0001 13 10.2239 13 10.5001V11.8334C13 12.1096 12.7761 12.3334 12.5 12.3334C12.2239 12.3334 12 12.1096 12 11.8334V10.5001C12 10.2239 12.2239 10.0001 12.5 10.0001Z" fill="white"/><defs><linearGradient id="paint0_linear_8360_854" x1="2" y1="2" x2="18" y2="18" gradientUnits="userSpaceOnUse"><stop stop-color="#17A9E5"/><stop offset="1" stop-color="#44CB62"/></linearGradient></defs></svg>