<svg width="20" height="20" viewBox="0 0 20 20" fill="none" xmlns="http://www.w3.org/2000/svg"><path d="M2 6C2 3.79086 3.79086 2 6 2H14C16.2091 2 18 3.79086 18 6V14C18 16.2091 16.2091 18 14 18H6C3.79086 18 2 16.2091 2 14V6Z" fill="url(#paint0_linear_8360_964)"/><path d="M10 13.6667C10.276 13.6668 10.5 13.8906 10.5 14.1667V15.5C10.5 15.7761 10.276 15.9999 10 16C9.72386 16 9.5 15.7761 9.5 15.5V14.1667C9.5 13.8905 9.72386 13.6667 10 13.6667Z" fill="white"/><path d="M6.69987 12.5924C6.89507 12.3974 7.21166 12.3974 7.4069 12.5924C7.60216 12.7877 7.60216 13.1049 7.4069 13.3001L6.46419 14.2428C6.26896 14.4379 5.95239 14.4379 5.75716 14.2428C5.56194 14.0476 5.56202 13.7311 5.75716 13.5358L6.69987 12.5924Z" fill="white"/><path d="M12.5924 12.5924C12.7877 12.3974 13.1042 12.3974 13.2995 12.5924L14.2422 13.5358C14.4374 13.7311 14.4374 14.0476 14.2422 14.2428C14.0469 14.4379 13.7304 14.438 13.5352 14.2428L12.5924 13.3001C12.3972 13.1049 12.3972 12.7877 12.5924 12.5924Z" fill="white"/><path fill-rule="evenodd" clip-rule="evenodd" d="M10 7.66667C11.117 7.66667 12.0497 8.45171 12.2786 9.5H15.5C15.7761 9.5 16 9.72386 16 10C16 10.2761 15.7761 10.5 15.5 10.5H12.2786C12.0497 11.5483 11.117 12.3333 10 12.3333C8.88303 12.3333 7.95032 11.5483 7.72135 10.5H4.5C4.22386 10.5 4 10.2761 4 10C4 9.72386 4.22386 9.5 4.5 9.5H7.72135C7.95032 8.45171 8.88303 7.66667 10 7.66667ZM10 8.66667C9.26362 8.66667 8.66667 9.26362 8.66667 10C8.66667 10.7364 9.26362 11.3333 10 11.3333C10.7364 11.3333 11.3333 10.7364 11.3333 10C11.3333 9.26362 10.7364 8.66667 10 8.66667Z" fill="white"/><path d="M5.75716 5.75716C5.95239 5.56205 6.26896 5.56206 6.46419 5.75716L7.4069 6.69987C7.60216 6.89513 7.60216 7.21229 7.4069 7.40755C7.21166 7.60257 6.89507 7.60264 6.69987 7.40755L5.75716 6.46419C5.56202 6.26892 5.56194 5.95238 5.75716 5.75716Z" fill="white"/><path d="M13.5352 5.75716C13.7304 5.562 14.0469 5.56212 14.2422 5.75716C14.4374 5.95241 14.4374 6.26893 14.2422 6.46419L13.2995 7.40755C13.1042 7.60258 12.7877 7.60263 12.5924 7.40755C12.3972 7.21229 12.3972 6.89513 12.5924 6.69987L13.5352 5.75716Z" fill="white"/><path d="M10 4C10.276 4.00013 10.5 4.22394 10.5 4.5V5.83333C10.5 6.1094 10.276 6.33321 10 6.33333C9.72386 6.33333 9.5 6.10948 9.5 5.83333V4.5C9.5 4.22386 9.72386 4 10 4Z" fill="white"/><defs><linearGradient id="paint0_linear_8360_964" x1="2" y1="2" x2="18" y2="18" gradientUnits="userSpaceOnUse"><stop stop-color="#FB7900"/><stop offset="1" stop-color="#E5C700"/></linearGradient></defs></svg>