<svg width="20" height="20" viewBox="0 0 20 20" fill="none" xmlns="http://www.w3.org/2000/svg"><path fill-rule="evenodd" clip-rule="evenodd" d="M10 2.28581C5.73959 2.28581 2.28581 5.73961 2.28581 10.0001C2.28581 14.2606 5.73959 17.7144 10 17.7144C14.2605 17.7144 17.7143 14.2606 17.7143 10.0001C17.7143 5.73961 14.2605 2.28581 10 2.28581ZM1.5 10.0001C1.5 5.30563 5.3056 1.5 10 1.5C14.6945 1.5 18.5001 5.30563 18.5001 10.0001C18.5001 14.6946 14.6945 18.5002 10 18.5002C5.3056 18.5002 1.5 14.6946 1.5 10.0001Z" fill="#C4C2C4"/><path d="M9.99946 17.7212C14.2637 17.7212 17.7206 14.2643 17.7206 9.99999C17.7206 5.7357 14.2637 2.27881 9.99946 2.27881C5.73519 2.27881 2.27832 5.7357 2.27832 9.99999C2.27832 14.2643 5.73519 17.7212 9.99946 17.7212Z" fill="#302E31"/><path fill-rule="evenodd" clip-rule="evenodd" d="M9.99963 2.65305C5.94203 2.65305 2.65269 5.94241 2.65269 10C2.65269 14.0577 5.94203 17.347 9.99963 17.347C14.0572 17.347 17.3466 14.0577 17.3466 10C17.3466 5.94241 14.0572 2.65305 9.99963 2.65305ZM1.9043 10C1.9043 5.52909 5.5287 1.90466 9.99963 1.90466C14.4706 1.90466 18.095 5.52909 18.095 10C18.095 14.471 14.4706 18.0954 9.99963 18.0954C5.5287 18.0954 1.9043 14.471 1.9043 10Z" fill="white"/><path d="M6.07467 5.94521C6.31192 4.79997 7.08834 3.76689 8.13221 3.24927C7.95061 3.43367 7.73105 3.57494 7.56283 3.77552C6.87483 4.51744 6.56425 5.5915 6.75405 6.5793C6.99345 8.08687 8.41043 9.31838 9.94603 9.29681C11.1365 9.35008 12.2969 8.66488 12.8792 7.63179C14.1258 7.67407 15.3379 8.31764 16.0496 9.35073C16.4141 9.88992 16.6988 10.5218 16.7182 11.1797C16.4874 10.3062 15.9073 9.52974 15.1157 9.09192C14.3501 8.66057 13.4098 8.55057 12.5708 8.80507C11.5183 9.10701 10.6491 9.96756 10.3493 11.0265C10.0948 11.8698 10.2038 12.7994 10.6038 13.5715C10.0474 14.5356 9.04235 15.2236 7.95104 15.4306C7.11207 15.6066 6.22996 15.4707 5.44922 15.1179C6.148 15.3217 6.90718 15.3573 7.60165 15.1103C8.53336 14.8019 9.30332 14.0535 9.64193 13.1304C10.0172 12.1253 9.87485 10.9305 9.24293 10.0678C8.7706 9.38841 8.02653 8.90961 7.21775 8.73922C6.9611 8.6935 6.70229 8.6728 6.44348 8.64907C6.03154 7.81872 5.88057 6.85465 6.08761 5.95313L6.07467 5.94521Z" fill="#C4C2C4"/></svg>