<svg width="20" height="20" viewBox="0 0 20 20" fill="currentColor" xmlns="http://www.w3.org/2000/svg"><path d="M15.6436 4.35548C16.3906 5.1023 16.9835 5.98873 17.3877 6.96458C17.792 7.94034 17.9998 8.98623 17.9998 10.0424C17.9998 11.0987 17.792 12.1451 17.3877 13.121C16.9835 14.0968 16.3906 14.9833 15.6436 15.7301C14.1278 17.2016 12.0936 18.018 9.98111 18.002C7.86868 17.986 5.8475 17.1391 4.35406 15.645C2.86057 14.1509 2.01517 12.129 2.0002 10.0164C1.9853 7.90403 2.8017 5.87059 4.27371 4.35548L6.48577 6.56676C5.79752 7.25391 5.32823 8.12994 5.13789 9.08369C4.94758 10.0375 5.04492 11.0265 5.41677 11.9252C5.78861 12.8239 6.4185 13.592 7.22706 14.1325C8.03565 14.673 8.98645 14.962 9.95906 14.962C10.9316 14.962 11.8825 14.673 12.691 14.1325C13.4995 13.592 14.1295 12.8238 14.5013 11.9252C14.8732 11.0265 14.9697 10.0375 14.7794 9.08369C14.5891 8.12997 14.1206 7.25389 13.4323 6.56676L15.6436 4.35548Z"/><path d="M11.563 12.2064H8.43629V6.84326H11.563V12.2064Z"/><path d="M11.563 5.0692H8.43629V1.99768H11.563V5.0692Z"/></svg>