<svg width="20" height="20" viewBox="0 0 20 20" fill="currentColor" xmlns="http://www.w3.org/2000/svg"><path d="M10 6C10.2761 6 10.5 6.22386 10.5 6.5V13.5C10.5 13.7761 10.2761 14 10 14C9.72386 14 9.5 13.7761 9.5 13.5V6.5C9.5 6.22386 9.72386 6 10 6Z"/><path d="M5.5 7.5C5.77614 7.5 6 7.72386 6 8V12C6 12.2761 5.77614 12.5 5.5 12.5C5.22386 12.5 5 12.2761 5 12V8C5 7.72386 5.22386 7.5 5.5 7.5Z"/><path d="M12.25 7.5C12.5261 7.5 12.75 7.72386 12.75 8V12C12.75 12.2761 12.5261 12.5 12.25 12.5C11.9739 12.5 11.75 12.2761 11.75 12V8C11.75 7.72386 11.9739 7.5 12.25 7.5Z"/><path d="M7.75 8.75C8.02614 8.75 8.25 8.97386 8.25 9.25V10.75C8.25 11.0261 8.02614 11.25 7.75 11.25C7.47386 11.25 7.25 11.0261 7.25 10.75V9.25C7.25 8.97386 7.47386 8.75 7.75 8.75Z"/><path d="M14.5 8.75C14.7761 8.75 15 8.97386 15 9.25V10.75C15 11.0261 14.7761 11.25 14.5 11.25C14.2239 11.25 14 11.0261 14 10.75V9.25C14 8.97386 14.2239 8.75 14.5 8.75Z"/><path fill-rule="evenodd" clip-rule="evenodd" d="M10 2C10.2761 2 10.5 2.22386 10.5 2.5V4H15C16.1046 4 17 4.89543 17 6H18.5C18.7761 6 19 6.22386 19 6.5C19 6.77614 18.7761 7 18.5 7H17V9.5H18.5C18.7761 9.5 19 9.72386 19 10C19 10.2761 18.7761 10.5 18.5 10.5H17V13H18.5C18.7761 13 19 13.2239 19 13.5C19 13.7761 18.7761 14 18.5 14H17L16.9893 14.2041C16.8938 15.1457 16.1457 15.8938 15.2041 15.9893L15 16H14V17.5C14 17.7761 13.7761 18 13.5 18C13.2239 18 13 17.7761 13 17.5V16H10.5V17.5C10.5 17.7761 10.2761 18 10 18C9.72386 18 9.5 17.7761 9.5 17.5V16H5L4.7959 15.9893C3.85435 15.8938 3.1062 15.1457 3.01074 14.2041L3 14H1.5C1.22386 14 1 13.7761 1 13.5C1 13.2239 1.22386 13 1.5 13H3V10.5H1.5C1.22386 10.5 1 10.2761 1 10C1 9.72386 1.22386 9.5 1.5 9.5H3V7H1.5C1.22386 7 1 6.77614 1 6.5C1 6.22386 1.22386 6 1.5 6H3C3 4.89543 3.89543 4 5 4H6V2.5C6 2.22386 6.22386 2 6.5 2C6.77614 2 7 2.22386 7 2.5V4H9.5V2.5C9.5 2.22386 9.72386 2 10 2ZM5 5C4.44772 5 4 5.44772 4 6V14C4 14.5523 4.44772 15 5 15H15C15.5523 15 16 14.5523 16 14V6C16 5.44772 15.5523 5 15 5H5Z"/></svg>