<svg width="20" height="20" viewBox="0 0 20 20" fill="currentColor" xmlns="http://www.w3.org/2000/svg"><path fill-rule="evenodd" clip-rule="evenodd" d="M13.1951 2.00049C13.6237 2.00049 14.0361 2.1149 14.3949 2.32195C14.7537 2.5291 15.059 2.82915 15.2734 3.20037L18.4558 8.71218C18.6818 9.10377 18.8007 9.54883 18.8007 10.001C18.8006 10.453 18.6817 10.8974 18.4558 11.2888L15.2734 16.8006C15.059 17.1718 14.7538 17.4718 14.3949 17.679C14.0362 17.8862 13.6237 18.0005 13.1951 18.0005H6.80679C5.94948 18.0004 5.15715 17.5431 4.7285 16.8006L1.54609 11.2888C1.32168 10.9001 1.20292 10.4496 1.20117 10.001C1.20117 9.54899 1.32017 9.10469 1.54609 8.71316L4.7285 3.20037C5.15717 2.45797 5.94951 2.00061 6.80679 2.00049H13.1951ZM16.1293 10.5188L13.1941 15.5988L11.5809 12.8043L13.198 10.0059L11.578 7.20061L13.1941 4.40122L16.1273 9.48116L16.2553 9.70394C16.3079 9.79604 16.3345 9.8988 16.3345 10.001C16.3344 10.103 16.3078 10.2051 16.2553 10.297L16.1293 10.5188ZM6.57522 4.80085C6.71814 4.55334 6.98316 4.40024 7.26896 4.40024H10.0068L6.82536 9.91304C6.80998 9.93964 6.80195 9.97027 6.80191 10.001V10.0107C6.80345 10.038 6.81158 10.065 6.82536 10.0889L8.38774 12.8062L10.0078 15.6007H7.26896C6.98311 15.6007 6.71809 15.4476 6.57522 15.2001L5.1936 12.8062C4.60058 11.7792 4.02549 10.7793 3.75042 10.298C3.69944 10.2088 3.67394 10.1098 3.67226 10.0107L3.67128 10.001C3.67128 9.89865 3.6978 9.79612 3.75042 9.70394C4.02492 9.22369 4.59961 8.22605 5.19165 7.20061H5.18969L6.57522 4.80085Z"/></svg>