<svg width="20" height="20" viewBox="0 0 20 20" fill="currentColor" xmlns="http://www.w3.org/2000/svg"><path fill-rule="evenodd" clip-rule="evenodd" d="M14 2C16.2091 2 18 3.79086 18 6V14C18 16.2091 16.2091 18 14 18H6C3.79086 18 2 16.2091 2 14V6C2 3.79086 3.79086 2 6 2H14ZM5.16667 12.3887C4.70654 12.3887 4.33351 12.7621 4.33333 13.222C4.33351 13.6819 4.70654 14.0553 5.16667 14.0553C5.6268 14.0553 5.99982 13.6819 6 13.222C5.99982 12.7621 5.6268 12.3887 5.16667 12.3887ZM8.38932 12.3887C7.92919 12.3887 7.55617 12.7621 7.55599 13.222C7.55617 13.6819 7.92919 14.0553 8.38932 14.0553C8.84945 14.0553 9.22248 13.6819 9.22266 13.222C9.22248 12.7621 8.84945 12.3887 8.38932 12.3887ZM11.612 12.3887C11.1519 12.3887 10.7788 12.7621 10.7786 13.222C10.7788 13.6819 11.1519 14.0553 11.612 14.0553C12.0721 14.0553 12.4451 13.6819 12.4453 13.222C12.4451 12.7621 12.0721 12.3887 11.612 12.3887ZM14.8346 12.3887C14.3745 12.3887 14.0015 12.7621 14.0013 13.222C14.0015 13.6819 14.3745 14.0553 14.8346 14.0553C15.2948 14.0553 15.6678 13.6819 15.668 13.222C15.6678 12.7621 15.2948 12.3887 14.8346 12.3887ZM5.16667 9.16667C4.70654 9.16667 4.33351 9.54009 4.33333 10C4.33351 10.4599 4.70654 10.8333 5.16667 10.8333C5.6268 10.8333 5.99982 10.4599 6 10C5.99982 9.54009 5.6268 9.16667 5.16667 9.16667ZM8.38932 9.16667C7.92919 9.16667 7.55617 9.54009 7.55599 10C7.55617 10.4599 7.92919 10.8333 8.38932 10.8333C8.84945 10.8333 9.22248 10.4599 9.22266 10C9.22248 9.54009 8.84945 9.16667 8.38932 9.16667ZM11.612 9.16667C11.1519 9.16667 10.7788 9.54009 10.7786 10C10.7788 10.4599 11.1519 10.8333 11.612 10.8333C12.0721 10.8333 12.4451 10.4599 12.4453 10C12.4451 9.54009 12.0721 9.16667 11.612 9.16667ZM14.8346 9.16667C14.3745 9.16667 14.0015 9.54009 14.0013 10C14.0015 10.4599 14.3745 10.8333 14.8346 10.8333C15.2948 10.8333 15.6678 10.4599 15.668 10C15.6678 9.54009 15.2948 9.16667 14.8346 9.16667ZM5.16667 5.94466C4.70654 5.94466 4.33351 6.31809 4.33333 6.778C4.33351 7.2379 4.70654 7.61133 5.16667 7.61133C5.6268 7.61133 5.99982 7.2379 6 6.778C5.99982 6.31809 5.6268 5.94466 5.16667 5.94466ZM8.38932 5.94466C7.92919 5.94466 7.55617 6.31809 7.55599 6.778C7.55617 7.2379 7.92919 7.61133 8.38932 7.61133C8.84945 7.61133 9.22248 7.2379 9.22266 6.778C9.22248 6.31809 8.84945 5.94466 8.38932 5.94466ZM11.612 5.94466C11.1519 5.94466 10.7788 6.31809 10.7786 6.778C10.7788 7.2379 11.1519 7.61133 11.612 7.61133C12.0721 7.61133 12.4451 7.2379 12.4453 6.778C12.4451 6.31809 12.0721 5.94466 11.612 5.94466ZM14.8346 5.94466C14.3745 5.94466 14.0015 6.31809 14.0013 6.778C14.0015 7.2379 14.3745 7.61133 14.8346 7.61133C15.2948 7.61133 15.6678 7.2379 15.668 6.778C15.6678 6.31809 15.2948 5.94466 14.8346 5.94466Z"/></svg>