<svg width="20" height="20" viewBox="0 0 20 20" fill="none" xmlns="http://www.w3.org/2000/svg"><path d="M2 6C2 3.79086 3.79086 2 6 2H14C16.2091 2 18 3.79086 18 6V14C18 16.2091 16.2091 18 14 18H6C3.79086 18 2 16.2091 2 14V6Z" fill="url(#paint0_linear_8360_928)"/><path fill-rule="evenodd" clip-rule="evenodd" d="M10 7.66671C11.2887 7.66671 12.3333 8.71138 12.3333 10C12.3333 11.2887 11.2887 12.3334 10 12.3334C8.71134 12.3334 7.66667 11.2887 7.66667 10C7.66667 8.71138 8.71134 7.66671 10 7.66671ZM10 8.66671C9.26362 8.66671 8.66667 9.26366 8.66667 10C8.66667 10.7364 9.26362 11.3334 10 11.3334C10.7364 11.3334 11.3333 10.7364 11.3333 10C11.3333 9.26366 10.7364 8.66671 10 8.66671Z" fill="white"/><path fill-rule="evenodd" clip-rule="evenodd" d="M13.0625 5.33337C13.5203 5.33337 13.9731 5.48186 14.293 5.80929C15.3489 6.89062 16 8.36926 16 10C16 11.6308 15.3489 13.1095 14.293 14.1908L14.2318 14.25C13.9168 14.5363 13.4917 14.6667 13.0625 14.6667H6.9375L6.76628 14.6595C6.39692 14.629 6.04123 14.4981 5.76823 14.25L5.70703 14.1908C4.65112 13.1095 4 11.6308 4 10C4 8.47121 4.57213 7.07634 5.51367 6.01697L5.70703 5.80929C5.98691 5.52279 6.3686 5.37346 6.76628 5.34054L6.9375 5.33337H13.0625ZM6.9375 6.33337C6.68331 6.33337 6.51282 6.41604 6.42253 6.5085C5.54152 7.41075 5 8.64099 5 10C5 11.3591 5.54152 12.5893 6.42253 13.4916C6.51282 13.584 6.68331 13.6667 6.9375 13.6667H13.0625C13.3167 13.6667 13.4872 13.584 13.5775 13.4916C14.4585 12.5893 15 11.3591 15 10C15 8.64099 14.4585 7.41075 13.5775 6.5085C13.4872 6.41604 13.3167 6.33337 13.0625 6.33337H6.9375Z" fill="white"/><defs><linearGradient id="paint0_linear_8360_928" x1="18" y1="18" x2="2" y2="2" gradientUnits="userSpaceOnUse"><stop stop-color="#BF81FF"/><stop offset="1" stop-color="#8E2CDC"/></linearGradient></defs></svg>