<svg width="20" height="20" viewBox="0 0 20 20" fill="none" xmlns="http://www.w3.org/2000/svg"><path d="M16.7838 4.92398L11.0066 1.58978C10.6975 1.41195 10.3482 1.32092 10.001 1.32092C9.65385 1.32092 9.30667 1.40984 8.99548 1.58978L3.2204 4.92398C2.60013 5.28176 2.21484 5.9486 2.21484 6.66415V13.3347C2.21484 14.0502 2.60013 14.7171 3.2204 15.0748L8.9976 18.409C9.61787 18.7668 10.3884 18.7668 11.0087 18.409L16.7859 15.0748C17.4062 14.7171 17.7915 14.0502 17.7915 13.3347V6.66415C17.7915 5.9486 17.4062 5.28176 16.7859 4.92398H16.7838Z" fill="black"/><path d="M12.3989 7.51921L11.4505 8.46761C12.2486 9.2657 12.2486 10.5655 11.4505 11.3636C10.6525 12.1617 9.35263 12.1617 8.55454 11.3636C7.75645 10.5655 7.75645 9.2657 8.55454 8.46761L7.60614 7.51921C6.96681 8.15852 6.61328 9.01166 6.61328 9.9156C6.61328 10.8195 6.96681 11.6727 7.60614 12.312C8.26663 12.9725 9.13459 13.3027 10.0025 13.3027C10.8705 13.3027 11.7384 12.9725 12.3989 12.312C13.7199 10.991 13.7199 8.84018 12.3989 7.51709V7.51921Z" fill="white"/><path d="M10.6722 8.59888H9.33008V10.8513H10.6722V8.59888Z" fill="white"/><path d="M10.6722 6.50525H9.33008V7.84741H10.6722V6.50525Z" fill="white"/><path d="M8.08095 4.30792C10.2381 4.30792 12.2133 5.08062 13.7459 6.3656C12.7256 4.68896 11.1611 3.3828 9.30031 2.6842L6.08887 4.53867C6.73032 4.39048 7.39504 4.31004 8.08095 4.31004V4.30792Z" fill="#FED930"/><path d="M11.9209 15.5002C9.76368 15.5002 7.78854 14.7275 6.25586 13.4425C7.27625 15.1191 8.84067 16.4253 10.7015 17.1239L13.9129 15.2695C13.2715 15.4176 12.6068 15.4981 11.9209 15.4981V15.5002Z" fill="#005CAB"/><path d="M4.19556 8.7683C5.27308 6.90114 6.93068 5.57802 8.81054 4.89001C6.84811 4.93659 4.93437 5.6373 3.39746 6.89902V10.6058C3.5901 9.97707 3.85261 9.36105 4.19556 8.76618V8.7683Z" fill="#F0222F"/><path d="M15.8074 11.0398C14.7298 12.907 13.0722 14.23 11.1924 14.9181C13.1548 14.8715 15.0685 14.1708 16.6054 12.9091V9.20227C16.4128 9.83101 16.1503 10.447 15.8074 11.0419V11.0398Z" fill="#03AFEC"/><path d="M6.11574 14.3634C5.0382 12.4962 4.72066 10.3983 5.06571 8.42957C4.12579 10.1507 3.77437 12.1597 4.10038 14.1221L7.31181 15.9765C6.86303 15.496 6.4608 14.9583 6.11784 14.3655L6.11574 14.3634Z" fill="#BE248B"/><path d="M13.8865 5.44246C14.964 7.30963 15.2816 9.40754 14.9365 11.3763C15.8765 9.65524 16.2279 7.64623 15.9018 5.68381L12.6904 3.82935C13.1392 4.30989 13.5414 4.84762 13.8844 5.44037L13.8865 5.44246Z" fill="#20B151"/><path d="M10 18.8915C9.61684 18.8915 9.23155 18.792 8.8886 18.5952L3.11141 15.261C2.42551 14.8651 2 14.1284 2 13.3366V6.66608C2 5.87434 2.42551 5.13762 3.11141 4.74177L8.8886 1.40542C9.57448 1.00955 10.4255 1.00955 11.1114 1.40542L16.8886 4.73964C17.5745 5.13553 18 5.87221 18 6.66396V13.3345C18 14.1263 17.5745 14.863 16.8886 15.2588L11.1114 18.593C10.7685 18.792 10.3853 18.8894 10 18.8894V18.8915ZM10 1.32075C9.65282 1.32075 9.30564 1.40966 8.99445 1.5896L3.21937 4.92382C2.5991 5.28159 2.21381 5.94843 2.21381 6.66396V13.3345C2.21381 14.05 2.5991 14.7169 3.21937 15.0747L8.99655 18.4089C9.61684 18.7666 10.3874 18.7666 11.0077 18.4089L16.7849 15.0747C17.4051 14.7169 17.7904 14.05 17.7904 13.3345V6.66396C17.7904 5.94843 17.4051 5.28159 16.7849 4.92382L11.0056 1.5896C10.6965 1.41178 10.3472 1.32075 10 1.32075Z" fill="white"/></svg>