<svg width="20" height="20" viewBox="0 0 20 20" fill="none" xmlns="http://www.w3.org/2000/svg"><path d="M18 10C18 5.58172 14.4183 2 10 2C5.58172 2 2 5.58172 2 10C2 14.4183 5.58172 18 10 18C14.4183 18 18 14.4183 18 10Z" fill="url(#paint0_linear_8360_928)"/><path d="M17.4282 9.99963C17.428 5.89714 14.1021 2.5719 9.99951 2.5719C5.89716 2.57213 2.572 5.89728 2.57178 9.99963C2.57178 14.1022 5.89702 17.4281 9.99951 17.4283C14.1022 17.4283 17.4282 14.1023 17.4282 9.99963ZM17.9995 9.99963C17.9995 14.4179 14.4178 17.9996 9.99951 17.9996C5.58143 17.9994 1.99951 14.4178 1.99951 9.99963C1.99974 5.58169 5.58157 1.99986 9.99951 1.99963C14.4177 1.99963 17.9993 5.58155 17.9995 9.99963Z" fill="url(#paint1_radial_8360_928)"/><path d="M7.15566 7.03573V7.39287H12.8646V7.03573V6.67859H7.15566V7.03573ZM12.8646 12.9643V12.6072H7.15566V12.9643V13.3214H12.8646V12.9643ZM14.6464 8.409L14.2961 8.47861C14.3898 8.95032 14.4636 9.48629 14.4636 10H14.8207H15.1779C15.1779 9.42341 15.0957 8.83782 14.9967 8.33939L14.6464 8.409ZM14.8207 10H14.4636C14.4636 10.5137 14.3898 11.0497 14.2961 11.5214L14.6464 11.591L14.9967 11.6606C15.0957 11.1622 15.1779 10.5766 15.1779 10H14.8207ZM5.35484 11.5693L5.70513 11.4997C5.61011 11.0217 5.53557 10.4888 5.53557 10H5.17843H4.82129C4.82129 10.5538 4.90484 11.1373 5.00454 11.639L5.35484 11.5693ZM5.17843 10H5.53557C5.53557 9.51121 5.61011 8.97836 5.70513 8.50034L5.35484 8.4307L5.00454 8.36107C4.90484 8.8627 4.82129 9.44621 4.82129 10H5.17843ZM7.15566 12.9643V12.6072C6.44006 12.6072 5.83507 12.1534 5.70513 11.4997L5.35484 11.5693L5.00454 11.639C5.21027 12.6739 6.14954 13.3214 7.15566 13.3214V12.9643ZM12.8646 12.9643V13.3214C13.8584 13.3214 14.7926 12.6879 14.9967 11.6606L14.6464 11.591L14.2961 11.5214C14.1686 12.1634 13.5725 12.6072 12.8646 12.6072V12.9643ZM12.8646 7.03573V7.39287C13.5725 7.39287 14.1686 7.83668 14.2961 8.47861L14.6464 8.409L14.9967 8.33939C14.7926 7.31216 13.8584 6.67859 12.8646 6.67859V7.03573ZM7.15566 7.03573V6.67859C6.14954 6.67859 5.21027 7.32611 5.00454 8.36107L5.35484 8.4307L5.70513 8.50034C5.83507 7.84661 6.44006 7.39287 7.15566 7.39287V7.03573Z" fill="white"/><path d="M11.1426 10C11.1426 9.36882 10.6312 8.85742 10 8.85742C9.36882 8.85742 8.85742 9.36882 8.85742 10C8.85742 10.6312 9.36882 11.1426 10 11.1426C10.6312 11.1426 11.1426 10.6312 11.1426 10ZM11.8574 10C11.8574 11.0257 11.0257 11.8574 10 11.8574C8.97433 11.8574 8.14258 11.0257 8.14258 10C8.14258 8.97433 8.97433 8.14258 10 8.14258C11.0257 8.14258 11.8574 8.97433 11.8574 10Z" fill="white"/><path d="M5.92871 9.78568C5.92871 9.70679 5.99268 9.64282 6.07157 9.64282H6.85728C6.93618 9.64282 7.00014 9.70679 7.00014 9.78568V10.2143C7.00014 10.2931 6.93618 10.3571 6.85728 10.3571H6.07157C5.99268 10.3571 5.92871 10.2931 5.92871 10.2143V9.78568Z" fill="white"/><path d="M17.9644 10.0002C17.9644 5.60178 14.3989 2.03555 10.0005 2.0354C5.60193 2.0354 2.03564 5.60169 2.03564 10.0002C2.0358 14.3987 5.60203 17.9641 10.0005 17.9641C14.3988 17.964 17.9642 14.3986 17.9644 10.0002ZM18.0005 10.0002C18.0003 14.4183 14.4185 18.0001 10.0005 18.0002C5.5823 18.0002 2.00064 14.4184 2.00049 10.0002C2.00049 5.58197 5.58221 2.00024 10.0005 2.00024C14.4186 2.0004 18.0005 5.58206 18.0005 10.0002Z" fill="url(#paint2_linear_8360_928)"/><defs><linearGradient id="paint0_linear_8360_928" x1="10" y1="2" x2="10" y2="18" gradientUnits="userSpaceOnUse"><stop stop-color="#070D48"/><stop offset="1" stop-color="#060C1C"/></linearGradient><radialGradient id="paint1_radial_8360_928" cx="0" cy="0" r="1" gradientUnits="userSpaceOnUse" gradientTransform="translate(9.99993 2.00005) rotate(90) scale(8)"><stop stop-color="#FEFEFE"/><stop offset="1" stop-color="#BFBFBF"/></radialGradient><linearGradient id="paint2_linear_8360_928" x1="10.0002" y1="1.99997" x2="10.0002" y2="18" gradientUnits="userSpaceOnUse"><stop stop-color="white"/><stop offset="1" stop-color="#DBDBDB"/></linearGradient></defs></svg>