<svg width="20" height="20" viewBox="0 0 20 20" fill="currentColor" xmlns="http://www.w3.org/2000/svg"><path fill-rule="evenodd" clip-rule="evenodd" d="M10 18C14.4183 18 18 14.4183 18 10C18 5.58172 14.4183 2 10 2C5.58172 2 2 5.58172 2 10C2 14.4183 5.58172 18 10 18ZM12.7459 7.64752C12.5319 8.0203 12.2452 8.3463 11.9027 8.60618C11.5603 8.86607 11.1692 9.05454 10.7526 9.16041C10.336 9.26629 9.90233 9.28742 9.47739 9.22255C9.05245 9.15768 8.64486 9.00812 8.27881 8.78276C8.00934 8.61605 7.76556 8.41103 7.55513 8.17413C7.00126 7.54971 6.71281 6.73387 6.75113 5.90008C6.7557 5.80679 6.76352 5.71377 6.77573 5.62117C6.78777 5.52991 6.80386 5.43906 6.82371 5.34929C6.84408 5.25714 6.86851 5.16604 6.89698 5.07598C6.92461 4.98833 6.9561 4.902 6.99145 4.81699C7.0281 4.72861 7.06896 4.6421 7.11305 4.55722C7.15947 4.46784 7.2109 4.38087 7.26582 4.29645C7.31646 4.21859 7.37041 4.14306 7.42766 4.06987C7.48976 3.99009 7.55576 3.91313 7.62537 3.83983C7.69565 3.76585 7.76906 3.69516 7.84562 3.62776C7.92358 3.55907 8.00534 3.49483 8.08956 3.43405C8.13299 3.40272 8.17722 3.37258 8.22228 3.34363C7.30707 3.81125 6.61095 4.61814 6.28256 5.59201C5.95416 6.56588 6.01952 7.62955 6.46467 8.55589C6.47348 8.57419 6.48244 8.59243 6.49153 8.6106L6.50402 8.6353C6.50598 8.6405 6.50852 8.64545 6.51159 8.65008C6.51611 8.65509 6.51769 8.65503 6.52322 8.65483L6.52609 8.65475C6.56763 8.654 6.6092 8.65419 6.65073 8.65509C6.72748 8.65675 6.8041 8.66112 6.8806 8.66821C7.58803 8.73508 8.25339 9.03437 8.77274 9.51934C9.2921 10.0043 9.6362 10.6476 9.75129 11.3488C9.80328 11.6697 9.80676 11.9964 9.76162 12.3183C9.67588 12.9253 9.41773 13.4949 9.01783 13.9595C8.78854 14.2257 8.51769 14.453 8.21579 14.6327C7.6131 14.9886 6.91086 15.1385 6.21538 15.0596C6.08961 15.0452 5.96478 15.0235 5.84153 14.9947C5.7617 14.9759 5.68265 14.9539 5.60449 14.9291C5.95564 15.0847 6.3278 15.1877 6.70898 15.2348C7.06461 15.2787 7.42455 15.2744 7.77903 15.2219C8.41299 15.1275 9.01416 14.8791 9.52998 14.4987C9.90854 14.2197 10.2344 13.8755 10.4925 13.4824C10.5036 13.4653 10.5147 13.4482 10.5256 13.431L10.5292 13.4258C10.5336 13.4196 10.539 13.4121 10.5381 13.4067C10.5338 13.3955 10.5281 13.385 10.5212 13.3753C10.4996 13.335 10.479 13.2942 10.4592 13.2529C10.4195 13.17 10.3834 13.0855 10.3509 12.9994C10.2851 12.8249 10.2348 12.645 10.2004 12.4618C10.1268 12.0678 10.1271 11.6636 10.2011 11.2697C10.2641 10.9352 10.3802 10.6128 10.5452 10.315C10.8204 9.81516 11.2239 9.39779 11.7141 9.1059C12.2044 8.814 12.7636 8.65815 13.3342 8.65441C13.413 8.65386 13.4917 8.65614 13.5704 8.66125C13.6463 8.66629 13.722 8.67391 13.7974 8.68409C13.8721 8.6943 13.9464 8.70716 14.0202 8.72266C14.0925 8.73792 14.1642 8.7556 14.2354 8.77568C14.3051 8.79545 14.3741 8.81757 14.4423 8.84203C14.5115 8.86687 14.5798 8.89407 14.6471 8.92363C14.7157 8.9536 14.7832 8.98607 14.8495 9.02104C14.9157 9.05588 14.9807 9.09297 15.0445 9.13233C15.1043 9.16935 15.1631 9.20814 15.2203 9.24917C15.2793 9.29148 15.3369 9.33557 15.3931 9.38142C15.4512 9.42865 15.5072 9.4784 15.5617 9.52969C15.6197 9.5843 15.6756 9.64104 15.7294 9.69989C15.7831 9.75841 15.8345 9.81894 15.8836 9.88149C15.9384 9.95107 15.9906 10.0228 16.0393 10.0968C16.0893 10.1728 16.1366 10.2508 16.1802 10.3307C16.241 10.4421 16.2952 10.5571 16.3425 10.675C16.3933 10.8031 16.4363 10.9342 16.4709 11.0676C16.3772 10.3541 16.0891 9.67994 15.6382 9.11894C15.3068 8.70588 14.8958 8.36354 14.4296 8.11219C13.9515 7.85453 13.425 7.69922 12.8836 7.65613C12.8378 7.65246 12.7919 7.64959 12.7459 7.64752Z"/></svg>