<svg width="20" height="20" viewBox="0 0 20 20" fill="currentColor" xmlns="http://www.w3.org/2000/svg"><path d="M3.5 12.5C3.77614 12.5 4 12.7239 4 13V14C4 15.1046 4.89543 16 6 16H7C7.27614 16 7.5 16.2239 7.5 16.5C7.5 16.7761 7.27614 17 7 17H6C4.34315 17 3 15.6569 3 14V13C3 12.7239 3.22386 12.5 3.5 12.5Z"/><path d="M16.5 12.5C16.7761 12.5 17 12.7239 17 13V14C17 15.6569 15.6569 17 14 17H13C12.7239 17 12.5 16.7761 12.5 16.5C12.5 16.2239 12.7239 16 13 16H14C15.1046 16 16 15.1046 16 14V13C16 12.7239 16.2239 12.5 16.5 12.5Z"/><path fill-rule="evenodd" clip-rule="evenodd" d="M7.01465 7.62402C7.14608 6.66398 8.16238 6.07664 9.05957 6.44238L9.25 6.53613L13 8.70117C13.9999 9.27854 13.9999 10.7215 13 11.2988L9.25 13.4639C8.31242 14.0052 7.15548 13.4047 7.01465 12.376L7 12.165V7.83496L7.01465 7.62402Z"/><path d="M7 3C7.27614 3 7.5 3.22386 7.5 3.5C7.5 3.77614 7.27614 4 7 4H6C4.89543 4 4 4.89543 4 6V7C4 7.27614 3.77614 7.5 3.5 7.5C3.22386 7.5 3 7.27614 3 7V6C3 4.34315 4.34315 3 6 3H7Z"/><path d="M14 3C15.6569 3 17 4.34315 17 6V7C17 7.27614 16.7761 7.5 16.5 7.5C16.2239 7.5 16 7.27614 16 7V6C16 4.89543 15.1046 4 14 4H13C12.7239 4 12.5 3.77614 12.5 3.5C12.5 3.22386 12.7239 3 13 3H14Z"/></svg>