<svg width="20" height="20" viewBox="0 0 20 20" fill="currentColor" xmlns="http://www.w3.org/2000/svg"><path d="M4 13C4.55216 13 4.9998 13.4479 5 14C5 14.5523 4.55228 15 4 15C3.44772 15 3 14.5523 3 14C3.0002 13.4479 3.44784 13 4 13Z"/><path d="M8 13C8.55216 13 8.9998 13.4479 9 14C9 14.5523 8.55228 15 8 15C7.44772 15 7 14.5523 7 14C7.0002 13.4479 7.44784 13 8 13Z"/><path d="M12.001 13C12.5531 13 13.0008 13.4479 13.001 14C13.001 14.5523 12.5533 15 12.001 15C11.4487 15 11.001 14.5523 11.001 14C11.0012 13.4479 11.4488 13 12.001 13Z"/><path d="M16.001 13C16.5531 13 17.0008 13.4479 17.001 14C17.001 14.5523 16.5533 15 16.001 15C15.4487 15 15.001 14.5523 15.001 14C15.0012 13.4479 15.4488 13 16.001 13Z"/><path d="M4 9C4.55216 9 4.9998 9.44788 5 10C5 10.5523 4.55228 11 4 11C3.44772 11 3 10.5523 3 10C3.0002 9.44788 3.44784 9 4 9Z"/><path d="M8 9C8.55216 9 8.9998 9.44788 9 10C9 10.5523 8.55228 11 8 11C7.44772 11 7 10.5523 7 10C7.0002 9.44788 7.44784 9 8 9Z"/><path d="M12.001 9C12.5531 9 13.0008 9.44788 13.001 10C13.001 10.5523 12.5533 11 12.001 11C11.4487 11 11.001 10.5523 11.001 10C11.0012 9.44788 11.4488 9 12.001 9Z"/><path d="M16.001 9C16.5531 9 17.0008 9.44788 17.001 10C17.001 10.5523 16.5533 11 16.001 11C15.4487 11 15.001 10.5523 15.001 10C15.0012 9.44788 15.4488 9 16.001 9Z"/><path d="M4 5C4.55216 5 4.9998 5.44788 5 6C5 6.55228 4.55228 7 4 7C3.44772 7 3 6.55228 3 6C3.0002 5.44788 3.44784 5 4 5Z"/><path d="M8 5C8.55216 5 8.9998 5.44788 9 6C9 6.55228 8.55228 7 8 7C7.44772 7 7 6.55228 7 6C7.0002 5.44788 7.44784 5 8 5Z"/><path d="M12.001 5C12.5531 5 13.0008 5.44788 13.001 6C13.001 6.55228 12.5533 7 12.001 7C11.4487 7 11.001 6.55228 11.001 6C11.0012 5.44788 11.4488 5 12.001 5Z"/><path d="M16.001 5C16.5531 5 17.0008 5.44788 17.001 6C17.001 6.55228 16.5533 7 16.001 7C15.4487 7 15.001 6.55228 15.001 6C15.0012 5.44788 15.4488 5 16.001 5Z"/></svg>