<svg width="20" height="20" viewBox="0 0 20 20" fill="currentColor" xmlns="http://www.w3.org/2000/svg"><path d="M2 4C2 2.89543 2.89543 2 4 2H11C12.1046 2 13 2.89543 13 4V5.5C13 5.77614 12.7761 6 12.5 6H9C7.34315 6 6 7.34315 6 9V12.5C6 12.7761 5.77614 13 5.5 13H4C2.89543 13 2 12.1046 2 11V4Z"/><path d="M7 9C7 7.89543 7.89543 7 9 7H10V10H7V9Z"/><path d="M11 10V7H14V10H11Z"/><path d="M15 10V7H16.0001C17.1047 7 18.0001 7.89543 18.0001 9V10H15Z"/><path d="M15 11H18.0001V14H15V11Z"/><path d="M15 15H18.0001V15.9972C18.0001 17.1018 17.1047 17.9972 16.0001 17.9972L15 17.9972V15Z"/><path d="M14 15V17.9972H11V15H14Z"/><path d="M10 15V17.9972L9 17.9972C7.89543 17.9972 7 17.1018 7 15.9972V15H10Z"/><path d="M10 14H7V11H10V14Z"/><path d="M14 14V11H11V14H14Z"/></svg>