<svg width="20" height="20" viewBox="0 0 20 20" fill="currentColor" xmlns="http://www.w3.org/2000/svg"><path fill-rule="evenodd" clip-rule="evenodd" d="M16 4C17.1046 4 18 4.89543 18 6V14C18 15.1046 17.1046 16 16 16H4C2.89543 16 2 15.1046 2 14V6C2 4.89543 2.89543 4 4 4H16ZM10.3535 12.3535C10.1583 12.5488 9.84174 12.5488 9.64648 12.3535L3.03418 5.74121C3.01211 5.82378 3 5.91047 3 6V14C3 14.5523 3.44772 15 4 15H16C16.5523 15 17 14.5523 17 14V6C17 5.91038 16.987 5.82386 16.9648 5.74121L10.3535 12.3535ZM4 5C3.91047 5 3.82378 5.01211 3.74121 5.03418L10 11.293L16.2578 5.03418C16.1755 5.01227 16.0892 5 16 5H4Z"/></svg>