<svg width="20" height="20" viewBox="0 0 20 20" fill="currentColor" xmlns="http://www.w3.org/2000/svg"><path d="M7.5 8C7.22386 8 7 8.22386 7 8.5C7 8.77614 7.22386 9 7.5 9H12.5C12.7761 9 13 8.77614 13 8.5C13 8.22386 12.7761 8 12.5 8H7.5Z"/><path d="M7 11.5C7 11.2239 7.22386 11 7.5 11H10.5C10.7761 11 11 11.2239 11 11.5C11 11.7761 10.7761 12 10.5 12H7.5C7.22386 12 7 11.7761 7 11.5Z"/><path fill-rule="evenodd" clip-rule="evenodd" d="M9.99994 18C14.4182 18 17.9999 14.4183 17.9999 10C17.9999 5.58172 14.4182 2 9.99994 2C5.58166 2 1.99994 5.58172 1.99994 10C1.99994 11.3519 2.33528 12.6255 2.92731 13.7421L1.76677 17.6106C1.65234 17.992 2.00795 18.3476 2.38935 18.2332L6.25783 17.0726C7.37445 17.6647 8.64804 18 9.99994 18ZM2.99141 17.0085L4.00308 13.6363L3.81081 13.2737C3.29342 12.2978 2.99994 11.1847 2.99994 10C2.99994 6.13401 6.13395 3 9.99994 3C13.8659 3 16.9999 6.13401 16.9999 10C16.9999 13.866 13.8659 17 9.99994 17C8.81527 17 7.70209 16.7065 6.72626 16.1891L6.36362 15.9969L2.99141 17.0085Z"/></svg>