<svg width="20" height="20" viewBox="0 0 20 20" fill="currentColor" xmlns="http://www.w3.org/2000/svg"><path d="M8.99996 10.5C9.03263 10.5 9.06545 10.5024 9.09761 10.5087C9.14871 10.5189 9.19598 10.539 9.24019 10.5634C9.2805 10.5856 9.31929 10.6123 9.35347 10.6464C9.38733 10.6803 9.41339 10.7189 9.4355 10.7587C9.46003 10.803 9.47997 10.8502 9.49019 10.9013C9.49671 10.9338 9.49996 10.9669 9.49996 11V16C9.49993 16.2761 9.27606 16.4999 8.99996 16.5C8.72383 16.5 8.49999 16.2761 8.49996 16V12.207L8.46285 12.2441C8.45943 12.2475 8.4565 12.2514 8.45308 12.2548C8.44967 12.2583 8.44576 12.2612 8.44234 12.2646L8.39937 12.3076C8.39596 12.311 8.39303 12.3149 8.38961 12.3183C8.3862 12.3217 8.38228 12.3247 8.37887 12.3281L8.08785 12.6191C8.08421 12.6227 8.08075 12.6272 8.07711 12.6308C8.07347 12.6345 8.06903 12.6379 8.06539 12.6416L8.03316 12.6738C8.02952 12.6774 8.02606 12.6819 8.02242 12.6855C8.01876 12.6892 8.01436 12.6926 8.0107 12.6962L7.98922 12.7177C7.98556 12.7214 7.98213 12.7258 7.97847 12.7294C7.97481 12.7331 7.97043 12.7365 7.96676 12.7402L7.8232 12.8837C7.81951 12.8874 7.81616 12.8918 7.81246 12.8955C7.80875 12.8992 7.80445 12.9025 7.80074 12.9062L7.74508 12.9619C7.74135 12.9656 7.73806 12.9699 7.73433 12.9736C7.73061 12.9773 7.72634 12.9806 7.72262 12.9843L7.36129 13.3457C7.35754 13.3494 7.35429 13.3536 7.35055 13.3574C7.34681 13.3611 7.34256 13.3644 7.33883 13.3681C7.33503 13.3719 7.33091 13.376 7.32711 13.3798C7.32337 13.3836 7.32011 13.3878 7.31637 13.3916C7.31263 13.3953 7.30839 13.3986 7.30465 13.4023L7.13277 13.5742C7.12903 13.5779 7.12577 13.5821 7.12203 13.5859C7.11829 13.5896 7.11405 13.5929 7.11031 13.5966L7.08687 13.6201C7.08313 13.6238 7.07987 13.628 7.07613 13.6318C7.07239 13.6355 7.06816 13.6388 7.06441 13.6425L7.04098 13.666C7.03723 13.6697 7.03398 13.6739 7.03023 13.6777C7.0265 13.6814 7.02225 13.6847 7.01851 13.6884L6.93746 13.7695C6.93372 13.7732 6.93046 13.7775 6.92672 13.7812C6.92297 13.7849 6.91874 13.7882 6.915 13.7919L6.70699 14C6.70325 14.0037 6.69999 14.0079 6.69625 14.0117C6.69251 14.0154 6.68827 14.0187 6.68453 14.0224L6.52242 14.1845C6.51868 14.1883 6.51542 14.1925 6.51168 14.1962C6.50794 14.2 6.5037 14.2032 6.49996 14.207L6.29195 14.415C6.28821 14.4187 6.28495 14.423 6.28121 14.4267C6.27747 14.4305 6.27323 14.4337 6.26949 14.4375L6.18844 14.5185C6.1847 14.5222 6.18143 14.5265 6.17769 14.5302C6.17395 14.534 6.16972 14.5372 6.16598 14.541L6.14254 14.5644C6.13879 14.5682 6.13554 14.5724 6.1318 14.5761C6.12805 14.5799 6.12382 14.5831 6.12008 14.5869L6.09664 14.6103C6.0929 14.614 6.08964 14.6183 6.0859 14.622C6.08215 14.6258 6.07792 14.629 6.07418 14.6328L5.9023 14.8046C5.89856 14.8084 5.8953 14.8126 5.89156 14.8164C5.88782 14.8201 5.88359 14.8234 5.87984 14.8271C5.87605 14.8309 5.87192 14.835 5.86812 14.8388C5.86439 14.8426 5.86112 14.8468 5.85738 14.8505C5.85364 14.8543 5.84941 14.8575 5.84566 14.8613L5.48434 15.2226C5.48061 15.2263 5.47732 15.2306 5.47359 15.2343C5.46987 15.2381 5.4656 15.2413 5.46187 15.2451L5.40621 15.3007C5.4025 15.3044 5.39918 15.3087 5.39547 15.3125C5.39177 15.3162 5.38745 15.3195 5.38375 15.3232L5.2402 15.4668C5.23652 15.4704 5.23312 15.4748 5.22945 15.4785C5.2258 15.4821 5.22139 15.4856 5.21773 15.4892L5.19625 15.5107C5.19259 15.5144 5.18916 15.5188 5.18551 15.5224C5.18186 15.5261 5.17743 15.5295 5.17379 15.5332L5.14156 15.5654C5.13792 15.569 5.13446 15.5735 5.13082 15.5771C5.12718 15.5807 5.12274 15.5842 5.1191 15.5878L4.82809 15.8789C4.82468 15.8823 4.82173 15.8862 4.81832 15.8896C4.8149 15.893 4.81099 15.896 4.80758 15.8994L4.76461 15.9423C4.76119 15.9458 4.75826 15.9497 4.75484 15.9531C4.75142 15.9565 4.74752 15.9594 4.7441 15.9628L4.68063 16.0263C4.67721 16.0297 4.67427 16.0337 4.67086 16.0371C4.66744 16.0405 4.66353 16.0434 4.66012 16.0468C4.65664 16.0503 4.65285 16.0541 4.64938 16.0576C4.64596 16.061 4.64303 16.0649 4.63961 16.0683C4.6362 16.0717 4.63228 16.0747 4.62887 16.0781L4.52535 16.1816C4.52194 16.185 4.51899 16.1889 4.51559 16.1923C4.51218 16.1957 4.50825 16.1987 4.50484 16.2021L4.3232 16.3837C4.31988 16.3871 4.31675 16.3912 4.31344 16.3945C4.31012 16.3978 4.30601 16.4009 4.3027 16.4043L4.1357 16.5712C4.13262 16.5743 4.13 16.5779 4.12691 16.581C4.12382 16.5841 4.12024 16.5867 4.11715 16.5898L4.07809 16.6289C4.07499 16.632 4.07239 16.6355 4.0693 16.6386C4.06621 16.6417 4.06261 16.6443 4.05953 16.6474L3.85348 16.8535C3.65822 17.0487 3.34171 17.0487 3.14645 16.8535C2.95118 16.6582 2.95118 16.3417 3.14645 16.1464L3.3525 15.9404C3.35558 15.9373 3.35821 15.9337 3.36129 15.9306C3.36438 15.9275 3.36796 15.9249 3.37106 15.9218L3.41012 15.8828C3.41321 15.8797 3.41581 15.8761 3.41891 15.873C3.42199 15.8699 3.42559 15.8673 3.42867 15.8642L3.59566 15.6972C3.59898 15.6939 3.60211 15.6898 3.60543 15.6865C3.60875 15.6832 3.61285 15.68 3.61617 15.6767L3.79781 15.4951C3.80122 15.4917 3.80417 15.4877 3.80758 15.4843C3.81099 15.4809 3.81491 15.478 3.81832 15.4746L3.92184 15.371C3.92525 15.3676 3.92819 15.3637 3.9316 15.3603C3.93502 15.3569 3.93892 15.354 3.94234 15.3505C3.94582 15.3471 3.94961 15.3433 3.95309 15.3398C3.9565 15.3364 3.95943 15.3325 3.96285 15.3291C3.96626 15.3256 3.97018 15.3227 3.97359 15.3193L4.03707 15.2558C4.04049 15.2524 4.04342 15.2485 4.04684 15.2451C4.05025 15.2417 4.05416 15.2387 4.05758 15.2353L4.10055 15.1923C4.10396 15.1889 4.10689 15.185 4.11031 15.1816C4.11372 15.1782 4.11765 15.1752 4.12106 15.1718L4.41207 14.8808C4.41571 14.8772 4.41917 14.8727 4.42281 14.8691C4.42645 14.8655 4.43089 14.862 4.43453 14.8584L4.46676 14.8261C4.4704 14.8225 4.47386 14.8181 4.4775 14.8144C4.48116 14.8108 4.48556 14.8073 4.48922 14.8037L4.5107 14.7822C4.51436 14.7785 4.51779 14.7741 4.52145 14.7705C4.52511 14.7668 4.52949 14.7634 4.53316 14.7597L4.67672 14.6162C4.68041 14.6125 4.68376 14.6081 4.68746 14.6044C4.69117 14.6007 4.69547 14.5974 4.69918 14.5937L4.75484 14.538C4.75857 14.5343 4.76186 14.53 4.76559 14.5263C4.76931 14.5226 4.77358 14.5193 4.7773 14.5156L5.13863 14.1543C5.14238 14.1505 5.14563 14.1463 5.14937 14.1425C5.15311 14.1388 5.15736 14.1355 5.16109 14.1318C5.16489 14.128 5.16902 14.1239 5.17281 14.1201C5.17656 14.1163 5.17981 14.1121 5.18355 14.1084C5.18729 14.1046 5.19153 14.1014 5.19527 14.0976L5.36715 13.9257C5.37089 13.922 5.37415 13.9178 5.37789 13.914C5.38163 13.9103 5.38587 13.907 5.38961 13.9033L5.41305 13.8798C5.41679 13.8761 5.42005 13.8719 5.42379 13.8681C5.42753 13.8644 5.43176 13.8611 5.43551 13.8574L5.45895 13.8339C5.46269 13.8302 5.46594 13.826 5.46969 13.8222C5.47342 13.8185 5.47767 13.8152 5.48141 13.8115L5.56246 13.7304C5.5662 13.7267 5.56946 13.7224 5.5732 13.7187C5.57695 13.715 5.58118 13.7117 5.58492 13.708L5.79293 13.5C5.79667 13.4962 5.79993 13.492 5.80367 13.4882C5.80741 13.4845 5.81165 13.4812 5.81539 13.4775L5.9775 13.3154C5.98124 13.3116 5.9845 13.3074 5.98824 13.3037C5.99198 13.2999 5.99622 13.2967 5.99996 13.2929L6.20797 13.0849C6.21171 13.0812 6.21497 13.0769 6.21871 13.0732C6.22245 13.0695 6.22669 13.0662 6.23043 13.0625L6.31148 12.9814C6.31522 12.9777 6.31849 12.9734 6.32223 12.9697C6.32597 12.9659 6.3302 12.9627 6.33394 12.9589L6.35738 12.9355C6.36113 12.9318 6.36438 12.9275 6.36812 12.9238C6.37187 12.92 6.3761 12.9168 6.37984 12.913L6.40328 12.8896C6.40702 12.8859 6.41028 12.8816 6.41402 12.8779C6.41777 12.8741 6.422 12.8709 6.42574 12.8671L6.59762 12.6953C6.60136 12.6915 6.60462 12.6873 6.60836 12.6835C6.6121 12.6798 6.61633 12.6766 6.62008 12.6728C6.62387 12.669 6.628 12.6649 6.6318 12.6611C6.63553 12.6574 6.6388 12.6531 6.64254 12.6494C6.64628 12.6456 6.65051 12.6424 6.65426 12.6386L7.01558 12.2773C7.01931 12.2736 7.0226 12.2693 7.02633 12.2656C7.03005 12.2619 7.03432 12.2586 7.03805 12.2548L7.09371 12.1992C7.09742 12.1955 7.10074 12.1912 7.10445 12.1875C7.10815 12.1838 7.11247 12.1804 7.11617 12.1767L7.25973 12.0332C7.2634 12.0295 7.2668 12.0251 7.27047 12.0214C7.27412 12.0178 7.27853 12.0144 7.28219 12.0107L7.30367 11.9892C7.30733 11.9856 7.31076 11.9812 7.31441 11.9775C7.31806 11.9739 7.32249 11.9704 7.32613 11.9668L7.35836 11.9345C7.362 11.9309 7.36546 11.9264 7.3691 11.9228C7.37274 11.9192 7.37718 11.9157 7.38082 11.9121L7.67183 11.6211C7.67524 11.6176 7.67819 11.6137 7.6816 11.6103C7.68502 11.6069 7.68893 11.604 7.69234 11.6005L7.73531 11.5576C7.73873 11.5542 7.74166 11.5502 7.74508 11.5468C7.7485 11.5434 7.7524 11.5405 7.75582 11.5371L7.79293 11.5H3.99996C3.72384 11.5 3.49999 11.2761 3.49996 11C3.49996 10.7238 3.72382 10.5 3.99996 10.5H8.99996ZM16.1464 3.14645C16.3417 2.95118 16.6582 2.95118 16.8535 3.14645C17.0487 3.34171 17.0487 3.65822 16.8535 3.85348L12.207 8.49996H16C16.2761 8.49999 16.5 8.72383 16.5 8.99996C16.4999 9.27606 16.2761 9.49993 16 9.49996H11C10.9669 9.49996 10.9338 9.49671 10.9013 9.49019C10.8561 9.48115 10.8143 9.46366 10.7744 9.44332C10.7287 9.42006 10.6847 9.39168 10.6464 9.35347C10.6123 9.31929 10.5856 9.2805 10.5634 9.24019C10.539 9.19598 10.5189 9.14871 10.5087 9.09761C10.5024 9.06545 10.5 9.03263 10.5 8.99996V3.99996C10.5 3.72382 10.7238 3.49996 11 3.49996C11.2761 3.49999 11.5 3.72384 11.5 3.99996V7.79293L16.1464 3.14645Z"/></svg>