<svg width="20" height="20" viewBox="0 0 20 20" fill="currentColor" xmlns="http://www.w3.org/2000/svg"><path d="M15.5 2C15.7761 2 16 2.22386 16 2.5V5.5C16 5.70185 15.8787 5.88428 15.6924 5.96191L10 8.33301V11H11.5C11.7761 11 12 11.2239 12 11.5C12 11.7761 11.7761 12 11.5 12H10V17H12.5C12.7761 17 13 17.2239 13 17.5C13 17.7761 12.7761 18 12.5 18H6.5C6.22386 18 6 17.7761 6 17.5C6 17.2239 6.22386 17 6.5 17H9V12H4.5C4.22386 12 4 11.7761 4 11.5C4 11.2239 4.22386 11 4.5 11H9V8C9 7.79815 9.12129 7.61572 9.30762 7.53809L15 5.16602V2.5C15 2.22386 15.2239 2 15.5 2Z"/></svg>