<svg width="20" height="20" viewBox="0 0 20 20" fill="currentColor" xmlns="http://www.w3.org/2000/svg"><path fill-rule="evenodd" clip-rule="evenodd" d="M15.8077 2.1059C15.9291 2.20066 16 2.34604 16 2.5V13.5C16 14.8807 14.8807 16 13.5 16C12.1193 16 11 14.8807 11 13.5C11 12.1193 12.1193 11 13.5 11C14.0628 11 14.5822 11.186 15 11.4998V3.14039L8 4.89039V15.5C8 16.8807 6.88071 18 5.5 18C4.11929 18 3 16.8807 3 15.5C3 14.1193 4.11929 13 5.5 13C6.0628 13 6.58217 13.186 7 13.4998V4.5C7 4.27057 7.15615 4.07058 7.37873 4.01493L15.3787 2.01493C15.5281 1.97759 15.6863 2.01115 15.8077 2.1059ZM15 13.5C15 12.6716 14.3284 12 13.5 12C12.6716 12 12 12.6716 12 13.5C12 14.3284 12.6716 15 13.5 15C14.3284 15 15 14.3284 15 13.5ZM5.5 14C6.32843 14 7 14.6716 7 15.5C7 16.3284 6.32843 17 5.5 17C4.67157 17 4 16.3284 4 15.5C4 14.6716 4.67157 14 5.5 14Z"/></svg>