<svg width="20" height="20" viewBox="0 0 20 20" fill="currentColor" xmlns="http://www.w3.org/2000/svg"><path fill-rule="evenodd" clip-rule="evenodd" d="M9.36373 2.26297C9.47334 2.4036 9.49976 2.59197 9.43307 2.75733C9.15392 3.44953 9 4.20622 9 5.00009C9 8.31379 11.6863 11.0001 15 11.0001C15.7939 11.0001 16.5506 10.8462 17.2428 10.567C17.4081 10.5003 17.5965 10.5267 17.7371 10.6364C17.8778 10.746 17.9494 10.9222 17.9251 11.0988C17.3893 14.9974 14.0457 18.0001 10 18.0001C5.58172 18.0001 2 14.4184 2 10.0001C2 5.95436 5.0027 2.61078 8.90128 2.07498C9.07792 2.0507 9.25413 2.12233 9.36373 2.26297ZM8.22677 3.22652C5.21955 4.01148 3 6.74693 3 10.0001C3 13.8661 6.13401 17.0001 10 17.0001C13.2532 17.0001 15.9886 14.7805 16.7736 11.7733C16.2068 11.9214 15.6123 12.0001 15 12.0001C11.134 12.0001 8 8.86608 8 5.00009C8 4.38777 8.07874 3.79331 8.22677 3.22652Z"/></svg>