<svg width="20" height="20" viewBox="0 0 20 20" fill="currentColor" xmlns="http://www.w3.org/2000/svg"><path d="M2.49998 2.5C2.49998 2.22386 2.72383 2 2.99998 2H4.49998C4.77612 2 4.99998 2.22386 4.99998 2.5V7H5.99998C6.27612 7 6.49998 7.22386 6.49998 7.5C6.49998 7.77614 6.27612 8 5.99998 8H2.99998C2.72383 8 2.49998 7.77614 2.49998 7.5C2.49998 7.22386 2.72383 7 2.99998 7H3.99998V3H2.99998C2.72383 3 2.49998 2.77614 2.49998 2.5Z"/><path d="M7.99998 4.5C7.99998 4.22386 8.22383 4 8.49998 4H16.5C16.7761 4 17 4.22386 17 4.5C17 4.77614 16.7761 5 16.5 5H8.49998C8.22383 5 7.99998 4.77614 7.99998 4.5Z"/><path d="M5.99998 18H2.49998C2.27998 18 2.08998 17.86 2.01998 17.65C1.94998 17.44 2.03998 17.21 2.21998 17.09C3.28998 16.37 4.99998 14.9 4.99998 14.01C4.99998 13.78 4.90998 13.01 3.99998 13.01C3.32998 13.01 2.94998 13.73 2.94998 13.74C2.81998 13.98 2.51998 14.08 2.27998 13.96C2.02998 13.84 1.93998 13.54 2.05998 13.29L2.06686 13.2777C2.14312 13.1391 2.76444 12.01 4.00998 12.01C5.47998 12.01 6.00998 13.21 6.00998 14.01C6.00998 15.07 4.90998 16.23 3.98998 17.01H6.00998C6.28998 17.01 6.50998 17.23 6.50998 17.51C6.50998 17.79 6.28998 18.01 6.00998 18.01L5.99998 18Z"/><path d="M8.49998 14C8.22383 14 7.99998 14.2239 7.99998 14.5C7.99998 14.7761 8.22383 15 8.49998 15H16.5C16.7761 15 17 14.7761 17 14.5C17 14.2239 16.7761 14 16.5 14H8.49998Z"/><path d="M8.49998 9C8.22383 9 7.99998 9.22386 7.99998 9.5C7.99998 9.77614 8.22383 10 8.49998 10H16.5C16.7761 10 17 9.77614 17 9.5C17 9.22386 16.7761 9 16.5 9H8.49998Z"/></svg>