<svg width="20" height="20" viewBox="0 0 20 20" fill="currentColor" xmlns="http://www.w3.org/2000/svg"><path d="M12 7.5C12.5523 7.5 13 7.05228 13 6.5C13 5.94772 12.5523 5.5 12 5.5C11.4477 5.5 11 5.94772 11 6.5C11 7.05228 11.4477 7.5 12 7.5Z"/><path d="M15 10C15 10.5523 14.5523 11 14 11C13.4477 11 13 10.5523 13 10C13 9.44771 13.4477 9 14 9C14.5523 9 15 9.44771 15 10Z"/><path d="M8 7.5C8.55229 7.5 9 7.05228 9 6.5C9 5.94772 8.55229 5.5 8 5.5C7.44772 5.5 7 5.94772 7 6.5C7 7.05228 7.44772 7.5 8 7.5Z"/><path d="M7 10C7 10.5523 6.55228 11 6 11C5.44772 11 5 10.5523 5 10C5 9.44771 5.44772 9 6 9C6.55228 9 7 9.44771 7 10Z"/><path d="M8 14.5C8.55229 14.5 9 14.0523 9 13.5C9 12.9477 8.55229 12.5 8 12.5C7.44772 12.5 7 12.9477 7 13.5C7 14.0523 7.44772 14.5 8 14.5Z"/><path fill-rule="evenodd" clip-rule="evenodd" d="M2 10C2 5.58172 5.58172 2 10 2C14.4183 2 18 5.58172 18 10C18 12.2091 16.2091 14 14 14C12.8954 14 12 14.8954 12 16C12 17.1046 11.1046 18 10 18C5.58172 18 2 14.4183 2 10ZM11 16C11 16.5523 10.5523 17 10 17C6.13401 17 3 13.866 3 10C3 6.13401 6.13401 3 10 3C13.866 3 17 6.13401 17 10C17 11.6569 15.6569 13 14 13C12.3431 13 11 14.3431 11 16Z"/></svg>