<svg width="20" height="20" viewBox="0 0 20 20" fill="currentColor" xmlns="http://www.w3.org/2000/svg"><path fill-rule="evenodd" clip-rule="evenodd" d="M4 4.5C4 3.67157 4.67157 3 5.5 3H6.5C7.32843 3 8 3.67157 8 4.5V15.5C8 16.3284 7.32843 17 6.5 17H5.5C4.67157 17 4 16.3284 4 15.5V4.5ZM5.5 4H6.5C6.77614 4 7 4.22386 7 4.5V15.5C7 15.7761 6.77614 16 6.5 16H5.5C5.22386 16 5 15.7761 5 15.5V4.5C5 4.22386 5.22386 4 5.5 4Z"/><path fill-rule="evenodd" clip-rule="evenodd" d="M12 4.5C12 3.67157 12.6716 3 13.5 3H14.5C15.3284 3 16 3.67157 16 4.5V15.5C16 16.3284 15.3284 17 14.5 17H13.5C12.6716 17 12 16.3284 12 15.5V4.5ZM13.5 4H14.5C14.7761 4 15 4.22386 15 4.5V15.5C15 15.7761 14.7761 16 14.5 16H13.5C13.2239 16 13 15.7761 13 15.5V4.5C13 4.22386 13.2239 4 13.5 4Z"/></svg>