<svg width="20" height="20" viewBox="0 0 20 20" fill="currentColor" xmlns="http://www.w3.org/2000/svg"><path d="M10.0001 10C12.2092 10 14.0001 8.20914 14.0001 6C14.0001 3.79086 12.2092 2 10.0001 2C7.79093 2 6.00007 3.79086 6.00007 6C6.00007 8.20914 7.79093 10 10.0001 10Z"/><path d="M16.4672 15.3212C17.0482 16.7238 15.7694 18 14.2512 18H5.74895C4.23079 18 2.95194 16.7238 3.53291 15.3212C3.8847 14.4719 4.40031 13.7003 5.05032 13.0503C5.70033 12.4002 6.47201 11.8846 7.32129 11.5328C8.17057 11.1811 9.08082 11 10.0001 11C10.9193 11 11.8296 11.1811 12.6789 11.5328C13.5281 11.8846 14.2998 12.4002 14.9498 13.0503C15.5998 13.7003 16.1154 14.4719 16.4672 15.3212Z"/></svg>