<svg width="20" height="20" viewBox="0 0 20 20" fill="currentColor" xmlns="http://www.w3.org/2000/svg"><path opacity="0.2" d="M3.33325 6.66675C3.33325 5.74627 4.07944 5.00008 4.99992 5.00008H7.08325C7.31337 5.00008 7.49992 4.81353 7.49992 4.58341V4.16675C7.49992 2.78604 8.61921 1.66675 9.99992 1.66675C11.3806 1.66675 12.4999 2.78604 12.4999 4.16675V4.58341C12.4999 4.81353 12.6865 5.00008 12.9166 5.00008H14.9999C15.9204 5.00008 16.6666 5.74627 16.6666 6.66675V15.8334C16.6666 16.7539 15.9204 17.5001 14.9999 17.5001H4.99992C4.07944 17.5001 3.33325 16.7539 3.33325 15.8334L3.33325 14.5834C3.33325 13.6629 4.07944 12.9167 4.99992 12.9167H5.41659C6.33706 12.9167 7.08325 12.1706 7.08325 11.2501C7.08325 10.3296 6.33706 9.58341 5.41659 9.58341H4.99992C4.07944 9.58341 3.33325 8.83722 3.33325 7.91675L3.33325 6.66675Z"/></svg>