<svg width="20" height="20" viewBox="0 0 20 20" fill="currentColor" xmlns="http://www.w3.org/2000/svg"><path fill-rule="evenodd" clip-rule="evenodd" d="M14 2C15.1046 2 16 2.89543 16 4V17.5C16 17.6881 15.8941 17.86 15.7266 17.9453C15.559 18.0305 15.3581 18.0148 15.2061 17.9043L12.75 16.1172L10.2939 17.9043C10.1186 18.0317 9.88135 18.0317 9.70605 17.9043L7.25 16.1172L4.79395 17.9043C4.64191 18.0148 4.44097 18.0305 4.27344 17.9453C4.10585 17.86 4 17.6881 4 17.5V4C4 2.89543 4.89543 2 6 2H14ZM7.5 11C7.22386 11 7 11.2239 7 11.5C7 11.7761 7.22386 12 7.5 12H10.5C10.7761 12 11 11.7761 11 11.5C11 11.2239 10.7761 11 10.5 11H7.5ZM7.5 8C7.22386 8 7 8.22386 7 8.5C7 8.77614 7.22386 9 7.5 9H12.5C12.7761 9 13 8.77614 13 8.5C13 8.22386 12.7761 8 12.5 8H7.5ZM7.5 5C7.22386 5 7 5.22386 7 5.5C7 5.77614 7.22386 6 7.5 6H12.5C12.7761 6 13 5.77614 13 5.5C13 5.22386 12.7761 5 12.5 5H7.5Z"/></svg>