<svg width="20" height="20" viewBox="0 0 20 20" fill="currentColor" xmlns="http://www.w3.org/2000/svg"><path d="M4.01716 13.8607C4.0821 14.103 4.31662 14.2597 4.56539 14.227C4.81416 14.1942 5.00012 13.9822 5.00012 13.7312V7.99988C5.00012 6.34303 6.34327 4.99988 8.00012 4.99988H13.4146C13.5701 4.99988 13.7167 4.92758 13.8113 4.80426C13.9059 4.68094 13.9378 4.52062 13.8976 4.37047L13.6598 3.48286C13.3739 2.41593 12.2772 1.78276 11.2103 2.06864L3.48286 4.1392C2.41593 4.42508 1.78276 5.52176 2.06864 6.58869L4.01716 13.8607Z"/><path fill-rule="evenodd" clip-rule="evenodd" d="M8 6C6.89543 6 6 6.89543 6 8V16C6 17.1046 6.89543 18 8 18H16C17.1046 18 18 17.1046 18 16V8C18 6.89543 17.1046 6 16 6H8ZM11.5 9.5C11.5 9.22386 11.7239 9 12 9H14.5C14.7761 9 15 9.22386 15 9.5C15 9.77614 14.7761 10 14.5 10H12C11.7239 10 11.5 9.77614 11.5 9.5ZM11.5 12C11.5 11.7239 11.7239 11.5 12 11.5H14.5C14.7761 11.5 15 11.7239 15 12C15 12.2761 14.7761 12.5 14.5 12.5H12C11.7239 12.5 11.5 12.2761 11.5 12ZM11.5 14.5C11.5 14.2239 11.7239 14 12 14H14.5C14.7761 14 15 14.2239 15 14.5C15 14.7761 14.7761 15 14.5 15H12C11.7239 15 11.5 14.7761 11.5 14.5ZM10.25 9.5C10.25 9.91421 9.91421 10.25 9.5 10.25C9.08579 10.25 8.75 9.91421 8.75 9.5C8.75 9.08579 9.08579 8.75 9.5 8.75C9.91421 8.75 10.25 9.08579 10.25 9.5ZM9.5 12.75C9.91421 12.75 10.25 12.4142 10.25 12C10.25 11.5858 9.91421 11.25 9.5 11.25C9.08579 11.25 8.75 11.5858 8.75 12C8.75 12.4142 9.08579 12.75 9.5 12.75ZM10.25 14.5C10.25 14.9142 9.91421 15.25 9.5 15.25C9.08579 15.25 8.75 14.9142 8.75 14.5C8.75 14.0858 9.08579 13.75 9.5 13.75C9.91421 13.75 10.25 14.0858 10.25 14.5Z"/></svg>