<svg width="20" height="20" viewBox="0 0 20 20" fill="currentColor" xmlns="http://www.w3.org/2000/svg"><path d="M11.469 3.03457C12.0024 2.89163 12.5508 3.20821 12.6937 3.74168L12.9315 4.62929C13.003 4.89602 13.2772 5.05431 13.5439 4.98284C13.8106 4.91137 13.9689 4.6372 13.8975 4.37047L13.6596 3.48286C13.3737 2.41593 12.2771 1.78276 11.2101 2.06864L3.48274 4.1392C2.4158 4.42508 1.78264 5.52176 2.06852 6.58869L4.01704 13.8607C4.08851 14.1274 4.36268 14.2857 4.62941 14.2142C4.89614 14.1427 5.05444 13.8686 4.98296 13.6018L3.03445 6.32987C2.89151 5.7964 3.20809 5.24806 3.74156 5.10512L11.469 3.03457Z"/><path d="M11.5 9.49988C11.5 9.22374 11.7239 8.99988 12 8.99988H14.5C14.7761 8.99988 15 9.22374 15 9.49988C15 9.77602 14.7761 9.99988 14.5 9.99988H12C11.7239 9.99988 11.5 9.77602 11.5 9.49988Z"/><path d="M11.5 11.9999C11.5 11.7237 11.7239 11.4999 12 11.4999H14.5C14.7761 11.4999 15 11.7237 15 11.9999C15 12.276 14.7761 12.4999 14.5 12.4999H12C11.7239 12.4999 11.5 12.276 11.5 11.9999Z"/><path d="M11.5 14.4999C11.5 14.2237 11.7239 13.9999 12 13.9999H14.5C14.7761 13.9999 15 14.2237 15 14.4999C15 14.776 14.7761 14.9999 14.5 14.9999H12C11.7239 14.9999 11.5 14.776 11.5 14.4999Z"/><path d="M10.25 9.49988C10.25 9.91409 9.91422 10.2499 9.5 10.2499C9.08579 10.2499 8.75 9.91409 8.75 9.49988C8.75 9.08567 9.08579 8.74988 9.5 8.74988C9.91422 8.74988 10.25 9.08567 10.25 9.49988Z"/><path d="M9.5 12.7499C9.91422 12.7499 10.25 12.4141 10.25 11.9999C10.25 11.5857 9.91422 11.2499 9.5 11.2499C9.08579 11.2499 8.75 11.5857 8.75 11.9999C8.75 12.4141 9.08579 12.7499 9.5 12.7499Z"/><path d="M10.25 14.4999C10.25 14.9141 9.91422 15.2499 9.5 15.2499C9.08579 15.2499 8.75 14.9141 8.75 14.4999C8.75 14.0857 9.08579 13.7499 9.5 13.7499C9.91422 13.7499 10.25 14.0857 10.25 14.4999Z"/><path fill-rule="evenodd" clip-rule="evenodd" d="M6 7.99988C6 6.89531 6.89543 5.99988 8 5.99988H16C17.1046 5.99988 18 6.89531 18 7.99988V15.9999C18 17.1044 17.1046 17.9999 16 17.9999H8C6.89543 17.9999 6 17.1044 6 15.9999V7.99988ZM8 6.99988H16C16.5523 6.99988 17 7.4476 17 7.99988V15.9999C17 16.5522 16.5523 16.9999 16 16.9999H8C7.44772 16.9999 7 16.5522 7 15.9999V7.99988C7 7.4476 7.44772 6.99988 8 6.99988Z"/></svg>