<svg width="20" height="20" viewBox="0 0 20 20" fill="currentColor" xmlns="http://www.w3.org/2000/svg"><path fill-rule="evenodd" clip-rule="evenodd" d="M4.00773 5.42412L9.00773 2.56698C9.6226 2.21563 10.3774 2.21563 10.9923 2.56698L15.9923 5.42412C16.6154 5.78021 17.0091 6.4479 16.9638 7.16418C16.5287 14.029 12.2954 16.8583 10.6497 17.7047C10.239 17.916 9.76106 17.916 9.3503 17.7047C7.70462 16.8583 3.47133 14.029 3.03626 7.16418C2.99087 6.44791 3.38458 5.78021 4.00773 5.42412ZM12.3536 8.85352C12.5488 8.65826 12.5488 8.34167 12.3536 8.14641C12.1583 7.95115 11.8417 7.95115 11.6465 8.14641L9.00001 10.7929L7.85356 9.64641C7.6583 9.45115 7.34172 9.45115 7.14646 9.64641C6.95119 9.84167 6.95119 10.1583 7.14646 10.3535L8.64646 11.8535C8.84172 12.0488 9.1583 12.0488 9.35356 11.8535L12.3536 8.85352Z"/></svg>