<svg width="20" height="20" viewBox="0 0 20 20" fill="currentColor" xmlns="http://www.w3.org/2000/svg"><path fill-rule="evenodd" clip-rule="evenodd" d="M5.92832 3.03264L15.9304 8.22499C17.3684 8.97151 17.3684 11.0286 15.9304 11.7751L5.92831 16.9675C4.2709 17.8279 2.44315 16.1489 3.1601 14.4246L4.99976 10.0001L3.1601 5.57556C2.44315 3.85124 4.27091 2.17224 5.92832 3.03264ZM5.87486 10.5001L4.08346 14.8085C3.72499 15.6706 4.63887 16.5101 5.46757 16.0799L15.4697 10.8876C16.1887 10.5143 16.1887 9.48578 15.4697 9.11253L5.46757 3.92018C4.63886 3.48997 3.72499 4.32948 4.08346 5.19163L5.87486 9.50006H10.5C10.7761 9.50006 11 9.72392 11 10.0001C11 10.2762 10.7761 10.5001 10.5 10.5001H5.87486Z"/></svg>