<svg width="20" height="20" viewBox="0 0 20 20" fill="currentColor" xmlns="http://www.w3.org/2000/svg"><path fill-rule="evenodd" clip-rule="evenodd" d="M10 18C14.4183 18 18 14.4183 18 10C18 5.58172 14.4183 2 10 2C5.58172 2 2 5.58172 2 10C2 14.4183 5.58172 18 10 18ZM12.3529 16.5947C13.7366 16.101 14.9193 15.1842 15.7453 14L9.75813 14L12.3529 16.5947ZM12.6575 13H16.3264C16.7583 12.0907 17 11.0736 17 10C17 9.57894 16.9628 9.16656 16.8916 8.76597L12.6575 13ZM11.2433 13H8.75813L7.00049 11.2424V8.75667L8.75716 7H11.2438L13.001 8.75715V11.2424L11.2433 13ZM13.001 7.34294L8.76639 3.10835C9.16685 3.03715 9.57908 3 10 3C11.074 3 12.0915 3.24186 13.001 3.6741V7.34294ZM7.64856 3.40474L10.2438 6H4.25469C5.08097 4.81541 6.26424 3.89834 7.64856 3.40474ZM16.5951 7.6482C16.1016 6.26442 15.185 5.08155 14.001 4.25537L14.001 10.2424L16.5951 7.6482ZM11.2353 16.8914C10.8343 16.9627 10.4215 17 10 17C8.92659 17 7.90962 16.7584 7.00049 16.3266V12.6566L11.2353 16.8914ZM3.405 12.3522L6.00049 9.75667V15.7457C4.81587 14.9195 3.89872 13.7364 3.405 12.3522ZM3.1085 11.2344L7.34294 7H3.67363C3.24169 7.90926 3 8.9264 3 10C3 10.4212 3.0372 10.8337 3.1085 11.2344Z"/></svg>