<svg width="20" height="20" viewBox="0 0 20 20" fill="currentColor" xmlns="http://www.w3.org/2000/svg"><path d="M7 5C7 4.44772 7.44772 4 8 4H15C15.5523 4 16 4.44772 16 5V15C16 15.5523 15.5523 16 15 16H8C7.44772 16 7 15.5523 7 15V14.5C7 14.2239 6.77614 14 6.5 14C6.22386 14 6 14.2239 6 14.5V15C6 16.1046 6.89543 17 8 17H15C16.1046 17 17 16.1046 17 15V5C17 3.89543 16.1046 3 15 3H8C6.89543 3 6 3.89543 6 5V5.5C6 5.77614 6.22386 6 6.5 6C6.77614 6 7 5.77614 7 5.5V5Z"/><path d="M4.64645 7.14645C4.84171 6.95118 5.15829 6.95118 5.35355 7.14645C5.54882 7.34171 5.54882 7.65829 5.35355 7.85355L3.70711 9.5H12.5C12.7761 9.5 13 9.72386 13 10C13 10.2761 12.7761 10.5 12.5 10.5H3.70711L5.35355 12.1464C5.54882 12.3417 5.54882 12.6583 5.35355 12.8536C5.15829 13.0488 4.84171 13.0488 4.64645 12.8536L2.14645 10.3536C1.95118 10.1583 1.95118 9.84171 2.14645 9.64645L4.64645 7.14645Z"/></svg>