<svg width="20" height="20" viewBox="0 0 20 20" fill="currentColor" xmlns="http://www.w3.org/2000/svg"><path d="M7 5C7 4.44772 7.44772 4 8 4H15C15.5523 4 16 4.44772 16 5V15C16 15.5523 15.5523 16 15 16H8C7.44772 16 7 15.5523 7 15V14.5C7 14.2239 6.77614 14 6.5 14C6.22386 14 6 14.2239 6 14.5V15C6 16.1046 6.89543 17 8 17H15C16.1046 17 17 16.1046 17 15V5C17 3.89543 16.1046 3 15 3H8C6.89543 3 6 3.89543 6 5V5.5C6 5.77614 6.22386 6 6.5 6C6.77614 6 7 5.77614 7 5.5V5Z"/><path d="M10.3536 7.14645C10.1583 6.95118 9.84171 6.95118 9.64645 7.14645C9.45118 7.34171 9.45118 7.65829 9.64645 7.85355L11.2929 9.5H2.5C2.22386 9.5 2 9.72386 2 10C2 10.2761 2.22386 10.5 2.5 10.5H11.2929L9.64645 12.1464C9.45118 12.3417 9.45118 12.6583 9.64645 12.8536C9.84171 13.0488 10.1583 13.0488 10.3536 12.8536L12.8536 10.3536C13.0488 10.1583 13.0488 9.84171 12.8536 9.64645L10.3536 7.14645Z"/></svg>