<svg width="20" height="20" viewBox="0 0 20 20" fill="currentColor" xmlns="http://www.w3.org/2000/svg"><path d="M6.85355 3.14645C6.75979 3.05268 6.63261 3 6.5 3C6.36739 3 6.24021 3.05268 6.14645 3.14645L2.64645 6.64645C2.45118 6.84171 2.45118 7.15829 2.64645 7.35355C2.84171 7.54882 3.15829 7.54882 3.35355 7.35355L6 4.70711V16.5C6 16.7761 6.22386 17 6.5 17C6.77614 17 7 16.7761 7 16.5V4.70711L9.64645 7.35355C9.84171 7.54882 10.1583 7.54882 10.3536 7.35355C10.5488 7.15829 10.5488 6.84171 10.3536 6.64645L6.85355 3.14645Z"/><path d="M17.3536 13.3536L13.8536 16.8536C13.6583 17.0488 13.3417 17.0488 13.1464 16.8536L9.64645 13.3536C9.45118 13.1583 9.45118 12.8417 9.64645 12.6464C9.84171 12.4512 10.1583 12.4512 10.3536 12.6464L13 15.2929V3.5C13 3.22386 13.2239 3 13.5 3C13.7761 3 14 3.22386 14 3.5V15.2929L16.6464 12.6464C16.8417 12.4512 17.1583 12.4512 17.3536 12.6464C17.5488 12.8417 17.5488 13.1583 17.3536 13.3536Z"/></svg>