<svg width="20" height="20" viewBox="0 0 20 20" fill="currentColor" xmlns="http://www.w3.org/2000/svg"><path fill-rule="evenodd" clip-rule="evenodd" d="M9.15462 3.02451C9.38992 3.10103 9.53387 3.33814 9.4932 3.58221C9.01199 6.46944 9.36425 9.3737 9.85016 11.5831C9.97368 10.1037 10.2934 8.86825 10.6561 7.88885C10.9815 7.01045 11.3406 6.34006 11.6216 5.88553C11.7621 5.65823 11.8832 5.48474 11.9709 5.366C12.0147 5.30662 12.0503 5.26091 12.0758 5.22898C12.0885 5.21301 12.0988 5.20049 12.1063 5.19143L12.1154 5.18042L12.1184 5.17687L12.1195 5.17558C12.1195 5.17558 12.1204 5.17461 12.5 5.50001L12.1204 5.17461C12.264 5.00706 12.5005 4.95347 12.7023 5.04275C12.9041 5.13203 13.0235 5.34305 12.9961 5.56202C12.7878 7.22867 12.9398 8.90692 13.1833 10.2822C13.3564 9.53216 13.6011 8.86241 13.8565 8.29482C14.1507 7.64124 14.4613 7.11783 14.6997 6.7561C14.819 6.57505 14.9206 6.43395 14.9936 6.33672C15.03 6.2881 15.0594 6.2504 15.0802 6.22411L15.1049 6.19328L15.1122 6.1844L15.1145 6.1816L15.1153 6.18062C15.1153 6.18062 15.1159 6.17991 15.5 6.50001L15.1153 6.18062C15.2598 6.0072 15.5032 5.95142 15.7084 6.04551C15.9136 6.13961 16.0303 6.35953 15.9932 6.58221C15.7538 8.01842 16.0189 8.59169 16.1966 8.80491C16.2868 8.9132 16.3786 8.96003 16.4398 8.98164C16.4716 8.99285 16.4963 8.99756 16.5089 8.99942L16.5133 9.00001H18.5C18.7761 9.00001 19 9.22386 19 9.50001C19 9.77615 18.7761 10 18.5 10H16.5V9.50001C16.5 10 16.5 10 16.5 10L16.498 10L16.4958 9.99999L16.491 9.99993L16.4795 9.99965C16.4711 9.99938 16.4611 9.99891 16.4496 9.99814C16.4268 9.9966 16.3979 9.99383 16.3641 9.98888C16.2967 9.97901 16.2081 9.96029 16.107 9.92463C15.9026 9.85249 15.6507 9.71181 15.4284 9.4451C15.205 9.177 15.0346 8.81163 14.9524 8.31821C14.891 8.4408 14.8293 8.56991 14.7685 8.70519C14.2305 9.90057 13.7609 11.5562 13.9961 13.438C14.0276 13.6896 13.8658 13.9248 13.6196 13.9855C13.3734 14.0461 13.1209 13.913 13.0318 13.6756L13.5 13.5C13.0318 13.6756 13.0318 13.6756 13.0318 13.6756L13.0301 13.671L13.0263 13.6607L13.0127 13.623C13.001 13.5904 12.9843 13.5431 12.9634 13.482C12.9216 13.3598 12.8632 13.1824 12.795 12.9577C12.6587 12.5086 12.4828 11.869 12.323 11.102C12.1107 10.0831 11.9244 8.82833 11.9006 7.49035C11.7978 7.71653 11.6942 7.96523 11.5939 8.23616C10.9955 9.85167 10.5083 12.2658 10.9942 15.424C11.0326 15.6738 10.8785 15.9131 10.6352 15.9814C10.3918 16.0497 10.1357 15.9257 10.0385 15.6923L10.5 15.5C10.0385 15.6923 10.0385 15.6923 10.0385 15.6923L10.0376 15.6903L10.0359 15.6861L10.0298 15.6713L10.0076 15.616C9.98849 15.568 9.96107 15.4979 9.9268 15.4072C9.85826 15.2258 9.76228 14.9617 9.65066 14.6269C9.42751 13.9574 9.14128 13.0032 8.88691 11.8585C8.55144 10.3489 8.26853 8.49561 8.26395 6.52088C8.18771 6.72771 8.11113 6.94207 8.03534 7.16255C7.35119 9.15282 6.76132 11.5594 6.99614 13.438C7.02635 13.6797 6.87801 13.908 6.64489 13.9786C6.41177 14.0491 6.16171 13.9415 6.05279 13.7236L6.5 13.5C6.05279 13.7236 6.05279 13.7236 6.05279 13.7236L6.05207 13.7222L6.05063 13.7193L6.04564 13.7092L6.02756 13.6721C6.01204 13.64 5.98977 13.5934 5.96185 13.5335C5.90603 13.4137 5.82755 13.2407 5.7353 13.0241C5.551 12.5914 5.31064 11.9825 5.08604 11.2766C4.80948 10.4074 4.54766 9.3636 4.45511 8.30801C4.25302 8.71641 4.07739 9.16254 3.99029 9.59806C3.94355 9.83178 3.73834 10 3.5 10H1.5C1.22386 10 1 9.77615 1 9.50001C1 9.22386 1.22386 9.00001 1.5 9.00001H3.10845C3.30706 8.31366 3.64129 7.66769 3.93375 7.18026C4.11069 6.88537 4.2777 6.63974 4.40095 6.4672C4.46266 6.38079 4.51366 6.31236 4.54977 6.26485C4.56783 6.24108 4.58219 6.22253 4.59232 6.20954L4.6043 6.19429L4.60779 6.18988L4.6089 6.18849C4.6089 6.18849 4.60957 6.18766 5 6.50001L4.60957 6.18766C4.75175 6.00993 4.99603 5.95065 5.20386 6.04345C5.41168 6.13625 5.53061 6.3577 5.4932 6.58221C5.26332 7.96145 5.6076 9.6177 6.03896 10.9734C6.04308 10.9863 6.0472 10.9992 6.05133 11.0121C6.24192 9.56412 6.65985 8.08782 7.08966 6.83747C7.43886 5.8216 7.80358 4.93366 8.08098 4.2996C8.21979 3.98233 8.337 3.72802 8.41984 3.55236C8.46126 3.46452 8.49412 3.3963 8.5168 3.34966L8.54301 3.29612L8.55003 3.28194L8.55195 3.27808L8.5525 3.27697C8.5525 3.27697 8.55279 3.2764 9 3.50001L8.5525 3.27697C8.66316 3.05566 8.91932 2.948 9.15462 3.02451Z"/></svg>