<svg width="20" height="20" viewBox="0 0 20 20" fill="currentColor" xmlns="http://www.w3.org/2000/svg"><path d="M17.1465 2.14645C17.3417 1.95118 17.6583 1.95118 17.8535 2.14645C18.0487 2.34171 18.0488 2.65824 17.8535 2.85348L12.9111 7.79489C12.9452 8.68054 13.0499 9.52714 13.1836 10.2822C13.3567 9.53227 13.6011 8.86244 13.8564 8.29489C14.1505 7.64134 14.4618 7.11756 14.7002 6.75583C14.8193 6.57518 14.9203 6.43403 14.9932 6.33688C15.0296 6.28828 15.0592 6.24989 15.0801 6.2236L15.1045 6.19333L15.1123 6.18454L15.1143 6.18161L15.1152 6.18063C15.2597 6.00726 15.5028 5.95188 15.708 6.04587C15.9132 6.13995 16.0302 6.35938 15.9932 6.582C15.7539 8.01756 16.0186 8.59123 16.1963 8.80466C16.2863 8.91268 16.3782 8.95975 16.4395 8.98142C16.4711 8.99257 16.4961 8.99712 16.5088 8.99899L16.5137 8.99997H18.5C18.7761 8.99997 19 9.22383 19 9.49997C18.9999 9.77607 18.7761 9.99997 18.5 9.99997H16.4795C16.4711 9.9997 16.4607 9.99879 16.4492 9.99802C16.4265 9.99647 16.3978 9.99413 16.3643 9.98923C16.2969 9.97938 16.2083 9.96034 16.1074 9.92478C15.9031 9.85267 15.6509 9.71178 15.4287 9.44528C15.2053 9.17723 15.0343 8.81165 14.9521 8.31833C14.8908 8.4408 14.8294 8.56991 14.7686 8.70505C14.2307 9.90034 13.761 11.5559 13.9961 13.4375C14.0275 13.689 13.8653 13.9247 13.6191 13.9853C13.3733 14.0457 13.1213 13.9127 13.0322 13.6758L13.0264 13.6611L13.0127 13.623C13.001 13.5905 12.9837 13.5433 12.9629 13.4824C12.9212 13.3603 12.8631 13.1825 12.7949 12.958C12.6586 12.5089 12.483 11.8686 12.3232 11.1015C12.1785 10.4067 12.047 9.60206 11.9697 8.7363L11.2031 9.5029C10.8211 11.0241 10.6222 13.0058 10.9941 15.4238C11.0325 15.6736 10.8781 15.9131 10.6348 15.9814C10.3915 16.0495 10.1353 15.9255 10.0381 15.6924V15.6904L10.0361 15.6865L10.0303 15.6709L10.0078 15.6162C9.98872 15.5682 9.96101 15.4979 9.92676 15.4072C9.85823 15.2258 9.762 14.9618 9.65039 14.6269C9.42725 13.9575 9.14109 13.003 8.88672 11.8584C8.88434 11.8477 8.88225 11.8369 8.87988 11.8261L2.85352 17.8535C2.65827 18.0487 2.34173 18.0487 2.14648 17.8535C1.95124 17.6582 1.95127 17.3417 2.14648 17.1465L17.1465 2.14645ZM8.55273 3.27731C8.66334 3.0561 8.91908 2.94806 9.1543 3.02438C9.38954 3.10089 9.53377 3.33798 9.49316 3.582C9.2123 5.26725 9.21649 6.95831 9.36426 8.51364L8.45898 9.41892C8.3416 8.50403 8.26601 7.52803 8.26367 6.52048C8.18747 6.72719 8.11091 6.94173 8.03516 7.16208C7.64697 8.29136 7.29182 9.5553 7.09766 10.7802L5.48145 12.3965C5.35397 12.0664 5.21689 11.6879 5.08594 11.2763C4.80941 10.4072 4.54763 9.36307 4.45508 8.30759C4.25305 8.71586 4.07736 9.16224 3.99023 9.59763C3.94347 9.83131 3.73832 9.99997 3.5 9.99997H1.5C1.22389 9.99997 1.00005 9.77607 1 9.49997C1 9.22383 1.22386 8.99997 1.5 8.99997H3.1084C3.30695 8.31384 3.6412 7.66802 3.93359 7.18063C4.11051 6.88577 4.27812 6.63931 4.40137 6.46676C4.46292 6.38059 4.51376 6.31204 4.5498 6.26462C4.56777 6.24097 4.58266 6.22288 4.59277 6.20993L4.60449 6.1943L4.60742 6.18942L4.60938 6.18844C4.61275 6.19086 4.64696 6.21753 5 6.49997L4.60938 6.18844C4.75156 6.01071 4.99627 5.95014 5.2041 6.04294C5.41185 6.13573 5.53051 6.35756 5.49316 6.582C5.26331 7.96124 5.60771 9.61792 6.03906 10.9736C6.04312 10.9864 6.04769 10.999 6.05176 11.0117C6.24236 9.56399 6.66012 8.08802 7.08984 6.83786C7.439 5.82212 7.80366 4.93382 8.08105 4.29977C8.21976 3.98272 8.33709 3.72835 8.41992 3.5527C8.46131 3.46493 8.49392 3.39621 8.5166 3.34957L8.54297 3.29586L8.55176 3.27828L8.55273 3.27731ZM9.72754 10.9785C9.76805 11.1849 9.80748 11.387 9.85059 11.583C9.87417 11.3006 9.90654 11.0272 9.94336 10.7627L9.72754 10.9785ZM12.4346 5.44333L11.1602 6.71774C11.3238 6.38816 11.4821 6.11059 11.6211 5.88571C11.7615 5.6586 11.883 5.48491 11.9707 5.36618C12.0145 5.30683 12.0507 5.26041 12.0762 5.22848C12.0887 5.21276 12.099 5.20035 12.1064 5.19137L12.1152 5.18063L12.1182 5.17672L12.1191 5.17575C12.1191 5.17575 12.1205 5.17432 12.4346 5.44333ZM12.1191 5.17575C12.2628 5.0082 12.5003 4.95367 12.7021 5.04293C12.7323 5.05628 12.7599 5.07337 12.7861 5.09176L12.4346 5.44333L12.1191 5.17575Z"/></svg>