<svg width="20" height="20" viewBox="0 0 20 20" fill="currentColor" xmlns="http://www.w3.org/2000/svg"><path fill-rule="evenodd" clip-rule="evenodd" d="M13.7637 3C14.5212 3 15.2139 3.42796 15.5527 4.10547L16.7891 6.57812C16.9277 6.85559 16.9999 7.1615 17 7.47168V9C17 9.73981 16.5972 10.3837 16 10.7295V15C16 16.1046 15.1046 17 14 17H10C8.96435 17 8.113 16.2128 8.01074 15.2041L8 15V11H5V16.5C5 16.7761 4.77614 17 4.5 17C4.22386 17 4 16.7761 4 16.5V10.7295C3.40282 10.3837 3 9.73981 3 9V7.47168C3.00005 7.23903 3.04033 7.00866 3.11914 6.79102L3.21094 6.57812L4.44727 4.10547C4.76487 3.47035 5.3933 3.05442 6.09473 3.00488L6.23633 3H13.7637ZM9 15C9 15.5523 9.44772 16 10 16H14C14.5523 16 15 15.5523 15 15V11H9V15ZM6.23633 4C5.85759 4 5.51121 4.21401 5.3418 4.55273L4.10547 7.02539C4.03624 7.164 4.00007 7.31675 4 7.47168V9C4 9.55228 4.44772 10 5 10H6V7.5C6 7.22386 6.22386 7 6.5 7C6.77614 7 7 7.22386 7 7.5V10H9.5V7.5C9.5 7.22386 9.72386 7 10 7C10.2761 7 10.5 7.22386 10.5 7.5V10H13V7.5C13 7.22386 13.2239 7 13.5 7C13.7761 7 14 7.22386 14 7.5V10H15C15.5523 10 16 9.55228 16 9V7.47168C15.9999 7.31675 15.9638 7.164 15.8945 7.02539L14.6582 4.55273C14.4888 4.21401 14.1424 4 13.7637 4H6.23633Z"/></svg>