<svg width="20" height="20" viewBox="0 0 20 20" fill="currentColor" xmlns="http://www.w3.org/2000/svg"><path fill-rule="evenodd" clip-rule="evenodd" d="M13.7637 3C14.5212 3 15.2139 3.42796 15.5527 4.10547L16.7891 6.57812C16.9277 6.85559 16.9999 7.1615 17 7.47168V9C17 9.73976 16.5971 10.3835 16 10.7295V15C16 16.1046 15.1046 17 14 17H10C8.89543 17 8 16.1046 8 15V11H5V16.5C5 16.7761 4.77614 17 4.5 17C4.22386 17 4 16.7761 4 16.5V10.7295C3.4029 10.3835 3 9.73976 3 9V7.47168C3.00007 7.1615 3.07229 6.85559 3.21094 6.57812L4.44727 4.10547C4.78607 3.42796 5.47882 3 6.23633 3H13.7637ZM6.5 7C6.22386 7 6 7.22386 6 7.5V9.5C6 9.77614 6.22386 10 6.5 10C6.77614 10 7 9.77614 7 9.5V7.5C7 7.22386 6.77614 7 6.5 7ZM10 7C9.72386 7 9.5 7.22386 9.5 7.5V9.5C9.5 9.77614 9.72386 10 10 10C10.2761 10 10.5 9.77614 10.5 9.5V7.5C10.5 7.22386 10.2761 7 10 7ZM13.5 7C13.2239 7 13 7.22386 13 7.5V9.5C13 9.77614 13.2239 10 13.5 10C13.7761 10 14 9.77614 14 9.5V7.5C14 7.22386 13.7761 7 13.5 7Z"/></svg>