<svg width="20" height="20" viewBox="0 0 20 20" fill="currentColor" xmlns="http://www.w3.org/2000/svg"><path d="M5.05025 4.34322C5.24552 4.53849 5.24552 4.85507 5.05025 5.05033C4.40024 5.70034 3.88463 6.47201 3.53284 7.32129C3.18106 8.17057 3 9.08082 3 10.0001C3 10.9193 3.18106 11.8296 3.53284 12.6789C3.88463 13.5281 4.40024 14.2998 5.05025 14.9498C5.24551 15.1451 5.24551 15.4617 5.05025 15.6569C4.85499 15.8522 4.53841 15.8522 4.34315 15.6569C3.60028 14.9141 3.011 14.0322 2.60896 13.0615C2.20693 12.0909 2 11.0507 2 10.0001C2 8.9495 2.20693 7.90922 2.60896 6.93861C3.011 5.96801 3.60028 5.08609 4.34315 4.34322C4.53841 4.14796 4.85499 4.14796 5.05025 4.34322Z"/><path d="M7.17157 6.46454C7.36684 6.65981 7.36684 6.97639 7.17157 7.17165C6.80014 7.54309 6.5055 7.98404 6.30448 8.46935C6.10346 8.95465 6 9.47479 6 10.0001C6 10.5254 6.10346 11.0455 6.30448 11.5308C6.5055 12.0161 6.80014 12.4571 7.17157 12.8285C7.36684 13.0238 7.36684 13.3404 7.17157 13.5356C6.97631 13.7309 6.65973 13.7309 6.46447 13.5356C6.00017 13.0713 5.63188 12.5201 5.3806 11.9135C5.12933 11.3069 5 10.6567 5 10.0001C5 9.34347 5.12933 8.69329 5.3806 8.08666C5.63188 7.48003 6.00017 6.92884 6.46447 6.46454C6.65973 6.26928 6.97631 6.26928 7.17157 6.46454Z"/><path d="M14.9497 14.9498C14.7545 15.1451 14.7545 15.4617 14.9497 15.6569C15.145 15.8522 15.4616 15.8522 15.6569 15.6569C16.3997 14.9141 16.989 14.0322 17.391 13.0615C17.7931 12.0909 18 11.0507 18 10.0001C18 8.9495 17.7931 7.90922 17.391 6.93861C16.989 5.96801 16.3997 5.08609 15.6569 4.34323C15.4616 4.14796 15.145 4.14796 14.9497 4.34323C14.7545 4.53849 14.7545 4.85507 14.9497 5.05033C15.5998 5.70034 16.1154 6.47202 16.4672 7.3213C16.8189 8.17058 17 9.08083 17 10.0001C17 10.9193 16.8189 11.8296 16.4672 12.6789C16.1154 13.5281 15.5998 14.2998 14.9497 14.9498Z"/><path d="M12.8284 13.5356C12.6332 13.3404 12.6332 13.0238 12.8284 12.8285C13.1999 12.4571 13.4945 12.0161 13.6955 11.5308C13.8965 11.0455 14 10.5254 14 10.0001C14 9.47479 13.8965 8.95465 13.6955 8.46935C13.4945 7.98404 13.1999 7.54309 12.8284 7.17165C12.6332 6.97639 12.6332 6.65981 12.8284 6.46455C13.0237 6.26928 13.3403 6.26928 13.5355 6.46455C13.9998 6.92884 14.3681 7.48003 14.6194 8.08666C14.8707 8.69329 15 9.34347 15 10.0001C15 10.6567 14.8707 11.3069 14.6194 11.9135C14.3681 12.5201 13.9998 13.0713 13.5355 13.5356C13.3403 13.7309 13.0237 13.7309 12.8284 13.5356Z"/><path d="M10 12.0001C11.1046 12.0001 12 11.1046 12 10.0001C12 8.89551 11.1046 8.00008 10 8.00008C8.89543 8.00008 8 8.89551 8 10.0001C8 11.1046 8.89543 12.0001 10 12.0001Z"/></svg>