<svg width="20" height="20" viewBox="0 0 20 20" fill="currentColor" xmlns="http://www.w3.org/2000/svg"><path d="M6.5 7C6.22386 7 6 6.77614 6 6.5C6 6.22386 6.22386 6 6.5 6H13.5C13.7761 6 14 6.22386 14 6.5C14 6.77614 13.7761 7 13.5 7H6.5Z"/><path fill-rule="evenodd" clip-rule="evenodd" d="M3 14C3 15.6569 4.34315 17 6 17H14C15.6569 17 17 15.6569 17 14V6C17 4.34315 15.6569 3 14 3H6C4.34315 3 3 4.34315 3 6V14ZM6 16H14C15.1046 16 16 15.1046 16 14V6C16 4.89543 15.1046 4 14 4H6C4.89543 4 4 4.89543 4 6V14C4 15.1046 4.89543 16 6 16Z"/></svg>