<svg width="20" height="20" viewBox="0 0 20 20" fill="currentColor" xmlns="http://www.w3.org/2000/svg"><path d="M9.99998 17C6.20998 17 5.07998 14.3 5.03998 14.19C4.93998 13.93 5.05998 13.64 5.31998 13.54C5.56998 13.44 5.86998 13.56 5.96998 13.82L5.97124 13.8228C6.02603 13.9469 6.93733 16.01 10.01 16.01C12.14 16.01 13.51 14.83 13.51 13.01C13.51 11.9714 13.0639 11.4018 12.2627 11H3.5C3.22386 11 3 10.7761 3 10.5C3 10.2239 3.22386 10 3.5 10H16.5C16.7761 10 17 10.2239 17 10.5C17 10.7761 16.7761 11 16.5 11H13.8409C14.2437 11.4912 14.49 12.1317 14.49 12.99C14.49 15.35 12.64 16.99 9.98998 16.99L9.99998 17Z"/><path d="M5.49998 6.5C5.49998 7.69117 5.97432 8.46296 6.68418 9H9.13898C7.47212 8.51628 6.48998 7.95478 6.48998 6.49C6.48998 5.26 7.79998 3.99 9.98998 3.99C12.567 3.99 13.4672 6.03731 13.5281 6.17564L13.53 6.18C13.63 6.44 13.93 6.56 14.18 6.46C14.44 6.36 14.56 6.07 14.46 5.81C14.42 5.7 13.3 3 9.99998 3C7.17998 3 5.49998 4.78 5.49998 6.5Z"/></svg>