<svg width="20" height="20" viewBox="0 0 20 20" fill="currentColor" xmlns="http://www.w3.org/2000/svg"><path d="M11.5 3C11.7761 3 12 3.22386 12 3.5C12 3.77614 11.7761 4 11.5 4H7V16.5C7 16.7761 6.77614 17 6.5 17C6.22386 17 6 16.7761 6 16.5V4H1.5C1.22386 4 1 3.77614 1 3.5C1 3.22386 1.22386 3 1.5 3H11.5Z"/><path d="M13.5 6C13.7761 6 14 6.22386 14 6.5V9H16.5C16.7761 9 17 9.22386 17 9.5C17 9.77614 16.7761 10 16.5 10H14V15C14 15.5523 14.4477 16 15 16H16.5C16.7761 16 17 16.2239 17 16.5C17 16.7761 16.7761 17 16.5 17H15C13.8954 17 13 16.1046 13 15V10H10.5C10.2239 10 10 9.77614 10 9.5C10 9.22386 10.2239 9 10.5 9H13V6.5C13 6.22386 13.2239 6 13.5 6Z"/></svg>