<svg width="20" height="20" viewBox="0 0 20 20" fill="currentColor" xmlns="http://www.w3.org/2000/svg"><path fill-rule="evenodd" clip-rule="evenodd" d="M10.8848 16.0752C10.2541 17.5885 8 17.1376 8 15.4981L8 12.9981L4.60644 12.9981C3.29139 12.9981 2.33445 11.7507 2.6748 10.4805L3.61719 6.96292C4.05651 5.3234 5.47685 4.15163 7.14453 4.01175L7.48047 3.99808L15 3.99808C16.1046 3.99808 17 4.89352 17 5.99808L17 8.99808C17 10.1026 16.1046 10.9981 15 10.9981L13 10.9981L10.8848 16.0752ZM15 9.99808C15.5523 9.99808 16 9.55036 16 8.99808L16 5.99808C16 5.44581 15.5523 4.99808 15 4.99808L13 4.99808L13 9.99808L15 9.99808ZM9 15.4981C9 16.0446 9.75171 16.195 9.96191 15.6905L12 10.7989L12 4.99808L7.48047 4.99808C6.12282 4.99825 4.93441 5.9103 4.58301 7.22171L3.64062 10.7393C3.47045 11.3744 3.94892 11.9981 4.60644 11.9981L9 11.9981L9 15.4981Z"/></svg>