<svg width="20" height="20" viewBox="0 0 20 20" fill="currentColor" xmlns="http://www.w3.org/2000/svg"><path d="M3.5 3C3.77614 3 4 3.22386 4 3.5V6.39445C4.85231 4.97608 6.18049 3.90424 7.74992 3.37149C9.35806 2.8256 11.1098 2.88295 12.6788 3.53284C14.2478 4.18274 15.527 5.38086 16.2781 6.90398C17.0292 8.4271 17.201 10.1713 16.7615 11.8117C16.3219 13.4521 15.301 14.8768 13.889 15.8203C12.4769 16.7638 10.77 17.1618 9.08632 16.9401C7.40259 16.7184 5.85686 15.8922 4.73712 14.6154C3.61738 13.3386 3 11.6983 3 10C3 9.72386 3.22386 9.5 3.5 9.5C3.77614 9.5 4 9.72386 4 10C4 11.4557 4.52918 12.8617 5.48896 13.9561C6.44874 15.0505 7.77365 15.7587 9.21684 15.9487C10.66 16.1387 12.1231 15.7975 13.3334 14.9888C14.5437 14.1801 15.4188 12.959 15.7956 11.5529C16.1723 10.1469 16.0251 8.6518 15.3812 7.34627C14.7374 6.04074 13.6409 5.01378 12.2961 4.45672C10.9513 3.89967 9.44976 3.85052 8.07136 4.31842C6.69296 4.78632 5.53167 5.73937 4.80385 7H7.5C7.77614 7 8 7.22386 8 7.5C8 7.77614 7.77614 8 7.5 8H3.5C3.22386 8 3 7.77614 3 7.5V3.5C3 3.22386 3.22386 3 3.5 3Z"/><path d="M10.5 6.5C10.5 6.22386 10.2761 6 10 6C9.72386 6 9.5 6.22386 9.5 6.5V10C9.5 10.1326 9.55268 10.2598 9.64645 10.3536L12.1464 12.8536C12.3417 13.0488 12.6583 13.0488 12.8536 12.8536C13.0488 12.6583 13.0488 12.3417 12.8536 12.1464L10.5 9.79289V6.5Z"/></svg>