<svg width="20" height="20" viewBox="0 0 20 20" fill="currentColor" xmlns="http://www.w3.org/2000/svg"><path d="M10 4C10.2761 4 10.5 4.22386 10.5 4.5V9.79297L13.3535 12.6465C13.5488 12.8417 13.5488 13.1583 13.3535 13.3535C13.1583 13.5488 12.8417 13.5488 12.6465 13.3535L9.64648 10.3535C9.55272 10.2597 9.5 10.1326 9.5 10V4.5C9.5 4.22386 9.72386 4 10 4Z"/><path fill-rule="evenodd" clip-rule="evenodd" d="M10 2C14.4183 2 18 5.58172 18 10C18 14.4183 14.4183 18 10 18C5.58172 18 2 14.4183 2 10C2 5.58172 5.58172 2 10 2ZM10 3C6.13401 3 3 6.13401 3 10C3 13.866 6.13401 17 10 17C13.866 17 17 13.866 17 10C17 6.13401 13.866 3 10 3Z"/></svg>