<svg width="20" height="20" viewBox="0 0 20 20" fill="currentColor" xmlns="http://www.w3.org/2000/svg"><path fill-rule="evenodd" clip-rule="evenodd" d="M11 2.49427C10.3812 2.137 9.6188 2.137 9 2.49427L4 5.38102C3.3812 5.73828 3 6.39854 3 7.11307V12.8866C3 13.6011 3.3812 14.2614 4 14.6186L9 17.5054C9.6188 17.8626 10.3812 17.8626 11 17.5054L16 14.6186C16.6188 14.2614 17 13.6011 17 12.8866V7.11307C17 6.39854 16.6188 5.73828 16 5.38102L11 2.49427ZM15.5 6.24704L10.5 3.36029C10.1906 3.18166 9.8094 3.18166 9.5 3.36029L4.50004 6.24702L7.68828 8.08775C8.23855 7.42325 9.06984 6.99993 10 6.99993C10.9302 6.99993 11.7615 7.42329 12.3118 8.08783L15.5 6.24704ZM7.18759 8.95338L4 7.11302C4 7.11301 4 7.11304 4 7.11302V12.8866C4 13.2438 4.1906 13.574 4.5 13.7526L9.5 16.6393L9.5 12.9584C8.08114 12.7204 7 11.4864 7 9.99993C7 9.63183 7.06629 9.27922 7.18759 8.95338ZM13 9.99993C13 9.63187 12.9337 9.27929 12.8124 8.95348L16 7.11315V12.8866C16 13.2438 15.8094 13.574 15.5 13.7526L10.5 16.6393L10.5 12.9584C11.9189 12.7204 13 11.4864 13 9.99993ZM10 11.9999C11.1046 11.9999 12 11.1045 12 9.99993C12 8.89536 11.1046 7.99993 10 7.99993C8.89543 7.99993 8 8.89536 8 9.99993C8 11.1045 8.89543 11.9999 10 11.9999Z"/></svg>