<svg width="20" height="20" viewBox="0 0 20 20" fill="currentColor" xmlns="http://www.w3.org/2000/svg"><path d="M6 3.5C6 3.22386 5.77614 3 5.5 3C5.22386 3 5 3.22386 5 3.5V10C5 12.7614 7.23858 15 10 15C12.7614 15 15 12.7614 15 10V3.5C15 3.22386 14.7761 3 14.5 3C14.2239 3 14 3.22386 14 3.5V10C14 12.2091 12.2091 14 10 14C7.79086 14 6 12.2091 6 10V3.5Z"/><path d="M3 17.5C3 17.2239 3.22386 17 3.5 17H16.5C16.7761 17 17 17.2239 17 17.5C17 17.7761 16.7761 18 16.5 18H3.5C3.22386 18 3 17.7761 3 17.5Z"/></svg>