<svg width="20" height="20" viewBox="0 0 20 20" fill="currentColor" xmlns="http://www.w3.org/2000/svg"><path d="M4 5.5C4.55228 5.5 5 5.05228 5 4.5C5 3.94772 4.55228 3.5 4 3.5C3.44772 3.5 3 3.94772 3 4.5C3 5.05228 3.44772 5.5 4 5.5Z"/><path d="M6.99997 4.5C6.99997 4.22386 7.22383 4 7.49997 4H16.5C16.7761 4 17 4.22386 17 4.5C17 4.77614 16.7761 5 16.5 5H7.49997C7.22383 5 6.99997 4.77614 6.99997 4.5Z"/><path d="M7.49997 14C7.22383 14 6.99997 14.2239 6.99997 14.5C6.99997 14.7761 7.22383 15 7.49997 15H16.5C16.7761 15 17 14.7761 17 14.5C17 14.2239 16.7761 14 16.5 14H7.49997Z"/><path d="M6.99997 9.5C6.99997 9.22386 7.22383 9 7.49997 9H16.5C16.7761 9 17 9.22386 17 9.5C17 9.77614 16.7761 10 16.5 10H7.49997C7.22383 10 6.99997 9.77614 6.99997 9.5Z"/><path d="M5 9.5C5 10.0523 4.55228 10.5 4 10.5C3.44772 10.5 3 10.0523 3 9.5C3 8.94771 3.44772 8.5 4 8.5C4.55228 8.5 5 8.94771 5 9.5Z"/><path d="M4 15.5C4.55228 15.5 5 15.0523 5 14.5C5 13.9477 4.55228 13.5 4 13.5C3.44772 13.5 3 13.9477 3 14.5C3 15.0523 3.44772 15.5 4 15.5Z"/></svg>