<svg width="20" height="20" viewBox="0 0 20 20" fill="currentColor" xmlns="http://www.w3.org/2000/svg"><path fill-rule="evenodd" clip-rule="evenodd" d="M13 10C13 11.6569 11.6569 13 10 13C8.34315 13 7.00001 11.6569 7.00001 10C7.00001 8.34315 8.34315 7 10 7C11.6569 7 13 8.34315 13 10ZM12 10C12 11.1046 11.1046 12 10 12C8.89544 12 8.00001 11.1046 8.00001 10C8.00001 8.89543 8.89544 8 10 8C11.1046 8 12 8.89543 12 10Z"/><path fill-rule="evenodd" clip-rule="evenodd" d="M1.77382 10.6565C1.5878 10.2387 1.5878 9.76132 1.77382 9.34346C3.17539 6.19506 6.33135 4 10 4C13.6687 4 16.8246 6.19506 18.2262 9.34346C18.4122 9.76133 18.4122 10.2387 18.2262 10.6565C16.8246 13.8049 13.6687 16 10 16C6.33136 16 3.17539 13.8049 1.77382 10.6565ZM2.68739 9.75015C3.93418 6.94942 6.74053 5 10 5C13.2595 5 16.0658 6.94943 17.3126 9.75015C17.3834 9.90914 17.3834 10.0909 17.3126 10.2499C16.0658 13.0506 13.2595 15 10 15C6.74053 15 3.93418 13.0506 2.68739 10.2499C2.61661 10.0909 2.61661 9.90913 2.68739 9.75015Z"/></svg>