<svg width="20" height="20" viewBox="0 0 20 20" fill="currentColor" xmlns="http://www.w3.org/2000/svg"><path d="M12 10C12 11.1046 11.1046 12 10 12C8.89544 12 8.00001 11.1046 8.00001 10C8.00001 8.89543 8.89544 8 10 8C11.1046 8 12 8.89543 12 10Z"/><path fill-rule="evenodd" clip-rule="evenodd" d="M1.77382 9.34346C1.5878 9.76132 1.5878 10.2387 1.77382 10.6565C3.17539 13.8049 6.33136 16 10 16C13.6687 16 16.8246 13.8049 18.2262 10.6565C18.4122 10.2387 18.4122 9.76133 18.2262 9.34346C16.8246 6.19506 13.6687 4 10 4C6.33136 4 3.17539 6.19506 1.77382 9.34346ZM13 10C13 11.6569 11.6569 13 10 13C8.34315 13 7.00001 11.6569 7.00001 10C7.00001 8.34315 8.34315 7 10 7C11.6569 7 13 8.34315 13 10Z"/></svg>