<svg width="20" height="20" viewBox="0 0 20 20" fill="currentColor" xmlns="http://www.w3.org/2000/svg"><path d="M9.5 11.5C9.67093 11.5 9.83009 11.5873 9.92188 11.7314L10.834 13.165L12.2686 14.0781C12.4127 14.1699 12.5 14.3291 12.5 14.5C12.5 14.6709 12.4127 14.8301 12.2686 14.9219L10.834 15.834L9.92188 17.2686C9.83009 17.4127 9.67093 17.5 9.5 17.5C9.32907 17.5 9.16991 17.4127 9.07812 17.2686L8.16504 15.834L6.73145 14.9219C6.58726 14.8301 6.5 14.6709 6.5 14.5C6.5 14.3291 6.58726 14.1699 6.73145 14.0781L8.16504 13.165L9.07812 11.7314L9.11523 11.6807C9.20951 11.567 9.35021 11.5 9.5 11.5ZM14.25 6.5C14.4209 6.5 14.5801 6.58726 14.6719 6.73145L15.6807 8.31836L17.2686 9.32812C17.4127 9.41991 17.5 9.57907 17.5 9.75C17.5 9.92093 17.4127 10.0801 17.2686 10.1719L15.6807 11.1807L14.6719 12.7686C14.5801 12.9127 14.4209 13 14.25 13C14.0791 13 13.9199 12.9127 13.8281 12.7686L12.8184 11.1807L11.2314 10.1719C11.0873 10.0801 11 9.92093 11 9.75C11 9.57907 11.0873 9.41991 11.2314 9.32812L12.8184 8.31836L13.8281 6.73145L13.8652 6.68066C13.9595 6.56704 14.1002 6.5 14.25 6.5ZM6.75 2.5C6.92093 2.5 7.08009 2.58726 7.17188 2.73145L8.56934 4.92969L10.7686 6.32812C10.9127 6.41991 11 6.57907 11 6.75C11 6.92093 10.9127 7.08009 10.7686 7.17188L8.56934 8.56934L7.17188 10.7686C7.08009 10.9127 6.92093 11 6.75 11C6.57907 11 6.41991 10.9127 6.32812 10.7686L4.92969 8.56934L2.73145 7.17188C2.58726 7.08009 2.5 6.92093 2.5 6.75C2.5 6.57907 2.58726 6.41991 2.73145 6.32812L4.92969 4.92969L6.32812 2.73145L6.36523 2.68066C6.45951 2.56704 6.60021 2.5 6.75 2.5Z"/></svg>