<svg width="20" height="20" viewBox="0 0 20 20" fill="currentColor" xmlns="http://www.w3.org/2000/svg"><path fill-rule="evenodd" clip-rule="evenodd" d="M9 3.50001C9 3.29778 8.87818 3.11547 8.69134 3.03807C8.5045 2.96068 8.28945 3.00346 8.14645 3.14646L4.29289 7.00001H3C1.89543 7.00001 1 7.89545 1 9.00001V11C1 12.1046 1.89543 13 3 13H4.29289L8.14645 16.8536C8.28945 16.9966 8.5045 17.0393 8.69134 16.962C8.87818 16.8846 9 16.7022 9 16.5V3.50001Z"/><path d="M11.8284 7.17159C11.6332 6.97633 11.3166 6.97633 11.1213 7.17159C10.9261 7.36685 10.9261 7.68343 11.1213 7.87869C11.3999 8.15727 11.6209 8.48799 11.7716 8.85196C11.9224 9.21594 12 9.60605 12 10C12 10.394 11.9224 10.7841 11.7716 11.1481C11.6209 11.512 11.3999 11.8428 11.1213 12.1213C10.9261 12.3166 10.9261 12.6332 11.1213 12.8284C11.3166 13.0237 11.6332 13.0237 11.8284 12.8284C12.1999 12.457 12.4945 12.0161 12.6955 11.5307C12.8965 11.0454 13 10.5253 13 10C13 9.47473 12.8965 8.95458 12.6955 8.46928C12.4945 7.98398 12.1999 7.54302 11.8284 7.17159Z"/></svg>