<svg width="20" height="20" viewBox="0 0 20 20" fill="currentColor" xmlns="http://www.w3.org/2000/svg"><path d="M16.0711 2.92916C15.8758 2.7339 15.5592 2.7339 15.364 2.92916C15.1687 3.12442 15.1687 3.44101 15.364 3.63627C16.1997 4.472 16.8626 5.46415 17.3149 6.55608C17.7672 7.64801 18 8.81833 18 10.0002C18 11.1821 17.7672 12.3525 17.3149 13.4444C16.8626 14.5363 16.1997 15.5285 15.364 16.3642C15.1687 16.5595 15.1687 16.876 15.364 17.0713C15.5592 17.2666 15.8758 17.2666 16.0711 17.0713C16.9997 16.1427 17.7362 15.0403 18.2388 13.8271C18.7413 12.6138 19 11.3134 19 10.0002C19 8.68701 18.7413 7.38665 18.2388 6.1734C17.7362 4.96014 16.9997 3.85775 16.0711 2.92916Z"/><path fill-rule="evenodd" clip-rule="evenodd" d="M9 3.50023C9 3.298 8.87818 3.11568 8.69134 3.03829C8.5045 2.9609 8.28945 3.00368 8.14645 3.14668L4.29289 7.00023H3C1.89543 7.00023 1 7.89566 1 9.00023V11.0002C1 12.1048 1.89543 13.0002 3 13.0002H4.29289L8.14645 16.8538C8.28945 16.9968 8.5045 17.0396 8.69134 16.9622C8.87818 16.8848 9 16.7025 9 16.5002V3.50023ZM4.85355 7.85378L8 4.70734V15.2931L4.85355 12.1467C4.75979 12.0529 4.63261 12.0002 4.5 12.0002H3C2.44772 12.0002 2 11.5525 2 11.0002V9.00023C2 8.44795 2.44772 8.00023 3 8.00023H4.5C4.63261 8.00023 4.75979 7.94755 4.85355 7.85378Z"/><path d="M11.8284 7.1718C11.6332 6.97654 11.3166 6.97654 11.1213 7.1718C10.9261 7.36706 10.9261 7.68365 11.1213 7.87891C11.3999 8.15749 11.6209 8.4882 11.7716 8.85218C11.9224 9.21616 12 9.60626 12 10.0002C12 10.3942 11.9224 10.7843 11.7716 11.1483C11.6209 11.5123 11.3999 11.843 11.1213 12.1216C10.9261 12.3168 10.9261 12.6334 11.1213 12.8287C11.3166 13.0239 11.6332 13.0239 11.8284 12.8287C12.1999 12.4572 12.4945 12.0163 12.6955 11.531C12.8965 11.0457 13 10.5255 13 10.0002C13 9.47494 12.8965 8.9548 12.6955 8.4695C12.4945 7.98419 12.1999 7.54324 11.8284 7.1718Z"/><path d="M13.2426 5.05048C13.4379 4.85522 13.7545 4.85522 13.9497 5.05048C14.5998 5.70049 15.1154 6.47217 15.4672 7.32145C15.8189 8.17072 16 9.08098 16 10.0002C16 10.9195 15.8189 11.8297 15.4672 12.679C15.1154 13.5283 14.5998 14.3 13.9497 14.95C13.7545 15.1452 13.4379 15.1452 13.2426 14.95C13.0474 14.7547 13.0474 14.4381 13.2426 14.2429C13.7998 13.6857 14.2417 13.0243 14.5433 12.2963C14.8448 11.5684 15 10.7882 15 10.0002C15 9.2123 14.8448 8.43208 14.5433 7.70413C14.2417 6.97618 13.7998 6.31474 13.2426 5.75759C13.0474 5.56233 13.0474 5.24574 13.2426 5.05048Z"/></svg>