<svg width="20" height="20" viewBox="0 0 20 20" fill="currentColor" xmlns="http://www.w3.org/2000/svg"><path d="M10 6C10.2761 6 10.5 6.22386 10.5 6.5V11C10.5 11.2761 10.2761 11.5 10 11.5C9.72386 11.5 9.5 11.2761 9.5 11V6.5C9.5 6.22386 9.72386 6 10 6Z"/><path d="M10 15C10.5523 15 11 14.5523 11 14C11 13.4477 10.5523 13 10 13C9.44771 13 9 13.4477 9 14C9 14.5523 9.44771 15 10 15Z"/><path fill-rule="evenodd" clip-rule="evenodd" d="M11.732 3.5C10.9622 2.16667 9.03775 2.16667 8.26795 3.5L2.20577 14C1.43597 15.3333 2.39822 17 3.93782 17H16.0622C17.6018 17 18.564 15.3333 17.7942 14L11.732 3.5ZM16.9282 14.5L10.866 4C10.4811 3.33333 9.51887 3.33333 9.13397 4L3.0718 14.5C2.6869 15.1667 3.16802 16 3.93782 16H16.0622C16.832 16 17.3131 15.1667 16.9282 14.5Z"/></svg>