<svg width="20" height="20" viewBox="0 0 20 20" fill="currentColor" xmlns="http://www.w3.org/2000/svg"><path fill-rule="evenodd" clip-rule="evenodd" d="M8.26795 3.5C9.03775 2.16667 10.9622 2.16667 11.732 3.5L17.7942 14C18.564 15.3333 17.6018 17 16.0622 17H3.93782C2.39822 17 1.43597 15.3333 2.20577 14L8.26795 3.5ZM10 6C10.2761 6 10.5 6.22386 10.5 6.5V11C10.5 11.2761 10.2761 11.5 10 11.5C9.72386 11.5 9.5 11.2761 9.5 11V6.5C9.5 6.22386 9.72386 6 10 6ZM10 15C10.5523 15 11 14.5523 11 14C11 13.4477 10.5523 13 10 13C9.44771 13 9 13.4477 9 14C9 14.5523 9.44771 15 10 15Z"/></svg>