<svg width="20" height="20" viewBox="0 0 20 20" fill="currentColor" xmlns="http://www.w3.org/2000/svg"><path fill-rule="evenodd" clip-rule="evenodd" d="M9 7C11.0677 7 12.8424 8.25502 13.6035 10.0449C15.5263 10.3359 17 11.996 17 14C17 16.2091 15.2091 18 13 18H5.5C3.567 18 2 16.433 2 14.5C2 13.0855 2.83928 11.8674 4.04688 11.3154C4.38064 8.87792 6.47082 7 9 7ZM9 8C7.04083 8 5.40914 9.40942 5.06641 11.2695L5.03809 11.4512L4.96289 11.9961L4.46289 12.2246C3.5979 12.6199 3 13.4914 3 14.5C3 15.8807 4.11929 17 5.5 17H13C14.6569 17 16 15.6569 16 14C16 12.4978 14.8952 11.2513 13.4541 11.0332L12.9014 10.9502L12.6836 10.4365C12.0739 9.00266 10.6526 8 9 8Z"/><path d="M12.5 4C14.433 4 16 5.567 16 7.5C16 8.10498 15.8454 8.67446 15.5752 9.1709C15.4432 9.41341 15.139 9.5031 14.8965 9.37109C14.654 9.23906 14.5643 8.93491 14.6963 8.69238C14.8894 8.33764 15 7.93232 15 7.5C15 6.11929 13.8807 5 12.5 5C11.8149 5 11.1942 5.27486 10.7422 5.72168L10.5586 5.92383C10.3844 6.13798 10.0697 6.17028 9.85547 5.99609C9.64131 5.82186 9.60901 5.50718 9.7832 5.29297L9.90723 5.14844C10.547 4.44351 11.4721 4 12.5 4Z"/><path d="M18.5 7C18.7761 7 19 7.22386 19 7.5C19 7.77614 18.7761 8 18.5 8H17.5C17.2239 8 17 7.77614 17 7.5C17 7.22386 17.2239 7 17.5 7H18.5Z"/><path d="M7.90332 2.90332C8.09844 2.70829 8.41508 2.70853 8.61035 2.90332L9.31738 3.61133C9.51264 3.80659 9.51264 4.1231 9.31738 4.31836C9.12209 4.51322 8.80548 4.51349 8.61035 4.31836L7.90332 3.61133C7.70806 3.41607 7.70806 3.09858 7.90332 2.90332Z"/><path d="M16.3887 2.9043C16.5839 2.70903 16.9014 2.70903 17.0967 2.9043C17.2915 3.09957 17.2917 3.41621 17.0967 3.61133L16.3887 4.31836C16.1934 4.51328 15.8768 4.51351 15.6816 4.31836C15.4865 4.12321 15.4867 3.80661 15.6816 3.61133L16.3887 2.9043Z"/><path d="M12.5 1C12.7761 1 13 1.22386 13 1.5V2.5C13 2.77614 12.7761 3 12.5 3C12.2239 3 12 2.77614 12 2.5V1.5C12 1.22386 12.2239 1 12.5 1Z"/></svg>