<svg width="20" height="20" viewBox="0 0 20 20" fill="currentColor" xmlns="http://www.w3.org/2000/svg"><path fill-rule="evenodd" clip-rule="evenodd" d="M3 5C3 3.89543 3.89543 3 5 3H7C8.10457 3 9 3.89543 9 5V9C9 10.1046 8.10457 11 7 11H5C3.89543 11 3 10.1046 3 9V5ZM5 4H7C7.55228 4 8 4.44772 8 5V9C8 9.55228 7.55228 10 7 10H5C4.44772 10 4 9.55228 4 9V5C4 4.44772 4.44772 4 5 4Z"/><path fill-rule="evenodd" clip-rule="evenodd" d="M11 5C11 3.89543 11.8954 3 13 3H15C16.1046 3 17 3.89543 17 5C17 6.10457 16.1046 7 15 7H13C11.8954 7 11 6.10457 11 5ZM13 4H15C15.5523 4 16 4.44772 16 5C16 5.55228 15.5523 6 15 6H13C12.4477 6 12 5.55228 12 5C12 4.44772 12.4477 4 13 4Z"/><path fill-rule="evenodd" clip-rule="evenodd" d="M13 9C11.8954 9 11 9.89543 11 11V15C11 16.1046 11.8954 17 13 17H15C16.1046 17 17 16.1046 17 15V11C17 9.89543 16.1046 9 15 9H13ZM15 10H13C12.4477 10 12 10.4477 12 11V15C12 15.5523 12.4477 16 13 16H15C15.5523 16 16 15.5523 16 15V11C16 10.4477 15.5523 10 15 10Z"/><path fill-rule="evenodd" clip-rule="evenodd" d="M3 15C3 13.8954 3.89543 13 5 13H7C8.10457 13 9 13.8954 9 15C9 16.1046 8.10457 17 7 17H5C3.89543 17 3 16.1046 3 15ZM5 14H7C7.55228 14 8 14.4477 8 15C8 15.5523 7.55228 16 7 16H5C4.44772 16 4 15.5523 4 15C4 14.4477 4.44772 14 5 14Z"/></svg>