<svg width="20" height="20" viewBox="0 0 20 20" fill="currentColor" xmlns="http://www.w3.org/2000/svg"><path d="M13 16C13 17.1046 12.1046 18 11 18H4C2.89543 18 2 17.1046 2 16V12.5H13V16Z"/><path d="M11 9C12.1046 9 13 9.89543 13 11V11.5H2V11C2 9.89543 2.89543 9 4 9H11Z"/><path d="M18 9L17.9893 9.2041C17.887 10.2128 17.0357 11 16 11H14.5C14.2239 11 14 10.7761 14 10.5C14 9.11929 12.8807 8 11.5 8H7.5C7.22386 8 7 7.77614 7 7.5V5.5H18V9Z"/><path d="M16.2041 2.01074C17.2128 2.113 18 2.96435 18 4V4.5H7V4C7 2.96435 7.78722 2.113 8.7959 2.01074L9 2H16L16.2041 2.01074Z"/></svg>