<svg width="24" height="24" viewBox="0 0 24 24" fill="currentColor" xmlns="http://www.w3.org/2000/svg"><path d="M19.5 3.75C19.5 3.33579 19.8358 3 20.25 3C20.6642 3 21 3.33579 21 3.75V20.25C21 20.6642 20.6642 21 20.25 21C19.8358 21 19.5 20.6642 19.5 20.25V3.75Z"/><path fill-rule="evenodd" clip-rule="evenodd" d="M16 6C17.1046 6 18 6.89543 18 8V9C18 10.1046 17.1046 11 16 11H5C3.89543 11 3 10.1046 3 9V8C3 6.89543 3.89543 6 5 6H16ZM5 7.5H16C16.2761 7.5 16.5 7.72386 16.5 8V9C16.5 9.27614 16.2761 9.5 16 9.5H5C4.72386 9.5 4.5 9.27614 4.5 9V8C4.5 7.72386 4.72386 7.5 5 7.5Z"/><path fill-rule="evenodd" clip-rule="evenodd" d="M18 15C18 13.8954 17.1046 13 16 13H10C8.89543 13 8 13.8954 8 15V16C8 17.1046 8.89543 18 10 18H16C17.1046 18 18 17.1046 18 16V15ZM16 14.5H10C9.72386 14.5 9.5 14.7239 9.5 15V16C9.5 16.2761 9.72386 16.5 10 16.5H16C16.2761 16.5 16.5 16.2761 16.5 16V15C16.5 14.7239 16.2761 14.5 16 14.5Z"/></svg>