<svg width="24" height="24" viewBox="0 0 24 24" fill="currentColor" xmlns="http://www.w3.org/2000/svg"><path fill-rule="evenodd" clip-rule="evenodd" d="M11.5 3C10.3954 3 9.5 3.89543 9.5 5V19C9.5 20.1046 10.3954 21 11.5 21H12.5C13.6046 21 14.5 20.1046 14.5 19V5C14.5 3.89543 13.6046 3 12.5 3H11.5ZM12.5 4.5H11.5C11.2239 4.5 11 4.72386 11 5V19C11 19.2761 11.2239 19.5 11.5 19.5H12.5C12.7761 19.5 13 19.2761 13 19V5C13 4.72386 12.7761 4.5 12.5 4.5Z"/><path fill-rule="evenodd" clip-rule="evenodd" d="M5 11C3.89543 11 3 11.8954 3 13V19C3 20.1046 3.89543 21 5 21H6C7.10457 21 8 20.1046 8 19V13C8 11.8954 7.10457 11 6 11H5ZM6 12.5H5C4.72386 12.5 4.5 12.7239 4.5 13V19C4.5 19.2761 4.72386 19.5 5 19.5H6C6.27614 19.5 6.5 19.2761 6.5 19V13C6.5 12.7239 6.27614 12.5 6 12.5Z"/><path fill-rule="evenodd" clip-rule="evenodd" d="M16 9C16 7.89543 16.8954 7 18 7H19C20.1046 7 21 7.89543 21 9V19C21 20.1046 20.1046 21 19 21H18C16.8954 21 16 20.1046 16 19V9ZM18 8.5H19C19.2761 8.5 19.5 8.72386 19.5 9V19C19.5 19.2761 19.2761 19.5 19 19.5H18C17.7239 19.5 17.5 19.2761 17.5 19V9C17.5 8.72386 17.7239 8.5 18 8.5Z"/></svg>