<svg width="24" height="24" viewBox="0 0 24 24" fill="currentColor" xmlns="http://www.w3.org/2000/svg"><path fill-rule="evenodd" clip-rule="evenodd" d="M9 13C10.1046 13 11 13.8954 11 15V19C11 20.1046 10.1046 21 9 21H5C3.89543 21 3 20.1046 3 19V15C3 13.8954 3.89543 13 5 13H9ZM5 14.5C4.72386 14.5 4.5 14.7239 4.5 15V19C4.5 19.2761 4.72386 19.5 5 19.5H9C9.27614 19.5 9.5 19.2761 9.5 19V15C9.5 14.7239 9.27614 14.5 9 14.5H5Z"/><path d="M17 13C17.4142 13 17.75 13.3358 17.75 13.75V16.2549H20.2549C20.6691 16.2549 21.0048 16.5907 21.0049 17.0049C21.0049 17.4191 20.6691 17.7549 20.2549 17.7549H17.75V20.25C17.75 20.6642 17.4142 21 17 21C16.5858 21 16.25 20.6642 16.25 20.25V17.7549H13.7549C13.3407 17.7549 13.0049 17.4191 13.0049 17.0049C13.0049 16.5907 13.3407 16.2549 13.7549 16.2549H16.25V13.75C16.25 13.3358 16.5858 13 17 13Z"/><path fill-rule="evenodd" clip-rule="evenodd" d="M9 3C10.1046 3 11 3.89543 11 5V9C11 10.1046 10.1046 11 9 11H5C3.89543 11 3 10.1046 3 9V5C3 3.89543 3.89543 3 5 3H9ZM5 4.5C4.72386 4.5 4.5 4.72386 4.5 5V9C4.5 9.27614 4.72386 9.5 5 9.5H9C9.27614 9.5 9.5 9.27614 9.5 9V5C9.5 4.72386 9.27614 4.5 9 4.5H5Z"/><path fill-rule="evenodd" clip-rule="evenodd" d="M19 3C20.1046 3 21 3.89543 21 5V9C21 10.1046 20.1046 11 19 11H15C13.8954 11 13 10.1046 13 9V5C13 3.89543 13.8954 3 15 3H19ZM15 4.5C14.7239 4.5 14.5 4.72386 14.5 5V9C14.5 9.27614 14.7239 9.5 15 9.5H19C19.2761 9.5 19.5 9.27614 19.5 9V5C19.5 4.72386 19.2761 4.5 19 4.5H15Z"/></svg>