<svg width="24" height="24" viewBox="0 0 24 24" fill="currentColor" xmlns="http://www.w3.org/2000/svg"><path d="M5.25 3.5C5.66421 3.5 6 3.16421 6 2.75C6 2.33579 5.66421 2 5.25 2H4C2.89543 2 2 2.89543 2 4V5.25C2 5.66421 2.33579 6 2.75 6C3.16421 6 3.5 5.66421 3.5 5.25V4C3.5 3.72386 3.72386 3.5 4 3.5H5.25Z"/><path d="M3.5 18.75C3.5 18.3358 3.16421 18 2.75 18C2.33579 18 2 18.3358 2 18.75V20C2 21.1046 2.89543 22 4 22H5.25C5.66421 22 6 21.6642 6 21.25C6 20.8358 5.66421 20.5 5.25 20.5H4C3.72386 20.5 3.5 20.2761 3.5 20V18.75Z"/><path d="M20.5 5.25C20.5 5.66421 20.8358 6 21.25 6C21.6642 6 22 5.66421 22 5.25V4C22 2.89543 21.1046 2 20 2H18.75C18.3358 2 18 2.33579 18 2.75C18 3.16421 18.3358 3.5 18.75 3.5H20C20.2761 3.5 20.5 3.72386 20.5 4V5.25Z"/><path fill-rule="evenodd" clip-rule="evenodd" d="M11 4.49445C11.6188 4.13719 12.3812 4.13719 13 4.49445L18 7.3812C18.6188 7.73847 19 8.39872 19 9.11325V11.1739C18.5185 11.0602 18.0163 11 17.5 11L17.5 9.69059L12.75 12.433L12.75 13.0629C12.0577 13.8037 11.5366 14.7066 11.25 15.7085L11.25 12.433L6.5 9.69058V14.8868C6.5 15.0654 6.5953 15.2305 6.75 15.3198L11.0058 17.7768C11.0335 18.4391 11.1604 19.0758 11.3719 19.6724C11.244 19.63 11.1193 19.5744 11 19.5056L6 16.6188C5.3812 16.2615 5 15.6013 5 14.8868V9.11325C5 8.39872 5.3812 7.73847 6 7.3812L11 4.49445ZM12.25 5.79349L16.75 8.39156L12 11.134L7.25002 8.39155L11.75 5.79349C11.9047 5.70417 12.0953 5.70417 12.25 5.79349Z"/><path fill-rule="evenodd" clip-rule="evenodd" d="M23 17.5C23 20.5376 20.5376 23 17.5 23C14.4624 23 12 20.5376 12 17.5C12 14.4624 14.4624 12 17.5 12C20.5376 12 23 14.4624 23 17.5ZM20.3536 15.6464C20.5488 15.8417 20.5488 16.1583 20.3536 16.3535L16.8536 19.8535C16.7598 19.9473 16.6326 20 16.5 20C16.3674 20 16.2402 19.9473 16.1464 19.8535L14.1464 17.8535C13.9512 17.6583 13.9512 17.3417 14.1464 17.1464C14.3417 16.9512 14.6583 16.9512 14.8536 17.1464L16.5 18.7929L19.6464 15.6464C19.8417 15.4512 20.1583 15.4512 20.3536 15.6464Z"/></svg>