<svg width="24" height="24" viewBox="0 0 24 24" fill="currentColor" xmlns="http://www.w3.org/2000/svg"><path d="M4.5 3.75C4.5 3.33579 4.16421 3 3.75 3C3.33579 3 3 3.33579 3 3.75V10.75C3 11.8546 3.89543 12.75 5 12.75L18.1893 12.75L13.2197 17.7197C12.9268 18.0126 12.9268 18.4874 13.2197 18.7803C13.5126 19.0732 13.9874 19.0732 14.2803 18.7803L20.5303 12.5303C20.8232 12.2374 20.8232 11.7626 20.5303 11.4697L14.2803 5.21967C13.9874 4.92678 13.5126 4.92678 13.2197 5.21967C12.9268 5.51256 12.9268 5.98744 13.2197 6.28033L18.1893 11.25L5 11.25C4.72386 11.25 4.5 11.0261 4.5 10.75V3.75Z"/></svg>