<svg width="24" height="24" viewBox="0 0 24 24" fill="currentColor" xmlns="http://www.w3.org/2000/svg"><path fill-rule="evenodd" clip-rule="evenodd" d="M9 7C9 4.23858 11.2386 2 14 2C16.7614 2 19 4.23858 19 7V15C19 18.866 15.866 22 12 22C8.13401 22 5 18.866 5 15V7.75C5 7.33579 5.33579 7 5.75 7C6.16421 7 6.5 7.33579 6.5 7.75V15C6.5 18.0376 8.96243 20.5 12 20.5C15.0376 20.5 17.5 18.0376 17.5 15V7C17.5 5.067 15.933 3.5 14 3.5C12.067 3.5 10.5 5.067 10.5 7V15C10.5 15.8284 11.1716 16.5 12 16.5C12.8284 16.5 13.5 15.8284 13.5 15V7.75C13.5 7.33579 13.8358 7 14.25 7C14.6642 7 15 7.33579 15 7.75V15C15 16.6569 13.6569 18 12 18C10.3431 18 9 16.6569 9 15V7Z"/></svg>