<svg width="24" height="24" viewBox="0 0 24 24" fill="currentColor" xmlns="http://www.w3.org/2000/svg"><path d="M9.25012 2.00067C9.66434 2.00067 10.0001 2.33646 10.0001 2.75067V4.34141C10.6257 4.12031 11.2989 4 12.0001 4C12.7014 4 13.3746 4.12031 14.0001 4.34141V2.75067C14.0001 2.33646 14.3359 2.00067 14.7501 2.00067C15.1643 2.00067 15.5001 2.33646 15.5001 2.75067V5.12605C16.3413 5.73116 17.0194 6.54864 17.4561 7.5L20.252 7.5C20.6662 7.5 21.002 7.83579 21.002 8.25C21.002 8.66421 20.6662 9 20.252 9L3.74707 9C3.33286 9 2.99707 8.66421 2.99707 8.25C2.99707 7.83579 3.33286 7.5 3.74707 7.5H6.53729L6.54415 7.50003C6.98079 6.54866 7.65895 5.73116 8.50012 5.12605V2.75067C8.50012 2.33646 8.83591 2.00067 9.25012 2.00067Z"/><path d="M2.99707 12.25C2.99707 11.8358 3.33286 11.5 3.74707 11.5H5.99707L6.00012 11.5V10.5H11.2501V20.9536C8.96874 20.6691 7.08512 19.1038 6.34153 17H3.76624C3.35202 17 3.01624 16.6642 3.01624 16.25C3.01624 15.8358 3.35202 15.5 3.76624 15.5H6.02066C6.00706 15.3351 6.00012 15.1684 6.00012 15V13L5.99707 13H3.74707C3.33286 13 2.99707 12.6642 2.99707 12.25Z"/><path d="M12.7501 10.5L18.0001 10.5V11.5H20.2501C20.6643 11.5 21.0001 11.8358 21.0001 12.25C21.0001 12.6642 20.6643 13 20.2501 13H18.0001V15C18.0001 15.1684 17.9932 15.3351 17.9796 15.5H20.2501C20.6643 15.5 21.0001 15.8358 21.0001 16.25C21.0001 16.6642 20.6643 17 20.2501 17H17.6587C16.9151 19.1038 15.0315 20.6691 12.7501 20.9536V10.5Z"/></svg>