<svg width="24" height="24" viewBox="0 0 24 24" fill="currentColor" xmlns="http://www.w3.org/2000/svg"><path d="M9.5 11.5C10.3284 11.5 11 12.1716 11 13V15C11 15.8284 10.3284 16.5 9.5 16.5H7.5C6.67157 16.5 6 15.8284 6 15V13C6 12.1716 6.67157 11.5 7.5 11.5H9.5Z"/><path fill-rule="evenodd" clip-rule="evenodd" d="M16.25 2C16.6642 2 17 2.33579 17 2.75V4H19C20.1046 4 21 4.89543 21 6V19C21 20.1046 20.1046 21 19 21H5C3.89543 21 3 20.1046 3 19V6C3 4.89543 3.89543 4 5 4H7V2.75C7 2.33579 7.33579 2 7.75 2C8.16421 2 8.5 2.33579 8.5 2.75V4H15.5V2.75C15.5 2.33579 15.8358 2 16.25 2ZM4.5 19C4.5 19.2761 4.72386 19.5 5 19.5H19C19.2761 19.5 19.5 19.2761 19.5 19V10H4.5V19Z"/></svg>