<svg width="24" height="24" viewBox="0 0 24 24" fill="currentColor" xmlns="http://www.w3.org/2000/svg"><path fill-rule="evenodd" clip-rule="evenodd" d="M2.21967 21.7803C1.92678 21.4874 1.92678 21.0126 2.21967 20.7197L20.7197 2.21967C21.0126 1.92678 21.4874 1.92678 21.7803 2.21967C22.0732 2.51256 22.0732 2.98744 21.7803 3.28033L20.4981 4.56253C21.3617 4.7839 22 5.56741 22 6.5V19C22 20.1046 21.1046 21 20 21H4.06066L3.28033 21.7803C2.98744 22.0732 2.51256 22.0732 2.21967 21.7803ZM5.56066 19.5H20C20.2761 19.5 20.5 19.2761 20.5 19V6.5C20.5 6.22386 20.2761 6 20 6H19.0607L16.0261 9.03456C16.6382 9.86422 17 10.8899 17 12C17 14.7614 14.7614 17 12 17C10.8899 17 9.86422 16.6382 9.03456 16.0261L5.56066 19.5ZM10.1126 14.948C10.6572 15.2974 11.3049 15.5 12 15.5C13.933 15.5 15.5 13.933 15.5 12C15.5 11.3049 15.2974 10.6572 14.948 10.1126L10.1126 14.948Z"/><path d="M2 18.8209L3.5 17.3209V6.5C3.5 6.22386 3.72386 6 4 6H6.75969C7.36726 6 7.94188 5.72382 8.32142 5.24939L9.57082 3.68765C9.6657 3.56904 9.80936 3.5 9.96125 3.5H14.0388C14.1906 3.5 14.3343 3.56904 14.4292 3.68765L15.631 5.18993L16.6982 4.12274L15.6005 2.75061C15.2209 2.27618 14.6463 2 14.0388 2H9.96125C9.35368 2 8.77906 2.27618 8.39951 2.75061L7.15012 4.31235C7.05524 4.43096 6.91158 4.5 6.75969 4.5H4C2.89543 4.5 2 5.39543 2 6.5V18.8209Z"/><path d="M7.25133 13.5696L8.51333 12.3076C8.50451 12.2062 8.5 12.1036 8.5 12C8.5 10.067 10.067 8.5 12 8.5C12.1036 8.5 12.2062 8.50451 12.3076 8.51333L13.5696 7.25133C13.076 7.08825 12.5483 7 12 7C9.23858 7 7 9.23858 7 12C7 12.5483 7.08825 13.076 7.25133 13.5696Z"/></svg>