<svg width="24" height="24" viewBox="0 0 24 24" fill="currentColor" xmlns="http://www.w3.org/2000/svg"><path d="M14.0001 14.5C15.1046 14.5001 16.0001 15.3955 16.0001 16.5V20.25C16.0001 20.6642 15.6643 20.9999 15.2501 21C14.8359 21 14.5001 20.6642 14.5001 20.25V16.5C14.5001 16.2239 14.2762 16.0001 14.0001 16H12.5001C12.224 16 12.0001 16.2239 12.0001 16.5V20.25C12.0001 20.6642 11.6643 20.9999 11.2501 21C10.8359 21 10.5001 20.6642 10.5001 20.25V16.5C10.5001 15.3954 11.3955 14.5 12.5001 14.5H14.0001Z"/><path fill-rule="evenodd" clip-rule="evenodd" d="M19.2042 3.01074C20.2128 3.11306 21.0001 3.96439 21.0001 5V8L20.9894 8.2041C20.8939 9.14561 20.1457 9.89375 19.2042 9.98926L19.0001 10H14.0001V11.5H15.2501C15.6643 11.5001 16.0001 11.8358 16.0001 12.25C16.0001 12.6642 15.6643 12.9999 15.2501 13H5.26769C4.82241 13.0002 4.59938 13.5386 4.91418 13.8535L8.78039 17.7197L8.83215 17.7764C9.07238 18.0709 9.05491 18.5057 8.78039 18.7803C8.50581 19.0549 8.07106 19.0723 7.77648 18.832L7.71984 18.7803L3.85363 14.9141C2.59389 13.6542 3.48605 11.5002 5.26769 11.5H12.5001V10H7.50012L7.29601 9.98926C6.35447 9.8938 5.60632 9.14565 5.51086 8.2041L5.50012 8V5C5.50012 3.96435 6.28734 3.113 7.29601 3.01074L7.50012 3H19.0001L19.2042 3.01074ZM7.50012 4.5C7.22397 4.5 7.00012 4.72386 7.00012 5V8C7.00012 8.27614 7.22397 8.5 7.50012 8.5H19.0001C19.2762 8.49993 19.5001 8.2761 19.5001 8V5C19.5001 4.7239 19.2762 4.50007 19.0001 4.5H7.50012Z"/></svg>