<svg width="24" height="24" viewBox="0 0 24 24" fill="currentColor" xmlns="http://www.w3.org/2000/svg"><path d="M2 3C2 2.44772 2.44772 2 3 2H5.25C5.66421 2 6 2.33579 6 2.75C6 3.16421 5.66421 3.5 5.25 3.5H3.5V5.25C3.5 5.66421 3.16421 6 2.75 6C2.33579 6 2 5.66421 2 5.25V3Z"/><path fill-rule="evenodd" clip-rule="evenodd" d="M11.7995 8.92686C12.2367 8.40563 12.5 7.73356 12.5 7C12.5 5.34315 11.1569 4 9.5 4C7.84315 4 6.5 5.34315 6.5 7C6.5 7.73349 6.76324 8.40551 7.2004 8.92672C5.89515 9.58537 5 10.9381 5 12.5C5 13.6046 5.89543 14.5 7 14.5H9.75379C10.168 14.5 10.5038 14.1642 10.5038 13.75C10.5038 13.3358 10.168 13 9.75379 13H7C6.72386 13 6.5 12.7761 6.5 12.5C6.5 11.1193 7.61929 10 9 10H10C10.6184 10 11.1827 10.2236 11.6193 10.5952C11.9347 10.8637 12.4081 10.8257 12.6766 10.5102C12.945 10.1948 12.907 9.72148 12.5916 9.45299C12.3506 9.24791 12.0849 9.07083 11.7995 8.92686ZM11 7C11 7.82843 10.3284 8.5 9.5 8.5C8.67157 8.5 8 7.82843 8 7C8 6.17157 8.67157 5.5 9.5 5.5C10.3284 5.5 11 6.17157 11 7Z"/><path fill-rule="evenodd" clip-rule="evenodd" d="M12.1423 13.9619C12.0151 12.9191 12.8289 12 13.8794 12H20.1206C21.1711 12 21.9849 12.9191 21.8577 13.9619L21.4307 17.4619C21.3235 18.34 20.5781 19 19.6935 19H14.3065C13.4219 19 12.6765 18.34 12.5693 17.4619L12.1423 13.9619ZM13.8794 13.5C13.7293 13.5 13.6131 13.6313 13.6313 13.7803L14.0583 17.2803C14.0736 17.4057 14.1801 17.5 14.3065 17.5H19.6935C19.8199 17.5 19.9264 17.4057 19.9417 17.2803L20.3687 13.7803C20.3869 13.6313 20.2707 13.5 20.1206 13.5H13.8794Z"/><path d="M12 21.25C12 20.8358 12.3358 20.5 12.75 20.5H21.25C21.6642 20.5 22 20.8358 22 21.25C22 21.6642 21.6642 22 21.25 22H12.75C12.3358 22 12 21.6642 12 21.25Z"/><path d="M17 3C17 2.44772 16.5523 2 16 2H13.75C13.3358 2 13 2.33579 13 2.75C13 3.16421 13.3358 3.5 13.75 3.5L15.5 3.5V5.25C15.5 5.66421 15.8358 6 16.25 6C16.6642 6 17 5.66421 17 5.25V3Z"/><path d="M3 17C2.44772 17 2 16.5523 2 16V13.75C2 13.3358 2.33579 13 2.75 13C3.16421 13 3.5 13.3358 3.5 13.75L3.5 15.5H5.25C5.66421 15.5 6 15.8358 6 16.25C6 16.6642 5.66421 17 5.25 17H3Z"/></svg>