<svg width="24" height="24" viewBox="0 0 24 24" fill="currentColor" xmlns="http://www.w3.org/2000/svg"><path d="M4.71962 14.2194C5.0125 13.9268 5.48734 13.9267 5.78017 14.2194C6.07299 14.5122 6.07284 14.9871 5.78017 15.28L3.06044 17.9997L5.78017 20.7194L5.83192 20.7761C6.07217 21.0706 6.05456 21.5054 5.78017 21.78C5.50556 22.0546 5.07084 22.072 4.77626 21.8317L4.71962 21.78L1.46962 18.53C1.17683 18.2371 1.17676 17.7623 1.46962 17.4694L4.71962 14.2194Z"/><path d="M8.21962 14.2194C8.5125 13.9268 8.98734 13.9267 9.28017 14.2194L12.5302 17.4694C12.823 17.7622 12.8228 18.2371 12.5302 18.53L9.28017 21.78L9.22353 21.8317C8.92894 22.072 8.49422 22.0546 8.21962 21.78C7.94511 21.5054 7.92758 21.0706 8.16786 20.7761L8.21962 20.7194L10.9393 17.9997L8.21962 15.28C7.92683 14.9871 7.92676 14.5123 8.21962 14.2194Z"/><path d="M4.99989 5.07197C4.99989 3.53241 6.66658 2.56987 7.99989 3.33954L19.9999 10.2683C21.3331 11.0381 21.3331 12.9623 19.9999 13.7321L14.6415 16.8239C14.3195 17.0097 13.9103 16.9318 13.6796 16.6403C13.3961 16.2817 13.4966 15.7546 13.8925 15.5261L19.2499 12.4333C19.5832 12.2409 19.5831 11.7596 19.2499 11.5671L7.24989 4.63837C6.9166 4.44615 6.49989 4.68715 6.49989 5.07197V11.7653C6.49987 12.1795 6.16406 12.5153 5.74989 12.5153C5.3357 12.5153 4.99992 12.1795 4.99989 11.7653V5.07197Z"/><path d="M4.71962 14.2194C5.0125 13.9268 5.48734 13.9267 5.78017 14.2194C6.07299 14.5122 6.07284 14.9871 5.78017 15.28L3.06044 17.9997L5.78017 20.7194L5.83192 20.7761C6.07217 21.0706 6.05456 21.5054 5.78017 21.78C5.50556 22.0546 5.07084 22.072 4.77626 21.8317L4.71962 21.78L1.46962 18.53C1.17683 18.2371 1.17676 17.7623 1.46962 17.4694L4.71962 14.2194Z"/><path d="M8.21962 14.2194C8.5125 13.9268 8.98734 13.9267 9.28017 14.2194L12.5302 17.4694C12.823 17.7622 12.8228 18.2371 12.5302 18.53L9.28017 21.78L9.22353 21.8317C8.92894 22.072 8.49422 22.0546 8.21962 21.78C7.94511 21.5054 7.92758 21.0706 8.16786 20.7761L8.21962 20.7194L10.9393 17.9997L8.21962 15.28C7.92683 14.9871 7.92676 14.5123 8.21962 14.2194Z"/><path d="M4.99989 5.07197C4.99989 3.53241 6.66658 2.56987 7.99989 3.33954L19.9999 10.2683C21.3331 11.0381 21.3331 12.9623 19.9999 13.7321L14.6415 16.8239C14.3195 17.0097 13.9103 16.9318 13.6796 16.6403C13.3961 16.2817 13.4966 15.7546 13.8925 15.5261L19.2499 12.4333C19.5832 12.2409 19.5831 11.7596 19.2499 11.5671L7.24989 4.63837C6.9166 4.44615 6.49989 4.68715 6.49989 5.07197V11.7653C6.49987 12.1795 6.16406 12.5153 5.74989 12.5153C5.3357 12.5153 4.99992 12.1795 4.99989 11.7653V5.07197Z"/></svg>