<svg width="24" height="24" viewBox="0 0 24 24" fill="currentColor" xmlns="http://www.w3.org/2000/svg"><path d="M14.9352 3.94412C15.0424 3.54402 14.8049 3.13277 14.4048 3.02556C14.0047 2.91835 13.5935 3.15579 13.4863 3.55589L9.06511 20.0559C8.9579 20.456 9.19534 20.8672 9.59544 20.9744C9.99554 21.0817 10.4068 20.8442 10.514 20.4441L14.9352 3.94412Z"/><path d="M6.78033 7.21967C7.07322 7.51257 7.07322 7.98744 6.78033 8.28033L3.06066 12L6.78033 15.7197C7.07322 16.0126 7.07322 16.4874 6.78033 16.7803C6.48744 17.0732 6.01256 17.0732 5.71967 16.7803L1.46967 12.5303C1.17678 12.2374 1.17678 11.7626 1.46967 11.4697L5.71967 7.21967C6.01256 6.92678 6.48744 6.92678 6.78033 7.21967Z"/><path d="M17.2197 7.21967C16.9268 7.51257 16.9268 7.98744 17.2197 8.28033L20.9393 12L17.2197 15.7197C16.9268 16.0126 16.9268 16.4874 17.2197 16.7803C17.5126 17.0732 17.9874 17.0732 18.2803 16.7803L22.5303 12.5303C22.8232 12.2374 22.8232 11.7626 22.5303 11.4697L18.2803 7.21967C17.9874 6.92678 17.5126 6.92678 17.2197 7.21967Z"/></svg>