<svg width="24" height="24" viewBox="0 0 24 24" fill="currentColor" xmlns="http://www.w3.org/2000/svg"><path fill-rule="evenodd" clip-rule="evenodd" d="M19 3C20.1046 3 21 3.89543 21 5V19C21 20.1046 20.1046 21 19 21H5C3.89543 21 3 20.1046 3 19V5C3 3.89543 3.89543 3 5 3H19ZM10.7803 8.21973C10.4874 7.92683 10.0126 7.92683 9.71973 8.21973L6.46973 11.4697C6.17683 11.7626 6.17683 12.2374 6.46973 12.5303L9.71973 15.7803L9.77637 15.832C10.0709 16.0723 10.5057 16.0549 10.7803 15.7803C11.0549 15.5057 11.0723 15.0709 10.832 14.7764L10.7803 14.7197L8.06055 12L10.7803 9.28027C11.0732 8.98738 11.0732 8.51262 10.7803 8.21973ZM14.2803 8.21973C13.9874 7.92683 13.5126 7.92683 13.2197 8.21973C12.9268 8.51262 12.9268 8.98738 13.2197 9.28027L15.9395 12L13.2197 14.7197L13.168 14.7764C12.9277 15.0709 12.9451 15.5057 13.2197 15.7803C13.4943 16.0549 13.9291 16.0723 14.2236 15.832L14.2803 15.7803L17.5303 12.5303C17.8232 12.2374 17.8232 11.7626 17.5303 11.4697L14.2803 8.21973Z"/></svg>