<svg width="24" height="24" viewBox="0 0 24 24" fill="currentColor" xmlns="http://www.w3.org/2000/svg"><path fill-rule="evenodd" clip-rule="evenodd" d="M19.4142 2.91422L21.0858 4.58579C21.8668 5.36684 21.8668 6.63317 21.0858 7.41422L12.8917 15.6083C12.6354 15.8646 12.3142 16.0464 11.9626 16.1344L8.1169 17.0958C7.38452 17.2789 6.72113 16.6155 6.90423 15.8831L7.86564 12.0374C7.95356 11.6858 8.1354 11.3646 8.39171 11.1083L16.5858 2.91422C17.3668 2.13317 18.6332 2.13317 19.4142 2.91422ZM20.0251 5.64645L18.3536 3.97488C18.1583 3.77961 17.8417 3.77961 17.6464 3.97488L16.341 5.28033L18.7197 7.65901L20.0251 6.35356C20.2204 6.15829 20.2204 5.84171 20.0251 5.64645ZM17.659 8.71967L15.2803 6.34099L9.45237 12.169C9.3883 12.233 9.34284 12.3133 9.32086 12.4012L8.56155 15.4385L11.5988 14.6791C11.6867 14.6572 11.767 14.6117 11.8311 14.5476L17.659 8.71967Z"/><path d="M13 3.75C13 3.33579 12.6642 3 12.25 3H5C3.89543 3 3 3.89543 3 5V19C3 20.1046 3.89543 21 5 21H19C20.1046 21 21 20.1046 21 19V11.75C21 11.3358 20.6642 11 20.25 11C19.8358 11 19.5 11.3358 19.5 11.75V19C19.5 19.2761 19.2761 19.5 19 19.5H5C4.72386 19.5 4.5 19.2761 4.5 19V5C4.5 4.72386 4.72386 4.5 5 4.5H12.25C12.6642 4.5 13 4.16422 13 3.75Z"/></svg>