<svg width="24" height="24" viewBox="0 0 24 24" fill="currentColor" xmlns="http://www.w3.org/2000/svg"><path fill-rule="evenodd" clip-rule="evenodd" d="M6.75 2C7.16421 2 7.5 2.33579 7.5 2.75V6H16C17.1046 6 18 6.89543 18 8V16.5H21.25C21.6642 16.5 22 16.8358 22 17.25C22 17.6642 21.6642 18 21.25 18H18V21.25C18 21.6642 17.6642 22 17.25 22C16.8358 22 16.5 21.6642 16.5 21.25V18H8C6.89543 18 6 17.1046 6 16V7.5H2.75C2.33579 7.5 2 7.16421 2 6.75C2 6.33579 2.33579 6 2.75 6H6V2.75C6 2.33579 6.33579 2 6.75 2ZM7.5 16C7.5 16.2761 7.72386 16.5 8 16.5H16.5V8C16.5 7.72386 16.2761 7.5 16 7.5H7.5V16Z"/></svg>