<svg width="24" height="24" viewBox="0 0 24 24" fill="currentColor" xmlns="http://www.w3.org/2000/svg"><path fill-rule="evenodd" clip-rule="evenodd" d="M16.9821 3.34452C17.1893 2.9858 17.6479 2.86289 18.0067 3.07C18.3654 3.2771 18.4883 3.7358 18.2812 4.09452L12.8661 13.4737L14.3318 16.0122C14.625 15.3863 15.1061 14.8407 15.7501 14.4689C17.4242 13.5024 19.5647 14.076 20.5312 15.75C21.4977 17.424 20.9242 19.5646 19.2501 20.5311C17.5761 21.4976 15.4355 20.924 14.4691 19.25L12.0001 14.9737L9.53818 19.2379C9.53585 19.2419 9.53352 19.246 9.53119 19.25C8.56469 20.924 6.42412 21.4976 4.7501 20.5311C3.07607 19.5646 2.50251 17.424 3.46901 15.75C4.43551 14.076 6.57607 13.5024 8.2501 14.4689C8.89408 14.8407 9.37521 15.3863 9.66846 16.0122L11.1341 13.4737L5.71905 4.09458C5.51195 3.73586 5.63485 3.27716 5.99357 3.07006C6.35229 2.86295 6.81098 2.98586 7.01809 3.34458L12.0001 11.9737L16.9821 3.34452ZM8.23733 18.491C8.78236 17.5357 8.45367 16.3185 7.5001 15.768C6.54351 15.2157 5.32033 15.5434 4.76805 16.5C4.21576 17.4566 4.54351 18.6798 5.5001 19.2321C6.45512 19.7834 7.67587 19.4577 8.22944 18.5047L8.23215 18.5L8.23733 18.491ZM15.7681 18.5C16.3204 19.4566 17.5436 19.7843 18.5001 19.2321C19.4567 18.6798 19.7845 17.4566 19.2322 16.5C18.6799 15.5434 17.4567 15.2157 16.5001 15.768C15.5436 16.3202 15.2158 17.5434 15.7681 18.5Z"/></svg>