<svg width="24" height="24" viewBox="0 0 24 24" fill="currentColor" xmlns="http://www.w3.org/2000/svg"><path d="M12 14.5C13.3807 14.5 14.5 13.3807 14.5 12C14.5 10.6193 13.3807 9.5 12 9.5C10.6193 9.5 9.5 10.6193 9.5 12C9.5 13.3807 10.6193 14.5 12 14.5Z"/><path fill-rule="evenodd" clip-rule="evenodd" d="M5.5401 4.33925C5.83151 4.10348 6.19875 4 6.57359 4H17.4264C17.8012 4 18.1685 4.10348 18.4599 4.33925C19.5112 5.18982 22 7.6616 22 12C22 16.3384 19.5112 18.8102 18.4599 19.6607C18.1685 19.8965 17.8012 20 17.4264 20H6.57359C6.19875 20 5.83151 19.8965 5.5401 19.6607C4.48882 18.8102 2 16.3384 2 12C2 7.6616 4.48882 5.18981 5.5401 4.33925ZM12 16C14.2091 16 16 14.2091 16 12C16 9.79086 14.2091 8 12 8C9.79086 8 8 9.79086 8 12C8 14.2091 9.79086 16 12 16ZM4.25 11.25C3.83579 11.25 3.5 11.5858 3.5 12C3.5 12.4142 3.83579 12.75 4.25 12.75H5.75C6.16421 12.75 6.5 12.4142 6.5 12C6.5 11.5858 6.16421 11.25 5.75 11.25H4.25Z"/></svg>