<svg width="24" height="24" viewBox="0 0 24 24" fill="currentColor" xmlns="http://www.w3.org/2000/svg"><path fill-rule="evenodd" clip-rule="evenodd" d="M5.64973 3.13787C6.02547 2.77925 6.5822 2.68134 7.05793 2.88983C8.24196 3.4088 9.15253 4.49087 9.39387 5.85955C9.61024 7.08717 9.1608 8.41407 8.40754 9.29119C8.38587 9.33737 8.43944 9.24885 8.40754 9.29119C8.02393 9.80002 7.75243 10.3845 7.61164 11.006C7.47092 11.6275 7.46322 12.2722 7.59016 12.8967C7.71716 13.5211 7.97571 14.1119 8.34797 14.6291C8.72028 15.1462 9.19846 15.579 9.75032 15.8976C9.79944 15.926 9.8431 15.9603 9.88313 15.9972C9.97178 16.0524 10.0596 16.1091 10.1439 16.1711L10.2904 16.2971C10.5605 16.5667 10.698 16.9442 10.6644 17.3244L10.6331 17.5148C10.3278 18.7708 9.42043 19.8559 8.11457 20.3312C6.80864 20.8064 5.41669 20.5581 4.37532 19.7922C3.95702 19.4845 3.76351 18.954 3.88606 18.4494C4.19148 17.1933 5.09874 16.1084 6.40461 15.633C6.6318 15.5503 6.86202 15.4903 7.09211 15.4504C6.90774 15.1881 6.74541 14.9121 6.60578 14.6252C5.5069 15.0648 4.2261 15.0168 3.12141 14.3791C1.91776 13.6842 1.21189 12.4583 1.12922 11.1681C1.09603 10.6499 1.37872 10.1603 1.84407 9.92986C3.00273 9.35636 4.41776 9.35408 5.62141 10.049C5.83066 10.1698 6.02404 10.3077 6.20246 10.4582C6.28474 10.1487 6.39189 9.84722 6.5218 9.55584C5.47843 8.99668 4.69165 7.98406 4.47004 6.72772C4.2287 5.35898 4.71454 4.03051 5.64973 3.13787ZM9.13606 17.299C8.49714 16.8828 7.68412 16.7636 6.91828 17.0422C6.15176 17.3212 5.60311 17.9354 5.38118 18.6652C6.02031 19.0817 6.83526 19.2001 7.60188 18.9211C8.36774 18.6423 8.91412 18.0286 9.13606 17.299ZM4.87141 11.3478C4.1649 10.9399 3.34171 10.9158 2.63996 11.215C2.73185 11.9722 3.16503 12.6724 3.87141 13.0803C4.57731 13.4876 5.39938 13.5121 6.1009 13.2131C6.00911 12.456 5.57726 11.7555 4.87141 11.3478ZM6.58528 4.3244C6.06411 4.8815 5.80592 5.66355 5.94758 6.46697C6.08914 7.26968 6.59864 7.91468 7.27864 8.25994C7.79967 7.7029 8.05887 6.92214 7.91731 6.11932C7.77558 5.31608 7.2654 4.66963 6.58528 4.3244Z"/><path fill-rule="evenodd" clip-rule="evenodd" d="M16.9427 2.88983C17.4183 2.68158 17.9743 2.77948 18.3499 3.13787C19.2851 4.03051 19.771 5.35898 19.5296 6.72772C19.308 7.98415 18.5214 8.99672 17.4779 9.55584C17.6077 9.84716 17.7139 10.1488 17.7962 10.4582C17.9749 10.3074 18.1695 10.1701 18.3792 10.049C19.5828 9.35416 20.997 9.3564 22.1556 9.92986C22.6211 10.1603 22.9036 10.6498 22.8704 11.1681C22.7878 12.4583 22.0828 13.6841 20.8792 14.3791C19.7741 15.0171 18.4921 15.0653 17.3929 14.6252C17.2532 14.9121 17.091 15.1881 16.9066 15.4504C17.1371 15.4903 17.3674 15.5501 17.595 15.633C18.9011 16.1083 19.8082 17.1932 20.1136 18.4494C20.2361 18.9539 20.0434 19.4844 19.6253 19.7922C18.5839 20.5582 17.1911 20.8066 15.8851 20.3312C14.5792 19.8559 13.6729 18.7708 13.3675 17.5148L13.3353 17.3244C13.3017 16.9441 13.44 16.5667 13.7103 16.2971L13.8568 16.1711C13.9403 16.1097 14.0268 16.0529 14.1146 15.9982C14.1551 15.9606 14.2004 15.9265 14.2503 15.8976C14.8022 15.579 15.2804 15.1463 15.6527 14.6291C16.0249 14.1119 16.2835 13.5211 16.4105 12.8967C16.5374 12.2723 16.5297 11.6275 16.389 11.006C16.2482 10.3847 15.9766 9.79996 15.5931 9.29119C15.5611 9.24868 15.6148 9.33756 15.5931 9.29119C14.8402 8.41414 14.3895 7.08683 14.6058 5.85955C14.8471 4.49081 15.7586 3.40877 16.9427 2.88983ZM17.0823 17.0422C16.3163 16.7634 15.5027 16.8826 14.8636 17.299C15.0855 18.0285 15.632 18.6422 16.3978 18.9211C17.1644 19.2001 17.9793 19.0817 18.6185 18.6652C18.3965 17.9355 17.8488 17.3212 17.0823 17.0422ZM21.3607 11.215C20.659 10.9159 19.8357 10.9401 19.1292 11.3478C18.4232 11.7554 17.9915 12.4559 17.8997 13.2131C18.6013 13.512 19.4233 13.4878 20.1292 13.0803C20.8356 12.6724 21.2688 11.9722 21.3607 11.215ZM17.4154 4.3244C16.7352 4.6696 16.2251 5.31607 16.0833 6.11932C15.9418 6.92207 16.2001 7.70291 16.721 8.25994C17.4011 7.9147 17.9115 7.26979 18.0531 6.46697C18.1947 5.66357 17.9365 4.88148 17.4154 4.3244Z"/></svg>