<svg width="24" height="24" viewBox="0 0 24 24" fill="currentColor" xmlns="http://www.w3.org/2000/svg"><path d="M6.75 12C6.33579 12 6 12.3358 6 12.75C6 13.1642 6.33579 13.5 6.75 13.5H17.25C17.6642 13.5 18 13.1642 18 12.75C18 12.3358 17.6642 12 17.25 12H6.75Z"/><path fill-rule="evenodd" clip-rule="evenodd" d="M5.82843 17.5C5.29799 17.5 4.78929 17.2893 4.41421 16.9142L2.58579 15.0858C2.21071 14.7107 2 14.202 2 13.6716V10C2 8.89543 2.89543 8 4 8H20C21.1046 8 22 8.89543 22 10V13.6716C22 14.202 21.7893 14.7107 21.4142 15.0858L19.5858 16.9142C19.2107 17.2893 18.702 17.5 18.1716 17.5H5.82843ZM20.3536 14.0251L18.5251 15.8536C18.4314 15.9473 18.3042 16 18.1716 16H5.82843C5.69582 16 5.56864 15.9473 5.47487 15.8536L3.64645 14.0251C3.55268 13.9314 3.5 13.8042 3.5 13.6716V10C3.5 9.72386 3.72386 9.5 4 9.5H20C20.2761 9.5 20.5 9.72386 20.5 10V13.6716C20.5 13.8042 20.4473 13.9314 20.3536 14.0251Z"/><path fill-rule="evenodd" clip-rule="evenodd" d="M6 12.75C6 12.3358 6.33579 12 6.75 12H17.25C17.6642 12 18 12.3358 18 12.75C18 13.1642 17.6642 13.5 17.25 13.5H6.75C6.33579 13.5 6 13.1642 6 12.75Z"/></svg>