<svg width="24" height="24" viewBox="0 0 24 24" fill="currentColor" xmlns="http://www.w3.org/2000/svg"><path d="M8.25 11C8.66421 11 9 11.3358 9 11.75C9 12.1642 8.66421 12.5 8.25 12.5H5.75C5.33579 12.5 5 12.1642 5 11.75C5 11.3358 5.33579 11 5.75 11H8.25Z"/><path d="M18.25 11C18.6642 11 19 11.3358 19 11.75C19 12.1642 18.6642 12.5 18.25 12.5H15.75C15.3358 12.5 15 12.1642 15 11.75C15 11.3358 15.3358 11 15.75 11H18.25Z"/><path fill-rule="evenodd" clip-rule="evenodd" d="M20 7C21.1046 7 22 7.89543 22 9V15C22 16.1046 21.1046 17 20 17H4C2.89543 17 2 16.1046 2 15V9C2 7.89543 2.89543 7 4 7H20ZM4 8.5C3.72386 8.5 3.5 8.72386 3.5 9V15C3.5 15.2761 3.72386 15.5 4 15.5H20C20.2761 15.5 20.5 15.2761 20.5 15V9C20.5 8.72386 20.2761 8.5 20 8.5H4Z"/></svg>