<svg width="24" height="24" viewBox="0 0 24 24" fill="currentColor" xmlns="http://www.w3.org/2000/svg"><path fill-rule="evenodd" clip-rule="evenodd" d="M2.21967 21.7803C1.92678 21.4874 1.92678 21.0126 2.21967 20.7197L20.7197 2.21967C21.0126 1.92678 21.4874 1.92678 21.7803 2.21967C22.0732 2.51256 22.0732 2.98744 21.7803 3.28033L20.8586 4.20207C21.1404 4.49 21.3789 4.82061 21.564 5.18404C22 6.03969 22 7.15979 22 9.4V10.6C22 12.8402 22 13.9603 21.564 14.816C21.1805 15.5686 20.5686 16.1805 19.816 16.564C18.9603 17 17.8402 17 15.6 17H12.75V21.25C12.75 21.6642 12.4142 22 12 22C11.5858 22 11.25 21.6642 11.25 21.25V17H8.4C8.28394 17 8.17089 17 8.06072 16.9999L3.28033 21.7803C2.98744 22.0732 2.51256 22.0732 2.21967 21.7803ZM9.56066 15.5H15.6C16.7449 15.5 17.5133 15.4988 18.105 15.4505C18.6793 15.4036 18.9539 15.3198 19.135 15.2275C19.6054 14.9878 19.9878 14.6054 20.2275 14.135C20.3198 13.9539 20.4036 13.6793 20.4505 13.105C20.4988 12.5133 20.5 11.7449 20.5 10.6V9.4C20.5 8.25514 20.4988 7.48671 20.4505 6.89496C20.4036 6.32071 20.3198 6.04615 20.2275 5.86502C20.1142 5.64272 19.9691 5.44006 19.7978 5.26282L9.56066 15.5Z"/><path d="M4.23271 16.5882L5.42632 15.3946C5.15348 15.3487 4.98779 15.2901 4.86502 15.2275C4.39462 14.9878 4.01217 14.6054 3.77248 14.135C3.6802 13.9539 3.59643 13.6793 3.54952 13.105C3.50117 12.5133 3.5 11.7449 3.5 10.6V9.4C3.5 8.25514 3.50117 7.48671 3.54952 6.89496C3.59643 6.32071 3.6802 6.04615 3.77248 5.86502C4.01217 5.39462 4.39462 5.01217 4.86502 4.77248C5.04615 4.6802 5.32071 4.59643 5.89496 4.54952C6.48671 4.50117 7.25514 4.5 8.4 4.5H15.6C15.8585 4.5 16.0978 4.50006 16.3202 4.50071L17.7936 3.02735C17.2034 3 16.4902 3 15.6 3H8.4C6.15979 3 5.03969 3 4.18404 3.43597C3.43139 3.81947 2.81947 4.43139 2.43597 5.18404C2 6.03969 2 7.15979 2 9.4V10.6C2 12.8402 2 13.9603 2.43597 14.816C2.81947 15.5686 3.43139 16.1805 4.18404 16.564C4.20017 16.5722 4.21639 16.5803 4.23271 16.5882Z"/></svg>