<svg width="24" height="24" viewBox="0 0 24 24" fill="currentColor" xmlns="http://www.w3.org/2000/svg"><path fill-rule="evenodd" clip-rule="evenodd" d="M23 6.5C23 9.53757 20.5376 12 17.5 12C14.4624 12 12 9.53757 12 6.5C12 3.46243 14.4624 1 17.5 1C20.5376 1 23 3.46243 23 6.5ZM20.1088 4.16676C19.9247 3.96093 19.6086 3.9433 19.4028 4.12739C19.197 4.31148 19.1794 4.62757 19.3634 4.8334C19.6851 5.19307 19.8958 5.63814 19.9702 6.11491C20.0445 6.59168 19.9793 7.07977 19.7823 7.52029C19.5854 7.96081 19.2652 8.33492 18.8604 8.59748C18.4555 8.86005 17.9833 8.99984 17.5008 9C17.0183 9.00016 16.546 8.86067 16.141 8.59837C15.736 8.33606 15.4156 7.96216 15.2183 7.52177C15.0211 7.08138 14.9556 6.59333 15.0296 6.11651C15.1036 5.63969 15.314 5.19448 15.6355 4.83461C15.8194 4.62866 15.8016 4.31258 15.5956 4.12862C15.3897 3.94467 15.0736 3.9625 14.8897 4.16845C14.4396 4.67228 14.145 5.29557 14.0414 5.96312C13.9378 6.63066 14.0296 7.31394 14.3057 7.93048C14.5818 8.54702 15.0304 9.07049 15.5974 9.43771C16.1644 9.80493 16.8256 10.0002 17.5011 10C18.1767 9.99978 18.8377 9.80407 19.4045 9.43648C19.9713 9.06889 20.4196 8.54513 20.6953 7.92841C20.971 7.31168 21.0623 6.62835 20.9582 5.96087C20.8542 5.2934 20.5592 4.67029 20.1088 4.16676ZM17.5 3C17.7761 3 18 3.22386 18 3.5V6.5C18 6.77614 17.7761 7 17.5 7C17.2239 7 17 6.77614 17 6.5V3.5C17 3.22386 17.2239 3 17.5 3Z"/><path fill-rule="evenodd" clip-rule="evenodd" d="M11 2H12.8096C12.3832 2.44427 12.0194 2.94898 11.7322 3.5H11C9.57512 3.5 8.59667 3.50117 7.83816 3.56314C7.09716 3.62368 6.69911 3.73469 6.41103 3.88148C5.75247 4.21703 5.21703 4.75247 4.88148 5.41103C4.73469 5.69911 4.62368 6.09716 4.56314 6.83816C4.50117 7.59667 4.5 8.57512 4.5 10V12C4.5 13.4249 4.50117 14.4033 4.56314 15.1618C4.62368 15.9028 4.73469 16.3009 4.88148 16.589C5.21703 17.2475 5.75247 17.783 6.41103 18.1185C6.69911 18.2653 7.09716 18.3763 7.83816 18.4369C8.59667 18.4988 9.57512 18.5 11 18.5H13C14.4249 18.5 15.4033 18.4988 16.1618 18.4369C16.9028 18.3763 17.3009 18.2653 17.589 18.1185C18.2475 17.783 18.783 17.2475 19.1185 16.589C19.2653 16.3009 19.3763 15.9028 19.4369 15.1618C19.4883 14.5318 19.4979 13.75 19.4996 12.6866C20.0332 12.5143 20.5367 12.2748 21 11.9782V12C21 14.8003 21 16.2004 20.455 17.27C19.9757 18.2108 19.2108 18.9757 18.27 19.455C17.9007 19.6432 17.4921 19.7664 17 19.847V21C17 22.1046 16.1046 23 15 23H9C7.89543 23 7 22.1046 7 21V19.847C6.50794 19.7664 6.0993 19.6432 5.73005 19.455C4.78924 18.9757 4.02433 18.2108 3.54497 17.27C3 16.2004 3 14.8003 3 12V10C3 7.19974 3 5.79961 3.54497 4.73005C4.02433 3.78924 4.78924 3.02433 5.73005 2.54497C6.79961 2 8.19974 2 11 2ZM15.5 19.9756C14.8111 20 13.9937 20 13 20H11C10.0063 20 9.18888 20 8.5 19.9756V21C8.5 21.2761 8.72386 21.5 9 21.5H15C15.2761 21.5 15.5 21.2761 15.5 21V19.9756Z"/><path d="M8.32077 6.26011C9.128 5.63261 10.0998 5.20679 11.1605 5.05828C11.0554 5.52199 11 6.00452 11 6.5C11 6.53717 11.0003 6.57428 11.0009 6.6113C8.99647 7.06568 7.5 8.85808 7.5 11C7.5 13.4853 9.51472 15.5 12 15.5C13.826 15.5 15.398 14.4124 16.1035 12.8496C16.5533 12.9481 17.0206 13 17.5 13C17.5532 13 17.6063 12.9994 17.6593 12.9981C17.4432 13.6101 17.1306 14.1766 16.7399 14.6792L17.7803 15.7197C18.0732 16.0126 18.0732 16.4874 17.7803 16.7803C17.4874 17.0732 17.0126 17.0732 16.7197 16.7803L15.6792 15.7399C14.6632 16.5297 13.3865 17 12 17C10.6135 17 9.33678 16.5297 8.32077 15.7399L7.28033 16.7803C6.98744 17.0732 6.51256 17.0732 6.21967 16.7803C5.92678 16.4874 5.92678 16.0126 6.21967 15.7197L7.26011 14.6792C6.47031 13.6632 6 12.3865 6 11C6 9.61347 6.47031 8.33678 7.26011 7.32077L6.21967 6.28033C5.92678 5.98744 5.92678 5.51256 6.21967 5.21967C6.51256 4.92678 6.98744 4.92678 7.28033 5.21967L8.32077 6.26011Z"/></svg>