<svg width="24" height="24" viewBox="0 0 24 24" fill="currentColor" xmlns="http://www.w3.org/2000/svg"><path d="M7.75 13.5C8.44036 13.5 9 12.9404 9 12.25C9 11.5596 8.44036 11 7.75 11C7.05964 11 6.5 11.5596 6.5 12.25C6.5 12.9404 7.05964 13.5 7.75 13.5Z"/><path d="M13.25 12.25C13.25 12.9404 12.6904 13.5 12 13.5C11.3096 13.5 10.75 12.9404 10.75 12.25C10.75 11.5596 11.3096 11 12 11C12.6904 11 13.25 11.5596 13.25 12.25Z"/><path d="M17.5 12.25C17.5 12.9404 16.9404 13.5 16.25 13.5C15.5596 13.5 15 12.9404 15 12.25C15 11.5596 15.5596 11 16.25 11C16.9404 11 17.5 11.5596 17.5 12.25Z"/><path d="M5 15.75C5 15.3358 5.33579 15 5.75 15H18.25C18.6642 15 19 15.3358 19 15.75C19 16.1642 18.6642 16.5 18.25 16.5H5.75C5.33579 16.5 5 16.1642 5 15.75Z"/><path d="M19.5 8.75C19.5 9.44036 18.9404 10 18.25 10C17.5596 10 17 9.44036 17 8.75C17 8.05964 17.5596 7.5 18.25 7.5C18.9404 7.5 19.5 8.05964 19.5 8.75Z"/><path d="M5.75 10C6.44036 10 7 9.44036 7 8.75C7 8.05964 6.44036 7.5 5.75 7.5C5.05964 7.5 4.5 8.05964 4.5 8.75C4.5 9.44036 5.05964 10 5.75 10Z"/><path d="M11.1666 8.75C11.1666 9.44036 10.607 10 9.91663 10C9.22627 10 8.66663 9.44036 8.66663 8.75C8.66663 8.05964 9.22627 7.5 9.91663 7.5C10.607 7.5 11.1666 8.05964 11.1666 8.75Z"/><path d="M14.0833 10C14.7736 10 15.3333 9.44036 15.3333 8.75C15.3333 8.05964 14.7736 7.5 14.0833 7.5C13.3929 7.5 12.8333 8.05964 12.8333 8.75C12.8333 9.44036 13.3929 10 14.0833 10Z"/><path fill-rule="evenodd" clip-rule="evenodd" d="M3 4C1.89543 4 1 4.89543 1 6V18C1 19.1046 1.89543 20 3 20H21C22.1046 20 23 19.1046 23 18V6C23 4.89543 22.1046 4 21 4H3ZM21 5.5H3C2.72386 5.5 2.5 5.72386 2.5 6V18C2.5 18.2761 2.72386 18.5 3 18.5H21C21.2761 18.5 21.5 18.2761 21.5 18V6C21.5 5.72386 21.2761 5.5 21 5.5Z"/></svg>