<svg width="24" height="24" viewBox="0 0 24 24" fill="none" xmlns="http://www.w3.org/2000/svg"><path d="M21.1476 2.69763H7.50393C7.03307 2.69763 6.65137 3.07934 6.65137 3.55019V7.34879L14.5583 9.67438L22.0002 7.34879V3.55019C22.0002 3.07934 21.6185 2.69763 21.1476 2.69763Z" fill="#41A5EE"/><path d="M22.0002 7.34888H6.65137V12L14.5583 13.3954L22.0002 12V7.34888Z" fill="#2B7CD3"/><path d="M6.65137 12V16.6512L14.0932 17.5814L22.0002 16.6512V12H6.65137Z" fill="#185ABD"/><path d="M7.50393 21.3023H21.1477C21.6185 21.3023 22.0002 20.9206 22.0002 20.4497V16.6511H6.65137V20.4497C6.65137 20.9206 7.03307 21.3023 7.50393 21.3023Z" fill="#103F91"/><path opacity="0.1" d="M12.3104 6.41858H6.65137V18.0465H12.3104C12.7807 18.045 13.1615 17.6641 13.163 17.1939V7.27114C13.1615 6.80092 12.7807 6.42011 12.3104 6.41858Z" fill="black"/><path opacity="0.2" d="M11.8453 6.88367H6.65137V18.5116H11.8453C12.3155 18.51 12.6963 18.1292 12.6979 17.659V7.73623C12.6963 7.26601 12.3155 6.8852 11.8453 6.88367Z" fill="black"/><path opacity="0.2" d="M11.8453 6.88367H6.65137V17.5813H11.8453C12.3155 17.5798 12.6963 17.199 12.6979 16.7288V7.73623C12.6963 7.26601 12.3155 6.8852 11.8453 6.88367Z" fill="black"/><path opacity="0.2" d="M11.3802 6.88367H6.65137V17.5813H11.3802C11.8504 17.5798 12.2312 17.199 12.2328 16.7288V7.73623C12.2312 7.26601 11.8504 6.8852 11.3802 6.88367Z" fill="black"/><path d="M2.85256 6.88367H11.38C11.8509 6.88367 12.2326 7.26537 12.2326 7.73623V16.2637C12.2326 16.7345 11.8509 17.1162 11.38 17.1162H2.85256C2.3817 17.1162 2 16.7345 2 16.2637V7.73623C2 7.26537 2.3817 6.88367 2.85256 6.88367Z" fill="url(#paint0_linear_8546_456)"/><path d="M5.49888 13.4223C5.51562 13.5539 5.52679 13.6683 5.5319 13.7665H5.55143C5.55887 13.6734 5.57437 13.5613 5.59794 13.4302C5.62151 13.299 5.64275 13.1882 5.66166 13.0976L6.55841 9.22879H7.71795L8.64818 13.0395C8.70223 13.2764 8.74092 13.5166 8.764 13.7586H8.77935C8.79669 13.5242 8.82901 13.2911 8.87609 13.0609L9.61795 9.22693H10.6733L9.37004 14.7711H8.13702L7.2533 11.0995C7.22772 10.9939 7.19842 10.8558 7.16632 10.686C7.13423 10.5162 7.11423 10.392 7.10632 10.3139H7.09097C7.08074 10.4041 7.06073 10.5381 7.03097 10.7158C7.0012 10.8934 6.97732 11.0249 6.95933 11.1102L6.12863 14.7702H4.87468L3.56445 9.22878H4.63887L5.44678 13.1055C5.46492 13.1851 5.48214 13.2911 5.49888 13.4223Z" fill="white"/><defs><linearGradient id="paint0_linear_8546_456" x1="3.7776" y1="6.2175" x2="10.455" y2="17.7824" gradientUnits="userSpaceOnUse"><stop stop-color="#2368C4"/><stop offset="0.5" stop-color="#1A5DBE"/><stop offset="1" stop-color="#1146AC"/></linearGradient></defs></svg>