<svg width="24" height="24" viewBox="0 0 24 24" fill="currentColor" xmlns="http://www.w3.org/2000/svg"><path d="M12 7C12.4142 7 12.75 7.33579 12.75 7.75V16.25C12.75 16.6642 12.4142 17 12 17C11.5858 17 11.25 16.6642 11.25 16.25V7.75C11.25 7.33579 11.5858 7 12 7Z"/><path d="M6.75 8.5C7.16421 8.5 7.5 8.83579 7.5 9.25V14.75C7.5 15.1642 7.16421 15.5 6.75 15.5C6.33579 15.5 6 15.1642 6 14.75V9.25C6 8.83579 6.33579 8.5 6.75 8.5Z"/><path d="M14.75 8.5C15.1642 8.5 15.5 8.83579 15.5 9.25V14.75C15.5 15.1642 15.1642 15.5 14.75 15.5C14.3358 15.5 14 15.1642 14 14.75V9.25C14 8.83579 14.3358 8.5 14.75 8.5Z"/><path d="M9.25 10.5C9.66421 10.5 10 10.8358 10 11.25V12.75C10 13.1642 9.66421 13.5 9.25 13.5C8.83579 13.5 8.5 13.1642 8.5 12.75V11.25C8.5 10.8358 8.83579 10.5 9.25 10.5Z"/><path d="M17.25 10.5C17.6642 10.5 18 10.8358 18 11.25V12.75C18 13.1642 17.6642 13.5 17.25 13.5C16.8358 13.5 16.5 13.1642 16.5 12.75V11.25C16.5 10.8358 16.8358 10.5 17.25 10.5Z"/><path fill-rule="evenodd" clip-rule="evenodd" d="M11.25 2C11.6642 2 12 2.33579 12 2.75V4H19C20.1046 4 21 4.89543 21 6V7H22.25C22.6642 7 23 7.33579 23 7.75C23 8.16421 22.6642 8.5 22.25 8.5H21V11.25H22.25C22.6642 11.25 23 11.5858 23 12C23 12.4142 22.6642 12.75 22.25 12.75H21V15.5H22.25C22.6642 15.5 23 15.8358 23 16.25C23 16.6642 22.6642 17 22.25 17H21V18C21 19.1046 20.1046 20 19 20H18V21.25C18 21.6642 17.6642 22 17.25 22C16.8358 22 16.5 21.6642 16.5 21.25V20H13.5V21.25C13.5 21.6642 13.1642 22 12.75 22C12.3358 22 12 21.6642 12 21.25V20H5C3.89543 20 3 19.1046 3 18V17H1.75C1.33579 17 1 16.6642 1 16.25C1 15.8358 1.33579 15.5 1.75 15.5H3V12.75H1.75C1.33579 12.75 1 12.4142 1 12C1 11.5858 1.33579 11.25 1.75 11.25H3V8.5H1.75C1.33579 8.5 1 8.16421 1 7.75C1 7.33579 1.33579 7 1.75 7H3V6C3 4.89543 3.89543 4 5 4H6V2.75C6 2.33579 6.33579 2 6.75 2C7.16421 2 7.5 2.33579 7.5 2.75V4H10.5V2.75C10.5 2.33579 10.8358 2 11.25 2ZM5 5.5C4.72386 5.5 4.5 5.72386 4.5 6V18C4.5 18.2761 4.72386 18.5 5 18.5H19C19.2761 18.5 19.5 18.2761 19.5 18V6C19.5 5.72386 19.2761 5.5 19 5.5H5Z"/></svg>