<svg width="24" height="24" viewBox="0 0 24 24" fill="currentColor" xmlns="http://www.w3.org/2000/svg"><path fill-rule="evenodd" clip-rule="evenodd" d="M11.9995 9.54576C12.0494 9.54576 12.1326 9.57073 12.1885 9.61456C12.2107 9.63213 12.4755 9.8352 12.7914 10.0774C13.2709 10.445 13.8679 10.9029 13.9121 10.9386C14.0501 11.051 14.1155 11.2127 14.1155 11.3696V14.3187C14.1155 14.5561 13.9964 14.6094 13.8298 14.6094H10.1711C10.0044 14.6094 9.88574 14.5561 9.88574 14.3187V11.3696C9.88574 11.2127 9.95116 11.051 10.0887 10.9386C10.133 10.9028 10.7324 10.4428 11.212 10.0746C11.526 9.83366 11.7887 9.63206 11.8108 9.61456C11.8668 9.57073 11.9496 9.54576 11.9995 9.54576ZM12.7453 13.3435C12.8144 13.3435 12.8639 13.3212 12.8639 13.2229V11.8296C12.8639 11.7646 12.8367 11.6973 12.7796 11.6508C12.7638 11.6381 12.5824 11.4958 12.4081 11.3592C12.2461 11.2323 12.0903 11.1101 12.0793 11.1012C12.0561 11.0831 12.0214 11.0728 12.001 11.0728C11.9802 11.0728 11.9458 11.0831 11.9224 11.1012C11.9113 11.1101 11.7573 11.2308 11.5964 11.357C11.4212 11.4943 11.2379 11.638 11.2219 11.6508C11.1649 11.6973 11.1376 11.7646 11.1376 11.8296V13.2229C11.1376 13.3212 11.1872 13.3435 11.2563 13.3435H12.7453Z"/><path fill-rule="evenodd" clip-rule="evenodd" d="M14.4299 7.5194L14.4143 7.50709C13.3847 6.69406 12.3853 5.90491 12.332 5.86258C12.2219 5.77607 12.1044 5.73146 11.999 5.73146C11.8927 5.73146 11.776 5.77607 11.6663 5.86258L10.8044 6.54321C9.56259 7.52373 7.40952 9.22379 7.29972 9.31105C7.02867 9.52578 6.93945 9.74534 6.93945 10.1268V17.0184C6.93945 17.4115 7.16134 17.5945 7.48831 17.5945H16.5096C16.8366 17.5945 17.0588 17.4115 17.0588 17.0184V10.1268C17.0588 9.74534 16.9692 9.52578 16.6986 9.31105C16.6204 9.24906 15.511 8.37309 14.4299 7.5194ZM15.8103 15.8341C15.8103 16.1682 15.6247 16.2975 15.3706 16.2975H8.62726C8.37325 16.2975 8.18765 16.1682 8.18765 15.8341V10.5793C8.18765 10.3449 8.18765 10.1585 8.44282 9.95368C8.58325 9.84071 10.7206 8.15415 11.4671 7.56512L11.72 7.36556C11.8103 7.29405 11.8991 7.25708 11.999 7.25708C12.0934 7.25708 12.1876 7.29405 12.2779 7.36556C12.3686 7.43697 15.3873 9.81869 15.5555 9.95368C15.8103 10.1585 15.8103 10.3449 15.8103 10.5793V15.8341Z"/><path fill-rule="evenodd" clip-rule="evenodd" d="M22.3652 9.50785C22.2752 9.43683 20.0559 7.67045 20.0559 7.67045V4.42682C20.0559 4.18762 19.9611 4.11882 19.791 4.11882H18.3365C18.14 4.11882 18.0201 4.15733 18.0201 4.42682V6.07641L15.4056 4.01205C13.8169 2.7574 12.5665 1.76996 12.4956 1.71436C12.2825 1.54579 12.151 1.50195 11.9994 1.50195C11.8493 1.50195 11.7163 1.54579 11.5031 1.71436L1.63361 9.50785C1.28775 9.78112 1.38527 10.1743 1.77008 10.1743H3.60033V20.1038C3.60033 20.7453 3.85699 21.002 4.46745 21.002H19.5313C20.1422 21.002 20.3984 20.7453 20.3984 20.1038V10.1743H22.2286C22.6139 10.1743 22.7114 9.78112 22.3652 9.50785ZM19.1904 18.9147C19.1904 19.3739 18.9545 19.6922 18.4752 19.6922H5.51789C5.03897 19.6922 4.80273 19.3739 4.80273 18.9147V9.31703C4.80273 8.75985 5.04616 8.40413 5.32474 8.18447C5.48403 8.05854 7.45237 6.53059 9.1364 5.22334C10.3936 4.24742 11.4923 3.39451 11.5617 3.33975C11.7242 3.21202 11.8629 3.15647 11.9994 3.15647C12.1317 3.15647 12.2749 3.21202 12.4371 3.33975C12.5076 3.39544 13.6417 4.27659 14.9242 5.27311C16.5922 6.56905 18.5113 8.06013 18.6687 8.18447C18.9469 8.40413 19.1904 8.75985 19.1904 9.31703V18.9147Z"/></svg>