<svg width="24" height="24" viewBox="0 0 24 24" fill="none" xmlns="http://www.w3.org/2000/svg"><path d="M4.19531 5.5122C4.19531 3.57244 5.76775 2 7.70751 2H16.2929C18.2326 2 19.8051 3.57244 19.8051 5.5122V9.21951C19.8051 11.1593 18.2326 12.7317 16.2929 12.7317H7.70751C5.76775 12.7317 4.19531 11.1593 4.19531 9.21951V5.5122Z" fill="#BBE2FF"/><path d="M2.71511 7.04777C2.46523 5.14874 3.94352 3.46338 5.85877 3.46338H18.1405C20.0558 3.46338 21.534 5.14874 21.2841 7.04777L20.5362 12.7317L21.2841 18.4156C21.534 20.3146 20.0558 22 18.1405 22H5.85877C3.9434 22 2.46523 20.3146 2.71511 18.4156L3.46304 12.7317L2.71511 7.04777Z" fill="#3C90FF"/><mask id="mask0_3601_372" style="mask-type:alpha" maskUnits="userSpaceOnUse" x="2" y="3" width="20" height="19"><path d="M2.71511 7.04777C2.46523 5.14874 3.94352 3.46338 5.85877 3.46338H18.1405C20.0558 3.46338 21.534 5.14874 21.2841 7.04777L20.5362 12.7317L21.2841 18.4156C21.534 20.3146 20.0558 22 18.1405 22H5.85877C3.9434 22 2.46523 20.3146 2.71511 18.4156L3.46304 12.7317L2.71511 7.04777Z" fill="#3C90FF"/></mask><g mask="url(#mask0_3601_372)"><path d="M1.87793 22H22.1218V12.7317H1.87793V22Z" fill="url(#paint0_linear_3601_372)"/></g><mask id="mask1_3601_372" style="mask-type:alpha" maskUnits="userSpaceOnUse" x="2" y="3" width="20" height="19"><path d="M2.71511 7.04777C2.46523 5.14874 3.94352 3.46338 5.85877 3.46338H18.1405C20.0558 3.46338 21.534 5.14874 21.2841 7.04777L20.5362 12.7317L21.2841 18.4156C21.534 20.3146 20.0558 22 18.1405 22H5.85877C3.9434 22 2.46523 20.3146 2.71511 18.4156L3.46304 12.7317L2.71511 7.04777Z" fill="#3186FF"/></mask><g mask="url(#mask1_3601_372)"><g filter="url(#filter0_f_3601_372)"><path d="M4.19531 4.34146C4.19531 3.04829 5.24361 2 6.53678 2H17.4636C18.7568 2 19.8051 3.04829 19.8051 4.34146V12.7317H4.19531V4.34146Z" fill="url(#paint1_linear_3601_372)"/></g></g><path d="M9.48163 17.2849C8.9709 17.2849 8.53281 17.2018 8.16736 17.0357C7.80192 16.8696 7.49257 16.6475 7.23932 16.3693C6.99013 16.0868 6.81362 15.8107 6.7098 15.5409C6.60598 15.271 6.56448 15.107 6.58529 15.0488C6.60793 14.989 6.65243 14.94 6.7098 14.9117L7.40127 14.6377C7.45932 14.6087 7.51745 14.6045 7.57566 14.6253C7.63371 14.6418 7.7022 14.7373 7.78115 14.9117C7.86423 15.0861 7.98049 15.2709 8.12993 15.4661C8.27943 15.6538 8.46605 15.8085 8.6781 15.9207C8.88997 16.0287 9.15155 16.0827 9.46285 16.0827C9.96529 16.0827 10.3639 15.9374 10.6588 15.6467C10.9578 15.3561 11.1072 14.9865 11.1072 14.5381C11.1072 14.0522 10.9494 13.6785 10.6338 13.4168C10.3183 13.1511 9.90098 13.0182 9.38188 13.0182H8.72797C8.66797 13.0192 8.60992 12.9969 8.56602 12.956C8.52456 12.9103 8.50379 12.8584 8.50371 12.8003V12.1338C8.50371 12.0714 8.52444 12.0195 8.5659 11.9781C8.58682 11.9562 8.61198 11.9388 8.63986 11.927C8.66773 11.9153 8.69771 11.9093 8.72797 11.9095H9.29468C9.7598 11.9095 10.1335 11.7829 10.4159 11.5295C10.6983 11.2762 10.8394 10.9481 10.8394 10.5454C10.8394 10.1468 10.7128 9.82506 10.4594 9.58002C10.2061 9.33498 9.85732 9.21246 9.4131 9.21246C9.16391 9.21246 8.94797 9.254 8.76529 9.33709C8.58461 9.41859 8.42326 9.53746 8.29188 9.68587C8.16202 9.82724 8.04721 9.98173 7.94932 10.1468C7.85387 10.3047 7.77704 10.3918 7.71883 10.4084C7.66078 10.4209 7.60472 10.4105 7.55066 10.3773L6.89663 10.0597C6.84265 10.0305 6.80736 9.98485 6.79078 9.92258C6.77419 9.8603 6.82403 9.71498 6.94029 9.4866C7.0607 9.25408 7.24338 9.01737 7.48834 8.77648C7.73412 8.53352 8.02654 8.34282 8.34797 8.21587C8.67602 8.08294 9.05806 8.01652 9.49407 8.0166C10.3038 8.0166 10.9454 8.23042 11.4187 8.65807C11.8921 9.08164 12.1288 9.64225 12.1288 10.3399C12.1288 10.8216 12.0126 11.2389 11.78 11.5918C11.5516 11.9447 11.2277 12.1939 10.8083 12.3394V12.3643C11.3149 12.5137 11.7135 12.7877 12.0042 13.1864C12.2991 13.5809 12.4465 14.0522 12.4464 14.6003C12.4464 15.3851 12.1723 16.0288 11.6242 16.5312C11.0762 17.0337 10.3621 17.2849 9.48163 17.2849ZM15.7316 17.1416C15.6611 17.1416 15.5987 17.1146 15.5447 17.0606C15.4956 17.0085 15.4688 16.9392 15.47 16.8676V9.94124L14.0686 10.9503C14.0187 10.9877 13.9605 11.0001 13.8941 10.9877C13.8342 10.9767 13.7808 10.9433 13.7447 10.8943L13.3398 10.3211C13.3033 10.2708 13.2877 10.2083 13.2961 10.1467C13.3086 10.0804 13.3418 10.0285 13.3958 9.99111L15.881 8.21587C15.9018 8.19928 15.9247 8.18685 15.9496 8.17855C15.9745 8.16611 16.0036 8.15989 16.0368 8.15989H16.56C16.6306 8.15989 16.6867 8.18481 16.7282 8.23465C16.7739 8.28018 16.7968 8.33831 16.7968 8.40904V16.8676C16.7968 16.9424 16.7698 17.0067 16.7158 17.0606C16.6923 17.0868 16.6634 17.1076 16.6312 17.1216C16.5989 17.1355 16.564 17.1424 16.5288 17.1416H15.7316Z" fill="white"/><defs><filter id="filter0_f_3601_372" x="2.7319" y="0.536585" width="18.5362" height="13.6585" filterUnits="userSpaceOnUse" color-interpolation-filters="sRGB"><feFlood flood-opacity="0" result="BackgroundImageFix"/><feBlend mode="normal" in="SourceGraphic" in2="BackgroundImageFix" result="shape"/><feGaussianBlur stdDeviation="0.731707" result="effect1_foregroundBlur_3601_372"/></filter><linearGradient id="paint0_linear_3601_372" x1="11.9999" y1="12.7317" x2="11.9999" y2="22" gradientUnits="userSpaceOnUse"><stop stop-color="#4FA0FF"/><stop offset="1" stop-color="#3186FF"/></linearGradient><linearGradient id="paint1_linear_3601_372" x1="11.1538" y1="3.67683" x2="11.1538" y2="12.7793" gradientUnits="userSpaceOnUse"><stop stop-color="#A9A8FF"/><stop offset="0.8" stop-color="#3C90FF"/></linearGradient></defs></svg>