<svg width="24" height="24" viewBox="0 0 24 24" fill="none" xmlns="http://www.w3.org/2000/svg"><path d="M2 7C2 4.23858 4.23858 2 7 2H17C19.7614 2 22 4.23858 22 7V17C22 19.7614 19.7614 22 17 22H7C4.23858 22 2 19.7614 2 17V7Z" fill="url(#paint0_linear_10047_114)"/><path d="M12.0022 8.52789C12.2898 8.52789 12.523 8.76107 12.523 9.04872V14.9515C12.523 15.2391 12.2898 15.4723 12.0022 15.4723C11.7145 15.4723 11.4813 15.2391 11.4813 14.9515V9.04872C11.4813 8.76107 11.7145 8.52789 12.0022 8.52789Z" fill="white"/><path d="M8.35634 9.56955C8.64399 9.56955 8.87717 9.80274 8.87717 10.0904V13.9098C8.87717 14.1975 8.64399 14.4307 8.35634 14.4307C8.06869 14.4307 7.8355 14.1975 7.8355 13.9098V10.0904C7.8355 9.80274 8.06869 9.56955 8.35634 9.56955Z" fill="white"/><path d="M13.9119 9.56955C14.1995 9.56955 14.4327 9.80274 14.4327 10.0904V13.9098C14.4327 14.1975 14.1995 14.4307 13.9119 14.4307C13.6242 14.4307 13.3911 14.1975 13.3911 13.9098V10.0904C13.3911 9.80274 13.6242 9.56955 13.9119 9.56955Z" fill="white"/><path d="M10.0924 10.9584C10.3801 10.9584 10.6133 11.1916 10.6133 11.4793V12.5209C10.6133 12.8086 10.3801 13.0418 10.0924 13.0418C9.8048 13.0418 9.57161 12.8086 9.57161 12.5209V11.4793C9.57161 11.1916 9.8048 10.9584 10.0924 10.9584Z" fill="white"/><path d="M15.648 10.9584C15.9357 10.9584 16.1688 11.1916 16.1688 11.4793V12.5209C16.1688 12.8086 15.9357 13.0418 15.648 13.0418C15.3604 13.0418 15.1272 12.8086 15.1272 12.5209V11.4793C15.1272 11.1916 15.3604 10.9584 15.648 10.9584Z" fill="white"/><path fill-rule="evenodd" clip-rule="evenodd" d="M11.4813 5.05566C11.769 5.05566 12.0022 5.28885 12.0022 5.5765V6.44455H16.8633C17.6303 6.44455 18.2522 7.06638 18.2522 7.83344V8.52789H19.1202C19.4079 8.52789 19.6411 8.76107 19.6411 9.04872C19.6411 9.33637 19.4079 9.56955 19.1202 9.56955H18.2522V11.4793H19.1202C19.4079 11.4793 19.6411 11.7125 19.6411 12.0001C19.6411 12.2878 19.4079 12.5209 19.1202 12.5209H18.2522V14.4307H19.1202C19.4079 14.4307 19.6411 14.6638 19.6411 14.9515C19.6411 15.2391 19.4079 15.4723 19.1202 15.4723H18.2522V16.1668C18.2522 16.9338 17.6303 17.5557 16.8633 17.5557H16.1688V18.4237C16.1688 18.7114 15.9357 18.9446 15.648 18.9446C15.3604 18.9446 15.1272 18.7114 15.1272 18.4237V17.5557H13.0438V18.4237C13.0438 18.7114 12.8107 18.9446 12.523 18.9446C12.2354 18.9446 12.0022 18.7114 12.0022 18.4237V17.5557H7.14106C6.374 17.5557 5.75217 16.9338 5.75217 16.1668V15.4723H4.88411C4.59647 15.4723 4.36328 15.2391 4.36328 14.9515C4.36328 14.6638 4.59647 14.4307 4.88411 14.4307H5.75217V12.5209H4.88411C4.59647 12.5209 4.36328 12.2878 4.36328 12.0001C4.36328 11.7125 4.59647 11.4793 4.88411 11.4793H5.75217V9.56955H4.88411C4.59647 9.56955 4.36328 9.33637 4.36328 9.04872C4.36328 8.76107 4.59647 8.52789 4.88411 8.52789H5.75217V7.83344C5.75217 7.06638 6.374 6.44455 7.14106 6.44455H7.8355V5.5765C7.8355 5.28885 8.06869 5.05566 8.35634 5.05566C8.64399 5.05566 8.87717 5.28885 8.87717 5.5765V6.44455H10.9605V5.5765C10.9605 5.28885 11.1937 5.05566 11.4813 5.05566ZM7.14106 7.48622C6.94929 7.48622 6.79384 7.64168 6.79384 7.83344V16.1668C6.79384 16.3585 6.94929 16.514 7.14106 16.514H16.8633C17.055 16.514 17.2105 16.3585 17.2105 16.1668V7.83344C17.2105 7.64168 17.055 7.48622 16.8633 7.48622H7.14106Z" fill="white"/><defs><linearGradient id="paint0_linear_10047_114" x1="2" y1="2" x2="22" y2="22" gradientUnits="userSpaceOnUse"><stop stop-color="#17A9E5"/><stop offset="1" stop-color="#44CB62"/></linearGradient></defs></svg>