<svg width="24" height="24" viewBox="0 0 24 24" fill="none" xmlns="http://www.w3.org/2000/svg"><path d="M9.86218 12.8949C9.93505 11.5948 10.5717 10.4494 11.5321 9.63747C12.474 8.83997 13.7418 8.35254 15.125 8.35254C16.5069 8.35254 17.7746 8.83997 18.7172 9.63747C19.677 10.4494 20.3136 11.5948 20.3871 12.8935C20.46 14.2293 19.9231 15.4702 18.9812 16.3901C18.0208 17.3258 16.6547 17.9129 15.125 17.9129C13.5953 17.9129 12.2265 17.3258 11.2667 16.3901C10.3242 15.4702 9.78861 14.2293 9.86218 12.8949Z" fill="white"/><path d="M12.4253 13.0116C12.4627 12.3445 12.7894 11.7568 13.2822 11.3402C13.7655 10.931 14.416 10.6809 15.1257 10.6809C15.8348 10.6809 16.4853 10.931 16.9689 11.3402C17.4613 11.7568 17.788 12.3445 17.8257 13.0109C17.8631 13.6963 17.5876 14.333 17.1044 14.805C16.6115 15.2851 15.9106 15.5864 15.1257 15.5864C14.3408 15.5864 13.6385 15.2851 13.146 14.805C12.6624 14.333 12.3876 13.6963 12.4253 13.0116Z" fill="#265787"/><path d="M8.12585 14.3595C8.13043 14.6205 8.21368 15.1278 8.33856 15.5239C8.60102 16.3624 9.0462 17.1382 9.66565 17.8218C10.3013 18.5245 11.0841 19.0889 11.9882 19.4897C12.9386 19.9105 13.9683 20.125 15.0379 20.1232C16.1057 20.1218 17.1354 19.9031 18.0857 19.4791C18.9899 19.0745 19.7719 18.5076 20.4065 17.8045C21.0256 17.1181 21.4701 16.3409 21.7333 15.5024C21.8656 15.0787 21.9492 14.6487 21.9827 14.2173C22.0155 13.7922 22.0017 13.3664 21.9414 12.941C21.8236 12.112 21.5368 11.3342 21.0951 10.6251C20.6912 9.97357 20.1705 9.40316 19.5515 8.92305L19.5529 8.92199L13.3051 4.12478C13.2994 4.12055 13.2949 4.11597 13.2889 4.11209C12.879 3.79743 12.1897 3.79849 11.7388 4.11385C11.2831 4.43275 11.2309 4.96012 11.6365 5.29278L11.6348 5.29454L14.2406 7.41358L6.29819 7.42205H6.28761C5.63112 7.42275 5.00003 7.85347 4.87515 8.39778C4.74674 8.95233 5.19263 9.41233 5.87523 9.41479L5.87417 9.41727L9.89988 9.40951L2.71624 14.9235C2.70707 14.9302 2.69719 14.9373 2.68873 14.944C2.01107 15.4629 1.79201 16.3257 2.21885 16.8718C2.65204 17.4271 3.5731 17.4281 4.25782 16.875L8.17841 13.6663C8.17841 13.6663 8.12126 14.0995 8.12585 14.3595ZM18.2004 15.81C17.3925 16.633 16.2616 17.0997 15.0379 17.1022C13.8124 17.1043 12.6814 16.6418 11.8736 15.8202C11.4788 15.4199 11.1889 14.9592 11.01 14.4685C10.8347 13.9862 10.7666 13.4744 10.8118 12.9579C10.8545 12.4531 11.0047 11.9716 11.2446 11.536C11.4803 11.1077 11.8048 10.7207 12.2055 10.3934C12.9908 9.75345 13.9905 9.40703 15.0361 9.40562C16.0827 9.40421 17.0818 9.74745 17.8677 10.3852C18.2677 10.7112 18.5919 11.0968 18.8276 11.5243C19.0685 11.9596 19.2177 12.4394 19.2622 12.9456C19.3066 13.4613 19.2386 13.9725 19.0632 14.4551C18.884 14.9472 18.5951 15.4079 18.2004 15.81Z" fill="#EA7600"/></svg>