<svg width="24" height="24" viewBox="0 0 24 24" fill="currentColor" xmlns="http://www.w3.org/2000/svg"><path d="M15.126 10.6808C15.8349 10.6809 16.4852 10.9309 16.9688 11.34C17.4612 11.7566 17.7884 12.3445 17.8262 13.0109C17.8636 13.6962 17.5877 14.3328 17.1045 14.8048C16.6118 15.2849 15.9108 15.586 15.126 15.5861C14.3412 15.5861 13.639 15.2849 13.1465 14.8048C12.6629 14.3329 12.3881 13.6965 12.4258 13.0119C12.4632 12.3448 12.7894 11.7566 13.2823 11.34C13.7655 10.9308 14.4163 10.6808 15.126 10.6808Z"/><path fill-rule="evenodd" clip-rule="evenodd" d="M11.7393 4.11342C12.1901 3.79838 12.8793 3.79789 13.2891 4.11244C13.2949 4.11625 13.2992 4.12099 13.3047 4.12514L19.5528 8.92201L19.5518 8.92299C20.1708 9.40302 20.6909 9.97371 21.0948 10.6251C21.5363 11.3341 21.8236 12.1118 21.9414 12.9406C22.0017 13.3659 22.0152 13.792 21.9825 14.2169C21.9489 14.6482 21.8657 15.0785 21.7334 15.5021C21.4703 16.3406 21.0254 17.1183 20.4063 17.8048C19.7718 18.5077 18.9898 19.0741 18.086 19.4787C17.1357 19.9026 16.1059 20.1217 15.0381 20.1232C13.9685 20.1249 12.9387 19.9102 11.9883 19.4894C11.0842 19.0887 10.3017 18.5241 9.66605 17.8214C9.04663 17.1378 8.60134 16.3621 8.3389 15.5236C8.21407 15.1275 8.1306 14.6205 8.12601 14.3595C8.12142 14.0995 8.17874 13.6662 8.17874 13.6662L4.25784 16.8751C3.5732 17.4282 2.652 17.4273 2.21878 16.8722C1.79202 16.3262 2.01117 15.4634 2.68851 14.9445C2.69682 14.9379 2.70682 14.9306 2.71585 14.924L9.90042 9.40932L5.87405 9.41713L5.87503 9.41517C5.19259 9.41258 4.74664 8.95206 4.87503 8.3976C5 7.85337 5.6317 7.42272 6.28812 7.42201H6.29788L14.2403 7.41322L11.6348 5.29506L11.6367 5.2931C11.2311 4.96045 11.2835 4.43231 11.7393 4.11342ZM15.0362 9.40541C13.9906 9.40682 12.9913 9.75386 12.2061 10.3937C11.8053 10.7211 11.4808 11.108 11.2451 11.5363C11.0053 11.9719 10.8542 12.4534 10.8116 12.9581C10.7664 13.4745 10.8345 13.9867 11.0098 14.4689C11.1887 14.9595 11.4794 15.4201 11.8741 15.8204C12.6819 16.6419 13.8128 17.1048 15.0381 17.1027C16.2618 17.1002 17.3924 16.6327 18.2002 15.8097C18.5949 15.4076 18.8843 14.9473 19.0635 14.4552C19.2388 13.9726 19.3072 13.4612 19.2627 12.9454C19.2183 12.4393 19.0681 11.9598 18.8272 11.5245C18.5915 11.097 18.2682 10.7108 17.8682 10.3849C17.0822 9.74711 16.0828 9.404 15.0362 9.40541Z"/></svg>