<svg width="24" height="24" viewBox="0 0 24 24" fill="currentColor" xmlns="http://www.w3.org/2000/svg"><path fill-rule="evenodd" clip-rule="evenodd" d="M15.5927 3C16.0749 3 16.5389 3.12871 16.9426 3.36165C17.3462 3.59469 17.6897 3.93225 17.9308 4.34986L21.511 10.5507C21.7653 10.9912 21.8991 11.4919 21.8991 12.0005C21.899 12.509 21.7653 13.0091 21.511 13.4493L17.9308 19.6501C17.6897 20.0677 17.3463 20.4053 16.9426 20.6384C16.539 20.8714 16.075 21 15.5927 21H8.40593C7.44145 20.9999 6.55009 20.4854 6.06785 19.6501L2.48764 13.4493C2.23519 13.0121 2.10158 12.5053 2.09961 12.0005C2.09961 11.4921 2.23348 10.9922 2.48764 10.5518L6.06785 4.34986C6.55011 3.51467 7.44149 3.00014 8.40593 3H15.5927ZM18.8937 12.5831L15.5916 18.2981L13.7768 15.1543L15.596 12.006L13.7735 8.85014L15.5916 5.70082L18.8915 11.4158L19.0355 11.6664C19.0946 11.77 19.1246 11.8856 19.1246 12.0005C19.1245 12.1153 19.0946 12.2302 19.0355 12.3336L18.8937 12.5831ZM8.14541 6.15041C8.3062 5.87195 8.60435 5.69973 8.92587 5.69973H12.0059L8.42682 11.9016C8.40952 11.9315 8.40049 11.966 8.40043 12.0005V12.0115C8.40218 12.0423 8.41132 12.0726 8.42682 12.0995L10.1845 15.1565L12.007 18.3003H8.92587C8.60429 18.3003 8.30614 18.128 8.14541 17.8496L6.59109 15.1565C5.92395 14.001 5.27697 12.8761 4.96752 12.3347C4.91016 12.2344 4.88147 12.1229 4.87958 12.0115L4.87848 12.0005C4.87848 11.8854 4.90832 11.7701 4.96752 11.6664C5.27633 11.1261 5.92285 10.0038 6.58889 8.85014H6.58669L8.14541 6.15041Z"/></svg>