<svg width="24" height="24" viewBox="0 0 24 24" fill="currentColor" xmlns="http://www.w3.org/2000/svg"><path fill-rule="evenodd" clip-rule="evenodd" d="M7.52747 4.99988C8.10116 4.98923 8.67402 5.04805 9.23357 5.17505C9.70469 5.2779 10.152 5.46931 10.5517 5.73908C10.9208 6.00733 11.2129 6.36798 11.3986 6.78481C11.612 7.29737 11.715 7.84916 11.7008 8.4042C11.725 9.01364 11.5694 9.61673 11.2532 10.1383C10.9206 10.631 10.4609 11.0244 9.92284 11.2769C10.6531 11.4738 11.2891 11.9247 11.7165 12.5486C12.1269 13.2097 12.3331 13.9771 12.3095 14.7548C12.323 15.3749 12.1948 15.9898 11.9346 16.5528C11.6941 17.044 11.342 17.472 10.9064 17.8026C10.4579 18.1296 9.95328 18.3716 9.41749 18.5164C8.86187 18.6701 8.28788 18.7473 7.7114 18.7459H1.38184V4.99988H7.52747ZM7.16226 10.5596C7.613 10.5782 8.05672 10.4432 8.42081 10.1769C8.59518 10.0216 8.73082 9.82776 8.8169 9.61076C8.90297 9.39375 8.93709 9.15961 8.91652 8.92706C8.92819 8.65546 8.87411 8.38505 8.75888 8.13883C8.66112 7.94278 8.50913 7.77893 8.32097 7.66676C8.13038 7.54328 7.91626 7.46067 7.69213 7.42416C7.44894 7.37705 7.20148 7.35562 6.95381 7.36022H4.24927V10.5719H7.16226V10.5596ZM7.3199 16.4118C7.5925 16.4155 7.86453 16.3861 8.13004 16.3242C8.37267 16.2707 8.60279 16.1711 8.80792 16.0308C9.00889 15.8907 9.17125 15.7021 9.27999 15.4826C9.40607 15.2026 9.464 14.8968 9.44902 14.5901C9.47636 14.3107 9.43935 14.0287 9.34082 13.7657C9.24229 13.5028 9.08487 13.2659 8.88062 13.0732C8.4477 12.7543 7.91716 12.5964 7.38033 12.6265H4.24927V16.4118H7.3199Z"/><path fill-rule="evenodd" clip-rule="evenodd" d="M16.3935 16.3612C16.6186 16.5698 16.8837 16.7305 17.1728 16.8335C17.4619 16.9365 17.7688 16.9796 18.0751 16.9603C18.5606 16.9725 19.0367 16.8248 19.43 16.5399C19.75 16.3318 19.9923 16.024 20.1193 15.6641H22.406C22.1624 16.6886 21.5674 17.5954 20.7245 18.2267C19.9158 18.7634 18.9602 19.0353 17.9902 19.0044C17.2978 19.0135 16.6107 18.8834 15.9696 18.6217C15.3897 18.3799 14.8696 18.0143 14.4457 17.5506C14.0234 17.0647 13.6989 16.5017 13.4902 15.8927C13.2559 15.2119 13.1412 14.4957 13.1512 13.7758C13.147 13.068 13.2655 12.3648 13.5016 11.6975C13.8187 10.7587 14.4251 9.94451 15.2337 9.37177C16.0423 8.79902 17.0116 8.49715 18.0024 8.50949C18.7339 8.4942 19.4573 8.66539 20.1044 9.00695C20.6893 9.32768 21.1939 9.77685 21.5801 10.3207C21.9753 10.8913 22.2585 11.5318 22.4148 12.2081C22.5862 12.9343 22.6473 13.6821 22.5961 14.4265H15.7848C15.7296 15.1259 15.9478 15.8194 16.3935 16.3612ZM19.3818 11.1334C19.1912 10.9428 18.962 10.7952 18.7095 10.7006C18.4571 10.6061 18.1873 10.5667 17.9183 10.5852C17.5615 10.5716 17.2073 10.6506 16.8901 10.8146C16.6387 10.9531 16.4167 11.1393 16.2368 11.3629C16.0773 11.5725 15.9584 11.8102 15.8864 12.0636C15.8215 12.2749 15.781 12.4929 15.7656 12.7134H19.9844C19.9476 12.1386 19.7382 11.5882 19.3836 11.1343L19.3818 11.1334Z"/><path d="M15.2217 5.91797H20.5081V7.26936H15.2217V5.91797Z"/></svg>