<svg width="24" height="24" viewBox="0 0 24 24" fill="none" xmlns="http://www.w3.org/2000/svg"><path d="M16.5596 3.00781C16.9545 3.02031 17.3523 3.04235 17.7422 3.1123C18.1372 3.18231 18.5052 3.29991 18.8652 3.48242C19.2177 3.66242 19.5423 3.89777 19.8223 4.17773C20.1022 4.45768 20.3376 4.78235 20.5176 5.13477C20.7 5.49466 20.8177 5.8649 20.8877 6.25977C20.9577 6.64964 20.9822 7.04751 20.9922 7.44238C20.9972 7.62239 21 7.80535 21 7.98535C21 8.20037 20.9997 8.41584 20.9922 8.63086V16.0137C20.9922 16.1935 20.9903 16.3758 20.9854 16.5557C20.9729 16.9506 20.9498 17.3484 20.8799 17.7383C20.8099 18.1357 20.6922 18.5033 20.5098 18.8633C20.3298 19.2182 20.0953 19.5413 19.8154 19.8213C19.5354 20.1013 19.2099 20.3366 18.8574 20.5166C18.5001 20.699 18.1302 20.8167 17.7354 20.8867C17.3454 20.9567 16.9477 20.9812 16.5527 20.9912C16.3727 20.9962 16.1898 20.999 16.0098 20.999H7.98242C7.80259 20.999 7.62027 20.9962 7.44043 20.9912C7.04555 20.9787 6.6477 20.9567 6.25781 20.8867C5.86281 20.8167 5.49477 20.6991 5.13477 20.5166C4.78235 20.3366 4.45769 20.1012 4.17773 19.8213C3.89773 19.5413 3.66242 19.2158 3.48242 18.8633C3.30003 18.5034 3.18228 18.1332 3.1123 17.7383C3.04236 17.3484 3.01781 16.9506 3.00781 16.5557C3.00282 16.3758 3 16.1935 3 16.0137V7.98535C3.0025 7.80535 3.00531 7.62532 3.00781 7.44531C3.02031 7.0503 3.04231 6.65271 3.1123 6.2627C3.1823 5.86519 3.29994 5.4977 3.48242 5.1377C3.66242 4.78267 3.89969 4.45971 4.17969 4.17969C4.45968 3.89969 4.78271 3.66536 5.1377 3.48535C5.49513 3.30037 5.86485 3.18481 6.25977 3.1123C6.64972 3.04231 7.04742 3.01782 7.44238 3.00781C7.62238 3.00281 7.80535 3 7.98535 3H16.0146C16.1945 3.0025 16.3772 3.00531 16.5596 3.00781Z" fill="url(#paint0_linear_8543_134)"/><path d="M16.1773 14.7134C16.1773 14.941 16.1748 15.1485 16.1273 15.376C16.0798 15.5985 15.9948 15.806 15.8648 15.9935C15.7348 16.1811 15.5673 16.3336 15.3723 16.4486C15.1748 16.5661 14.9673 16.6311 14.7473 16.6761C14.3323 16.7586 14.0498 16.7786 13.7823 16.7261C13.5248 16.6736 13.3073 16.5561 13.1323 16.3961C12.8748 16.1586 12.7123 15.8385 12.6773 15.506C12.6373 15.1135 12.7673 14.6959 13.0598 14.3859C13.2073 14.2309 13.3948 14.1084 13.6448 14.0109C13.9048 13.9109 14.1923 13.8484 14.6348 13.7609C14.7523 13.7384 14.8673 13.7134 14.9848 13.6909C15.1373 13.6609 15.2698 13.6209 15.3748 13.4908C15.4823 13.3608 15.4823 13.2008 15.4823 13.0458V9.0805C15.4823 8.77798 15.3473 8.69547 15.0573 8.75048C14.8498 8.79048 10.4023 9.68805 10.4023 9.68805C10.1523 9.74806 10.0623 9.83056 10.0623 10.1431V15.951C10.0623 16.1786 10.0498 16.3861 10.0023 16.6136C9.95477 16.8361 9.86977 17.0436 9.73977 17.2311C9.60977 17.4186 9.44227 17.5712 9.24727 17.6862C9.04977 17.8037 8.84227 17.8712 8.62227 17.9162C8.20727 17.9987 7.92477 18.0187 7.65727 17.9662C7.39977 17.9137 7.18227 17.7937 7.00727 17.6337C6.74977 17.3961 6.59977 17.0761 6.56227 16.7436C6.52227 16.3511 6.63977 15.9335 6.93477 15.6235C7.08227 15.4685 7.26977 15.346 7.51977 15.2485C7.77977 15.1485 8.06727 15.086 8.50977 14.9985C8.62727 14.976 8.74227 14.951 8.85977 14.9285C9.01227 14.8985 9.14477 14.8584 9.24977 14.7284C9.35477 14.5984 9.36727 14.4459 9.36727 14.2909V7.59539C9.36727 7.50538 9.37477 7.44538 9.37977 7.41538C9.40227 7.27536 9.45727 7.15286 9.55977 7.06785C9.64477 6.99784 9.75477 6.94784 9.89227 6.91784H9.89477L15.2498 5.83275C15.2973 5.82275 15.6823 5.75525 15.7273 5.75025C16.0173 5.72524 16.1798 5.91526 16.1798 6.22278L16.1773 14.7134Z" fill="white"/><defs><linearGradient id="paint0_linear_8543_134" x1="12" y1="20.9297" x2="12" y2="3.38792" gradientUnits="userSpaceOnUse"><stop stop-color="#FA233B"/><stop offset="1" stop-color="#FB5C74"/></linearGradient></defs></svg>