<svg width="24" height="24" viewBox="0 0 24 24" fill="none" xmlns="http://www.w3.org/2000/svg"><path d="M20.6677 21.9999C21.3989 21.9999 21.9979 21.4109 21.9979 20.6897V7.325C21.9979 6.60377 21.3989 6.01477 20.6677 6.01477H7.68359L12.8945 21.9999H20.6677Z" fill="#DBDBDB"/><path d="M20.6677 6.61579C20.862 6.61579 21.0463 6.69192 21.1845 6.82815C21.3208 6.96238 21.3969 7.13868 21.3969 7.325V20.6897C21.3969 20.876 21.3228 21.0523 21.1845 21.1866C21.0463 21.3228 20.862 21.3989 20.6677 21.3989H13.3312L8.511 6.61579H20.6677ZM20.6677 6.01477H7.68359L12.8945 21.9999H20.6677C21.3989 21.9999 21.9979 21.4109 21.9979 20.6897V7.325C21.9979 6.60377 21.3989 6.01477 20.6677 6.01477Z" fill="#DCDCDC"/><path d="M11.665 18.2235L12.8951 21.9999L16.3149 18.2235H11.665Z" fill="#4352B8"/><path d="M20.7564 11.5381V10.7548H16.9799V9.48865H15.7538V10.7548H13.3438V11.5381H18.1399C17.8835 12.4417 17.3165 13.2951 16.7636 13.9582C15.7839 12.7983 15.7799 12.4216 15.7799 12.4216H14.7622C14.7622 12.4216 14.8042 12.9866 16.1786 14.5973C15.7318 15.0541 15.3932 15.3246 15.3932 15.3246L15.7058 16.3022C15.7058 16.3022 16.1786 15.8955 16.7696 15.2685C17.3626 15.9116 18.1279 16.6849 19.1176 17.6064L19.7607 16.9634C18.7009 16.0017 17.9235 15.2384 17.3526 14.6254C18.1179 13.7198 18.8952 12.5799 19.0595 11.5361H20.7543V11.5381H20.7564Z" fill="#607988"/><path d="M3.33221 2C2.60097 2 2.00195 2.59902 2.00195 3.33226V16.8953C2.00195 17.6266 2.60097 18.2256 3.33221 18.2256H16.3163L11.1054 2H3.33221Z" fill="#4285F4"/><path d="M12.7061 6.01477H20.6676C21.3988 6.01477 21.9979 6.60377 21.9979 7.325V15.3426L12.7061 6.01477Z" fill="url(#paint0_linear_3603_1068)"/><path d="M9.4426 10.6266C9.39252 11.2336 8.87364 12.1331 7.6175 12.1331C6.52965 12.1331 5.64815 11.2336 5.64815 10.1257C5.64815 9.01785 6.52965 8.11832 7.6175 8.11832C8.23655 8.11832 8.64925 8.38677 8.88566 8.60514L9.71106 7.8118C9.16814 7.31094 8.46093 6.99841 7.6175 6.99841C5.89257 6.99841 4.49219 8.39879 4.49219 10.1237C4.49219 11.8487 5.89257 13.249 7.6175 13.249C9.42457 13.249 10.6186 11.9809 10.6186 10.1918C10.6186 9.93541 10.5865 9.74709 10.5445 9.55476H7.6195V10.6246L9.4426 10.6266Z" fill="#EEEEEE"/><path d="M20.6677 6.01482H12.3956L11.1054 2H3.33221C2.60097 2 2.00195 2.59902 2.00195 3.33226V16.8953C2.00195 17.6266 2.60097 18.2256 3.33221 18.2256H11.6644L12.8945 22H20.6677C21.3989 22 21.9979 21.411 21.9979 20.6898V7.32505C21.9979 6.60383 21.3989 6.01482 20.6677 6.01482Z" fill="url(#paint1_radial_3603_1068)"/><defs><linearGradient id="paint0_linear_3603_1068" x1="12.7061" y1="10.6787" x2="21.9979" y2="10.6787" gradientUnits="userSpaceOnUse"><stop stop-color="white" stop-opacity="0.2"/><stop offset="1" stop-color="white" stop-opacity="0.02"/></linearGradient><radialGradient id="paint1_radial_3603_1068" cx="0" cy="0" r="1" gradientUnits="userSpaceOnUse" gradientTransform="translate(3.30833 2.38798) scale(28.013 28.013)"><stop stop-color="white" stop-opacity="0.1"/><stop offset="1" stop-color="white" stop-opacity="0"/></radialGradient></defs></svg>