<svg width="24" height="24" viewBox="0 0 24 24" fill="currentColor" xmlns="http://www.w3.org/2000/svg"><path d="M15.6147 10.333C16.011 10.3331 16.3764 10.3997 16.7059 10.5386C17.0354 10.6776 17.3187 10.8684 17.5556 11.1155C17.7873 11.3626 17.973 11.6511 18.1068 11.9756C18.2355 12.305 18.3029 12.655 18.3029 13.0308V13.5205H14.209L14.2241 13.5669C14.3117 13.8706 14.4766 14.1175 14.7186 14.2925C14.9606 14.4727 15.2797 14.5605 15.6658 14.5606C16.2836 14.5606 16.7783 14.2261 16.9844 13.979L17.9733 14.7301C17.5407 15.2245 16.8192 15.755 15.6554 15.755C15.254 15.755 14.8783 15.6831 14.5386 15.5391C14.1988 15.4 13.905 15.2042 13.6681 14.9622C13.4312 14.7202 13.2403 14.4317 13.1064 14.1021C12.9725 13.7726 12.9056 13.4171 12.9056 13.0412C12.9056 12.6654 12.9726 12.3098 13.1168 11.9803C13.2558 11.6508 13.4517 11.3622 13.6937 11.1202C13.9356 10.8783 14.2243 10.6884 14.5538 10.5443C14.8833 10.4052 15.2387 10.333 15.6147 10.333ZM11.5254 10.4354H12.52V11.6099H11.5254V13.4324C11.5254 13.6383 11.5361 13.8086 11.5567 13.9373C11.5824 14.071 11.6287 14.174 11.7007 14.2461C11.7728 14.3182 11.8814 14.3704 12.0256 14.391C12.1491 14.4116 12.3194 14.4213 12.52 14.4213V15.6982H12.3391C11.9223 15.6982 11.5723 15.6627 11.2943 15.5855C11.0214 15.5083 10.7945 15.3845 10.6246 15.2094C10.4547 15.0344 10.3311 14.8021 10.259 14.5189C10.1869 14.2306 10.151 13.87 10.151 13.4428V8.40163H11.5254V10.4354ZM21.4951 14.661C21.5618 14.661 21.6287 14.6761 21.6903 14.7017C21.752 14.7275 21.804 14.7643 21.8503 14.8106C21.8965 14.8569 21.9326 14.9082 21.9583 14.9698C21.9841 15.0316 22 15.0989 22 15.1659C22 15.2326 21.984 15.2993 21.9583 15.361C21.9326 15.4228 21.8967 15.4747 21.8503 15.5211C21.804 15.5674 21.752 15.6033 21.6903 15.6291C21.6286 15.6547 21.567 15.6707 21.4951 15.6707C21.4282 15.6707 21.3608 15.6548 21.299 15.6291C21.2374 15.6034 21.1862 15.5673 21.1399 15.5211C21.0936 15.4747 21.0567 15.4228 21.031 15.361C21.0054 15.2994 20.9903 15.2377 20.9902 15.1659C20.9902 15.0989 21.0052 15.0316 21.031 14.9698C21.0567 14.908 21.0936 14.857 21.1399 14.8106C21.1863 14.7643 21.2372 14.7275 21.299 14.7017C21.3608 14.676 21.423 14.661 21.4951 14.661ZM3.41517 15.6471H2.04547V10.4354H3.41517V15.6471ZM7.23065 10.3274C7.91039 10.3274 8.44663 10.5339 8.8277 10.9459C9.20854 11.3578 9.40401 11.9447 9.39888 12.686V15.6423H8.01402V12.8764C8.01398 12.4491 7.91033 12.1148 7.71469 11.878C7.51386 11.6411 7.21038 11.5171 6.81387 11.5171C6.47921 11.5171 6.18535 11.6404 5.94336 11.8875C5.71679 12.1192 5.59887 12.4801 5.5834 12.9692V15.6471H4.21843V10.4354H5.57298V11.1827L5.64971 11.0842C5.82994 10.8473 6.06206 10.6621 6.32983 10.5282C6.60263 10.3944 6.90126 10.3274 7.23065 10.3274ZM20.3878 15.6471H19.0134V8H20.3878V15.6471ZM21.4894 14.7481C21.4278 14.7482 21.376 14.7588 21.3246 14.7794C21.2733 14.7999 21.227 14.8306 21.1911 14.8665C21.155 14.9026 21.1245 14.9495 21.1039 15.001C21.0833 15.0525 21.0727 15.1092 21.0727 15.1659C21.0727 15.2276 21.0833 15.2792 21.1039 15.3307C21.1245 15.382 21.1551 15.4283 21.1911 15.4642C21.227 15.5002 21.2733 15.5308 21.3246 15.5514C21.376 15.5719 21.4329 15.5826 21.4894 15.5826C21.5512 15.5826 21.6028 15.572 21.6543 15.5514C21.7058 15.5308 21.7527 15.5003 21.7888 15.4642C21.8247 15.4283 21.8554 15.382 21.8759 15.3307C21.8965 15.2793 21.9123 15.2275 21.9072 15.1659C21.9072 15.1041 21.8965 15.0525 21.8759 15.001C21.8553 14.9495 21.8248 14.9026 21.7888 14.8665C21.7527 14.8305 21.7057 14.8 21.6543 14.7794C21.6028 14.7589 21.546 14.7481 21.4894 14.7481ZM21.5207 14.8722C21.5876 14.8722 21.6442 14.8877 21.6751 14.9186C21.7111 14.9495 21.7262 14.9908 21.7262 15.0475C21.7262 15.0987 21.7111 15.1345 21.6855 15.1602C21.6598 15.1858 21.629 15.2014 21.588 15.2066L21.7367 15.4538H21.6239L21.479 15.217H21.4023V15.4538H21.2943V14.8722H21.5207ZM21.4023 14.9594V15.1242H21.5311C21.5465 15.1241 21.5621 15.1189 21.5775 15.1138C21.5877 15.1086 21.5977 15.0983 21.6078 15.0882C21.613 15.0779 21.6183 15.0624 21.6183 15.0418C21.6182 15.0213 21.613 15.0056 21.6078 14.9954C21.6026 14.9852 21.5927 14.9749 21.5775 14.9698C21.5621 14.9647 21.5465 14.9594 21.5311 14.9594H21.4023ZM15.5995 11.5019C14.6571 11.5071 14.2194 12.1714 14.2194 12.5524L16.9844 12.5467C16.9841 12.1657 16.5413 11.5022 15.5995 11.5019ZM3.44738 9.56105H2V8.11367H3.44738V9.56105Z"/></svg>