<svg width="24" height="24" viewBox="0 0 24 24" fill="none" xmlns="http://www.w3.org/2000/svg"><path fill-rule="evenodd" clip-rule="evenodd" d="M20.6943 6.26659L21.2099 5.00297C21.2099 5.00297 20.5537 4.30069 19.7569 3.50491C18.9604 2.70913 17.2733 3.17731 17.2733 3.17731L15.3521 1H8.60391L6.68269 3.17731C6.68269 3.17731 4.99556 2.70913 4.19909 3.50491C3.40228 4.30069 2.74641 5.00297 2.74641 5.00297L3.26203 6.26659L2.60547 8.139C2.60547 8.139 4.53528 15.4389 4.76147 16.3306C5.20662 18.0858 5.51119 18.7643 6.77653 19.6539C8.04153 20.5432 10.3378 22.0877 10.7125 22.3221C11.0875 22.5559 11.5564 22.9546 11.9782 22.9546C12.3999 22.9546 12.8685 22.5559 13.2432 22.3221C13.6182 22.088 15.9141 20.5432 17.1798 19.6539C18.4448 18.7647 18.7497 18.0858 19.1948 16.3306C19.4207 15.4389 21.3502 8.139 21.3502 8.139L20.6943 6.26659Z" fill="url(#paint0_linear_8543_142)"/><path fill-rule="evenodd" clip-rule="evenodd" d="M14.3679 4.95588C14.6491 4.95588 16.7346 4.55816 16.7346 4.55816C16.7346 4.55816 19.2059 7.54191 19.2059 8.17991C19.2059 8.70723 18.9931 8.91348 18.7428 9.15685C18.6906 9.20773 18.6363 9.25998 18.5823 9.31773L16.7295 11.2829C16.7096 11.3038 16.6894 11.3245 16.669 11.3448C16.4841 11.5304 16.2118 11.8041 16.4036 12.2585L16.4431 12.351C16.6539 12.8432 16.9141 13.451 16.5831 14.0663C16.2307 14.7215 15.6274 15.1587 15.2407 15.0862C14.8543 15.014 13.9461 14.54 13.6124 14.3238C13.2786 14.1072 12.2202 13.2354 12.2202 12.9017C12.2202 12.6236 12.9812 12.1609 13.3511 11.9357C13.4247 11.891 13.4828 11.856 13.5161 11.8333C13.5543 11.8075 13.6182 11.768 13.6969 11.7192C14.0341 11.5095 14.6436 11.1314 14.6591 10.9639C14.678 10.757 14.6708 10.6965 14.3985 10.1857C14.3408 10.0771 14.2731 9.96088 14.2033 9.84057C13.9441 9.39541 13.654 8.89698 13.7186 8.53982C13.7908 8.1366 14.4233 7.9056 14.9588 7.70966C15.0255 7.6856 15.0912 7.66154 15.1537 7.63782L15.7116 7.42848C16.2465 7.22841 16.8405 7.00601 16.9388 6.96098C17.0743 6.89876 17.0392 6.83894 16.6284 6.8001C16.5619 6.79358 16.4955 6.7867 16.4291 6.77948C15.9203 6.72551 14.9822 6.62616 14.5264 6.75301C14.4367 6.7781 14.3363 6.80526 14.2308 6.83379C13.7186 6.97232 13.0906 7.14213 13.0301 7.2401C13.0197 7.25729 13.0094 7.27207 12.9995 7.28582C12.9417 7.36763 12.9042 7.42126 12.9682 7.76913C12.9871 7.87294 13.0263 8.07679 13.0747 8.3291C13.2157 9.06748 13.4367 10.219 13.4646 10.4775C13.4683 10.514 13.4728 10.5487 13.4769 10.5824C13.5123 10.8711 13.5357 11.0633 13.2002 11.1399L13.1126 11.1599C12.7337 11.2465 12.1786 11.374 11.9782 11.374C11.7774 11.374 11.2219 11.2469 10.8431 11.1599L10.7558 11.1399C10.4203 11.0633 10.444 10.8711 10.4794 10.5824C10.4836 10.5487 10.4877 10.5136 10.4915 10.4775C10.5193 10.2187 10.7407 9.06404 10.8823 8.32601C10.9304 8.07507 10.9693 7.87226 10.9882 7.76913C11.0518 7.42126 11.0143 7.36763 10.9566 7.28582C10.9459 7.2708 10.9356 7.25556 10.9256 7.2401C10.8658 7.14213 10.2381 6.97232 9.72558 6.83379C9.62005 6.80526 9.51933 6.7781 9.42996 6.75301C8.9738 6.62582 8.03605 6.72551 7.5273 6.77948C7.44961 6.78773 7.38224 6.79494 7.32793 6.8001C6.9168 6.83894 6.88208 6.89876 7.01752 6.96098C7.11549 7.00601 7.70949 7.22841 8.24402 7.42848C8.44924 7.50513 8.64621 7.57869 8.80227 7.63782C8.86518 7.66154 8.93049 7.68526 8.99752 7.71001C9.53308 7.90594 10.1656 8.1366 10.2378 8.53982C10.3021 8.89698 10.0119 9.39541 9.75308 9.84057C9.68296 9.96088 9.61558 10.0771 9.55749 10.1857C9.28558 10.6965 9.27836 10.757 9.29727 10.9639C9.31239 11.1317 9.92152 11.5095 10.2591 11.7192C10.3378 11.768 10.4017 11.8075 10.4399 11.8333C10.4736 11.856 10.5313 11.891 10.6049 11.9357C10.9748 12.1605 11.7358 12.6232 11.7358 12.9017C11.7358 13.2351 10.6778 14.1072 10.3436 14.3238C10.0102 14.5403 9.10202 15.014 8.7153 15.0862C8.32893 15.1584 7.7253 14.7215 7.3733 14.0666C7.04227 13.451 7.30214 12.8432 7.51286 12.3513L7.55239 12.2585C7.74455 11.8041 7.4723 11.5304 7.28702 11.3448C7.26669 11.3245 7.24664 11.3038 7.22686 11.2829L5.37405 9.31773C5.31974 9.26032 5.26543 9.20773 5.21318 9.15685C4.96293 8.91382 4.75049 8.70723 4.75049 8.17991C4.75049 7.54226 7.22171 4.55816 7.22171 4.55816C7.22171 4.55816 9.30689 4.95588 9.58808 4.95588C9.81255 4.95588 10.2457 4.80704 10.6974 4.65166C10.8118 4.61248 10.9273 4.5726 11.0411 4.53479C11.6031 4.34744 11.9782 4.34607 11.9782 4.34607C11.9782 4.34607 12.3529 4.34744 12.9152 4.53479C13.0287 4.5726 13.1445 4.61248 13.259 4.65166C13.7103 4.80704 14.1438 4.95588 14.3679 4.95588ZM14.0101 15.5111C14.4508 15.7379 14.7636 15.8988 14.8818 15.9727C15.0348 16.0683 14.9416 16.2488 14.8021 16.3474C14.6629 16.4454 12.7901 17.8939 12.6086 18.0541L12.5347 18.1198C12.3597 18.2776 12.1363 18.4787 11.9778 18.4787C11.8197 18.4787 11.5963 18.2772 11.421 18.1198L11.3477 18.0541C11.1656 17.8939 9.29314 16.4454 9.15393 16.3471C9.01471 16.2488 8.92121 16.0686 9.07418 15.9724C9.19243 15.8988 9.50558 15.7376 9.94696 15.5104L10.3663 15.2942C11.0263 14.9532 11.8496 14.6627 11.9782 14.6627C12.1064 14.6627 12.9293 14.9528 13.59 15.2942C13.7399 15.3719 13.8805 15.4447 14.0101 15.5111Z" fill="white"/><path fill-rule="evenodd" clip-rule="evenodd" d="M17.2734 3.17731L15.3522 1H8.60403L6.68281 3.17731C6.68281 3.17731 4.99569 2.70913 4.19922 3.50491C4.19922 3.50491 6.44872 3.30209 7.22181 4.55816C7.22181 4.55816 9.307 4.95588 9.58819 4.95588C9.86938 4.95588 10.4785 4.72213 11.0409 4.53478C11.6033 4.34744 11.9783 4.34606 11.9783 4.34606C11.9783 4.34606 12.353 4.34744 12.9153 4.53478C13.4777 4.72213 14.0868 4.95588 14.368 4.95588C14.6492 4.95588 16.7347 4.55816 16.7347 4.55816C17.5078 3.30209 19.757 3.50491 19.757 3.50491C18.9605 2.70913 17.2734 3.17731 17.2734 3.17731Z" fill="url(#paint1_linear_8543_142)"/><defs><linearGradient id="paint0_linear_8543_142" x1="2.60581" y1="23.1097" x2="21.3502" y2="23.1097" gradientUnits="userSpaceOnUse"><stop stop-color="#FF5500"/><stop offset="0.41" stop-color="#FF5500"/><stop offset="0.582" stop-color="#FF2000"/><stop offset="1" stop-color="#FF2000"/></linearGradient><linearGradient id="paint1_linear_8543_142" x1="4.53334" y1="4.94144" x2="19.757" y2="4.94144" gradientUnits="userSpaceOnUse"><stop stop-color="#FF452A"/><stop offset="1" stop-color="#FF2000"/></linearGradient></defs></svg>