<svg width="24" height="24" viewBox="0 0 24 24" fill="currentColor" xmlns="http://www.w3.org/2000/svg"><path fill-rule="evenodd" clip-rule="evenodd" d="M9.04023 21.5402C9.98851 21.8276 10.9655 22 12 22C17.5172 22 22 17.5172 22 12C22 6.48276 17.5172 2 12 2C6.48276 2 2 6.48276 2 12C2 16.2529 4.67241 19.9023 8.43678 21.3391C8.35058 20.5632 8.26437 19.2701 8.43678 18.3793L9.58621 13.4368C9.58621 13.4368 9.29885 12.8621 9.29885 11.9425C9.29885 10.5632 10.1609 9.52874 11.1379 9.52874C12 9.52874 12.4023 10.1609 12.4023 10.9655C12.4023 11.8276 11.8276 13.0632 11.5402 14.2414C11.3678 15.2184 12.0575 16.0805 13.0632 16.0805C14.8448 16.0805 16.2241 14.1839 16.2241 11.4828C16.2241 9.0977 14.5 7.45977 12.0287 7.45977C9.21264 7.45977 7.54598 9.55747 7.54598 11.7701C7.54598 12.6322 7.83333 13.4943 8.2931 14.069C8.37931 14.1264 8.37931 14.2126 8.35058 14.3563L8.06322 15.4483C8.06322 15.6207 7.94828 15.6782 7.77586 15.5632C6.51149 14.9885 5.76437 13.1782 5.76437 11.7126C5.76437 8.55172 8.00575 5.67816 12.3161 5.67816C15.7644 5.67816 18.4368 8.14943 18.4368 11.4253C18.4368 14.8736 16.3103 17.6322 13.2644 17.6322C12.2874 17.6322 11.3391 17.1149 11.023 16.4828L10.3333 18.8678C10.1034 19.7299 9.47126 20.8506 9.04023 21.5402Z"/></svg>