<svg width="24" height="24" viewBox="0 0 24 24" fill="currentColor" xmlns="http://www.w3.org/2000/svg"><path d="M3.65218 16.5558C3.46601 16.8594 3.25694 17.2116 3.07936 17.4923C3.00296 17.6214 2.98026 17.7754 3.01614 17.921C3.05202 18.0667 3.14362 18.1925 3.27126 18.2714L6.99459 20.5626C7.05929 20.6026 7.13129 20.6292 7.20641 20.6411C7.28152 20.6529 7.35824 20.6497 7.43208 20.6315C7.50593 20.6134 7.57543 20.5808 7.63653 20.5355C7.69762 20.4902 7.7491 20.4332 7.78794 20.3679C7.93688 20.1187 8.12877 19.7951 8.33785 19.4485C9.81286 17.014 11.2965 17.3119 13.9715 18.5893L17.6634 20.345C17.7326 20.3779 17.8077 20.3966 17.8843 20.4C17.9608 20.4034 18.0373 20.3914 18.1091 20.3647C18.181 20.338 18.2467 20.2971 18.3025 20.2445C18.3583 20.1919 18.4029 20.1287 18.4338 20.0586L20.2067 16.0488C20.2669 15.9112 20.2706 15.7554 20.217 15.615C20.1635 15.4746 20.0569 15.3609 19.9203 15.2984C19.1412 14.9318 17.5918 14.2015 16.1969 13.5284C11.179 11.0911 6.91439 11.2486 3.65218 16.5558Z"/><path d="M20.3468 7.45652C20.533 7.15293 20.7421 6.80064 20.9197 6.51996C20.9961 6.39085 21.0188 6.23691 20.9829 6.09124C20.947 5.94556 20.8554 5.81978 20.7278 5.74093L17.0044 3.44964C16.9393 3.40574 16.8657 3.37572 16.7884 3.36145C16.7112 3.34718 16.6318 3.34897 16.5552 3.3667C16.4786 3.38443 16.4065 3.41772 16.3434 3.46451C16.2803 3.5113 16.2274 3.57059 16.1882 3.63868C16.0392 3.88785 15.8473 4.2115 15.6383 4.55805C14.1632 6.99254 12.6796 6.69467 10.0046 5.41728L6.3242 3.67018C6.255 3.63724 6.17988 3.61852 6.10331 3.61514C6.02674 3.61176 5.95027 3.62377 5.87842 3.65048C5.80658 3.67719 5.74083 3.71804 5.68506 3.77062C5.62929 3.8232 5.58464 3.88644 5.55376 3.95659L3.78088 7.96633C3.72068 8.10398 3.71696 8.25977 3.77053 8.40014C3.82411 8.5405 3.93068 8.6542 4.06729 8.71673C4.84633 9.08333 6.39581 9.81368 7.79062 10.4867C12.82 12.9212 17.0846 12.758 20.3468 7.45652Z"/></svg>