<svg width="24" height="24" viewBox="0 0 24 24" fill="none" xmlns="http://www.w3.org/2000/svg"><path d="M12 2C17.5229 2 22 6.47714 22 12C22 17.5229 17.5229 22 12 22C6.47714 22 2 17.5229 2 12C2 6.47714 6.47714 2 12 2Z" fill="url(#paint0_radial_2188_1195)"/><path d="M2.86719 12C2.86719 17.0443 6.95627 21.1332 12.0004 21.1332C17.0445 21.1332 21.1338 17.0443 21.1338 12C21.1338 6.95591 17.0447 2.86682 12.0004 2.86682C6.95607 2.86682 2.86719 6.95591 2.86719 12Z" fill="url(#paint1_radial_2188_1195)"/><mask id="mask0_2188_1195" style="mask-type:luminance" maskUnits="userSpaceOnUse" x="2" y="2" width="20" height="20"><path d="M2.86719 12C2.86719 17.0443 6.95627 21.1332 12.0004 21.1332C17.0445 21.1332 21.1338 17.0443 21.1338 12C21.1338 6.95591 17.0447 2.86682 12.0004 2.86682C6.95607 2.86682 2.86719 6.95591 2.86719 12Z" fill="white"/></mask><g mask="url(#mask0_2188_1195)"><path d="M21.1338 2.86682H2.86719V21.1332H21.1338V2.86682Z" fill="url(#paint2_radial_2188_1195)"/></g><mask id="mask1_2188_1195" style="mask-type:luminance" maskUnits="userSpaceOnUse" x="2" y="2" width="20" height="20"><path d="M2.94238 12.0001C2.94238 17.0026 6.99774 21.058 12.0003 21.058C17.0029 21.058 21.0582 17.0028 21.0582 12.0001C21.0582 6.9975 17.0029 2.94214 12.0003 2.94214C6.99774 2.94214 2.94238 6.9975 2.94238 12.0001Z" fill="white"/></mask><g mask="url(#mask1_2188_1195)"><path d="M21.0582 2.94214H2.94238V21.0578H21.0582V2.94214Z" fill="url(#paint3_radial_2188_1195)"/></g><path d="M15.554 9.08768C15.2809 9.56347 14.9149 9.97954 14.4779 10.3112C14.0409 10.6429 13.5417 10.8835 13.01 11.0186C12.4782 11.1537 11.9248 11.1807 11.3824 11.0979C10.8401 11.0151 10.3199 10.8242 9.85267 10.5366C9.50876 10.3238 9.19762 10.0622 8.92905 9.7598C8.22216 8.96287 7.85402 7.92164 7.90291 6.8575C7.90875 6.73844 7.91872 6.61971 7.93431 6.50153C7.94968 6.38505 7.97022 6.26908 7.99555 6.15452C8.02155 6.03691 8.05272 5.92063 8.08906 5.8057C8.12432 5.69383 8.16451 5.58365 8.20964 5.47516C8.25641 5.36236 8.30856 5.25195 8.36483 5.14362C8.42408 5.02953 8.48972 4.91854 8.55981 4.8108C8.62445 4.71142 8.6933 4.61503 8.76636 4.52162C8.84562 4.41981 8.92985 4.32158 9.01871 4.22804C9.10839 4.13361 9.20209 4.04338 9.29981 3.95736C9.39931 3.8697 9.50365 3.78771 9.61116 3.71013C9.66658 3.67014 9.72304 3.63167 9.78054 3.59473C8.61244 4.19154 7.72396 5.22139 7.30483 6.46436C6.8857 7.70734 6.96915 9.06492 7.53734 10.2472C7.54859 10.2706 7.56002 10.2938 7.57163 10.317C7.5769 10.3276 7.58222 10.3381 7.58756 10.3486C7.59007 10.3552 7.59331 10.3615 7.59723 10.3674C7.60388 10.3748 7.60555 10.3736 7.61573 10.3734C7.66875 10.3724 7.72181 10.3727 7.77482 10.3738C7.87276 10.3759 7.97056 10.3815 8.06819 10.3906C8.97108 10.4759 9.82027 10.8579 10.4831 11.4769C11.146 12.0959 11.5851 12.917 11.732 13.8119C11.7983 14.2214 11.8028 14.6384 11.7452 15.0492C11.6358 15.8239 11.3063 16.5509 10.7959 17.1439C10.5033 17.4837 10.1576 17.7739 9.77225 18.0032C9.00304 18.4575 8.10678 18.6487 7.21914 18.548C7.05862 18.5297 6.8993 18.502 6.74198 18.4652C6.6401 18.4412 6.53921 18.4131 6.43945 18.3815C6.88762 18.5801 7.3626 18.7115 7.8491 18.7716C8.303 18.8277 8.76238 18.8221 9.2148 18.7552C10.0239 18.6347 10.7912 18.3177 11.4496 17.8321C11.9327 17.476 12.3487 17.0368 12.678 16.535C12.6922 16.5133 12.7063 16.4914 12.7203 16.4694C12.7257 16.4609 12.7378 16.4474 12.7362 16.4384C12.7308 16.4242 12.7235 16.4107 12.7146 16.3984C12.6871 16.3469 12.6608 16.2948 12.6356 16.2421C12.5849 16.1364 12.5388 16.0285 12.4973 15.9186C12.4134 15.6959 12.3491 15.4663 12.3052 15.2324C12.2113 14.7296 12.2116 14.2138 12.3061 13.7111C12.3865 13.284 12.5348 12.8726 12.7453 12.4925C13.0965 11.8546 13.6115 11.3219 14.2372 10.9493C14.8629 10.5768 15.5766 10.3779 16.3048 10.3731C16.4054 10.3724 16.5059 10.3753 16.6064 10.3818C16.7032 10.3883 16.7998 10.398 16.8961 10.411C16.9914 10.424 17.0862 10.4404 17.1804 10.4602C17.2727 10.4797 17.3642 10.5023 17.4551 10.5279C17.544 10.5531 17.6321 10.5813 17.7192 10.6126C17.8075 10.6443 17.8946 10.679 17.9805 10.7167C18.0681 10.755 18.1542 10.7964 18.2388 10.841C18.3234 10.8855 18.4063 10.9328 18.4877 10.9831C18.564 11.0303 18.6391 11.0798 18.7121 11.1322C18.7873 11.1862 18.8609 11.2425 18.9327 11.301C19.0068 11.3613 19.0783 11.4248 19.1478 11.4902C19.2219 11.5599 19.2932 11.6323 19.3618 11.7075C19.4304 11.7821 19.496 11.8594 19.5587 11.9392C19.6286 12.028 19.6952 12.1196 19.7573 12.214C19.8212 12.311 19.8815 12.4105 19.9372 12.5125C20.0148 12.6548 20.084 12.8015 20.1443 12.9519C20.2092 13.1154 20.264 13.2828 20.3082 13.4531C20.1886 12.5423 19.8209 11.682 19.2455 10.966C18.8224 10.4388 18.2979 10.0019 17.7029 9.68107C17.0927 9.35223 16.4207 9.154 15.7297 9.09901C15.6712 9.09433 15.6127 9.09067 15.554 9.08802L15.554 9.08768Z" fill="url(#paint4_radial_2188_1195)"/><defs><radialGradient id="paint0_radial_2188_1195" cx="0" cy="0" r="1" gradientUnits="userSpaceOnUse" gradientTransform="translate(12 12) scale(9.77369)"><stop offset="0.99" stop-color="white"/><stop offset="0.99505" stop-color="#FDFDFD"/><stop offset="0.99687" stop-color="#F6F6F6"/><stop offset="0.99817" stop-color="#EBEBEB"/><stop offset="0.99921" stop-color="#DADADA"/><stop offset="1" stop-color="#C7C7C7"/></radialGradient><radialGradient id="paint1_radial_2188_1195" cx="0" cy="0" r="1" gradientUnits="userSpaceOnUse" gradientTransform="translate(12.0004 12) scale(9.1332)"><stop offset="0.99" stop-opacity="0.5"/><stop offset="1" stop-opacity="0"/></radialGradient><radialGradient id="paint2_radial_2188_1195" cx="0" cy="0" r="1" gradientUnits="userSpaceOnUse" gradientTransform="translate(12.0004 12) scale(9.1332)"><stop offset="0.99" stop-opacity="0.5"/><stop offset="1" stop-opacity="0"/></radialGradient><radialGradient id="paint3_radial_2188_1195" cx="0" cy="0" r="1" gradientUnits="userSpaceOnUse" gradientTransform="translate(12.0002 12.0312) scale(9.0578 9.0578)"><stop/><stop offset="1" stop-color="#322F32"/></radialGradient><radialGradient id="paint4_radial_2188_1195" cx="0" cy="0" r="1" gradientUnits="userSpaceOnUse" gradientTransform="translate(13.3738 11.2025) scale(7.27867 7.98543)"><stop stop-color="#C2C0C2"/><stop offset="1" stop-color="#EBEBEB"/></radialGradient></defs></svg>