<svg width="24" height="24" viewBox="0 0 24 24" fill="none" xmlns="http://www.w3.org/2000/svg"><mask id="mask0_3602_624" style="mask-type:alpha" maskUnits="userSpaceOnUse" x="4" y="2" width="16" height="20"><path d="M15.8999 22H8.08922C7.07292 22 6.56477 22 6.16167 21.8405C5.57819 21.6094 5.1162 21.1474 4.88519 20.5639C4.72559 20.1608 4.72559 19.6526 4.72559 18.6364V5.36364C4.72559 4.34733 4.72559 3.83918 4.88519 3.43608C5.1162 2.8526 5.57819 2.39061 6.16167 2.1596C6.56477 2 7.07292 2 8.08922 2H12.4529L18.6793 8.22651C18.8681 8.41525 18.9625 8.50964 19.035 8.61635C19.1398 8.77058 19.2118 8.94467 19.2466 9.12784C19.2707 9.25459 19.2707 9.38936 19.2705 9.65892C19.2665 15.2178 19.264 15.2726 19.2639 18.6325C19.2639 19.6514 19.2639 20.1609 19.1042 20.564C18.8732 21.1475 18.4113 21.6093 17.8277 21.8405C17.4247 22 16.9164 22 15.8999 22Z" fill="#3186FF"/></mask><g mask="url(#mask0_3602_624)"><path d="M19.2642 22H4.72559V2L12.4529 2L19.2709 8.81818L19.2642 22Z" fill="#3186FF"/><g filter="url(#filter0_f_3602_624)"><path d="M5.97559 22.9091H18.021V9.07127V3.36365H5.97559V22.9091Z" fill="url(#paint0_linear_3602_624)"/></g></g><path d="M18.7016 8.24944C18.4168 8.03572 18.0629 7.90909 17.6794 7.90909H13.9067C13.1034 7.90909 12.4521 7.25786 12.4521 6.45457V2L18.7016 8.24944Z" fill="#76BBFF"/><path d="M14.9522 14.0454H9.04315C8.66659 14.0454 8.36133 14.3507 8.36133 14.7272C8.36133 15.1038 8.66659 15.409 9.04315 15.409H14.9522C15.3288 15.409 15.6341 15.1038 15.6341 14.7272C15.6341 14.3507 15.3288 14.0454 14.9522 14.0454Z" fill="white"/><path d="M13.1341 17.3409H9.04315C8.66659 17.3409 8.36133 17.6462 8.36133 18.0228C8.36133 18.3993 8.66659 18.7046 9.04315 18.7046H13.1341C13.5106 18.7046 13.8159 18.3993 13.8159 18.0228C13.8159 17.6462 13.5106 17.3409 13.1341 17.3409Z" fill="white"/><defs><filter id="filter0_f_3602_624" x="4.61195" y="2.00001" width="14.7732" height="22.2727" filterUnits="userSpaceOnUse" color-interpolation-filters="sRGB"><feFlood flood-opacity="0" result="BackgroundImageFix"/><feBlend mode="normal" in="SourceGraphic" in2="BackgroundImageFix" result="shape"/><feGaussianBlur stdDeviation="0.681818" result="effect1_foregroundBlur_3602_624"/></filter><linearGradient id="paint0_linear_3602_624" x1="11.9983" y1="7.82773" x2="7.29518" y2="20.5611" gradientUnits="userSpaceOnUse"><stop offset="0.33" stop-color="#3186FF"/><stop offset="1" stop-color="#A9A8FF"/></linearGradient></defs></svg>