<svg width="24" height="24" viewBox="0 0 24 24" fill="none" xmlns="http://www.w3.org/2000/svg"><mask id="mask0_3601_533" style="mask-type:alpha" maskUnits="userSpaceOnUse" x="1" y="2" width="22" height="20"><path d="M8.02915 4.34423C9.8337 1.21865 14.3453 1.21853 16.1499 4.34423L21.706 13.9678C23.5106 17.0935 21.2548 21.0006 17.6456 21.0006H6.53342C2.9242 21.0006 0.668444 17.0935 2.473 13.9678L8.02915 4.34423Z" fill="#B43333"/></mask><g mask="url(#mask0_3601_533)"><path d="M25.774 21.0029H14.4369L12.0908 16.9395L17.7594 7.12122L25.774 21.0029Z" fill="url(#paint0_linear_3601_533)"/><path d="M-1.59473 21.0013L6.41989 7.11963V7.11988L4.07469 11.1823H8.76559L14.4346 21.0011L-1.5946 21.0012L-1.59473 21.0013Z" fill="url(#paint1_linear_3601_533)"/><path d="M12.0918 -2.69885L17.7607 7.12032L15.4151 11.183H4.07715L12.0918 -2.69885Z" fill="url(#paint2_linear_3601_533)"/></g><defs><linearGradient id="paint0_linear_3601_533" x1="24.1324" y1="20.2108" x2="12.9653" y2="13.5002" gradientUnits="userSpaceOnUse"><stop offset="0.09" stop-color="#FFE921"/><stop offset="1" stop-color="#FEC700"/></linearGradient><linearGradient id="paint1_linear_3601_533" x1="14.3606" y1="22.1863" x2="2.16206" y2="14.8069" gradientUnits="userSpaceOnUse"><stop offset="0.15" stop-color="#A9A8FF"/><stop offset="0.33" stop-color="#6D97FF"/><stop offset="0.48" stop-color="#3186FF"/></linearGradient><linearGradient id="paint2_linear_3601_533" x1="16.1476" y1="4.45285" x2="3.78745" y2="10.2221" gradientUnits="userSpaceOnUse"><stop offset="0.55" stop-color="#0EBC5F"/><stop offset="0.85" stop-color="#78C9FF"/></linearGradient></defs></svg>