<svg width="24" height="24" viewBox="0 0 24 24" fill="none" xmlns="http://www.w3.org/2000/svg"><path d="M15.4663 4.67154L3.98809 11.9472L3.00098 10.3898V9.04795C3.00098 8.5594 3.24832 8.10405 3.65817 7.8381L10.3305 3.50858C11.347 2.84896 12.6564 2.84886 13.6731 3.50833L15.4663 4.67154Z" fill="url(#paint0_linear_8545_339)"/><path d="M13.5699 3.44458C13.6044 3.46511 13.6387 3.48636 13.6726 3.50835L18.8798 6.88614L5.96856 15.0701L3.9873 11.9445L13.4629 5.92659C14.3605 5.35659 14.3998 4.0743 13.5699 3.44458Z" fill="url(#paint1_linear_8545_339)"/><path d="M13.5699 3.44458C13.6044 3.46511 13.6387 3.48636 13.6726 3.50835L18.8798 6.88614L5.96856 15.0701L3.9873 11.9445L13.4629 5.92659C14.3605 5.35659 14.3998 4.0743 13.5699 3.44458Z" fill="url(#paint2_linear_8545_339)" fill-opacity="0.2"/><path d="M11.12 16.633L5.96875 15.0703L16.9209 8.12788C17.8433 7.54323 17.8409 6.19663 16.9164 5.61523L16.8671 5.58423L17.0092 5.67258L20.3424 7.83478C20.7524 8.10073 20.9998 8.55613 20.9998 9.04478V10.3435L11.12 16.633Z" fill="url(#paint3_linear_8545_339)"/><path d="M11.12 16.633L5.96875 15.0703L16.9209 8.12788C17.8433 7.54323 17.8409 6.19663 16.9164 5.61523L16.8671 5.58423L17.0092 5.67258L20.3424 7.83478C20.7524 8.10073 20.9998 8.55613 20.9998 9.04478V10.3435L11.12 16.633Z" fill="url(#paint4_linear_8545_339)" fill-opacity="0.2"/><path d="M13.6731 3.50833C12.6564 2.84886 11.347 2.84896 10.3304 3.50858L3.65817 7.8381C3.24832 8.10405 3.00098 8.5594 3.00098 9.04795V9.1136C3.01706 9.604 3.27516 10.0561 3.69202 10.3189L11.9884 15.5492L20.3056 10.3268C20.7375 10.0556 20.9997 9.5814 20.9997 9.07135V10.3436L20.9999 9.0448C20.9999 8.55615 20.7524 8.10075 20.3425 7.8348L13.6731 3.50833Z" fill="url(#paint5_radial_8545_339)"/><path d="M10.526 21.0017H17.8744C19.6003 21.0017 20.9994 19.6026 20.9994 17.8767V9.07129C20.9994 9.58134 20.7372 10.0555 20.3053 10.3268L9.37513 17.1899C8.78553 17.5601 8.42768 18.2074 8.42773 18.9036C8.42783 20.0624 9.36723 21.0017 10.526 21.0017Z" fill="url(#paint6_linear_8545_339)"/><path d="M10.526 21.0017H17.8744C19.6003 21.0017 20.9994 19.6026 20.9994 17.8767V9.07129C20.9994 9.58134 20.7372 10.0555 20.3053 10.3268L9.37513 17.1899C8.78553 17.5601 8.42768 18.2074 8.42773 18.9036C8.42783 20.0624 9.36723 21.0017 10.526 21.0017Z" fill="url(#paint7_radial_8545_339)" fill-opacity="0.4"/><path d="M10.526 21.0017H17.8744C19.6003 21.0017 20.9994 19.6026 20.9994 17.8767V9.07129C20.9994 9.58134 20.7372 10.0555 20.3053 10.3268L9.37513 17.1899C8.78553 17.5601 8.42768 18.2074 8.42773 18.9036C8.42783 20.0624 9.36723 21.0017 10.526 21.0017Z" fill="url(#paint8_radial_8545_339)" fill-opacity="0.5"/><path d="M13.5138 21.0011H6.12498C4.39911 21.0011 3 19.602 3 17.8761V9.06482C3 9.57387 3.26121 10.0474 3.69184 10.3188L14.6111 17.2029C15.2089 17.5797 15.5715 18.237 15.5714 18.9437C15.5713 20.08 14.6501 21.0011 13.5138 21.0011Z" fill="url(#paint9_radial_8545_339)"/><path d="M13.5138 21.0011H6.12498C4.39911 21.0011 3 19.602 3 17.8761V9.06482C3 9.57387 3.26121 10.0474 3.69184 10.3188L14.6111 17.2029C15.2089 17.5797 15.5715 18.237 15.5714 18.9437C15.5713 20.08 14.6501 21.0011 13.5138 21.0011Z" fill="url(#paint10_linear_8545_339)"/><path d="M8.375 11.5H3.625C2.72754 11.5 2 12.2275 2 13.125V17.875C2 18.7725 2.72754 19.5 3.625 19.5H8.375C9.27246 19.5 10 18.7725 10 17.875V13.125C10 12.2275 9.27246 11.5 8.375 11.5Z" fill="url(#paint11_radial_8545_339)"/><path d="M8.375 11.5H3.625C2.72754 11.5 2 12.2275 2 13.125V17.875C2 18.7725 2.72754 19.5 3.625 19.5H8.375C9.27246 19.5 10 18.7725 10 17.875V13.125C10 12.2275 9.27246 11.5 8.375 11.5Z" fill="url(#paint12_radial_8545_339)" fill-opacity="0.5"/><path d="M5.97898 17.8C5.31748 17.8 4.77445 17.593 4.34983 17.1792C3.9252 16.7653 3.71289 16.2253 3.71289 15.559C3.71289 14.8554 3.92841 14.2863 4.35943 13.8518C4.79046 13.4173 5.35483 13.2 6.05258 13.2C6.71193 13.2 7.24858 13.4079 7.66253 13.8239C8.07863 14.2398 8.28668 14.7881 8.28668 15.4689C8.28668 16.1684 8.07113 16.7322 7.64013 17.1606C7.21123 17.5868 6.65753 17.8 5.97898 17.8ZM5.99818 16.9216C6.35878 16.9216 6.64898 16.7984 6.86878 16.5522C7.08853 16.306 7.19843 15.9635 7.19843 15.5248C7.19843 15.0675 7.09173 14.7116 6.87838 14.4571C6.66498 14.2025 6.38013 14.0753 6.02378 14.0753C5.65678 14.0753 5.36123 14.2067 5.13718 14.4695C4.91315 14.7302 4.80112 15.0758 4.80112 15.5062C4.80112 15.9428 4.91315 16.2884 5.13718 16.5429C5.36123 16.7953 5.64823 16.9216 5.99818 16.9216Z" fill="white"/><path d="M5.97816 17.8617C5.31921 17.8617 4.77821 17.6491 4.35521 17.224C3.93221 16.7989 3.7207 16.2441 3.7207 15.5596C3.7207 14.8369 3.93539 14.2523 4.36478 13.806C4.79416 13.3596 5.35641 13.1364 6.05146 13.1364C6.70831 13.1364 7.24291 13.35 7.65531 13.7773C8.06981 14.2045 8.27706 14.7678 8.27706 15.4672C8.27706 16.1856 8.06236 16.7649 7.63296 17.2049C7.20571 17.6428 6.65411 17.8617 5.97816 17.8617ZM5.99726 16.9594C6.35651 16.9594 6.64561 16.8329 6.86456 16.5799C7.08351 16.327 7.19296 15.9752 7.19296 15.5245C7.19296 15.0548 7.08666 14.6892 6.87411 14.4277C6.66156 14.1663 6.37776 14.0355 6.02281 14.0355C5.65716 14.0355 5.36276 14.1705 5.13956 14.4405C4.91638 14.7083 4.80478 15.0633 4.80478 15.5054C4.80478 15.9539 4.91638 16.3089 5.13956 16.5704C5.36276 16.8297 5.64866 16.9594 5.99726 16.9594Z" fill="white"/><defs><linearGradient id="paint0_linear_8545_339" x1="4.99469" y1="11.1825" x2="15.4663" y2="4.68748" gradientUnits="userSpaceOnUse"><stop stop-color="#20A7FA"/><stop offset="0.4" stop-color="#3BD5FF"/><stop offset="1" stop-color="#C4B0FF"/></linearGradient><linearGradient id="paint1_linear_8545_339" x1="8.59841" y1="13.3972" x2="14.4279" y2="4.06282" gradientUnits="userSpaceOnUse"><stop stop-color="#165AD9"/><stop offset="0.5008" stop-color="#1880E5"/><stop offset="1" stop-color="#8587FF"/></linearGradient><linearGradient id="paint2_linear_8545_339" x1="12.8501" y1="13.5241" x2="6.37796" y2="8.25059" gradientUnits="userSpaceOnUse"><stop offset="0.236946" stop-color="#448AFF" stop-opacity="0"/><stop offset="0.792113" stop-color="#0032B1"/></linearGradient><linearGradient id="paint3_linear_8545_339" x1="12.0266" y1="15.555" x2="22.2549" y2="9.00888" gradientUnits="userSpaceOnUse"><stop stop-color="#1A43A6"/><stop offset="0.492267" stop-color="#2052CB"/><stop offset="1" stop-color="#5F20CB"/></linearGradient><linearGradient id="paint4_linear_8545_339" x1="14.914" y1="15.1637" x2="8.69865" y2="9.78543" gradientUnits="userSpaceOnUse"><stop stop-color="#0045B9" stop-opacity="0"/><stop offset="0.669859" stop-color="#0D1F69"/></linearGradient><radialGradient id="paint5_radial_8545_339" cx="0" cy="0" r="1" gradientUnits="userSpaceOnUse" gradientTransform="translate(12.0011 3.40894) rotate(-90) scale(13.5013 14.6131)"><stop offset="0.568182" stop-color="#275FF0" stop-opacity="0"/><stop offset="0.992424" stop-color="#002177"/></radialGradient><linearGradient id="paint6_linear_8545_339" x1="20.9994" y1="14.9715" x2="11.9262" y2="14.9715" gradientUnits="userSpaceOnUse"><stop stop-color="#4DC4FF"/><stop offset="0.196145" stop-color="#0FAFFF"/></linearGradient><radialGradient id="paint7_radial_8545_339" cx="0" cy="0" r="1" gradientUnits="userSpaceOnUse" gradientTransform="translate(14.0468 18.9558) rotate(-45) scale(5.786)"><stop offset="0.259477" stop-color="#0060D1"/><stop offset="0.908166" stop-color="#0383F1" stop-opacity="0"/></radialGradient><radialGradient id="paint8_radial_8545_339" cx="0" cy="0" r="1" gradientUnits="userSpaceOnUse" gradientTransform="translate(5.31608 23.236) rotate(-52.6577) scale(19.6407 17.7602)"><stop offset="0.732317" stop-color="#F4A7F7" stop-opacity="0"/><stop offset="1" stop-color="#F4A7F7"/></radialGradient><radialGradient id="paint9_radial_8545_339" cx="0" cy="0" r="1" gradientUnits="userSpaceOnUse" gradientTransform="translate(9.28578 13.7659) rotate(123.339) scale(10.3629 26.893)"><stop stop-color="#49DEFF"/><stop offset="0.724349" stop-color="#29C3FF"/></radialGradient><linearGradient id="paint10_linear_8545_339" x1="1.72916" y1="18.9361" x2="10.4649" y2="18.9298" gradientUnits="userSpaceOnUse"><stop offset="0.205882" stop-color="#6CE0FF"/><stop offset="0.535" stop-color="#50D5FF" stop-opacity="0"/></linearGradient><radialGradient id="paint11_radial_8545_339" cx="0" cy="0" r="1" gradientUnits="userSpaceOnUse" gradientTransform="translate(1.97146 11.8077) rotate(46.9242) scale(10.5309)"><stop offset="0.038877" stop-color="#0091FF"/><stop offset="0.919119" stop-color="#183DAD"/></radialGradient><radialGradient id="paint12_radial_8545_339" cx="0" cy="0" r="1" gradientUnits="userSpaceOnUse" gradientTransform="translate(6 16.3719) rotate(90) scale(5.6 6.4594)"><stop offset="0.557796" stop-color="#0FA5F7" stop-opacity="0"/><stop offset="1" stop-color="#74C6FF"/></radialGradient></defs></svg>