<svg width="24" height="24" viewBox="0 0 24 24" fill="currentColor" xmlns="http://www.w3.org/2000/svg"><path d="M2 13.928C3.44981 16.2894 7.22026 19.9163 12.3047 19.9163C15.5403 19.9163 16.4331 18.4036 18.3038 18.4036C19.8721 18.4036 20.4954 19.4589 20.7352 19.8722C20.7979 20.0049 20.9197 20.0898 20.9861 19.8389C21.0302 19.6543 21.0744 19.4146 21.0744 19.1229C21.0744 18.2931 20.8312 16.7214 19.4477 14.9945C19.7539 14.1458 19.7869 13.2164 19.7869 12.6627C19.7869 10.1576 18.3702 5.80361 13.7103 3C14.6806 4.3726 15.9866 6.45323 15.9866 9.34968C15.9866 10.3974 15.7026 11.5521 15.4629 12.1279C12.928 10.6593 8.07661 6.6158 6.13953 4.55691C7.69304 6.94412 9.53751 9.10989 11.5851 11.3787C8.82925 9.63361 6.27221 7.69314 3.88523 5.55273C6.17259 8.8812 9.05794 12.1499 12.8836 15.2343C11.7918 15.8431 10.6701 16.3227 8.74411 16.3227C6.41237 16.3227 3.55691 15.1899 2 13.928Z"/></svg>