<svg width="24" height="24" viewBox="0 0 24 24" fill="currentColor" xmlns="http://www.w3.org/2000/svg"><path d="M8.12669 14.868C8.61025 15.1808 9.14713 15.3373 9.73736 15.3373C10.2494 15.3373 10.6974 15.2413 11.0814 15.0493C11.4654 14.8573 11.764 14.5942 11.9774 14.26C12.1907 13.9257 12.2974 13.5488 12.2974 13.1293C12.2974 12.6742 12.18 12.2973 11.9454 11.9986C11.7178 11.7 11.4369 11.4831 11.1027 11.348V11.2626C11.3302 11.1488 11.54 10.9568 11.732 10.6866C11.9311 10.4164 12.0307 10.0715 12.0307 9.65195C12.0307 9.28217 11.9311 8.95151 11.732 8.65995C11.5329 8.36128 11.2556 8.12662 10.9 7.95595C10.5516 7.78528 10.1427 7.69995 9.67336 7.69995C9.22536 7.69995 8.84136 7.78173 8.52136 7.94528C8.20136 8.10884 7.9418 8.31151 7.74269 8.55328C7.54358 8.79506 7.40136 9.03684 7.31602 9.27862L8.58536 9.80128C8.64936 9.59506 8.76669 9.40662 8.93736 9.23595C9.10802 9.06528 9.3498 8.97995 9.66269 8.97995C9.94713 8.97995 10.1747 9.05817 10.3454 9.21462C10.5231 9.37106 10.612 9.57017 10.612 9.81195C10.612 10.1248 10.4982 10.356 10.2707 10.5053C10.0431 10.6546 9.78358 10.7293 9.49202 10.7293H8.91602V11.9986H9.54536C9.94358 11.9986 10.2636 12.0875 10.5054 12.2653C10.7471 12.4431 10.868 12.6884 10.868 13.0013C10.868 13.2928 10.7542 13.5311 10.5267 13.716C10.2991 13.8937 10.036 13.9826 9.73736 13.9826C9.05469 13.9826 8.62447 13.62 8.44669 12.8946L7.12402 13.4173C7.30891 14.0644 7.64313 14.5479 8.12669 14.868Z"/><path d="M14.9699 9.69462V15.1666H16.3672V7.87062H15.3112L13.1672 9.41728L13.8712 10.4946L14.9699 9.69462Z"/><path fill-rule="evenodd" clip-rule="evenodd" d="M2.00049 3.99988C2.00049 2.89988 2.90049 1.99988 4.00049 1.99988H20.0005C21.1005 1.99988 22.0005 2.89988 22.0005 3.99988V16.9999L17.0005 21.9999H4.00049C2.90049 21.9999 2.00049 21.0999 2.00049 19.9999V3.99988ZM16.1705 19.9999L20.0005 16.1699V3.99988H4.00049V19.9999H16.1705Z"/></svg>