<svg width="24" height="24" viewBox="0 0 24 24" fill="currentColor" xmlns="http://www.w3.org/2000/svg"><path fill-rule="evenodd" clip-rule="evenodd" d="M12.0518 2C13.8167 2 15.1608 2.47607 16.0839 3.42822C17.007 4.38037 17.4686 5.76794 17.4686 7.59096V16.3519C17.4686 16.4795 17.425 16.587 17.3379 16.674C17.2508 16.7612 17.1434 16.8048 17.0157 16.8048H14.7515C14.4728 16.8048 14.2986 16.6538 14.2289 16.3519L13.8806 14.7146H13.7413C13.4278 15.481 12.9604 16.0732 12.3392 16.4912C11.7179 16.9092 10.9603 17.1182 10.1359 17.1182C9.31145 17.1182 8.58573 16.9354 7.95871 16.5695C7.33169 16.2038 6.84401 15.6929 6.49566 15.0368C6.14732 14.3808 5.97314 13.7973 5.97314 12.7638C5.97314 11.7305 6.2315 10.8248 6.74821 10.0468C7.26492 9.26882 8.00226 8.67081 8.96021 8.2528C9.91816 7.83479 11.0416 7.62578 12.3305 7.62578C12.9226 7.62578 13.4045 7.66642 13.7761 7.7477V7.38194C13.7761 6.49947 13.6135 5.84052 13.2884 5.40508C13.2676 5.37724 13.2478 5.35028 13.2286 5.32421C12.9481 4.94269 12.8079 4.75193 11.8079 4.75193C10.7397 4.75193 10.0546 5.31508 9.7527 6.44141C9.6598 6.76653 9.46821 6.90587 9.17792 6.85943L6.80918 6.44141C6.635 6.40657 6.51598 6.3311 6.45212 6.21499C6.38826 6.09886 6.37955 5.94212 6.42599 5.74471C6.72789 4.56034 7.36943 3.64012 8.3506 2.98408C9.33179 2.32803 10.2868 2 12.0518 2ZM13.2013 13.3996C13.5845 12.7551 13.7761 11.8292 13.7761 10.6216V9.69844C13.6761 9.68059 13.6404 9.66548 13.6111 9.65312C13.5452 9.62527 13.5123 9.61135 12.853 9.61135C11.9008 9.61135 11.149 9.8581 10.5974 10.3516C10.0459 10.8451 9.77012 11.7305 9.77012 12.3458C9.77012 12.9612 9.92977 13.4518 10.2491 13.8177C10.5684 14.1834 10.8268 14.3663 11.5467 14.3663C12.2666 14.3663 12.8181 14.044 13.2013 13.3996Z"/><path d="M17.9648 17.638C18.063 17.5444 18.2102 17.444 18.4066 17.3364C18.9396 17.0559 19.503 16.9156 20.0967 16.9156C20.5874 16.9156 20.6814 16.9444 20.8694 17.0019C20.9089 17.0139 20.9526 17.0273 21.0049 17.0419C21.3065 17.126 21.5017 17.2336 21.5905 17.3645C21.684 17.5001 21.719 17.7245 21.6957 18.0377C21.6723 18.351 21.6092 18.6502 21.5064 18.9354C21.3193 19.4871 20.9944 19.9639 20.5315 20.366C20.2744 20.6044 20.078 20.7237 19.9424 20.7237C19.8431 20.7237 19.8366 20.7124 19.8237 20.6898C19.819 20.6815 19.8134 20.6718 19.8022 20.6605C19.7367 20.5998 19.7134 20.525 19.732 20.4361C19.7508 20.3473 19.8069 20.2257 19.9004 20.0715C20.1435 19.6881 20.3363 19.2931 20.4789 18.8863C20.6215 18.4795 20.6508 18.213 20.5666 18.0868C20.5105 18.0073 20.3702 17.9524 20.1458 17.922C19.9214 17.8916 19.6573 17.887 19.3534 17.908C19.0495 17.929 18.7572 17.97 18.4767 18.0307C18.3038 18.0634 18.1705 18.0739 18.077 18.0623C17.9835 18.0506 17.9204 18.0073 17.8877 17.9325C17.8409 17.8297 17.8666 17.7315 17.9648 17.638Z"/><path d="M2.382 17.2873C2.44745 17.2359 2.53278 17.2288 2.63797 17.2663C2.74316 17.3036 2.88226 17.3901 3.05524 17.5257C4.24277 18.4795 5.60561 19.1808 7.14379 19.6296C8.68196 20.0784 10.2762 20.3029 11.9266 20.3029C13.577 20.3029 14.539 20.1684 15.7662 19.8996C16.9935 19.6308 18.0349 19.2719 18.8905 18.8231C19.0682 18.7296 19.2061 18.6712 19.3043 18.6478C19.4025 18.6244 19.4866 18.6478 19.5567 18.7179C19.6082 18.7787 19.6339 18.8395 19.6339 18.9003C19.6339 19.0639 19.4773 19.2836 19.164 19.5595C18.2711 20.3309 17.1583 20.9305 15.8258 21.3583C14.4934 21.7861 13.0908 22 11.6181 22C10.1453 22 9.34235 21.8632 8.24134 21.5897C7.14028 21.3162 6.10822 20.8943 5.14512 20.3239C4.18199 19.7535 3.35212 19.0382 2.6555 18.1779C2.48252 17.9629 2.37265 17.7828 2.32589 17.6379C2.27447 17.4743 2.29316 17.3574 2.382 17.2873Z"/></svg>