<svg width="24" height="24" viewBox="0 0 24 24" fill="currentColor" xmlns="http://www.w3.org/2000/svg"><path d="M10.3333 10.3154C10.3338 9.9951 10.6808 9.79483 10.9583 9.95492L13.875 11.6387C14.1527 11.799 14.1526 12.2001 13.875 12.3605L10.9583 14.0443C10.6806 14.2046 10.3335 14.0044 10.3333 13.6838V10.3154Z"/><path fill-rule="evenodd" clip-rule="evenodd" d="M17 2C19.7614 2 22 4.23858 22 7V17C22 19.7614 19.7614 22 17 22H7C4.23858 22 2 19.7614 2 17V7C2 4.23858 4.23858 2 7 2H17ZM5.95833 14.5C5.61316 14.5 5.33333 14.7798 5.33333 15.125V16.1667C5.33333 17.5474 6.45262 18.6667 7.83333 18.6667H8.875C9.22018 18.6667 9.5 18.3868 9.5 18.0417C9.5 17.6965 9.22018 17.4167 8.875 17.4167H7.83333C7.14298 17.4167 6.58333 16.857 6.58333 16.1667V15.125C6.58333 14.7798 6.30351 14.5 5.95833 14.5ZM18.0417 14.5C17.6965 14.5 17.4167 14.7798 17.4167 15.125V16.1667C17.4167 16.857 16.857 17.4167 16.1667 17.4167H15.125C14.7798 17.4167 14.5 17.6965 14.5 18.0417C14.5 18.3868 14.7798 18.6667 15.125 18.6667H16.1667C17.5474 18.6667 18.6667 17.5474 18.6667 16.1667V15.125C18.6667 14.7798 18.3868 14.5 18.0417 14.5ZM11.4784 8.81641C10.4221 8.29893 9.16762 9.02327 9.0874 10.1966L9.08333 10.3154V13.6838L9.0874 13.8026C9.17007 15.0153 10.507 15.748 11.5833 15.1266L14.5 13.4429C15.6109 12.8013 15.611 11.1978 14.5 10.5563L11.5833 8.87256L11.4784 8.81641ZM7.83333 5.33333C6.45262 5.33333 5.33333 6.45262 5.33333 7.83333V8.875C5.33333 9.22018 5.61316 9.5 5.95833 9.5C6.30351 9.5 6.58333 9.22018 6.58333 8.875V7.83333C6.58333 7.14298 7.14298 6.58333 7.83333 6.58333H8.875C9.22018 6.58333 9.5 6.30351 9.5 5.95833C9.5 5.61316 9.22018 5.33333 8.875 5.33333H7.83333ZM15.125 5.33333C14.7798 5.33333 14.5 5.61316 14.5 5.95833C14.5 6.30351 14.7798 6.58333 15.125 6.58333H16.1667C16.857 6.58333 17.4167 7.14298 17.4167 7.83333V8.875C17.4167 9.22018 17.6965 9.5 18.0417 9.5C18.3868 9.5 18.6667 9.22018 18.6667 8.875V7.83333C18.6667 6.45262 17.5474 5.33333 16.1667 5.33333H15.125Z"/></svg>