<svg width="24" height="24" viewBox="0 0 24 24" fill="currentColor" xmlns="http://www.w3.org/2000/svg"><path d="M12 2C6.47714 2 2 6.47714 2 12C2 17.5229 6.47714 22 12 22C17.5229 22 22 17.5229 22 12C22 6.47714 17.5229 2 12 2ZM18.1857 12.2724L10.4752 7.82095L9.1419 8.59048V15.4086L10.4752 16.1781L15.0467 13.5391L13.7133 12.7695L10.4752 14.639V9.36L16.82 13.0238C16.7429 14.1562 16.54 15.2371 16.22 16.2219C14.9419 16.6371 13.5019 16.8571 11.9981 16.8571C10.4943 16.8571 9.05428 16.6362 7.77618 16.2219C7.36094 14.9438 7.14095 13.5038 7.14095 12C7.14095 10.4962 7.3619 9.05619 7.77618 7.7781C9.05428 7.36286 10.4943 7.14286 11.9981 7.14286C13.5019 7.14286 14.9409 7.36286 16.219 7.7781C16.4333 8.43905 16.5962 9.14381 16.7029 9.8781L18.1352 10.7048C18.0714 9.91143 17.9505 9.14857 17.779 8.42476C17.9819 8.52953 18.179 8.64 18.3676 8.75619C19.2257 9.28762 20.6648 10.4152 20.6648 12C20.6648 13.5848 19.2257 14.7124 18.3676 15.2438C18.179 15.361 17.9819 15.4705 17.779 15.5752C18.0229 14.5448 18.1648 13.4333 18.1848 12.2724H18.1857ZM12 20.6667C10.4152 20.6667 9.28761 19.2276 8.75619 18.3695C8.63999 18.1819 8.53047 17.9848 8.42571 17.7829C9.53619 18.0457 10.74 18.1905 12 18.1905C13.26 18.1905 14.4638 18.0457 15.5743 17.7829C15.4695 17.9848 15.36 18.181 15.2438 18.3695C14.7124 19.2276 13.5848 20.6667 12 20.6667ZM6.21713 15.5743C6.01523 15.4695 5.81905 15.36 5.63048 15.2438C4.77238 14.7124 3.33333 13.5848 3.33333 12C3.33333 10.4152 4.77238 9.28762 5.63048 8.75619C5.81809 8.64 6.01523 8.53048 6.21713 8.42572C5.95428 9.53619 5.80952 10.74 5.80952 12C5.80952 13.26 5.95428 14.4638 6.21713 15.5743ZM12 3.33333C13.5848 3.33333 14.7124 4.77238 15.2438 5.63048C15.36 5.81905 15.4705 6.01524 15.5743 6.21715C14.4638 5.95429 13.259 5.80952 12 5.80952C10.741 5.80952 9.53619 5.95429 8.42571 6.21715C8.53047 6.01524 8.63999 5.81905 8.75619 5.63048C9.28761 4.77238 10.4152 3.33333 12 3.33333ZM19.7257 8.07048C19.0295 7.54667 18.1971 7.09524 17.2619 6.73619C16.9029 5.80096 16.4514 4.96952 15.9276 4.27333C17.56 5.10476 18.8943 6.43809 19.7257 8.07048ZM8.06952 4.27429C7.54571 4.96952 7.09524 5.80191 6.73619 6.73619C5.8019 7.09524 4.96952 7.54667 4.27429 8.06953C5.10571 6.4381 6.43905 5.10571 8.07048 4.27333L8.06952 4.27429ZM4.27333 15.9305C4.96857 16.4543 5.80095 16.9048 6.73524 17.2638C7.09428 18.1981 7.54571 19.0305 8.06857 19.7257C6.43714 18.8943 5.10476 17.561 4.27238 15.9295L4.27333 15.9305ZM15.9276 19.7276C16.4514 19.0314 16.9029 18.2 17.2619 17.2648C18.1971 16.9057 19.0295 16.4543 19.7257 15.9305C18.8933 17.5629 17.56 18.8962 15.9276 19.7276Z"/></svg>