<svg width="24" height="24" viewBox="0 0 24 24" fill="currentColor" xmlns="http://www.w3.org/2000/svg"><path d="M16.7221 8.02789C16.7354 8.03177 16.7481 8.03923 16.7586 8.04828C16.7688 8.05724 16.7776 8.06809 16.7833 8.08047C16.7891 8.09306 16.7918 8.10738 16.7918 8.12124V12.0343C16.7919 12.0436 16.7901 12.0533 16.7876 12.0622C16.6979 12.3701 16.6534 12.694 16.6534 13.0311C16.6526 13.593 16.7921 14.1462 17.059 14.6406L17.0601 14.6416C17.2557 15.0026 17.5041 15.3154 17.8036 15.5762C17.8592 15.6242 17.8466 15.7149 17.7779 15.7403C17.3604 15.8967 16.9061 15.9753 16.4152 15.9753C15.7684 15.9753 15.2663 15.7734 14.9088 15.3702C14.8633 15.3167 14.8206 15.261 14.7811 15.2028C14.7739 15.1922 14.7695 15.18 14.7672 15.1674L14.4839 13.6524C14.4815 13.6394 14.4821 13.6255 14.485 13.6127C14.4879 13.6 14.4934 13.5877 14.5011 13.5773C14.5088 13.5668 14.5188 13.5581 14.53 13.5515C14.5413 13.5449 14.5536 13.5403 14.5665 13.5386L14.8981 13.4957C14.9172 13.4932 14.9352 13.4849 14.9496 13.4721C14.9641 13.4592 14.9749 13.4416 14.9796 13.4227L15.0193 13.2618C15.0454 13.1575 15.0526 13.0219 15.0526 12.882C15.0526 12.314 14.9448 11.7916 14.7232 11.3219C14.6373 11.1362 14.5303 10.9607 14.4045 10.7994C14.391 10.7823 14.3831 10.7608 14.383 10.7393V8.44635C14.3831 8.42329 14.3916 8.40052 14.4067 8.38304C14.4217 8.36565 14.4429 8.35429 14.4657 8.35086L16.6813 8.02575C16.6949 8.0238 16.7089 8.02405 16.7221 8.02789Z"/><path fill-rule="evenodd" clip-rule="evenodd" d="M23.9303 8.02789C23.9436 8.03174 23.9562 8.03922 23.9667 8.04828C23.9771 8.05725 23.9857 8.06805 23.9914 8.08047C23.9972 8.09309 24 8.10737 24 8.12124V15.7876C24 15.8132 23.9902 15.8381 23.9721 15.8562C23.954 15.8743 23.929 15.8841 23.9034 15.8841H21.7114C21.658 15.8841 21.6148 15.8406 21.6148 15.7876V15.2393C21.6146 15.137 21.461 15.0973 21.4013 15.1803C21.2613 15.3771 21.0861 15.5467 20.8841 15.6792C20.5798 15.8769 20.1988 15.9753 19.7425 15.9753C19.2177 15.9752 18.7425 15.8498 18.3165 15.5987C17.8904 15.3402 17.5517 14.9865 17.3004 14.5376C17.0571 14.0888 16.9356 13.5749 16.9356 12.9968C16.9356 12.4182 17.0571 11.9124 17.3004 11.4785C17.5416 11.0548 17.8928 10.7036 18.3165 10.4624C18.7425 10.2117 19.2177 10.0859 19.7425 10.0858C20.1152 10.0858 20.4729 10.1894 20.8155 10.3948C21.0287 10.5163 21.2115 10.6849 21.3487 10.8884C21.4097 10.9771 21.592 10.9367 21.5923 10.8294V8.44635C21.5923 8.42333 21.5998 8.40051 21.6148 8.38304C21.6298 8.36563 21.6511 8.35434 21.6738 8.35086L23.8895 8.02575C23.9031 8.02372 23.917 8.02411 23.9303 8.02789ZM20.485 11.8895C20.1579 11.8895 19.8838 11.9998 19.6631 12.22C19.4427 12.4407 19.3315 12.7118 19.3315 13.0311C19.3316 13.3506 19.4428 13.6206 19.6631 13.8412C19.8838 14.0618 20.1734 14.1717 20.485 14.1717C20.6336 14.174 20.7811 14.1459 20.9185 14.0891C21.0557 14.0322 21.1798 13.9479 21.2833 13.8412C21.504 13.6128 21.6148 13.3351 21.6148 13.0075C21.6148 12.6807 21.5039 12.4143 21.2833 12.2092C21.0626 11.9963 20.812 11.8896 20.485 11.8895Z"/><path fill-rule="evenodd" clip-rule="evenodd" d="M12.1416 10.0558C12.7046 10.0558 13.1838 10.1811 13.5794 10.4324C13.975 10.6676 14.2895 11.018 14.4807 11.4367C14.6787 11.8551 14.7778 12.3264 14.7779 12.8509C14.7789 12.9284 14.7745 13.0066 14.7661 13.0837C14.7632 13.1026 14.7542 13.1199 14.7403 13.133C14.7265 13.1462 14.7089 13.1547 14.6899 13.1566L11.4485 13.5783C11.3878 13.5863 11.3489 13.6479 11.3734 13.7039C11.4655 13.9139 11.5998 14.0709 11.7758 14.1749C11.9808 14.289 12.2511 14.3465 12.5858 14.3466C13.0709 14.3466 13.5935 14.2298 14.1524 13.9957C14.1656 13.9901 14.1798 13.9876 14.1942 13.9882C14.2087 13.9888 14.2232 13.9922 14.2361 13.9989C14.249 14.0058 14.2606 14.0161 14.2693 14.0279C14.2779 14.0396 14.2837 14.0534 14.2865 14.0676L14.5354 15.4013C14.5395 15.4225 14.5358 15.4444 14.5258 15.4635C14.5156 15.4827 14.4995 15.4989 14.4796 15.5075C13.7907 15.7992 13.0378 15.9442 12.221 15.9442C11.5898 15.9442 11.0267 15.8188 10.5322 15.5676C10.2772 15.4339 10.0419 15.2653 9.83369 15.0665C9.81528 15.049 9.80472 15.0236 9.80472 14.9979V13.0569C9.80472 12.2277 9.68462 11.7198 9.5279 11.3573C9.5209 11.3417 9.5186 11.3238 9.52039 11.3069C9.5222 11.29 9.52858 11.2734 9.53863 11.2597C9.80349 10.9056 10.1474 10.6183 10.5429 10.4206C11.0222 10.1773 11.5784 10.0558 12.1416 10.0558ZM12.1416 11.4367C11.8675 11.4367 11.65 11.5392 11.4903 11.7446C11.3511 11.9237 11.2696 12.1491 11.2457 12.4206C11.2447 12.4351 11.2476 12.4501 11.2532 12.4635C11.2588 12.4766 11.267 12.4886 11.2779 12.4979C11.289 12.5072 11.3024 12.5138 11.3165 12.5172C11.3306 12.5205 11.3454 12.5205 11.3594 12.5172L12.9109 12.177C12.9235 12.1745 12.9359 12.1694 12.9464 12.162C12.9567 12.1547 12.9656 12.145 12.9721 12.1341C12.9787 12.1231 12.9823 12.1104 12.9839 12.0976C12.9855 12.085 12.9843 12.0723 12.9807 12.0601C12.8459 11.6445 12.5663 11.4368 12.1416 11.4367Z"/><path d="M6.71781 10.0526C7.4948 10.0526 8.15615 10.3009 8.70064 10.7961C9.245 11.2859 9.51717 11.8776 9.51717 12.5708V15.8015C9.51717 15.8721 9.45977 15.9292 9.38949 15.9292H7.18562C7.11512 15.9291 7.05801 15.8731 7.05794 15.8026V12.9592C7.05801 12.7988 7.08943 12.1933 6.53112 12.1931C5.97336 12.1931 6.00421 12.8302 6.00429 12.9592V15.8015C6.00429 15.872 5.9471 15.929 5.87661 15.9292H3.73605C3.66566 15.9289 3.60837 15.8719 3.60837 15.8015V12.9592C3.60844 12.8145 3.63811 12.1931 3.08155 12.1931C2.52445 12.1932 2.56724 12.8233 2.55579 12.9496C2.55547 12.9561 2.55474 12.9629 2.55472 12.97V15.8015C2.55472 15.8721 2.49765 15.9292 2.42704 15.9292H0.127682C0.0570757 15.9292 0 15.8721 0 15.8015V10.309C0 10.2751 0.0135761 10.2418 0.0375536 10.2178C0.0615022 10.194 0.0939136 10.1803 0.127682 10.1803H1.69206C1.70882 10.1802 1.72593 10.1835 1.74142 10.1899C1.75693 10.1963 1.77143 10.2059 1.78326 10.2178C1.79502 10.2297 1.80378 10.2442 1.81009 10.2597C1.81641 10.2752 1.81991 10.2922 1.81974 10.309C1.81498 10.8356 1.82334 10.0526 3.25751 10.0526C4.21293 10.0526 4.4937 10.3344 4.73605 10.6212C4.74696 10.6343 4.76054 10.6447 4.77575 10.6524C4.79108 10.66 4.80801 10.6644 4.82511 10.6652C4.8422 10.666 4.85956 10.6638 4.87554 10.6577C4.89152 10.6516 4.90629 10.6419 4.91846 10.6298C5.20944 10.3385 5.49781 10.0437 6.71781 10.0526Z"/></svg>