<svg width="24" height="24" viewBox="0 0 24 24" fill="none" xmlns="http://www.w3.org/2000/svg"><path fill-rule="evenodd" clip-rule="evenodd" d="M15.1854 2.99805C16.4816 2.99805 16.8844 3.00904 17.1454 3.05371C19.0912 3.3892 20.5713 4.85478 20.9403 6.79688C20.9924 7.06912 20.9999 7.70734 20.9999 11.9814C20.9999 17.3378 21.0071 17.1518 20.7723 17.8525C20.709 18.0351 20.5862 18.3297 20.493 18.5049C19.7661 19.8729 18.4312 20.7934 16.9178 20.9648C16.5583 21.0021 13.6703 21.0177 13.5672 20.9805C13.5113 20.9581 13.5077 20.1339 13.5077 12.0039C13.5077 7.07607 13.5191 3.0356 13.534 3.02441C13.5498 3.00957 14.2936 2.99805 15.1854 2.99805ZM17.5145 11.1426C16.5827 10.9005 15.6134 11.4375 15.3338 12.3506C15.2407 12.6413 15.2372 13.119 15.3192 13.4023C15.5914 14.3265 16.5828 14.8895 17.5145 14.6475C18.0886 14.4946 18.5361 14.0802 18.7635 13.4912C18.8865 13.1706 18.8904 12.656 18.7674 12.3057C18.5735 11.7392 18.0959 11.2954 17.5145 11.1426Z" fill="#E60012"/><path d="M7.17466 6.72949C8.11402 6.54311 9.02414 7.18458 9.18443 8.14258C9.32216 8.94748 8.83376 9.73362 8.02525 10.0059C7.82772 10.0729 7.72291 10.0844 7.42857 10.0732C7.10426 10.0621 7.04062 10.0468 6.79087 9.92383C6.42939 9.7449 6.16428 9.48066 5.98912 9.11914C5.86987 8.88064 5.85168 8.80214 5.83677 8.50781C5.80695 7.94121 6.00103 7.46031 6.39244 7.12109C6.58252 6.95343 6.93987 6.77428 7.17466 6.72949Z" fill="#E60012"/><path fill-rule="evenodd" clip-rule="evenodd" d="M9.39537 3.00195C11.5798 2.99823 11.6432 3.00224 11.6805 3.06934C11.7065 3.13112 11.7176 5.9799 11.7176 12.0156C11.7176 20.1654 11.7139 20.8894 11.6581 20.9463C11.6021 21.0022 11.3861 21.0061 9.29869 20.9912C7.28204 20.98 6.96854 20.969 6.72251 20.9131C4.83661 20.4732 3.50939 19.1426 3.09556 17.2754C3.02101 16.9287 3.01788 16.8239 3.00669 12.3359C2.98806 7.44967 2.99899 7.08001 3.16294 6.4502C3.61771 4.70566 5.06038 3.37819 6.85337 3.05762C7.08826 3.01663 7.62142 3.00568 9.39537 3.00195ZM8.78404 4.45605C7.18884 4.45978 6.96157 4.48216 6.46958 4.67969C5.48936 5.07103 4.76269 5.93907 4.53892 6.98633C4.46064 7.35536 4.45984 16.6303 4.54185 17.0068C4.79163 18.2106 5.68266 19.1348 6.88267 19.4443C7.16224 19.5152 7.31196 19.5232 8.70982 19.5381L10.2264 19.5566V4.45215L8.78404 4.45605Z" fill="#E60012"/></svg>