<svg width="24" height="24" viewBox="0 0 24 24" fill="currentColor" xmlns="http://www.w3.org/2000/svg"><path fill-rule="evenodd" clip-rule="evenodd" d="M11.9921 1C12.8069 1 13.6051 1.13303 14.3367 1.36584C16.2823 1.98111 17.8952 3.34474 18.8264 5.14064C19.3751 6.20488 19.6911 7.40216 19.6911 8.68258C19.6911 11.9779 18.2001 13.8489 16.4208 16.0817C15.6861 17.0038 14.9021 17.9875 14.1537 19.1588C13.4159 20.2968 13.1227 21.22 12.9138 21.8776C12.6801 22.6133 12.552 23.0167 12.0252 23.0167C11.4977 23.0167 11.3699 22.6169 11.1356 21.8837C10.9268 21.2301 10.6333 20.3117 9.89669 19.1754C9.46434 18.5102 9.01523 17.8617 8.58288 17.2963C8.26181 16.8774 7.94258 16.4777 7.63171 16.0886C6.62234 14.8251 5.70124 13.6717 5.091 12.3241C4.60882 11.2765 4.32617 10.1125 4.32617 8.66592C4.32617 6.80349 5.00794 5.07407 6.12207 3.74376C7.53552 2.06425 9.64739 1 11.9921 1ZM14.2533 10.5616C13.7046 11.2101 12.9064 11.6092 12.0084 11.6092C10.3788 11.6092 9.06512 10.2956 9.06512 8.66593C9.06512 7.98387 9.29208 7.34719 9.68826 6.85694L9.74718 6.78686L9.75031 6.78313C10.299 6.15333 11.0958 5.73924 12.0086 5.73924C13.6382 5.73924 14.9519 7.05292 14.9519 8.68255C14.9519 9.32657 14.7361 9.93013 14.3773 10.4203L14.2533 10.5616Z"/></svg>