<svg width="24" height="24" viewBox="0 0 24 24" fill="currentColor" xmlns="http://www.w3.org/2000/svg"><path d="M9.81836 15.0117L9.82715 15.0381L9.83887 15.0674L9.85059 15.0947L9.86035 15.1211L9.87207 15.1475L9.88379 15.1777L9.89258 15.2041L9.91602 15.2568L9.9248 15.2842L9.93652 15.3135L9.94531 15.3398L9.95703 15.3672L9.96875 15.3936L9.97754 15.4199L9.98926 15.4502L10.001 15.4766L10.0098 15.5029L10.0215 15.5293L10.0332 15.5596L10.042 15.5859L10.0537 15.6123H9.55664L9.56836 15.5859L9.57715 15.5596L9.58887 15.5293L9.60059 15.5029L9.60938 15.4766L9.62109 15.4502L9.63379 15.4199L9.64453 15.3936L9.6543 15.3672L9.66602 15.3398L9.67773 15.3135L9.68652 15.2842L9.69824 15.2568L9.70996 15.2305L9.71875 15.2041L9.73047 15.1777L9.74219 15.1475L9.75391 15.1211L9.7627 15.0947L9.77441 15.0674L9.78613 15.0381L9.79492 15.0117L9.80664 14.9844L9.81836 15.0117Z"/><path d="M10.8408 6.42383C11.114 6.42385 11.2451 6.55613 11.2451 6.84082V8.62988C11.245 8.91438 11.1139 9.04783 10.8408 9.04785H10.3955V6.42383H10.8408Z"/><path fill-rule="evenodd" clip-rule="evenodd" d="M18.5469 3C19.608 3 19.9999 3.3916 20 4.45312V17.2656C20 17.3856 19.995 17.4973 19.9844 17.6006C19.9602 17.8324 19.9558 18.0578 19.7402 18.3135C19.7182 18.3392 19.499 18.502 19.499 18.502C19.3807 18.56 19.2995 18.6025 19.166 18.6562L12.7188 21.3574C12.4679 21.4724 12.3264 21.5356 12.1689 21.5576L12.001 21.5664H11.999C11.7559 21.5712 11.616 21.5109 11.2812 21.3574L4.83398 18.6562C4.70052 18.6025 4.6193 18.56 4.50098 18.502C4.50098 18.502 4.28193 18.3393 4.25977 18.3135C4.04421 18.0578 4.03979 17.8324 4.01562 17.6006C4.00504 17.4973 4 17.3856 4 17.2656V4.45312C4.00009 3.3916 4.39193 3 5.45312 3H18.5469ZM8.91406 19.0234L11.9492 20.0664L15.1133 19.0234H8.91406ZM7.41211 14.2803L7.38184 14.2832L7.29395 14.292L7.26465 14.2979L7.23535 14.3008L7.20605 14.3066L7.17969 14.3154L7.14941 14.3213L7.12305 14.3301L7.09668 14.3359L7.07031 14.3477L7.04102 14.3564L7.01758 14.3652L6.98828 14.3809L6.93555 14.4043L6.90918 14.4189L6.88184 14.4336L6.85547 14.4482L6.80859 14.4775L6.78516 14.4961L6.76172 14.5107L6.73828 14.5283L6.71777 14.5459L6.69336 14.5664L6.67285 14.584L6.65234 14.6055L6.63184 14.626L6.61426 14.6465L6.59375 14.667L6.57617 14.6875L6.55859 14.7109L6.54102 14.7354L6.52344 14.7588L6.49414 14.8057L6.47949 14.8301L6.46484 14.8535L6.44922 14.8799L6.42578 14.9326L6.41406 14.96L6.40234 14.9863L6.39062 15.0156L6.38184 15.042L6.37305 15.0723L6.36426 15.0986L6.3584 15.1279L6.34961 15.1572L6.34375 15.1846L6.34082 15.2139L6.33496 15.2432L6.33203 15.2754L6.3291 15.3057V15.335L6.32617 15.3672V15.4648L6.3291 15.4941L6.33203 15.5244L6.33496 15.5537L6.33789 15.5801L6.34375 15.6094L6.34668 15.6367L6.35254 15.666L6.36133 15.6924L6.36719 15.7217L6.37598 15.748L6.38184 15.7754L6.39355 15.8018L6.40234 15.8252L6.41406 15.8516L6.42578 15.8789L6.44922 15.9316L6.46484 15.9551L6.47949 15.9824L6.50879 16.0293L6.52637 16.0527L6.54102 16.0762L6.55859 16.0977L6.57617 16.1211L6.59375 16.1416L6.63477 16.1826L6.65527 16.2012L6.67676 16.2217L6.71777 16.2568L6.76465 16.292L6.78809 16.3105L6.83496 16.3398L6.86133 16.3545L6.88477 16.3691L6.91211 16.3838L6.99121 16.4189L7.02051 16.4307L7.04688 16.4395L7.07324 16.4521L7.09961 16.4609L7.12891 16.4668L7.15527 16.4756L7.18555 16.4814L7.21191 16.4873L7.27051 16.499L7.3584 16.5078L7.39062 16.5107L7.4209 16.5137H7.54688L7.5791 16.5107L7.60938 16.5078L7.6416 16.5049L7.6709 16.502L7.70312 16.499L7.73242 16.4961L7.79102 16.4844L7.81738 16.4785L7.84766 16.4727L7.87402 16.4639L7.90332 16.4551L7.92969 16.4463L7.95605 16.4365L7.98242 16.4277L8.00879 16.416L8.03809 16.4043L8.06445 16.3926L8.09473 16.3809L8.12109 16.3662L8.14746 16.3545L8.22656 16.3105L8.25 16.2949L8.27344 16.2803L8.29785 16.2627L8.32129 16.248L8.34473 16.2305L8.36523 16.2158L8.38867 16.1973L8.40918 16.1797V15.2197H7.43848V15.6514H7.86816V15.9199L7.84473 15.9346L7.82324 15.9463L7.79688 15.958L7.77344 15.9697L7.74707 15.9824L7.7207 15.9883L7.69141 15.9971L7.63281 16.0088L7.60352 16.0117L7.57031 16.0146L7.53809 16.0176H7.4707L7.43848 16.0146L7.40918 16.0117L7.37988 16.0059L7.34961 16L7.29102 15.9824L7.26465 15.9697L7.21191 15.9463L7.16504 15.917L7.1416 15.8994L7.11719 15.8818L7.09668 15.8643L7.0791 15.8428L7.05859 15.8223L7.04102 15.8018L7.02344 15.7783L7.00879 15.7549L6.99414 15.7305L6.97949 15.7041L6.96777 15.6777L6.95605 15.6484L6.94727 15.624L6.93848 15.5977L6.93262 15.5713L6.92578 15.5449L6.91992 15.5176L6.91699 15.4883L6.91406 15.4619L6.91211 15.4326V15.3643L6.91406 15.335L6.91699 15.3057L6.92285 15.2725L6.92969 15.2461L6.93555 15.2168L6.94434 15.1875L6.95605 15.1602L6.96484 15.1338L6.97656 15.1074L6.99121 15.084L7.00586 15.0576L7.02051 15.0332L7.03516 15.0127L7.05273 14.9893L7.07324 14.9688L7.09082 14.9482L7.11133 14.9297L7.15234 14.8945L7.17676 14.8799L7.22363 14.8506L7.25 14.8389L7.27637 14.8262L7.3291 14.8086L7.35547 14.8027L7.38477 14.7969L7.41211 14.7939L7.44141 14.791H7.50293L7.56738 14.7969L7.59668 14.7998L7.62695 14.8057L7.65625 14.8115L7.68262 14.8174L7.70898 14.8262L7.73535 14.8359L7.75879 14.8447L7.80566 14.8682L7.83203 14.8828L7.85645 14.8975L7.90332 14.9268L7.92676 14.9453L7.9502 14.96L7.97363 14.9805L7.99707 14.998L8.01465 14.9746L8.03516 14.9541L8.05273 14.9297L8.07422 14.9062L8.0918 14.8828L8.10938 14.8623L8.12988 14.8389L8.14746 14.8145L8.16797 14.791L8.18555 14.7705L8.20312 14.7471L8.22363 14.7236L8.24121 14.7021L8.25879 14.6787L8.2793 14.6553L8.29785 14.6318L8.31738 14.6113L8.33594 14.5869L8.3125 14.5693L8.28809 14.5488L8.24121 14.5137L8.21777 14.499L8.19434 14.4805L8.16797 14.4658L8.14453 14.4512L8.11816 14.4365L8.09473 14.4219L8.06836 14.4102L8.04102 14.3955L8.01465 14.3838L7.98828 14.3711L7.96191 14.3594L7.93555 14.3506L7.91211 14.3418L7.88574 14.3359L7.85938 14.3271L7.83203 14.3213L7.7793 14.3096L7.7207 14.2979L7.69434 14.2949L7.66211 14.2891L7.63281 14.2861H7.60352L7.57031 14.2832L7.53809 14.2803H7.41211ZM16.6865 14.2861L16.6279 14.292L16.5977 14.2949L16.5684 14.2979L16.542 14.3037L16.5127 14.3096L16.46 14.3213L16.4365 14.3271L16.4102 14.3359L16.3799 14.3477L16.3506 14.3564L16.3242 14.3682L16.2979 14.3838L16.2715 14.3955L16.2451 14.4102L16.2217 14.4248L16.1748 14.46L16.1543 14.4746L16.1299 14.4961L16.1094 14.5195L16.0889 14.54L16.0684 14.5635L16.0508 14.5869L16.0332 14.6113L16.0039 14.6641L15.9922 14.6904L15.9805 14.7178L15.9688 14.7441L15.9629 14.7705L15.9541 14.7969L15.9482 14.8232L15.9424 14.8506L15.9385 14.8799L15.9355 14.9062L15.9326 14.9355V15.0039L15.9355 15.0361L15.9385 15.0664L15.9424 15.0957L15.9482 15.1221L15.9541 15.1514L15.9629 15.1758L15.9717 15.2021L15.9805 15.2256L15.9922 15.2461L16.0068 15.2725L16.0215 15.2969L16.0361 15.3174L16.0713 15.3584L16.1123 15.3994L16.1328 15.418L16.1572 15.4326L16.1807 15.4502L16.207 15.4648L16.2305 15.4795L16.2598 15.4941L16.2861 15.5088L16.3154 15.5205L16.3447 15.5332L16.374 15.5449L16.4072 15.5566L16.4863 15.583L16.5156 15.5889L16.542 15.5977L16.5713 15.6064L16.6006 15.6123L16.6309 15.6211L16.6602 15.627L16.6924 15.6367L16.7217 15.6426L16.7539 15.6514L16.7832 15.6572L16.8125 15.666L16.8389 15.6719L16.8662 15.6807L16.8896 15.6865L16.9102 15.6924L16.9453 15.707L16.9746 15.7188L17.001 15.7305L17.0244 15.7422L17.0479 15.7607L17.0684 15.7783L17.084 15.7988L17.0957 15.8281L17.0986 15.8643V15.8701L17.0957 15.8994L17.0869 15.9258L17.0742 15.9492L17.0576 15.9697L17.0332 15.9883L17.0127 16L16.9893 16.0088L16.9365 16.0205L16.9072 16.0264L16.875 16.0293H16.8096L16.7773 16.0264H16.748L16.7188 16.0205L16.6865 16.0176L16.6279 16.0059L16.5977 16L16.5713 15.9912L16.5127 15.9736L16.4863 15.9609L16.46 15.9521L16.4072 15.9287L16.3799 15.917L16.3564 15.9023L16.3301 15.8906L16.3066 15.876L16.2803 15.8574L16.2568 15.8428L16.2305 15.8252L16.207 15.8076L16.1807 15.79L16.1572 15.7725L16.1387 15.7959L16.1182 15.8164L16.1006 15.8398L16.0801 15.8643L16.0625 15.8848L16.0449 15.9082L16.0244 15.9316L16.0068 15.9521L15.9863 15.9766L15.9688 15.9971L15.9482 16.0205L15.9307 16.0439L15.9121 16.0645L15.8916 16.0889L15.874 16.1123L15.8535 16.1328L15.8359 16.1562L15.8594 16.1768L15.8799 16.1943L15.9033 16.2129L15.9277 16.2305L15.9746 16.2656L16.0215 16.2949L16.0479 16.3105L16.0713 16.3252L16.0977 16.3398L16.124 16.3516L16.1514 16.3662L16.2041 16.3896L16.2334 16.4014L16.2598 16.4102L16.2891 16.4189L16.3154 16.4307L16.3447 16.4395L16.374 16.4492L16.4014 16.4551L16.4307 16.4639L16.5479 16.4873L16.5771 16.4902L16.6064 16.4961L16.6396 16.499L16.6982 16.5049H16.7305L16.7598 16.5078H16.8838L16.9131 16.5049L16.9453 16.502L16.9746 16.499L17.001 16.4961L17.0303 16.4932L17.0605 16.4873L17.1133 16.4756L17.1426 16.4697L17.1689 16.4609L17.2275 16.4434L17.2568 16.4307L17.2861 16.4189L17.3135 16.4043L17.3398 16.3926L17.3662 16.3779L17.3896 16.3604L17.4131 16.3457L17.4365 16.3281L17.457 16.3105L17.4805 16.2891L17.5186 16.251L17.5361 16.2305L17.5518 16.207L17.5693 16.1826L17.5986 16.1357L17.6104 16.1094L17.6221 16.0859L17.6338 16.0586L17.6426 16.0293L17.6484 16.0029L17.6572 15.9736L17.6631 15.9434L17.666 15.9111L17.6689 15.8818L17.6719 15.8486V15.7783L17.6689 15.7451L17.666 15.7158L17.6543 15.6572L17.6484 15.6299L17.6309 15.5771L17.6191 15.5537L17.6045 15.5273L17.5898 15.5029L17.5723 15.4766L17.5547 15.4531L17.5332 15.4326L17.5127 15.4082L17.4658 15.3672L17.4424 15.3525L17.4189 15.335L17.3955 15.3203L17.3691 15.3057L17.3428 15.29L17.3135 15.2754L17.2832 15.2637L17.2539 15.249L17.2217 15.2373L17.1689 15.2197L17.1396 15.2109L17.1133 15.2021L17.084 15.1934L17.0537 15.1846L17.0244 15.1787L16.9922 15.1699L16.9629 15.1602L16.9307 15.1543L16.8662 15.1367L16.833 15.1279L16.8037 15.1221L16.7773 15.1133L16.751 15.1074L16.7275 15.0986L16.7041 15.0928L16.6689 15.0811L16.6367 15.0693L16.6064 15.0576L16.583 15.042L16.5566 15.0273L16.5361 15.0068L16.5244 14.9893L16.5098 14.957L16.5068 14.918V14.9121L16.5098 14.8828L16.5215 14.8564L16.5391 14.8301L16.5654 14.8057L16.5859 14.7939L16.6094 14.7822L16.6367 14.7764L16.666 14.7705L16.6982 14.7646H16.7627L16.7891 14.7676L16.8184 14.7705L16.8486 14.7734L16.9365 14.791L16.9951 14.8086L17.0273 14.8174L17.0508 14.8301L17.0781 14.8389L17.1016 14.8506L17.1279 14.8623L17.1514 14.874L17.1777 14.8857L17.2012 14.9004L17.2275 14.9121L17.251 14.9297L17.2744 14.9453L17.3008 14.96L17.3252 14.9775L17.3428 14.9541L17.3574 14.9297L17.3926 14.8828L17.4102 14.8564L17.4248 14.833L17.4424 14.8086L17.46 14.7852L17.4746 14.7617L17.4922 14.7383L17.5098 14.7139L17.543 14.6641L17.5781 14.6172L17.5928 14.5928L17.6104 14.5693L17.54 14.5166L17.5156 14.502L17.4893 14.4834L17.4658 14.4688L17.4131 14.4395L17.3896 14.4277L17.3633 14.4131L17.334 14.4014L17.3066 14.3896L17.2803 14.3779L17.2539 14.3682L17.2246 14.3564L17.1982 14.3506L17.1719 14.3418L17.1426 14.333L17.1162 14.3271L17.0576 14.3154L17.0303 14.3096L17.001 14.3037L16.9688 14.3008L16.9395 14.2949L16.9072 14.292H16.8779L16.8447 14.2891L16.8125 14.2861H16.6865ZM9.53906 14.3066L9.51562 14.3594L9.50391 14.3867L9.49512 14.416L9.47168 14.4688L9.45996 14.4961L9.43652 14.5488L9.4248 14.5781L9.41211 14.6055L9.4043 14.6318L9.3916 14.6582L9.36816 14.7109L9.35645 14.7412L9.32129 14.8203L9.3125 14.8477L9.30078 14.874L9.28906 14.9033L9.27734 14.9297L9.26562 14.957L9.23047 15.0361L9.22168 15.0664L9.18652 15.1455L9.1748 15.1729L9.16211 15.1992L9.15039 15.2285L9.13867 15.2549L9.12988 15.2812L9.11816 15.3086L9.08301 15.3877L9.07129 15.418L9.04785 15.4707L9.03906 15.4971L9.02734 15.5244L9.01562 15.5508L9.00391 15.5801L8.98047 15.6328L8.96875 15.6602L8.95703 15.6865L8.94727 15.7129L8.93652 15.7422L8.92383 15.7695L8.88867 15.8486L8.87695 15.876L8.86523 15.9053L8.85645 15.9316L8.84473 15.958L8.83301 15.9854L8.80957 16.0381L8.79785 16.0674L8.78613 16.0947L8.77441 16.1211L8.76562 16.1475L8.75391 16.1738L8.74219 16.2012L8.73047 16.2305L8.71777 16.2568L8.70703 16.2832L8.69434 16.3105L8.68262 16.3369L8.67383 16.3633L8.66211 16.3926L8.65039 16.4189L8.63867 16.4463L8.62695 16.4727H9.22168L9.2334 16.4463L9.24219 16.4189L9.25391 16.3926L9.26562 16.3633L9.27441 16.3369L9.28613 16.3105L9.29785 16.2832L9.30664 16.2568L9.33008 16.2041L9.33887 16.1768L9.35059 16.1475L9.3623 16.1211L9.37109 16.0947L9.38281 16.0674H10.2275L10.2393 16.0947L10.248 16.1211L10.2598 16.1475L10.2715 16.1768L10.2803 16.2041L10.3037 16.2568L10.3125 16.2832L10.3252 16.3105L10.3369 16.3369L10.3457 16.3633L10.3574 16.3926L10.3691 16.4189L10.3779 16.4463L10.3896 16.4727H10.9951L10.9834 16.4463L10.9717 16.4189L10.96 16.3926L10.9512 16.3633L10.9277 16.3105L10.916 16.2832L10.8926 16.2305L10.8809 16.2012L10.8691 16.1738L10.8604 16.1475L10.8369 16.0947L10.8252 16.0674L10.8135 16.0381L10.79 15.9854L10.7773 15.958L10.7695 15.9316L10.7568 15.9053L10.7451 15.876L10.7334 15.8486L10.6982 15.7695L10.6865 15.7422L10.6777 15.7129L10.6543 15.6602L10.6426 15.6328L10.6191 15.5801L10.6074 15.5508L10.5957 15.5244L10.5869 15.4971L10.5635 15.4443L10.5508 15.418L10.5391 15.3877L10.5039 15.3086L10.4951 15.2812L10.4717 15.2285L10.46 15.1992L10.4482 15.1729L10.4365 15.1455L10.4131 15.0928L10.4043 15.0664L10.3926 15.0361L10.3574 14.957L10.3457 14.9297L10.334 14.9033L10.3213 14.874L10.3125 14.8477L10.3008 14.8203L10.2656 14.7412L10.2539 14.7109L10.2305 14.6582L10.2217 14.6318L10.21 14.6055L10.1982 14.5781L10.1865 14.5488L10.1631 14.4961L10.1514 14.4688L10.1396 14.4424L10.1309 14.416L10.1191 14.3867L10.1074 14.3594L10.0957 14.333L10.083 14.3066H9.53906ZM11.2344 14.3213V16.4727H11.7939V15.2061L11.8115 15.2295L11.8262 15.2568L11.8438 15.2803L11.8584 15.3066L11.876 15.3311L11.8906 15.3574L11.9082 15.3809L11.9229 15.4072L11.9404 15.4316L11.9551 15.458L11.9727 15.4814L11.9883 15.5088L12.0059 15.5322L12.0205 15.5586L12.0381 15.582L12.0527 15.6094L12.0703 15.6328L12.0879 15.6592L12.1025 15.6826L12.1201 15.71L12.1348 15.7334L12.1523 15.7598L12.167 15.7832L12.1846 15.8105L12.1992 15.834L12.2178 15.8604L12.2324 15.8838L12.25 15.9111L12.2646 15.9346L12.2822 15.9609L12.2969 15.9844L12.3145 16.0117L12.3291 16.0352L12.3467 16.0615H12.3584L12.373 16.0381L12.3906 16.0117L12.4053 15.9873L12.4238 15.9639L12.4375 15.9375L12.4561 15.9141L12.4707 15.8896L12.4854 15.8633L12.5029 15.8398L12.5176 15.8164L12.5352 15.792L12.5498 15.7656L12.5674 15.7422L12.582 15.7188L12.5967 15.6914L12.6143 15.668L12.6289 15.6445L12.6465 15.6182L12.6611 15.5938L12.6797 15.5703L12.6943 15.5439L12.709 15.5205L12.7266 15.4961L12.7412 15.4697L12.7588 15.4463L12.7734 15.4229L12.791 15.3984L12.8057 15.3721L12.8203 15.3486L12.8379 15.3252L12.8525 15.2979L12.8701 15.2744L12.8848 15.251L12.9023 15.2236L12.918 15.2002V16.4727H13.4854V14.3213H12.8818L12.8672 14.3447L12.8525 14.3711L12.835 14.3945L12.8203 14.4219L12.8057 14.4453L12.791 14.4717L12.7734 14.4951L12.7588 14.5215L12.7441 14.5459L12.7295 14.5693L12.7119 14.5957L12.6973 14.6191L12.6826 14.6455L12.667 14.6699L12.6494 14.6963L12.6201 14.7432L12.6055 14.7695L12.5908 14.793L12.5732 14.8203L12.5586 14.8438L12.5439 14.8701L12.5293 14.8936L12.5117 14.9199L12.4824 14.9668L12.4678 14.9941L12.4502 15.0176L12.4346 15.0439L12.4199 15.0674L12.4053 15.0938L12.3877 15.1182L12.373 15.1445L12.3584 15.168L12.3438 15.1445L12.3291 15.1182L12.3115 15.0938L12.2969 15.0674L12.2822 15.0439L12.2676 15.0176L12.2529 14.9941L12.2354 14.9668L12.2207 14.9434L12.2051 14.9199L12.1914 14.8936L12.1582 14.8438L12.1436 14.8203L12.1289 14.793L12.1143 14.7695L12.0996 14.7432L12.082 14.7197L12.0674 14.6963L12.0527 14.6699L12.0381 14.6455L12.0205 14.6191L12.0059 14.5957L11.9912 14.5693L11.9756 14.5459L11.9609 14.5215L11.9434 14.4951L11.9287 14.4717L11.9141 14.4453L11.8994 14.4219L11.8848 14.3945L11.8672 14.3711L11.8525 14.3447L11.8379 14.3213H11.2344ZM13.9199 14.3213V16.4727H15.6348V15.9854H14.4814V15.6182H15.5059V15.1602H14.4814V14.8086H15.6201V14.3213H13.9199ZM15.7861 5.40625C14.906 5.40633 14.4708 5.84388 14.4707 6.72852V11.3252C14.4708 12.2097 14.9061 12.6474 15.7861 12.6475H16.3232C17.2034 12.6473 17.6386 12.2097 17.6387 11.3252V9.66797H16.5762V11.2744C16.5761 11.5589 16.4439 11.6914 16.1709 11.6914H15.9688C15.6855 11.6914 15.5538 11.5589 15.5537 11.2744V6.7793C15.5538 6.49466 15.6855 6.3623 15.9688 6.3623H16.1504C16.4236 6.3623 16.5556 6.49466 16.5557 6.7793V8.17285H17.6182V6.71875C17.6182 5.83409 17.1928 5.40625 16.3125 5.40625H15.7861ZM6.35938 5.46777V12.5859H8.78809V11.5996H7.44238V9.4541H8.71777V8.46777H7.44238V6.4541H8.76855V5.46777H6.35938ZM9.3125 5.46777V12.5859H10.3955V10.0029H11.0127C11.893 10.0029 12.3279 9.56583 12.3281 8.68164V6.79004C12.3281 5.90522 11.8932 5.46777 11.0127 5.46777H9.3125ZM12.8164 5.46777V12.5859H13.8994V5.46777H12.8164Z"/></svg>