<svg width="24" height="24" viewBox="0 0 24 24" fill="currentColor" xmlns="http://www.w3.org/2000/svg"><path d="M17.2198 11.2472C17.1947 8.34254 15.6201 6.59222 12.9601 6.59222C11.1847 6.59222 9.69162 7.39522 8.90742 8.67504L10.6264 9.87328C11.0718 9.17065 11.6866 8.5872 12.8158 8.5872C14.0893 8.5872 14.7481 9.29611 14.9363 10.6136C14.3215 10.5195 13.7067 10.4693 13.073 10.4693C9.63514 10.4693 8.01656 12.0251 8.01656 14.0828C8.01656 16.1782 9.63514 17.4078 12.0191 17.4078C14.6351 17.4078 16.1972 15.6449 16.8372 13.4617C17.5022 13.7629 17.9601 14.4655 17.9601 15.5194C17.9601 18.3425 14.7042 19.8796 11.9438 19.8796C7.87229 19.8796 5.2123 17.207 5.2123 12.8595C5.2123 7.53326 8.73175 4.12046 13.462 4.12046C16.6364 4.12046 18.2048 5.51319 19.2713 7.38269L21.0279 6.15307C19.8673 3.7315 17.2763 2 13.3867 2C7.18847 2 2.97266 6.39774 2.97266 12.7779C2.97266 18.6123 7.10064 22 12.0191 22C16.0843 22 20.1935 19.6286 20.1935 15.5696C20.1935 13.4492 18.9764 12.0439 17.2198 11.2472ZM11.9438 15.2936C11.0467 15.2936 10.2562 14.867 10.2562 14.0828C10.2562 12.8469 11.7744 12.4705 13.2612 12.4705C13.8259 12.4705 14.3779 12.5081 14.8673 12.6148C14.516 14.2208 13.4745 15.2936 11.9438 15.2936Z"/></svg>