<svg width="24" height="24" viewBox="0 0 24 24" fill="currentColor" xmlns="http://www.w3.org/2000/svg"><path fill-rule="evenodd" clip-rule="evenodd" d="M4 3.5H14C14.2761 3.5 14.5 3.72386 14.5 4V5.75C14.5 6.16421 14.8358 6.5 15.25 6.5C15.6642 6.5 16 6.16421 16 5.75V4C16 2.89543 15.1046 2 14 2H4C2.89543 2 2 2.89543 2 4V14C2 15.1046 2.89543 16 4 16H5.75C6.16421 16 6.5 15.6642 6.5 15.25C6.5 14.8358 6.16421 14.5 5.75 14.5H4C3.72386 14.5 3.5 14.2761 3.5 14V4C3.5 3.72386 3.72386 3.5 4 3.5ZM9.86667 9.5H12.1504V12.1602H9.5V9.86667C9.5 9.66416 9.66416 9.5 9.86667 9.5ZM13.6504 8H12.1504H9.86667C8.83574 8 8 8.83574 8 9.86667V12.1602V13.6602V16.3477V17.8477V20.1339C8 21.1648 8.83574 22.0005 9.86667 22.0005H12.1504H13.6504H16.3535H17.8535H20.1376C21.1685 22.0005 22.0043 21.1648 22.0043 20.1339V17.8477V16.3477V13.6602V12.1602V9.86667C22.0043 8.83574 21.1685 8 20.1376 8H17.8535H16.3535H13.6504ZM16.3535 9.5H13.6504V12.1602H16.3535V9.5ZM16.3535 13.6602H13.6504V16.3477H16.3535V13.6602ZM17.8535 16.3477V13.6602H20.5043V16.3477H17.8535ZM16.3535 17.8477H13.6504V20.5005H16.3535V17.8477ZM17.8535 20.5005V17.8477H20.5043V20.1339C20.5043 20.3364 20.3401 20.5005 20.1376 20.5005H17.8535ZM17.8535 12.1602V9.5H20.1376C20.3401 9.5 20.5043 9.66416 20.5043 9.86667V12.1602H17.8535ZM12.1504 20.5005V17.8477H9.5V20.1339C9.5 20.3364 9.66416 20.5005 9.86667 20.5005H12.1504ZM12.1504 16.3477V13.6602H9.5V16.3477H12.1504Z"/></svg>