<svg width="24" height="24" viewBox="0 0 24 24" fill="currentColor" xmlns="http://www.w3.org/2000/svg"><path d="M19.25 2C19.6642 2 20 2.33579 20 2.75V6.5C20 6.79797 19.8238 7.06807 19.5508 7.1875L12 10.4902V13H13.25C13.6642 13 14 13.3358 14 13.75C14 14.1642 13.6642 14.5 13.25 14.5H12V20.5H14.75C15.1642 20.5 15.5 20.8358 15.5 21.25C15.5 21.6642 15.1642 22 14.75 22H7.75C7.33579 22 7 21.6642 7 21.25C7 20.8358 7.33579 20.5 7.75 20.5H10.5V14.5H4.75C4.33579 14.5 4 14.1642 4 13.75C4 13.3358 4.33579 13 4.75 13H10.5V10L10.5078 9.88965C10.5453 9.63683 10.7104 9.41699 10.9492 9.3125L18.5 6.00879V2.75C18.5 2.33579 18.8358 2 19.25 2Z"/></svg>