<svg width="24" height="24" viewBox="0 0 24 24" fill="currentColor" xmlns="http://www.w3.org/2000/svg"><path d="M4.5 3.75C4.5 3.33579 4.16421 3 3.75 3C3.33579 3 3 3.33579 3 3.75V20.25C3 20.6642 3.33579 21 3.75 21C4.16421 21 4.5 20.6642 4.5 20.25V3.75Z"/><path fill-rule="evenodd" clip-rule="evenodd" d="M7 9C7 7.89543 7.89543 7 9 7H15C16.1046 7 17 7.89543 17 9V15C17 16.1046 16.1046 17 15 17H9C7.89543 17 7 16.1046 7 15V9ZM9 8.5H15C15.2761 8.5 15.5 8.72386 15.5 9V15C15.5 15.2761 15.2761 15.5 15 15.5H9C8.72386 15.5 8.5 15.2761 8.5 15V9C8.5 8.72386 8.72386 8.5 9 8.5Z"/></svg>