<svg width="24" height="24" viewBox="0 0 24 24" fill="currentColor" xmlns="http://www.w3.org/2000/svg"><path d="M3.75 3C4.16421 3 4.5 3.33579 4.5 3.75V20.25C4.5 20.6642 4.16421 21 3.75 21C3.33579 21 3 20.6642 3 20.25V3.75C3 3.33579 3.33579 3 3.75 3Z"/><path fill-rule="evenodd" clip-rule="evenodd" d="M9 7C7.89543 7 7 7.89543 7 9V15C7 16.1046 7.89543 17 9 17H15C16.1046 17 17 16.1046 17 15V9C17 7.89543 16.1046 7 15 7H9ZM15 8.5H9C8.72386 8.5 8.5 8.72386 8.5 9V15C8.5 15.2761 8.72386 15.5 9 15.5H15C15.2761 15.5 15.5 15.2761 15.5 15V9C15.5 8.72386 15.2761 8.5 15 8.5Z"/><path d="M21 3.75C21 3.33579 20.6642 3 20.25 3C19.8358 3 19.5 3.33579 19.5 3.75V20.25C19.5 20.6642 19.8358 21 20.25 21C20.6642 21 21 20.6642 21 20.25V3.75Z"/></svg>