<svg width="24" height="24" viewBox="0 0 24 24" fill="currentColor" xmlns="http://www.w3.org/2000/svg"><path fill-rule="evenodd" clip-rule="evenodd" d="M16.3691 3.00977C16.827 3.0552 17.2577 3.25772 17.5859 3.58594L20.4141 6.41406C20.7891 6.78906 20.9999 7.2978 21 7.82812V19C21 20.0357 20.2128 20.887 19.2041 20.9893L19 21H5L4.7959 20.9893C3.85435 20.8938 3.1062 20.1457 3.01074 19.2041L3 19V5C3 3.89543 3.89543 3 5 3H16.1719L16.3691 3.00977ZM5 4.5C4.72386 4.5 4.5 4.72386 4.5 5V19C4.5 19.2761 4.72386 19.5 5 19.5H7V14L7.01074 13.7959C7.1062 12.8543 7.85435 12.1062 8.7959 12.0107L9 12H15L15.2041 12.0107C16.2128 12.113 17 12.9643 17 14V19.5H19C19.2761 19.5 19.5 19.2761 19.5 19V7.82812C19.4999 7.69563 19.4472 7.56831 19.3535 7.47461L17 5.12109V7.47461C17 8.51026 16.2128 9.3616 15.2041 9.46387L15 9.47461H9L8.7959 9.46387C7.85435 9.36841 7.1062 8.62026 7.01074 7.67871L7 7.47461V4.5H5ZM9 13.5C8.72386 13.5 8.5 13.7239 8.5 14V19.5H15.5V14C15.5 13.7239 15.2761 13.5 15 13.5H9ZM8.5 7.47461C8.5 7.75075 8.72386 7.97461 9 7.97461H15C15.2761 7.97461 15.5 7.75075 15.5 7.47461V4.5H8.5V7.47461Z"/></svg>