<svg width="24" height="24" viewBox="0 0 24 24" fill="currentColor" xmlns="http://www.w3.org/2000/svg"><path fill-rule="evenodd" clip-rule="evenodd" d="M2.21967 21.7803C1.92678 21.4874 1.92678 21.0126 2.21967 20.7197L20.7197 2.21967C21.0126 1.92678 21.4874 1.92678 21.7803 2.21967C22.0732 2.51256 22.0732 2.98744 21.7803 3.28033L19.1104 5.95026L19.9713 6.42854C20.6062 6.78128 21.0086 7.45386 20.9648 8.17887C20.469 16.3818 14.8743 20.3731 12.7827 21.5863C12.2932 21.8702 11.7069 21.8702 11.2173 21.5863C10.2651 21.034 8.58678 19.9058 6.99408 18.0666L3.28033 21.7803C2.98744 22.0732 2.51256 22.0732 2.21967 21.7803ZM8.05746 17.0032C9.52478 18.7244 11.086 19.776 11.97 20.2888C11.9877 20.2991 11.9973 20.2993 12 20.2993C12.0028 20.2993 12.0124 20.2991 12.0301 20.2888C13.941 19.1803 19.0163 15.5541 19.4675 8.08837C19.4736 7.98835 19.4172 7.83666 19.2428 7.73977L18.0073 7.05336L8.05746 17.0032Z"/><path d="M5.22553 15.5954L6.32781 14.4931C5.39271 12.7781 4.68801 10.6613 4.5325 8.08837C4.52646 7.98834 4.5828 7.83666 4.75719 7.73978L11.7572 3.85088C11.9082 3.76699 12.0918 3.76699 12.2428 3.85089L15.2818 5.53917L16.3849 4.43607L12.9713 2.53965C12.3673 2.20407 11.6328 2.20407 11.0287 2.53965L4.02872 6.42854C3.39379 6.78128 2.99141 7.45386 3.03524 8.17887C3.2177 11.1976 4.0907 13.646 5.22553 15.5954Z"/></svg>