<svg width="24" height="24" viewBox="0 0 24 24" fill="currentColor" xmlns="http://www.w3.org/2000/svg"><path d="M7.75513 7C7.34091 7 7.00513 6.66421 7.00513 6.25V5C7.00513 3.89543 7.90056 3 9.00513 3H19.0051C20.1097 3 21.0051 3.89543 21.0051 5V19C21.0051 20.1046 20.1097 21 19.0051 21H9.00513C7.90056 21 7.00513 20.1046 7.00513 19V17.75C7.00513 17.3358 7.34091 17 7.75513 17C8.16934 17 8.50513 17.3358 8.50513 17.75V19C8.50513 19.2761 8.72899 19.5 9.00513 19.5H19.0051C19.2813 19.5 19.5051 19.2761 19.5051 19V5C19.5051 4.72386 19.2813 4.5 19.0051 4.5L9.00513 4.5C8.72898 4.5 8.50513 4.72386 8.50513 5V6.25C8.50513 6.66421 8.16934 7 7.75513 7Z"/><path d="M6.53553 9.28033C6.82843 8.98744 6.82843 8.51256 6.53553 8.21967C6.24264 7.92678 5.76777 7.92678 5.47487 8.21967L2.21967 11.4749C1.92678 11.7678 1.92678 12.2426 2.21967 12.5355L5.47487 15.7907C5.76777 16.0836 6.24264 16.0836 6.53553 15.7907C6.82843 15.4978 6.82843 15.023 6.53553 14.7301L4.55546 12.75L14.25 12.75C14.6642 12.75 15 12.4142 15 12C15 11.5858 14.6642 11.25 14.25 11.25L4.56586 11.25L6.53553 9.28033Z"/></svg>