<svg width="24" height="24" viewBox="0 0 24 24" fill="currentColor" xmlns="http://www.w3.org/2000/svg"><path d="M3.75 16C4.16413 16 4.49987 16.3359 4.5 16.75V20.25C4.49982 20.6641 4.1641 21 3.75 21C3.3359 21 3.00018 20.6641 3 20.25V16.75C3.00013 16.3359 3.33587 16 3.75 16Z"/><path d="M9.25 11.666C9.66402 11.666 9.99969 12.0021 10 12.416V20.25C9.99982 20.6641 9.6641 21 9.25 21C8.8359 21 8.50018 20.6641 8.5 20.25V12.416C8.50031 12.0021 8.83598 11.666 9.25 11.666Z"/><path d="M14.75 7.33301C15.1641 7.33301 15.4999 7.66891 15.5 8.08301V20.25C15.4998 20.6641 15.1641 21 14.75 21C14.3359 21 14.0002 20.6641 14 20.25V8.08301C14.0001 7.66891 14.3359 7.33301 14.75 7.33301Z"/></svg>