<svg width="24" height="24" viewBox="0 0 24 24" fill="currentColor" xmlns="http://www.w3.org/2000/svg"><path d="M21.2803 16.7803L17.2803 20.7803C16.9874 21.0732 16.5126 21.0732 16.2197 20.7803L12.2197 16.7803C11.9268 16.4874 11.9268 16.0126 12.2197 15.7197C12.5126 15.4268 12.9874 15.4268 13.2803 15.7197L16 18.4393V3.75C16 3.33579 16.3358 3 16.75 3C17.1642 3 17.5 3.33579 17.5 3.75V18.4393L20.2197 15.7197C20.5126 15.4268 20.9874 15.4268 21.2803 15.7197C21.5732 16.0126 21.5732 16.4874 21.2803 16.7803Z"/><path d="M7.78033 3.21967C7.48744 2.92678 7.01256 2.92678 6.71967 3.21967L2.71967 7.21967C2.42678 7.51256 2.42678 7.98744 2.71967 8.28033C3.01256 8.57322 3.48744 8.57322 3.78033 8.28033L6.5 5.56066V20.25C6.5 20.6642 6.83579 21 7.25 21C7.66421 21 8 20.6642 8 20.25V5.56066L10.7197 8.28033C11.0126 8.57322 11.4874 8.57322 11.7803 8.28033C12.0732 7.98744 12.0732 7.51256 11.7803 7.21967L7.78033 3.21967Z"/></svg>