<svg width="24" height="24" viewBox="0 0 24 24" fill="currentColor" xmlns="http://www.w3.org/2000/svg"><path d="M20.7354 2.20517C21.0292 1.9272 21.4924 1.93196 21.7803 2.21982C22.073 2.51272 22.0731 2.98752 21.7803 3.28037L15.7861 9.27356C15.8882 10.5029 16.1134 11.6501 16.4395 12.7521C16.6396 10.6622 17.0935 8.92443 18.416 7.28039C18.6041 7.04662 18.9132 6.94669 19.2021 7.02745C19.491 7.10827 19.7036 7.35415 19.7432 7.65148C19.8997 8.82762 20.031 9.50205 20.2617 10.0177C20.4533 10.4458 20.7327 10.8029 21.2666 11.2501H22.25C22.6642 11.2501 23 11.5859 23 12.0001C22.9999 12.4143 22.6642 12.7501 22.25 12.7501H21C20.8314 12.7501 20.6675 12.6934 20.5352 12.589C19.7622 11.9785 19.241 11.4095 18.8926 10.631C18.7815 10.3827 18.6906 10.1181 18.6133 9.83313C17.9467 11.4104 17.8712 13.2725 17.7588 16.0519C17.7557 16.1273 17.7521 16.2036 17.749 16.2804C17.735 16.6249 17.4881 16.9154 17.1504 16.9845C16.8126 17.0536 16.4715 16.8837 16.3232 16.5724C15.432 14.7003 14.7571 12.7747 14.4346 10.6251L13.9473 11.1124C13.8664 11.4199 13.7945 11.734 13.7354 12.0597C13.4146 13.8255 13.4027 15.9701 13.7461 19.1701C13.7835 19.5198 13.5726 19.8489 13.2393 19.9611C12.9058 20.0732 12.5389 19.9382 12.3574 19.6369L12.3438 19.6144C11.3205 17.9144 10.5063 16.5599 10.0029 15.0568L3.28027 21.7804C2.98741 22.0732 2.51259 22.0732 2.21973 21.7804C1.93177 21.4925 1.92683 21.0284 2.20508 20.7345C2.21011 20.7298 2.21675 20.7258 2.22168 20.7209L20.7217 2.22079C20.7266 2.21588 20.7306 2.21018 20.7354 2.20517ZM11.2129 13.8468C11.3913 14.5805 11.6537 15.2608 12.0059 15.9796C11.9705 14.8593 12.0015 13.8701 12.0957 12.964L11.2129 13.8468ZM10.3662 4.34873C10.5592 4.04398 10.9422 3.91952 11.2773 4.05283C11.6124 4.18619 11.8053 4.53967 11.7363 4.89366C11.3434 6.90704 11.1037 8.50157 10.998 9.82141L9.43848 11.381C9.4328 10.4404 9.50614 9.38896 9.66602 8.16906C9.43052 8.57007 9.21153 8.98599 9.00781 9.44543C8.61633 10.3284 8.28933 11.3709 8.06348 12.756L5.68945 15.13C5.29853 14.2073 4.99276 13.3886 4.76758 12.5138C4.56988 11.7457 4.43603 10.9442 4.35352 9.99915C4.34762 10.0115 4.34172 10.0239 4.33594 10.0363C4.0839 10.5739 3.92007 11.1768 3.7373 12.1398C3.67006 12.4937 3.36023 12.7501 3 12.7501H1.75C1.33585 12.7501 1.0001 12.4143 1 12.0001C1.00001 11.5859 1.3358 11.2501 1.75 11.2501H2.38672C2.54165 10.5406 2.71594 9.95757 2.97754 9.39953C3.31076 8.68878 3.7663 8.05878 4.42383 7.26964C4.62464 7.02885 4.95435 6.93861 5.25 7.04308C5.54556 7.14761 5.74509 7.42493 5.75 7.73839C5.78042 9.72193 5.92454 10.9928 6.21973 12.1398C6.30042 12.4533 6.39292 12.7604 6.49902 13.0724C6.73964 11.308 7.13133 9.97691 7.63672 8.83703C8.17157 7.63089 8.84624 6.63075 9.53809 5.6046C9.8141 5.19521 10.0924 4.7811 10.3662 4.34873Z"/></svg>