<svg width="24" height="24" viewBox="0 0 24 24" fill="currentColor" xmlns="http://www.w3.org/2000/svg"><path fill-rule="evenodd" clip-rule="evenodd" d="M8.5 14.5C11.5376 14.5 14 16.9624 14 20C14 21.1046 13.1046 22 12 22H5C3.89543 22 3 21.1046 3 20C3 16.9624 5.46243 14.5 8.5 14.5ZM8.5 16C6.29086 16 4.5 17.7909 4.5 20C4.5 20.2761 4.72386 20.5 5 20.5H12C12.2761 20.5 12.5 20.2761 12.5 20C12.5 17.7909 10.7091 16 8.5 16Z"/><path d="M18.3008 2.97558C18.637 2.78145 19.0608 2.87736 19.2832 3.18554L19.3252 3.24999L19.5254 3.60937C20.4927 5.41989 21 7.44304 21 9.49999C21 11.6942 20.4223 13.8498 19.3252 15.75C19.1181 16.1087 18.6595 16.2315 18.3008 16.0244C17.9421 15.8173 17.8193 15.3587 18.0264 15C18.9918 13.3278 19.5 11.4309 19.5 9.49999C19.5 7.68989 19.0534 5.90965 18.2021 4.3164L18.0264 3.99999L17.9912 3.93163C17.8354 3.58493 17.9645 3.16975 18.3008 2.97558Z"/><path d="M14.4033 5.22558C14.7397 5.03139 15.1644 5.12713 15.3867 5.43554L15.4277 5.49999L15.5557 5.72948C16.175 6.88838 16.5 8.1833 16.5 9.49999C16.5 10.9043 16.1299 12.2838 15.4277 13.5C15.2206 13.8586 14.762 13.9815 14.4033 13.7744C14.0449 13.5672 13.922 13.1086 14.1289 12.75C14.6994 11.7619 15 10.641 15 9.49999C15 8.50171 14.7697 7.519 14.3301 6.62695L14.1289 6.24999L14.0938 6.18163C13.9381 5.83505 14.0673 5.41979 14.4033 5.22558Z"/><path fill-rule="evenodd" clip-rule="evenodd" d="M8.5 5.99999C10.433 5.99999 12 7.567 12 9.49999C12 11.433 10.433 13 8.5 13C6.56701 13 5 11.433 5 9.49999C5 7.567 6.567 5.99999 8.5 5.99999ZM8.5 7.49999C7.39543 7.49999 6.5 8.39542 6.5 9.49999C6.5 10.6046 7.39543 11.5 8.5 11.5C9.60457 11.5 10.5 10.6046 10.5 9.49999C10.5 8.39542 9.60457 7.49999 8.5 7.49999Z"/></svg>