<svg width="24" height="24" viewBox="0 0 24 24" fill="currentColor" xmlns="http://www.w3.org/2000/svg"><path fill-rule="evenodd" clip-rule="evenodd" d="M5 4.5C4.72386 4.5 4.5 4.72386 4.5 5V6.25C4.5 6.66421 4.16421 7 3.75 7C3.33579 7 3 6.66421 3 6.25V5C3 3.89543 3.89543 3 5 3H6.25C6.66421 3 7 3.33579 7 3.75C7 4.16421 6.66421 4.5 6.25 4.5H5ZM10 3.75C10 3.33579 10.3358 3 10.75 3H13.25C13.6642 3 14 3.33579 14 3.75C14 4.16421 13.6642 4.5 13.25 4.5H10.75C10.3358 4.5 10 4.16421 10 3.75ZM17 3.75C17 3.33579 17.3358 3 17.75 3H19C20.1046 3 21 3.89543 21 5V6.25749C21 6.6717 20.6642 7.00749 20.25 7.00749C19.8358 7.00749 19.5 6.6717 19.5 6.25749V5C19.5 4.72386 19.2761 4.5 19 4.5H17.75C17.3358 4.5 17 4.16421 17 3.75ZM20.25 10C20.6642 10 21 10.3358 21 10.75V13.25C21 13.6642 20.6642 14 20.25 14C19.8358 14 19.5 13.6642 19.5 13.25V10.75C19.5 10.3358 19.8358 10 20.25 10ZM3.75 10C4.16421 10 4.5 10.3358 4.5 10.75V13.25C4.5 13.6642 4.16421 14 3.75 14C3.33579 14 3 13.6642 3 13.25V10.75C3 10.3358 3.33579 10 3.75 10ZM20.25 17C20.6642 17 21 17.3358 21 17.75V19C21 20.1046 20.1046 21 19 21H17.75C17.3358 21 17 20.6642 17 20.25C17 19.8358 17.3358 19.5 17.75 19.5H19C19.2761 19.5 19.5 19.2761 19.5 19V17.75C19.5 17.3358 19.8358 17 20.25 17ZM3.75 17C4.16421 17 4.5 17.3358 4.5 17.75V19C4.5 19.2761 4.72386 19.5 5 19.5H6.25C6.66421 19.5 7 19.8358 7 20.25C7 20.6642 6.66421 21 6.25 21H5C3.89543 21 3 20.1046 3 19V17.75C3 17.3358 3.33579 17 3.75 17ZM10 20.25C10 19.8358 10.3358 19.5 10.75 19.5H13.25C13.6642 19.5 14 19.8358 14 20.25C14 20.6642 13.6642 21 13.25 21H10.75C10.3358 21 10 20.6642 10 20.25Z"/></svg>