<svg width="24" height="24" viewBox="0 0 24 24" fill="currentColor" xmlns="http://www.w3.org/2000/svg"><path d="M5.28249 4.22187C5.57538 4.51476 5.57538 4.98963 5.28249 5.28253C4.40033 6.16468 3.70056 7.21196 3.22315 8.36455C2.74573 9.51714 2.5 10.7525 2.5 12C2.5 13.2476 2.74572 14.4829 3.22314 15.6355C3.70056 16.7881 4.40033 17.8354 5.28249 18.7176C5.57538 19.0105 5.57538 19.4853 5.28249 19.7782C4.98959 20.0711 4.51472 20.0711 4.22183 19.7782C3.20038 18.7568 2.39013 17.5441 1.83732 16.2096C1.28452 14.875 1 13.4446 1 12C1 10.5555 1.28452 9.12511 1.83733 7.79052C2.39013 6.45594 3.20038 5.24331 4.22183 4.22187C4.51472 3.92897 4.98959 3.92897 5.28249 4.22187Z"/><path d="M8.11091 7.05029C8.40381 7.34319 8.40381 7.81806 8.11091 8.11096C7.60019 8.62168 7.19506 9.22799 6.91866 9.89528C6.64226 10.5626 6.5 11.2778 6.5 12C6.5 12.7223 6.64226 13.4375 6.91866 14.1048C7.19506 14.7721 7.60019 15.3784 8.11091 15.8891C8.40381 16.182 8.40381 16.6569 8.11091 16.9498C7.81802 17.2427 7.34315 17.2427 7.05025 16.9498C6.40024 16.2998 5.88463 15.5281 5.53284 14.6788C5.18106 13.8295 5 12.9193 5 12C5 11.0808 5.18106 10.1705 5.53284 9.32126C5.88463 8.47198 6.40024 7.7003 7.05025 7.05029C7.34315 6.7574 7.81802 6.7574 8.11091 7.05029Z"/><path d="M15 12C15 13.6569 13.6569 15 12 15C10.3431 15 9 13.6569 9 12C9 10.3432 10.3431 9.00004 12 9.00004C13.6569 9.00004 15 10.3432 15 12Z"/><path d="M15.8891 15.8891C15.5962 16.182 15.5962 16.6569 15.8891 16.9498C16.182 17.2427 16.6569 17.2427 16.9497 16.9498C17.5998 16.2998 18.1154 15.5281 18.4672 14.6788C18.8189 13.8295 19 12.9193 19 12C19 11.0808 18.8189 10.1705 18.4672 9.32126C18.1154 8.47198 17.5998 7.70031 16.9497 7.0503C16.6569 6.7574 16.182 6.7574 15.8891 7.0503C15.5962 7.34319 15.5962 7.81806 15.8891 8.11096C16.3998 8.62168 16.8049 9.22799 17.0813 9.89528C17.3577 10.5626 17.5 11.2778 17.5 12C17.5 12.7223 17.3577 13.4375 17.0813 14.1048C16.8049 14.7721 16.3998 15.3784 15.8891 15.8891Z"/><path d="M18.7175 18.7176C18.4246 19.0105 18.4246 19.4853 18.7175 19.7782C19.0104 20.0711 19.4853 20.0711 19.7782 19.7782C20.7996 18.7568 21.6099 17.5441 22.1627 16.2096C22.7155 14.875 23 13.4446 23 12C23 10.5555 22.7155 9.12511 22.1627 7.79053C21.6099 6.45595 20.7996 5.24331 19.7782 4.22187C19.4853 3.92898 19.0104 3.92898 18.7175 4.22187C18.4246 4.51476 18.4246 4.98964 18.7175 5.28253C19.5997 6.16469 20.2994 7.21196 20.7769 8.36455C21.2543 9.51715 21.5 10.7525 21.5 12C21.5 13.2476 21.2543 14.4829 20.7769 15.6355C20.2994 16.7881 19.5997 17.8354 18.7175 18.7176Z"/></svg>