<svg width="24" height="24" viewBox="0 0 24 24" fill="currentColor" xmlns="http://www.w3.org/2000/svg"><path fill-rule="evenodd" clip-rule="evenodd" d="M8.3857 1.18107C9.37087 0.915929 10.4135 0.94333 11.3857 1.26212L11.5791 1.32951C12.5349 1.6848 13.3686 2.31111 13.9755 3.13419L14.0937 3.30118C14.6666 4.14505 14.9818 5.13974 14.999 6.16251V6.36661C14.9808 7.18544 14.7674 7.98489 14.3857 8.70548C14.5329 8.86126 14.6586 9.03802 14.7568 9.23087C15.0563 9.08326 15.3935 9.00044 15.75 9.0004C16.7875 9.00044 17.6617 9.70254 17.9218 10.6576C18.1781 10.5561 18.4576 10.5004 18.75 10.5004C19.9926 10.5005 21 11.5078 21 12.7504V14.7748C20.9998 19.3172 17.3177 23.0001 12.7754 23.0004C9.57193 23.0004 6.65961 21.1401 5.31246 18.2338L3.21871 13.7162C2.68614 12.5666 3.1922 11.2035 4.34566 10.6791C5.46323 10.1712 6.78186 10.6379 7.33102 11.7358L7.49996 12.0736V10.9916C6.70298 10.6133 6.01195 10.0415 5.4941 9.32462L5.37789 9.15665C4.77392 8.24797 4.46811 7.17297 4.50289 6.08244L4.51266 5.87833C4.58492 4.86105 4.95287 3.88466 5.57223 3.07072L5.69918 2.91056C6.34787 2.12377 7.21298 1.54172 8.18941 1.23771L8.3857 1.18107ZM9.74996 5.5004C9.33584 5.50052 8.99996 5.83626 8.99996 6.2504V15.2338C9.00072 15.2705 8.99868 15.308 8.9941 15.3442C8.96648 15.5649 8.84335 15.7564 8.66695 15.8744C8.59375 15.9234 8.51114 15.9601 8.42281 15.9809C8.33467 16.0017 8.24441 16.0055 8.15719 15.9945C7.93626 15.9671 7.74411 15.8429 7.62594 15.6664C7.6059 15.6364 7.58784 15.6045 7.57223 15.5717L5.9902 12.4067C5.80194 12.0301 5.349 11.8702 4.96578 12.0443C4.57054 12.2242 4.39762 12.6913 4.58004 13.0854L6.67281 17.6029C7.77424 19.9794 10.156 21.5004 12.7754 21.5004C16.4893 21.5001 19.4998 18.4887 19.5 14.7748V12.7504C19.5 12.3362 19.1641 12.0005 18.75 12.0004C18.3358 12.0005 18 12.3363 18 12.7504V13.2504C17.9998 13.6644 17.664 14.0004 17.25 14.0004C16.836 14.0003 16.5001 13.6644 16.5 13.2504V11.2504C16.5 10.8362 16.1641 10.5005 15.75 10.5004C15.3358 10.5005 15 10.8363 15 11.2504V12.7504C14.9998 13.1644 14.664 13.5004 14.25 13.5004C13.836 13.5003 13.5001 13.1644 13.5 12.7504V10.2504C13.5 9.83622 13.1641 9.50045 12.75 9.5004C12.3358 9.50051 12 9.83626 12 10.2504V12.2504C11.9998 12.6644 11.664 13.0004 11.25 13.0004C10.836 13.0003 10.5001 12.6644 10.5 12.2504V6.2504C10.5 5.83622 10.1641 5.50045 9.74996 5.5004ZM10.9179 2.68693C10.27 2.47456 9.57824 2.44348 8.91695 2.59415L8.6357 2.66935C7.98462 2.872 7.40258 3.24811 6.95113 3.75431L6.76559 3.9799C6.35279 4.52256 6.09659 5.16611 6.02242 5.84025L6.00191 6.13029C5.97709 6.90921 6.19552 7.67754 6.62691 8.32658L6.79781 8.5629C7.0011 8.82239 7.23799 9.05191 7.49996 9.24845V6.2504C7.49996 5.00783 8.50742 4.00052 9.74996 4.0004C10.9926 4.00045 12 5.00779 12 6.2504V8.12833C12.2345 8.04544 12.4871 8.00043 12.75 8.0004C12.8523 8.00041 12.953 8.00671 13.0517 8.01994C13.3071 7.54373 13.4601 7.01906 13.4931 6.47892L13.499 6.18693C13.4874 5.50526 13.2904 4.84145 12.9316 4.26603L12.7685 4.02482C12.3637 3.47589 11.8176 3.04926 11.1914 2.78849L10.9179 2.68693Z"/></svg>