<svg width="24" height="24" viewBox="0 0 24 24" fill="currentColor" xmlns="http://www.w3.org/2000/svg"><path d="M16.25 14.5C16.6642 14.5 17 14.8358 17 15.25C17 15.6642 16.6642 16 16.25 16H12.75C12.3358 16 12 15.6642 12 15.25C12 14.8358 12.3358 14.5 12.75 14.5H16.25Z"/><path d="M7.21973 8.21973C7.51261 7.92684 7.98738 7.92686 8.28027 8.21973L11.5303 11.4697C11.8232 11.7626 11.8232 12.2374 11.5303 12.5303L8.28027 15.7803L8.22363 15.832C7.92905 16.0723 7.4943 16.0548 7.21973 15.7803C6.94518 15.5057 6.92775 15.0709 7.16797 14.7764L7.21973 14.7197L9.93945 12L7.21973 9.28027C6.92689 8.98741 6.92693 8.51262 7.21973 8.21973Z"/><path fill-rule="evenodd" clip-rule="evenodd" d="M19.2041 3.01074C20.2128 3.113 21 3.96435 21 5V19L20.9893 19.2041C20.8938 20.1457 20.1457 20.8938 19.2041 20.9893L19 21H5L4.7959 20.9893C3.85435 20.8938 3.1062 20.1457 3.01074 19.2041L3 19V5C3 3.96435 3.78722 3.113 4.7959 3.01074L5 3H19L19.2041 3.01074ZM5 4.5C4.72386 4.5 4.5 4.72386 4.5 5V19C4.5 19.2761 4.72386 19.5 5 19.5H19C19.2761 19.5 19.5 19.2761 19.5 19V5C19.5 4.72386 19.2761 4.5 19 4.5H5Z"/></svg>