<svg width="24" height="24" viewBox="0 0 24 24" fill="currentColor" xmlns="http://www.w3.org/2000/svg"><path d="M15.5355 5.3856C14.0052 4.56765 12.2386 4.30561 10.5368 4.64412C8.835 4.98264 7.3032 5.90076 6.20242 7.24206C5.22552 8.43242 4.64174 9.89069 4.52271 11.4166L5.71967 10.2197C6.01256 9.92679 6.48744 9.92679 6.78033 10.2197C7.07322 10.5126 7.07322 10.9875 6.78033 11.2803L4.28033 13.7803C3.98744 14.0732 3.51256 14.0732 3.21967 13.7803L0.71967 11.2803C0.426777 10.9875 0.426777 10.5126 0.71967 10.2197C1.01256 9.92679 1.48744 9.92679 1.78033 10.2197L3.01646 11.4558C3.13076 9.56826 3.83741 7.75937 5.04291 6.29047C6.36384 4.68091 8.202 3.57916 10.2442 3.17295C12.2864 2.76673 14.4062 3.08118 16.2426 4.06272C18.0789 5.04426 19.5181 6.63216 20.3149 8.55586C21.1117 10.4796 21.2169 12.62 20.6125 14.6126C20.008 16.6051 18.7314 18.3264 17.0001 19.4832C15.2688 20.64 13.19 21.1608 11.1178 20.9567C9.04567 20.7526 7.10837 19.8363 5.63604 18.364C5.34315 18.0711 5.34315 17.5962 5.63604 17.3033C5.92893 17.0104 6.40381 17.0104 6.6967 17.3033C7.92365 18.5303 9.53806 19.2938 11.2649 19.4639C12.9917 19.634 14.724 19.2 16.1668 18.236C17.6095 17.272 18.6734 15.8376 19.177 14.1771C19.6807 12.5167 19.5931 10.733 18.9291 9.12989C18.2651 7.52681 17.0658 6.20356 15.5355 5.3856Z"/><path d="M12 6.00001C12.4142 6.00001 12.75 6.3358 12.75 6.75001V11.6894L14.7803 13.7197C15.0732 14.0126 15.0732 14.4875 14.7803 14.7803C14.4874 15.0732 14.0126 15.0732 13.7197 14.7803L11.4697 12.5303C11.329 12.3897 11.25 12.1989 11.25 12V6.75001C11.25 6.3358 11.5858 6.00001 12 6.00001Z"/></svg>