<svg width="24" height="24" viewBox="0 0 24 24" fill="currentColor" xmlns="http://www.w3.org/2000/svg"><path fill-rule="evenodd" clip-rule="evenodd" d="M20 5.5H4C3.72386 5.5 3.5 5.72386 3.5 6V18C3.5 18.2761 3.72386 18.5 4 18.5H20C20.2761 18.5 20.5 18.2761 20.5 18V6C20.5 5.72386 20.2761 5.5 20 5.5ZM4 4C2.89543 4 2 4.89543 2 6V18C2 19.1046 2.89543 20 4 20H20C21.1046 20 22 19.1046 22 18V6C22 4.89543 21.1046 4 20 4H4Z"/><path fill-rule="evenodd" clip-rule="evenodd" d="M9.5 15.4641L15.5 12L9.5 8.53594L9.5 15.4641ZM16.25 13.2991C17.25 12.7217 17.25 11.2784 16.25 10.701L10.25 7.2369C9.25 6.65955 8 7.38124 8 8.53594V15.4641C8 16.6188 9.25 17.3405 10.25 16.7632L16.25 13.2991Z"/></svg>