<svg width="24" height="24" viewBox="0 0 24 24" fill="currentColor" xmlns="http://www.w3.org/2000/svg"><path d="M11 13.75C11.2564 13.75 11.4951 13.8813 11.6328 14.0977L12.71 15.7891L14.4023 16.8672C14.6187 17.0049 14.75 17.2436 14.75 17.5C14.75 17.7564 14.6187 17.9951 14.4023 18.1328L12.71 19.21L11.6328 20.9023C11.4951 21.1187 11.2564 21.25 11 21.25C10.7436 21.25 10.5049 21.1187 10.3672 20.9023L9.28906 19.21L7.59766 18.1328C7.38132 17.9951 7.25 17.7564 7.25 17.5C7.25 17.2436 7.38132 17.0049 7.59766 16.8672L9.28906 15.7891L10.3672 14.0977C10.5049 13.8813 10.7436 13.75 11 13.75ZM10.4658 16.7363C10.407 16.8287 10.3287 16.907 10.2363 16.9658L9.39648 17.5L10.2363 18.0342L10.3027 18.082C10.3665 18.1332 10.4217 18.1944 10.4658 18.2637L11 19.1025L11.5342 18.2637L11.582 18.1973C11.6332 18.1335 11.6944 18.0783 11.7637 18.0342L12.6025 17.5L11.7637 16.9658C11.6713 16.907 11.593 16.8287 11.5342 16.7363L11 15.8965L10.4658 16.7363ZM17 7.25C17.2564 7.25 17.4951 7.38132 17.6328 7.59766L18.9043 9.59473L20.9023 10.8672C21.1187 11.0049 21.25 11.2436 21.25 11.5C21.25 11.7564 21.1187 11.9951 20.9023 12.1328L18.9043 13.4043L17.6328 15.4023C17.4951 15.6187 17.2564 15.75 17 15.75C16.7436 15.75 16.5049 15.6187 16.3672 15.4023L15.0947 13.4043L13.0977 12.1328C12.8813 11.9951 12.75 11.7564 12.75 11.5C12.75 11.2436 12.8813 11.0049 13.0977 10.8672L15.0947 9.59473L16.3672 7.59766C16.5049 7.38132 16.7436 7.25 17 7.25ZM16.2715 10.542C16.2127 10.6343 16.1343 10.7127 16.042 10.7715L14.8965 11.5L16.042 12.2285L16.1084 12.2764C16.1721 12.3275 16.2274 12.3888 16.2715 12.458L17 13.6025L17.7285 12.458L17.7764 12.3916C17.8275 12.3279 17.8888 12.2726 17.958 12.2285L19.1025 11.5L17.958 10.7715C17.8657 10.7127 17.7873 10.6343 17.7285 10.542L17 9.39648L16.2715 10.542ZM8 2.75C8.25643 2.75 8.49514 2.88132 8.63281 3.09766L10.293 5.70605L12.9023 7.36719C13.1187 7.50486 13.25 7.74357 13.25 8C13.25 8.25643 13.1187 8.49514 12.9023 8.63281L10.293 10.293L8.63281 12.9023C8.49514 13.1187 8.25643 13.25 8 13.25C7.74357 13.25 7.50486 13.1187 7.36719 12.9023L5.70605 10.293L3.09766 8.63281C2.88132 8.49514 2.75 8.25643 2.75 8C2.75 7.74357 2.88132 7.50486 3.09766 7.36719L5.70605 5.70605L7.36719 3.09766C7.50486 2.88132 7.74357 2.75 8 2.75ZM6.88281 6.65234C6.82388 6.74495 6.74495 6.82388 6.65234 6.88281L4.89648 8L6.65234 9.11719C6.74495 9.17612 6.82388 9.25505 6.88281 9.34766L8 11.1025L9.11719 9.34766L9.16504 9.28027C9.2163 9.21644 9.27827 9.16134 9.34766 9.11719L11.1025 8L9.34766 6.88281C9.25505 6.82388 9.17612 6.74495 9.11719 6.65234L8 4.89648L6.88281 6.65234Z"/></svg>