<svg width="24" height="24" viewBox="0 0 24 24" fill="currentColor" xmlns="http://www.w3.org/2000/svg"><path d="M9.29297 3.70897C9.92293 3.07902 11 3.52511 11 4.416V19.5879C10.9998 20.4785 9.92289 20.9246 9.29297 20.2949L5 16.0019H3C1.89548 16.0019 1.00007 15.1064 1 14.0019V10.0019C1 8.89737 1.89543 8.00194 3 8.00194H5L9.29297 3.70897ZM18 3.49999C18.4142 3.50002 18.75 3.83579 18.75 4.24999V17.9394L21.4697 15.2197C21.7626 14.9268 22.2374 14.9268 22.5303 15.2197C22.823 15.5126 22.8231 15.9874 22.5303 16.2803L18.5303 20.2803C18.4984 20.3121 18.4634 20.3393 18.4277 20.3642C18.3836 20.395 18.3365 20.4215 18.2861 20.4424C18.2551 20.4552 18.2226 20.4634 18.1904 20.4717L18.1875 20.4726C18.1744 20.476 18.1618 20.4817 18.1484 20.4844C18.1429 20.4855 18.1374 20.4863 18.1318 20.4873C18.089 20.4949 18.045 20.5 18 20.5C17.9546 20.5 17.9103 20.495 17.8672 20.4873C17.8617 20.4863 17.8561 20.4855 17.8506 20.4844C17.8372 20.4817 17.8246 20.4761 17.8115 20.4726L17.8066 20.4717C17.7752 20.4635 17.7432 20.4549 17.7129 20.4424C17.6838 20.4303 17.657 20.4139 17.6299 20.3984C17.5732 20.366 17.5181 20.3286 17.4697 20.2803L13.4697 16.2803C13.1768 15.9874 13.1769 15.5126 13.4697 15.2197C13.7626 14.9268 14.2374 14.9268 14.5303 15.2197L17.25 17.9394V4.24999C17.25 3.83577 17.5858 3.49999 18 3.49999Z"/></svg>