<svg width="24" height="24" viewBox="0 0 24 24" fill="currentColor" xmlns="http://www.w3.org/2000/svg"><path d="M10.5 8C13.2135 8 15.5372 9.66326 16.5107 12.0254C19.0323 12.2812 21 14.411 21 17C21 19.7614 18.7614 22 16 22H6.5C4.01472 22 2 19.9853 2 17.5C2 15.9198 2.81482 14.5304 4.04688 13.7275C4.42891 10.5019 7.17159 8 10.5 8Z"/><path d="M14.75 5C17.0972 5 19 6.90279 19 9.25C19 9.6331 18.9489 10.0045 18.8535 10.3574C18.7472 10.7503 18.3058 10.9085 17.917 10.7881C17.7895 10.7486 17.6601 10.7132 17.5293 10.6816C16.5314 8.84784 14.8362 7.44653 12.7979 6.83594C12.2308 6.66599 11.9802 5.97171 12.4805 5.65527C13.1371 5.24 13.9157 5 14.75 5Z"/><path d="M22.25 8.5C22.6642 8.5 23 8.83579 23 9.25C23 9.66421 22.6642 10 22.25 10H21.25C20.8358 10 20.5 9.66421 20.5 9.25C20.5 8.83579 20.8358 8.5 21.25 8.5H22.25Z"/><path d="M19.5234 3.41602C19.8163 3.12361 20.2912 3.12333 20.584 3.41602C20.8769 3.70891 20.8769 4.18465 20.584 4.47754L19.877 5.18457C19.5841 5.47746 19.1083 5.47746 18.8154 5.18457C18.5227 4.89182 18.523 4.41693 18.8154 4.12402L19.5234 3.41602Z"/><path d="M8.91602 3.41602C9.2088 3.1233 9.68366 3.12349 9.97656 3.41602L10.6836 4.12305C10.9765 4.41594 10.9765 4.89168 10.6836 5.18457C10.3907 5.47702 9.9158 5.47725 9.62305 5.18457L8.91602 4.47656C8.62347 4.18364 8.62324 3.70879 8.91602 3.41602Z"/><path d="M14.75 1C15.1642 1 15.5 1.33579 15.5 1.75V2.75C15.5 3.16421 15.1642 3.5 14.75 3.5C14.3358 3.5 14 3.16421 14 2.75V1.75C14 1.33579 14.3358 1 14.75 1Z"/></svg>