<svg width="24" height="24" viewBox="0 0 24 24" fill="currentColor" xmlns="http://www.w3.org/2000/svg"><path fill-rule="evenodd" clip-rule="evenodd" d="M14.541 10.5C15.648 10.5002 16.5 11.3189 16.5 12.4385V20.0615C16.5 21.0415 15.6881 21.9998 14.541 22H3.95898C2.85205 21.9998 2 21.1811 2 20.0615V12.4385C2 11.4585 2.81188 10.5002 3.95898 10.5H14.541ZM3.5 20C3.5 20.2761 3.72386 20.5 4 20.5H14.5C14.7761 20.5 15 20.2761 15 20V15H3.5V20ZM4 12C3.72386 12 3.5 12.2239 3.5 12.5V13.5H15V12.5C15 12.2239 14.7761 12 14.5 12H4Z"/><path fill-rule="evenodd" clip-rule="evenodd" d="M20.2451 2.00977C21.251 2.10378 22 2.88874 22 3.93848V11.5615C22 12.5415 21.1881 13.4998 20.041 13.5H18.75C18.3358 13.5 18 13.1642 18 12.75C18 12.3358 18.3358 12 18.75 12H20C20.2761 12 20.5 11.7761 20.5 11.5V6.5H9V8.25C9 8.66421 8.66421 9 8.25 9C7.83579 9 7.5 8.66421 7.5 8.25V3.93848C7.5 2.95848 8.31188 2.00018 9.45898 2H20.041L20.2451 2.00977ZM9.5 3.5C9.22386 3.5 9 3.72386 9 4V5H20.5V4C20.5 3.72386 20.2761 3.5 20 3.5H9.5Z"/></svg>