<svg width="24" height="24" viewBox="0 0 24 24" fill="currentColor" xmlns="http://www.w3.org/2000/svg"><path fill-rule="evenodd" clip-rule="evenodd" d="M15 10.5C15 12.9853 12.9853 15 10.5 15C8.01472 15 6 12.9853 6 10.5C6 8.01472 8.01472 6 10.5 6C12.9853 6 15 8.01472 15 10.5ZM10.5 7.5C10.9142 7.5 11.25 7.83579 11.25 8.25V9.75H12.75C13.1642 9.75 13.5 10.0858 13.5 10.5C13.5 10.9142 13.1642 11.25 12.75 11.25H11.25V12.75C11.25 13.1642 10.9142 13.5 10.5 13.5C10.0858 13.5 9.75 13.1642 9.75 12.75V11.25H8.25C7.83579 11.25 7.5 10.9142 7.5 10.5C7.5 10.0858 7.83579 9.75 8.25 9.75H9.75V8.25C9.75 7.83579 10.0858 7.5 10.5 7.5Z"/><path fill-rule="evenodd" clip-rule="evenodd" d="M16.3072 15.2465C17.3652 13.9536 18 12.301 18 10.5C18 6.35786 14.6421 3 10.5 3C6.35786 3 3 6.35786 3 10.5C3 14.6421 6.35786 18 10.5 18C12.301 18 13.9536 17.3652 15.2465 16.3072L19.7197 20.7803C20.0126 21.0732 20.4874 21.0732 20.7803 20.7803C21.0732 20.4874 21.0732 20.0126 20.7803 19.7197L16.3072 15.2465ZM10.5 16.5C13.8137 16.5 16.5 13.8137 16.5 10.5C16.5 7.18629 13.8137 4.5 10.5 4.5C7.18629 4.5 4.5 7.18629 4.5 10.5C4.5 13.8137 7.18629 16.5 10.5 16.5Z"/></svg>