<svg width="16" height="16" viewBox="0 0 16 16" fill="currentColor" xmlns="http://www.w3.org/2000/svg"><path fill-rule="evenodd" clip-rule="evenodd" d="M15 8C15 11.866 11.866 15 8 15C4.13401 15 1 11.866 1 8C1 4.13401 4.13401 1 8 1C11.866 1 15 4.13401 15 8ZM11.3321 6.73775C11.4377 6.99288 11.3166 7.28536 11.0615 7.39104C10.2384 7.73196 9.37262 7.92974 8.5 7.98436V8.82461L10.3904 11.1877C10.5629 11.4033 10.528 11.7179 10.3123 11.8904C10.0967 12.0629 9.78207 12.028 9.60957 11.8123L8 9.80039L6.39043 11.8123C6.21793 12.028 5.90328 12.0629 5.68765 11.8904C5.47202 11.7179 5.43706 11.4033 5.60957 11.1877L7.5 8.82461V7.98436C6.62738 7.92974 5.7616 7.73196 4.93853 7.39104C4.68341 7.28536 4.56226 6.99288 4.66794 6.73776C4.77361 6.48263 5.0661 6.36148 5.32122 6.46716C7.03641 7.17761 8.96359 7.17761 10.6788 6.46716C10.9339 6.36148 11.2264 6.48263 11.3321 6.73775ZM9 5C9 5.55228 8.55228 6 8 6C7.44772 6 7 5.55228 7 5C7 4.44772 7.44772 4 8 4C8.55228 4 9 4.44772 9 5Z"/></svg>