<svg width="16" height="16" viewBox="0 0 16 16" fill="currentColor" xmlns="http://www.w3.org/2000/svg"><path d="M11.8536 5.14645C12.0488 5.34171 12.0488 5.65829 11.8536 5.85355L6.85355 10.8536C6.65829 11.0488 6.34171 11.0488 6.14645 10.8536L3.64645 8.35355C3.45118 8.15829 3.45118 7.84171 3.64645 7.64645C3.84171 7.45118 4.15829 7.45118 4.35355 7.64645L6.5 9.79289L11.1464 5.14645C11.3417 4.95118 11.6583 4.95118 11.8536 5.14645Z"/><path fill-rule="evenodd" clip-rule="evenodd" d="M8 15C11.866 15 15 11.866 15 8C15 4.13401 11.866 1 8 1C4.13401 1 1 4.13401 1 8C1 11.866 4.13401 15 8 15ZM14 8C14 11.3137 11.3137 14 8 14C4.68629 14 2 11.3137 2 8C2 4.68629 4.68629 2 8 2C11.3137 2 14 4.68629 14 8Z"/></svg>