<svg width="16" height="16" viewBox="0 0 16 16" fill="currentColor" xmlns="http://www.w3.org/2000/svg"><path d="M8.5 2.5C8.5 2.22386 8.27614 2 8 2C7.72386 2 7.5 2.22386 7.5 2.5V9.79289L4.85355 7.14645C4.65829 6.95118 4.34171 6.95118 4.14645 7.14645C3.95118 7.34171 3.95118 7.65829 4.14645 7.85355L7.64645 11.3536C7.84171 11.5488 8.15829 11.5488 8.35355 11.3536L11.8536 7.85355C12.0488 7.65829 12.0488 7.34171 11.8536 7.14645C11.6583 6.95118 11.3417 6.95118 11.1464 7.14645L8.5 9.79289V2.5Z"/><path d="M2.5 13C2.22386 13 2 13.2239 2 13.5C2 13.7761 2.22386 14 2.5 14H13.5C13.7761 14 14 13.7761 14 13.5C14 13.2239 13.7761 13 13.5 13H2.5Z"/></svg>