<svg width="16" height="16" viewBox="0 0 16 16" fill="currentColor" xmlns="http://www.w3.org/2000/svg"><path d="M5 7C5.55228 7 6 6.55228 6 6C6 5.44772 5.55228 5 5 5C4.44772 5 4 5.44772 4 6C4 6.55228 4.44772 7 5 7Z"/><path d="M12 6C12 6.55228 11.5523 7 11 7C10.4477 7 10 6.55228 10 6C10 5.44772 10.4477 5 11 5C11.5523 5 12 5.44772 12 6Z"/><path fill-rule="evenodd" clip-rule="evenodd" d="M11.8766 13.0026L10.2937 10.47C10.111 10.1776 9.79054 10 9.44575 10H6.55425C6.20946 10 5.88899 10.1776 5.70625 10.47L4.12338 13.0026C3.73558 13.6231 3.0555 14 2.32381 14C1.07593 14 0.0960222 12.9217 0.212498 11.6793C1.03977 2.85494 1.5276 2 8 2C14.4724 2 14.9602 2.85494 15.7875 11.6793C15.904 12.9217 14.9241 14 13.6762 14C12.9445 14 12.2644 13.6231 11.8766 13.0026ZM11.1417 9.94L12.7246 12.4726C12.9297 12.8007 13.2893 13 13.6762 13C14.3336 13 14.8535 12.4298 14.7919 11.7726C14.5845 9.56052 14.4028 7.9024 14.1512 6.63952C13.8978 5.36793 13.595 4.62015 13.2243 4.14826C12.8853 3.71678 12.4204 3.4291 11.6115 3.24707C10.763 3.05612 9.62012 3 8 3C6.37988 3 5.23704 3.05612 4.38855 3.24707C3.57964 3.4291 3.11466 3.71678 2.7757 4.14826C2.405 4.62015 2.10219 5.36793 1.84884 6.63952C1.59724 7.9024 1.41551 9.56052 1.20813 11.7726C1.14653 12.4298 1.66636 13 2.32381 13C2.71071 13 3.07032 12.8007 3.27538 12.4726L4.85825 9.94C5.22373 9.35524 5.86467 9 6.55425 9H9.44575C10.1353 9 10.7763 9.35524 11.1417 9.94Z"/></svg>