<svg width="16" height="16" viewBox="0 0 16 16" fill="currentColor" xmlns="http://www.w3.org/2000/svg"><path fill-rule="evenodd" clip-rule="evenodd" d="M10.2937 10.47L11.8766 13.0026C12.2644 13.6231 12.9445 14 13.6762 14C14.9241 14 15.904 12.9217 15.7875 11.6793C14.9602 2.85494 14.4724 2 8 2C1.5276 2 1.03977 2.85494 0.212498 11.6793C0.0960222 12.9217 1.07593 14 2.32381 14C3.0555 14 3.73558 13.6231 4.12338 13.0026L5.70625 10.47C5.88899 10.1776 6.20946 10 6.55425 10H9.44575C9.79054 10 10.111 10.1776 10.2937 10.47ZM5 7C5.55228 7 6 6.55228 6 6C6 5.44772 5.55228 5 5 5C4.44772 5 4 5.44772 4 6C4 6.55228 4.44772 7 5 7ZM12 6C12 6.55228 11.5523 7 11 7C10.4477 7 10 6.55228 10 6C10 5.44772 10.4477 5 11 5C11.5523 5 12 5.44772 12 6Z"/></svg>