<svg width="16" height="16" viewBox="0 0 16 16" fill="currentColor" xmlns="http://www.w3.org/2000/svg"><path d="M4.5 7C4.22386 7 4 7.22386 4 7.5C4 7.77614 4.22386 8 4.5 8H11.5C11.7761 8 12 7.77614 12 7.5C12 7.22386 11.7761 7 11.5 7H4.5Z"/><path fill-rule="evenodd" clip-rule="evenodd" d="M1.43934 8.93934L3.06066 10.5607C3.34196 10.842 3.7235 11 4.12132 11H11.8787C12.2765 11 12.658 10.842 12.9393 10.5607L14.5607 8.93934C14.842 8.65804 15 8.2765 15 7.87868V5.5C15 4.67157 14.3284 4 13.5 4H2.5C1.67157 4 1 4.67157 1 5.5V7.87868C1 8.2765 1.15803 8.65803 1.43934 8.93934ZM2.5 5H13.5C13.7761 5 14 5.22386 14 5.5V7.87868C14 8.01129 13.9473 8.13846 13.8536 8.23223L12.2322 9.85355C12.1385 9.94732 12.0113 10 11.8787 10H4.12132C3.98871 10 3.86153 9.94732 3.76777 9.85355L2.14645 8.23223C2.05268 8.13846 2 8.01129 2 7.87868V5.5C2 5.22386 2.22386 5 2.5 5Z"/></svg>