<svg width="16" height="16" viewBox="0 0 16 16" fill="currentColor" xmlns="http://www.w3.org/2000/svg"><path fill-rule="evenodd" clip-rule="evenodd" d="M8 14C11.3137 14 14 11.3137 14 8C14 4.68629 11.3137 2 8 2C4.68629 2 2 4.68629 2 8C2 11.3137 4.68629 14 8 14ZM8 15C11.866 15 15 11.866 15 8C15 4.13401 11.866 1 8 1C4.13401 1 1 4.13401 1 8C1 11.866 4.13401 15 8 15ZM8 6.5C8.27614 6.5 8.5 6.72386 8.5 7V11.5017C8.5 11.7778 8.27614 12.0017 8 12.0017C7.72386 12.0017 7.5 11.7778 7.5 11.5017V7C7.5 6.72386 7.72386 6.5 8 6.5ZM8 5.5C8.41421 5.5 8.75 5.16421 8.75 4.75C8.75 4.33579 8.41421 4 8 4C7.58579 4 7.25 4.33579 7.25 4.75C7.25 5.16421 7.58579 5.5 8 5.5Z"/></svg>