<svg width="16" height="16" viewBox="0 0 16 16" fill="none" xmlns="http://www.w3.org/2000/svg"><path d="M1 4.5C1 2.567 2.567 1 4.5 1H11.5C13.433 1 15 2.567 15 4.5V11.5C15 13.433 13.433 15 11.5 15H4.5C2.567 15 1 13.433 1 11.5V4.5Z" fill="url(#paint0_linear_8360_706)"/><path d="M3.77116 10.09C4.17377 10.09 4.50017 10.4168 4.50033 10.8192C4.50017 11.2216 4.17377 11.5484 3.77116 11.5484C3.36855 11.5484 3.04215 11.2216 3.04199 10.8192C3.04215 10.4168 3.36855 10.09 3.77116 10.09Z" fill="white"/><path d="M6.59098 10.09C6.9936 10.09 7.32 10.4168 7.32015 10.8192C7.32 11.2216 6.9936 11.5484 6.59098 11.5484C6.18837 11.5484 5.86197 11.2216 5.86182 10.8192C5.86197 10.4168 6.18837 10.09 6.59098 10.09Z" fill="white"/><path d="M9.41081 10.09C9.81342 10.09 10.1398 10.4168 10.14 10.8192C10.1398 11.2216 9.81342 11.5484 9.41081 11.5484C9.00819 11.5484 8.68179 11.2216 8.68164 10.8192C8.68179 10.4168 9.00819 10.09 9.41081 10.09Z" fill="white"/><path d="M12.2306 10.09C12.6332 10.09 12.9596 10.4168 12.9598 10.8192C12.9596 11.2216 12.6332 11.5484 12.2306 11.5484C11.828 11.5484 11.5016 11.2216 11.5015 10.8192C11.5016 10.4168 11.828 10.09 12.2306 10.09Z" fill="white"/><path d="M3.77116 7.27079C4.17377 7.27079 4.50017 7.59754 4.50033 7.99996C4.50017 8.40238 4.17377 8.72913 3.77116 8.72913C3.36855 8.72913 3.04215 8.40238 3.04199 7.99996C3.04215 7.59754 3.36855 7.27079 3.77116 7.27079Z" fill="white"/><path d="M6.59098 7.27079C6.9936 7.27079 7.32 7.59754 7.32015 7.99996C7.32 8.40238 6.9936 8.72913 6.59098 8.72913C6.18837 8.72913 5.86197 8.40238 5.86182 7.99996C5.86197 7.59754 6.18837 7.27079 6.59098 7.27079Z" fill="white"/><path d="M9.41081 7.27079C9.81342 7.27079 10.1398 7.59754 10.14 7.99996C10.1398 8.40238 9.81342 8.72913 9.41081 8.72913C9.00819 8.72913 8.68179 8.40238 8.68164 7.99996C8.68179 7.59754 9.00819 7.27079 9.41081 7.27079Z" fill="white"/><path d="M12.2306 7.27079C12.6332 7.27079 12.9596 7.59754 12.9598 7.99996C12.9596 8.40238 12.6332 8.72913 12.2306 8.72913C11.828 8.72913 11.5016 8.40238 11.5015 7.99996C11.5016 7.59754 11.828 7.27079 12.2306 7.27079Z" fill="white"/><path d="M3.77116 4.45154C4.17377 4.45154 4.50017 4.77828 4.50033 5.1807C4.50017 5.58312 4.17377 5.90987 3.77116 5.90987C3.36855 5.90987 3.04215 5.58312 3.04199 5.1807C3.04215 4.77828 3.36855 4.45154 3.77116 4.45154Z" fill="white"/><path d="M6.59098 4.45154C6.9936 4.45154 7.32 4.77828 7.32015 5.1807C7.32 5.58312 6.9936 5.90987 6.59098 5.90987C6.18837 5.90987 5.86197 5.58312 5.86182 5.1807C5.86197 4.77828 6.18837 4.45154 6.59098 4.45154Z" fill="white"/><path d="M9.41081 4.45154C9.81342 4.45154 10.1398 4.77828 10.14 5.1807C10.1398 5.58312 9.81342 5.90987 9.41081 5.90987C9.00819 5.90987 8.68179 5.58312 8.68164 5.1807C8.68179 4.77828 9.00819 4.45154 9.41081 4.45154Z" fill="white"/><path d="M12.2306 4.45154C12.6332 4.45154 12.9596 4.77828 12.9598 5.1807C12.9596 5.58312 12.6332 5.90987 12.2306 5.90987C11.828 5.90987 11.5016 5.58312 11.5015 5.1807C11.5016 4.77828 11.828 4.45154 12.2306 4.45154Z" fill="white"/><defs><linearGradient id="paint0_linear_8360_706" x1="1" y1="1" x2="15" y2="15" gradientUnits="userSpaceOnUse"><stop stop-color="#204CFE"/><stop offset="1" stop-color="#A638FE"/></linearGradient></defs></svg>