<svg width="16" height="16" viewBox="0 0 16 16" fill="none" xmlns="http://www.w3.org/2000/svg"><path d="M1 4.5C1 2.567 2.567 1 4.5 1H11.5C13.433 1 15 2.567 15 4.5V11.5C15 13.433 13.433 15 11.5 15H4.5C2.567 15 1 13.433 1 11.5V4.5Z" fill="url(#paint0_linear_8360_930)"/><path fill-rule="evenodd" clip-rule="evenodd" d="M8 5.95841C9.12758 5.95841 10.0417 6.8725 10.0417 8.00008C10.0417 9.12766 9.12758 10.0417 8 10.0417C6.87242 10.0417 5.95833 9.12766 5.95833 8.00008C5.95833 6.8725 6.87242 5.95841 8 5.95841ZM8 6.83341C7.35567 6.83341 6.83333 7.35575 6.83333 8.00008C6.83333 8.64441 7.35567 9.16675 8 9.16675C8.64433 9.16675 9.16667 8.64441 9.16667 8.00008C9.16667 7.35575 8.64433 6.83341 8 6.83341Z" fill="white"/><path fill-rule="evenodd" clip-rule="evenodd" d="M10.6797 3.91675C11.0802 3.91675 11.4765 4.04667 11.7563 4.33317C12.6803 5.27934 13.25 6.57315 13.25 8.00008C13.25 9.42702 12.6803 10.7208 11.7563 11.667L11.7028 11.7188C11.4272 11.9693 11.0553 12.0834 10.6797 12.0834H5.32031L5.17049 12.0771C4.8473 12.0504 4.53607 11.9359 4.2972 11.7188L4.24365 11.667C3.31973 10.7208 2.75 9.42701 2.75 8.00008C2.75 6.66235 3.25061 5.44184 4.07446 4.51489L4.24365 4.33317C4.48855 4.08249 4.82253 3.95182 5.17049 3.92301L5.32031 3.91675H10.6797ZM5.32031 4.79175C5.09789 4.79175 4.94872 4.86408 4.86971 4.94499C4.09883 5.73445 3.625 6.81091 3.625 8.00008C3.625 9.18925 4.09883 10.2657 4.86971 11.0552C4.94872 11.1361 5.09789 11.2084 5.32031 11.2084H10.6797C10.9021 11.2084 11.0513 11.1361 11.1303 11.0552C11.9012 10.2657 12.375 9.18925 12.375 8.00008C12.375 6.81091 11.9012 5.73445 11.1303 4.94499C11.0513 4.86408 10.9021 4.79175 10.6797 4.79175H5.32031Z" fill="white"/><defs><linearGradient id="paint0_linear_8360_930" x1="15" y1="15" x2="1" y2="1" gradientUnits="userSpaceOnUse"><stop stop-color="#BF81FF"/><stop offset="1" stop-color="#8E2CDC"/></linearGradient></defs></svg>