<svg width="16" height="16" viewBox="0 0 16 16" fill="none" xmlns="http://www.w3.org/2000/svg"><path d="M1 4.5C1 2.567 2.567 1 4.5 1H11.5C13.433 1 15 2.567 15 4.5V11.5C15 13.433 13.433 15 11.5 15H4.5C2.567 15 1 13.433 1 11.5V4.5Z" fill="url(#paint0_linear_8360_839)"/><path d="M8.00065 3.33337C8.24228 3.33337 8.43815 3.52925 8.43815 3.77087V12.2292C8.43815 12.4708 8.24228 12.6667 8.00065 12.6667C7.75903 12.6667 7.56315 12.4708 7.56315 12.2292V3.77087C7.56315 3.52925 7.75903 3.33337 8.00065 3.33337Z" fill="white"/><path d="M3.77148 5.08337C4.01311 5.08337 4.20898 5.27925 4.20898 5.52087V10.4792C4.20898 10.7208 4.01311 10.9167 3.77148 10.9167C3.52986 10.9167 3.33398 10.7208 3.33398 10.4792V5.52087C3.33398 5.27925 3.52986 5.08337 3.77148 5.08337Z" fill="white"/><path d="M10.1152 5.08337C10.3569 5.08337 10.5527 5.27925 10.5527 5.52087V10.4792C10.5527 10.7208 10.3569 10.9167 10.1152 10.9167C9.87361 10.9167 9.67773 10.7208 9.67773 10.4792V5.52087C9.67773 5.27925 9.87361 5.08337 10.1152 5.08337Z" fill="white"/><path d="M5.88607 6.83337C6.12769 6.83337 6.32357 7.02925 6.32357 7.27087V8.72921C6.32357 8.97083 6.12769 9.16671 5.88607 9.16671C5.64444 9.16671 5.44857 8.97083 5.44857 8.72921V7.27087C5.44857 7.02925 5.64444 6.83337 5.88607 6.83337Z" fill="white"/><path d="M12.2298 6.83337C12.4714 6.83337 12.6673 7.02925 12.6673 7.27087V8.72921C12.6673 8.97083 12.4714 9.16671 12.2298 9.16671C11.9882 9.16671 11.7923 8.97083 11.7923 8.72921V7.27087C11.7923 7.02925 11.9882 6.83337 12.2298 6.83337Z" fill="white"/><defs><linearGradient id="paint0_linear_8360_839" x1="1" y1="1" x2="15" y2="15" gradientUnits="userSpaceOnUse"><stop stop-color="#17A9E5"/><stop offset="1" stop-color="#44CB62"/></linearGradient></defs></svg>