<svg width="16" height="16" viewBox="0 0 16 16" fill="currentColor" xmlns="http://www.w3.org/2000/svg"><path d="M2.99902 10.334C3.55131 10.334 3.99902 10.7817 3.99902 11.334C3.99902 11.8863 3.55131 12.334 2.99902 12.334C2.44674 12.334 1.99902 11.8863 1.99902 11.334C1.99902 10.7817 2.44674 10.334 2.99902 10.334Z"/><path d="M6.33301 10.334C6.88529 10.334 7.33301 10.7817 7.33301 11.334C7.33301 11.8863 6.88529 12.334 6.33301 12.334C5.78072 12.334 5.33301 11.8863 5.33301 11.334C5.33301 10.7817 5.78072 10.334 6.33301 10.334Z"/><path d="M9.66699 10.334C10.2193 10.334 10.667 10.7817 10.667 11.334C10.667 11.8863 10.2193 12.334 9.66699 12.334C9.11471 12.334 8.66699 11.8863 8.66699 11.334C8.66699 10.7817 9.11471 10.334 9.66699 10.334Z"/><path d="M13.001 10.334C13.5533 10.334 14.001 10.7817 14.001 11.334C14.001 11.8863 13.5533 12.334 13.001 12.334C12.4487 12.334 12.001 11.8863 12.001 11.334C12.001 10.7817 12.4487 10.334 13.001 10.334Z"/><path d="M2.99902 7C3.55131 7 3.99902 7.44772 3.99902 8C3.99902 8.55228 3.55131 9 2.99902 9C2.44674 9 1.99902 8.55228 1.99902 8C1.99902 7.44772 2.44674 7 2.99902 7Z"/><path d="M6.33301 7C6.88529 7 7.33301 7.44772 7.33301 8C7.33301 8.55228 6.88529 9 6.33301 9C5.78072 9 5.33301 8.55228 5.33301 8C5.33301 7.44772 5.78072 7 6.33301 7Z"/><path d="M9.66699 7C10.2193 7 10.667 7.44772 10.667 8C10.667 8.55228 10.2193 9 9.66699 9C9.11471 9 8.66699 8.55228 8.66699 8C8.66699 7.44772 9.11471 7 9.66699 7Z"/><path d="M13.001 7C13.5533 7 14.001 7.44772 14.001 8C14.001 8.55228 13.5533 9 13.001 9C12.4487 9 12.001 8.55228 12.001 8C12.001 7.44772 12.4487 7 13.001 7Z"/><path d="M2.99902 3.66699C3.55131 3.66699 3.99902 4.11471 3.99902 4.66699C3.99883 5.21911 3.55119 5.66699 2.99902 5.66699C2.44686 5.66699 1.99922 5.21911 1.99902 4.66699C1.99902 4.11471 2.44674 3.66699 2.99902 3.66699Z"/><path d="M6.33301 3.66699C6.88529 3.66699 7.33301 4.11471 7.33301 4.66699C7.33281 5.21911 6.88517 5.66699 6.33301 5.66699C5.78085 5.66699 5.33321 5.21911 5.33301 4.66699C5.33301 4.11471 5.78072 3.66699 6.33301 3.66699Z"/><path d="M9.66699 3.66699C10.2193 3.66699 10.667 4.11471 10.667 4.66699C10.6668 5.21911 10.2192 5.66699 9.66699 5.66699C9.11483 5.66699 8.66719 5.21911 8.66699 4.66699C8.66699 4.11471 9.11471 3.66699 9.66699 3.66699Z"/><path d="M13.001 3.66699C13.5533 3.66699 14.001 4.11471 14.001 4.66699C14.0008 5.21911 13.5531 5.66699 13.001 5.66699C12.4488 5.66699 12.0012 5.21911 12.001 4.66699C12.001 4.11471 12.4487 3.66699 13.001 3.66699Z"/></svg>