<svg width="16" height="16" viewBox="0 0 16 16" fill="currentColor" xmlns="http://www.w3.org/2000/svg"><path fill-rule="evenodd" clip-rule="evenodd" d="M8 5.5C9.38071 5.5 10.5 6.61929 10.5 8C10.5 9.38071 9.38071 10.5 8 10.5C6.61929 10.5 5.5 9.38071 5.5 8C5.5 6.61929 6.61929 5.5 8 5.5ZM8 6.5C7.17157 6.5 6.5 7.17157 6.5 8C6.5 8.82843 7.17157 9.5 8 9.5C8.82843 9.5 9.5 8.82843 9.5 8C9.5 7.17157 8.82843 6.5 8 6.5Z"/><path fill-rule="evenodd" clip-rule="evenodd" d="M11.6729 3C12.4578 3 13.2361 3.2907 13.6934 3.92871C14.5155 5.07577 15 6.48105 15 8C15 9.51895 14.5155 10.9242 13.6934 12.0713C13.2361 12.7093 12.4578 13 11.6729 13H4.32715L4.0332 12.9863C3.40094 12.9265 2.79857 12.6706 2.39551 12.1875L2.30664 12.0713C1.48453 10.9242 1 9.51895 1 8C1 6.57595 1.42562 5.25162 2.15625 4.14648L2.30664 3.92871C2.70666 3.37058 3.35226 3.07808 4.0332 3.01367L4.32715 3H11.6729ZM4.32715 4C3.76319 4 3.33644 4.20769 3.11914 4.51074C2.4146 5.49375 2 6.69702 2 8C2 9.30298 2.4146 10.5062 3.11914 11.4893C3.33644 11.7923 3.76319 12 4.32715 12H11.6729C12.2368 12 12.6636 11.7923 12.8809 11.4893C13.5854 10.5062 14 9.30298 14 8C14 6.69702 13.5854 5.49375 12.8809 4.51074C12.6636 4.20769 12.2368 4 11.6729 4H4.32715Z"/></svg>