<svg width="16" height="16" viewBox="0 0 16 16" fill="none" xmlns="http://www.w3.org/2000/svg"><path d="M1 4.5C1 2.567 2.567 1 4.5 1H11.5C13.433 1 15 2.567 15 4.5V11.5C15 13.433 13.433 15 11.5 15H4.5C2.567 15 1 13.433 1 11.5V4.5Z" fill="url(#paint0_linear_8360_706)"/><path d="M3.77214 10.09C4.17475 10.09 4.50115 10.4168 4.5013 10.8192C4.50115 11.2216 4.17475 11.5484 3.77214 11.5484C3.36952 11.5484 3.04312 11.2216 3.04297 10.8192C3.04312 10.4168 3.36952 10.09 3.77214 10.09Z" fill="white"/><path d="M6.59196 10.09C6.99457 10.09 7.32097 10.4168 7.32113 10.8192C7.32097 11.2216 6.99457 11.5484 6.59196 11.5484C6.18935 11.5484 5.86295 11.2216 5.86279 10.8192C5.86295 10.4168 6.18935 10.09 6.59196 10.09Z" fill="white"/><path d="M9.41178 10.09C9.8144 10.09 10.1408 10.4168 10.141 10.8192C10.1408 11.2216 9.8144 11.5484 9.41178 11.5484C9.00917 11.5484 8.68277 11.2216 8.68262 10.8192C8.68277 10.4168 9.00917 10.09 9.41178 10.09Z" fill="white"/><path d="M12.2316 10.09C12.6342 10.09 12.9606 10.4168 12.9608 10.8192C12.9606 11.2216 12.6342 11.5484 12.2316 11.5484C11.829 11.5484 11.5026 11.2216 11.5024 10.8192C11.5026 10.4168 11.829 10.09 12.2316 10.09Z" fill="white"/><path d="M3.77214 7.27079C4.17475 7.27079 4.50115 7.59754 4.5013 7.99996C4.50115 8.40238 4.17475 8.72913 3.77214 8.72913C3.36952 8.72913 3.04312 8.40238 3.04297 7.99996C3.04312 7.59754 3.36952 7.27079 3.77214 7.27079Z" fill="white"/><path d="M6.59196 7.27079C6.99457 7.27079 7.32097 7.59754 7.32113 7.99996C7.32097 8.40238 6.99457 8.72913 6.59196 8.72913C6.18935 8.72913 5.86295 8.40238 5.86279 7.99996C5.86295 7.59754 6.18935 7.27079 6.59196 7.27079Z" fill="white"/><path d="M9.41178 7.27079C9.8144 7.27079 10.1408 7.59754 10.141 7.99996C10.1408 8.40238 9.8144 8.72913 9.41178 8.72913C9.00917 8.72913 8.68277 8.40238 8.68262 7.99996C8.68277 7.59754 9.00917 7.27079 9.41178 7.27079Z" fill="white"/><path d="M12.2316 7.27079C12.6342 7.27079 12.9606 7.59754 12.9608 7.99996C12.9606 8.40238 12.6342 8.72913 12.2316 8.72913C11.829 8.72913 11.5026 8.40238 11.5024 7.99996C11.5026 7.59754 11.829 7.27079 12.2316 7.27079Z" fill="white"/><path d="M3.77214 4.45154C4.17475 4.45154 4.50115 4.77828 4.5013 5.1807C4.50115 5.58312 4.17475 5.90987 3.77214 5.90987C3.36952 5.90987 3.04312 5.58312 3.04297 5.1807C3.04312 4.77828 3.36952 4.45154 3.77214 4.45154Z" fill="white"/><path d="M6.59196 4.45154C6.99457 4.45154 7.32097 4.77828 7.32113 5.1807C7.32097 5.58312 6.99457 5.90987 6.59196 5.90987C6.18935 5.90987 5.86295 5.58312 5.86279 5.1807C5.86295 4.77828 6.18935 4.45154 6.59196 4.45154Z" fill="white"/><path d="M9.41178 4.45154C9.8144 4.45154 10.1408 4.77828 10.141 5.1807C10.1408 5.58312 9.8144 5.90987 9.41178 5.90987C9.00917 5.90987 8.68277 5.58312 8.68262 5.1807C8.68277 4.77828 9.00917 4.45154 9.41178 4.45154Z" fill="white"/><path d="M12.2316 4.45154C12.6342 4.45154 12.9606 4.77828 12.9608 5.1807C12.9606 5.58312 12.6342 5.90987 12.2316 5.90987C11.829 5.90987 11.5026 5.58312 11.5024 5.1807C11.5026 4.77828 11.829 4.45154 12.2316 4.45154Z" fill="white"/><defs><linearGradient id="paint0_linear_8360_706" x1="1" y1="1" x2="15" y2="15" gradientUnits="userSpaceOnUse"><stop stop-color="#204CFE"/><stop offset="1" stop-color="#A638FE"/></linearGradient></defs></svg>