<svg width="16" height="16" viewBox="0 0 16 16" fill="currentColor" xmlns="http://www.w3.org/2000/svg"><path d="M6.83333 6.8208C6.83364 6.59657 7.07653 6.45638 7.27083 6.56844L9.3125 7.74707C9.5069 7.85931 9.50682 8.14005 9.3125 8.25236L7.27083 9.43099C7.07644 9.54322 6.83346 9.40305 6.83333 9.17863V6.8208Z"/><path fill-rule="evenodd" clip-rule="evenodd" d="M11.5 1C13.433 1 15 2.567 15 4.5V11.5C15 13.433 13.433 15 11.5 15H4.5C2.567 15 1 13.433 1 11.5V4.5C1 2.567 2.567 1 4.5 1H11.5ZM3.77083 9.75C3.52921 9.75 3.33333 9.94588 3.33333 10.1875V10.9167C3.33333 11.8832 4.11683 12.6667 5.08333 12.6667H5.8125C6.05412 12.6667 6.25 12.4708 6.25 12.2292C6.25 11.9875 6.05412 11.7917 5.8125 11.7917H5.08333C4.60008 11.7917 4.20833 11.3999 4.20833 10.9167V10.1875C4.20833 9.94588 4.01246 9.75 3.77083 9.75ZM12.2292 9.75C11.9875 9.75 11.7917 9.94588 11.7917 10.1875V10.9167C11.7917 11.3999 11.3999 11.7917 10.9167 11.7917H10.1875C9.94588 11.7917 9.75 11.9875 9.75 12.2292C9.75 12.4708 9.94588 12.6667 10.1875 12.6667H10.9167C11.8832 12.6667 12.6667 11.8832 12.6667 10.9167V10.1875C12.6667 9.94588 12.4708 9.75 12.2292 9.75ZM7.63485 5.77148C6.8955 5.40925 6.01734 5.91629 5.96118 6.73763L5.95833 6.8208V9.17863L5.96118 9.2618C6.01905 10.1107 6.95491 10.6236 7.70833 10.1886L9.75 9.01001C10.5276 8.56091 10.5277 7.43846 9.75 6.98942L7.70833 5.81079L7.63485 5.77148ZM5.08333 3.33333C4.11683 3.33333 3.33333 4.11683 3.33333 5.08333V5.8125C3.33333 6.05412 3.52921 6.25 3.77083 6.25C4.01246 6.25 4.20833 6.05412 4.20833 5.8125V5.08333C4.20833 4.60008 4.60008 4.20833 5.08333 4.20833H5.8125C6.05412 4.20833 6.25 4.01246 6.25 3.77083C6.25 3.52921 6.05412 3.33333 5.8125 3.33333H5.08333ZM10.1875 3.33333C9.94588 3.33333 9.75 3.52921 9.75 3.77083C9.75 4.01246 9.94588 4.20833 10.1875 4.20833H10.9167C11.3999 4.20833 11.7917 4.60008 11.7917 5.08333V5.8125C11.7917 6.05412 11.9875 6.25 12.2292 6.25C12.4708 6.25 12.6667 6.05412 12.6667 5.8125V5.08333C12.6667 4.11683 11.8832 3.33333 10.9167 3.33333H10.1875Z"/></svg>