<svg width="16" height="16" viewBox="0 0 16 16" fill="currentColor" xmlns="http://www.w3.org/2000/svg"><path d="M8 2C8.27614 2 8.5 2.22386 8.5 2.5V13.5C8.5 13.7761 8.27614 14 8 14C7.72386 14 7.5 13.7761 7.5 13.5V2.5C7.5 2.22386 7.72386 2 8 2Z"/><path d="M2.5 4C2.77614 4 3 4.22386 3 4.5V11.5C3 11.7761 2.77614 12 2.5 12C2.22386 12 2 11.7761 2 11.5V4.5C2 4.22386 2.22386 4 2.5 4Z"/><path d="M10.75 4C11.0261 4 11.25 4.22386 11.25 4.5V11.5C11.25 11.7761 11.0261 12 10.75 12C10.4739 12 10.25 11.7761 10.25 11.5V4.5C10.25 4.22386 10.4739 4 10.75 4Z"/><path d="M5.25 6.5C5.52614 6.5 5.75 6.72386 5.75 7V9C5.75 9.27614 5.52614 9.5 5.25 9.5C4.97386 9.5 4.75 9.27614 4.75 9V7C4.75 6.72386 4.97386 6.5 5.25 6.5Z"/><path d="M13.5 6.5C13.7761 6.5 14 6.72386 14 7V9C14 9.27614 13.7761 9.5 13.5 9.5C13.2239 9.5 13 9.27614 13 9V7C13 6.72386 13.2239 6.5 13.5 6.5Z"/></svg>