<svg width="16" height="16" viewBox="0 0 16 16" fill="currentColor" xmlns="http://www.w3.org/2000/svg"><path d="M3 10.334C3.55228 10.334 4 10.7817 4 11.334C4 11.8863 3.55228 12.334 3 12.334C2.44772 12.334 2 11.8863 2 11.334C2 10.7817 2.44772 10.334 3 10.334Z"/><path d="M6.33398 10.334C6.88627 10.334 7.33398 10.7817 7.33398 11.334C7.33398 11.8863 6.88627 12.334 6.33398 12.334C5.7817 12.334 5.33398 11.8863 5.33398 11.334C5.33398 10.7817 5.7817 10.334 6.33398 10.334Z"/><path d="M9.66797 10.334C10.2203 10.334 10.668 10.7817 10.668 11.334C10.668 11.8863 10.2203 12.334 9.66797 12.334C9.11568 12.334 8.66797 11.8863 8.66797 11.334C8.66797 10.7817 9.11568 10.334 9.66797 10.334Z"/><path d="M13.002 10.334C13.5542 10.334 14.002 10.7817 14.002 11.334C14.002 11.8863 13.5542 12.334 13.002 12.334C12.4497 12.334 12.002 11.8863 12.002 11.334C12.002 10.7817 12.4497 10.334 13.002 10.334Z"/><path d="M3 7C3.55228 7 4 7.44772 4 8C4 8.55228 3.55228 9 3 9C2.44772 9 2 8.55228 2 8C2 7.44772 2.44772 7 3 7Z"/><path d="M6.33398 7C6.88627 7 7.33398 7.44772 7.33398 8C7.33398 8.55228 6.88627 9 6.33398 9C5.7817 9 5.33398 8.55228 5.33398 8C5.33398 7.44772 5.7817 7 6.33398 7Z"/><path d="M9.66797 7C10.2203 7 10.668 7.44772 10.668 8C10.668 8.55228 10.2203 9 9.66797 9C9.11568 9 8.66797 8.55228 8.66797 8C8.66797 7.44772 9.11568 7 9.66797 7Z"/><path d="M13.002 7C13.5542 7 14.002 7.44772 14.002 8C14.002 8.55228 13.5542 9 13.002 9C12.4497 9 12.002 8.55228 12.002 8C12.002 7.44772 12.4497 7 13.002 7Z"/><path d="M3 3.66699C3.55228 3.66699 4 4.11471 4 4.66699C3.9998 5.21911 3.55216 5.66699 3 5.66699C2.44784 5.66699 2.0002 5.21911 2 4.66699C2 4.11471 2.44772 3.66699 3 3.66699Z"/><path d="M6.33398 3.66699C6.88627 3.66699 7.33398 4.11471 7.33398 4.66699C7.33379 5.21911 6.88615 5.66699 6.33398 5.66699C5.78182 5.66699 5.33418 5.21911 5.33398 4.66699C5.33398 4.11471 5.7817 3.66699 6.33398 3.66699Z"/><path d="M9.66797 3.66699C10.2203 3.66699 10.668 4.11471 10.668 4.66699C10.6678 5.21911 10.2201 5.66699 9.66797 5.66699C9.11581 5.66699 8.66817 5.21911 8.66797 4.66699C8.66797 4.11471 9.11568 3.66699 9.66797 3.66699Z"/><path d="M13.002 3.66699C13.5542 3.66699 14.002 4.11471 14.002 4.66699C14.0018 5.21911 13.5541 5.66699 13.002 5.66699C12.4498 5.66699 12.0022 5.21911 12.002 4.66699C12.002 4.11471 12.4497 3.66699 13.002 3.66699Z"/></svg>