<svg width="16" height="16" viewBox="0 0 16 16" fill="none" xmlns="http://www.w3.org/2000/svg"><path d="M15.0001 8.00031C15.0001 4.13455 11.8663 1.00073 8.00055 1.00073C4.13479 1.00073 1.00098 4.13455 1.00098 8.00031C1.00098 11.8661 4.13479 14.9999 8.00055 14.9999C11.8663 14.9999 15.0001 11.8661 15.0001 8.00031Z" fill="url(#paint0_linear_8360_930)"/><path d="M14.4998 8.00006C14.4996 4.4106 11.5896 1.50119 8.00006 1.50119C4.41072 1.50139 1.50139 4.41072 1.50119 8.00006C1.50119 11.5896 4.4106 14.4996 8.00006 14.4998C11.5897 14.4998 14.4998 11.5897 14.4998 8.00006ZM14.9996 8.00006C14.9996 11.8658 11.8658 14.9996 8.00006 14.9996C4.13447 14.9994 1.00049 11.8657 1.00049 8.00006C1.00069 4.13459 4.13459 1.00069 8.00006 1.00049C11.8657 1.00049 14.9994 4.13447 14.9996 8.00006Z" fill="url(#paint1_radial_8360_930)"/><path d="M5.51169 5.40684V5.71932H10.5067V5.40684V5.09436H5.51169V5.40684ZM10.5067 10.594V10.2815H5.51169V10.594V10.9065H10.5067V10.594ZM12.0657 6.60838L11.7592 6.66928C11.8412 7.082 11.9057 7.55095 11.9057 8.00043H12.2182H12.5307C12.5307 7.49593 12.4588 6.98357 12.3722 6.54747L12.0657 6.60838ZM12.2182 8.00043H11.9057C11.9057 8.44992 11.8412 8.91886 11.7592 9.33159L12.0657 9.39249L12.3722 9.45339C12.4588 9.01729 12.5307 8.50493 12.5307 8.00043H12.2182ZM3.93607 9.37351L4.24255 9.31257C4.15941 8.89433 4.0942 8.42811 4.0942 8.00043H3.78172H3.46924C3.46924 8.48498 3.54234 8.99553 3.62957 9.43442L3.93607 9.37351ZM3.78172 8.00043H4.0942C4.0942 7.57276 4.15941 7.10653 4.24255 6.68829L3.93607 6.62736L3.62957 6.56644C3.54234 7.00534 3.46924 7.51588 3.46924 8.00043H3.78172ZM5.51169 10.594V10.2815C4.88557 10.2815 4.35625 9.88455 4.24255 9.31257L3.93607 9.37351L3.62957 9.43442C3.80958 10.34 4.63139 10.9065 5.51169 10.9065V10.594ZM10.5067 10.594V10.9065C11.3763 10.9065 12.1936 10.3522 12.3722 9.45339L12.0657 9.39249L11.7592 9.33159C11.6476 9.89324 11.1261 10.2815 10.5067 10.2815V10.594ZM10.5067 5.40684V5.71932C11.1261 5.71932 11.6476 6.10763 11.7592 6.66928L12.0657 6.60838L12.3722 6.54747C12.1936 5.6487 11.3763 5.09436 10.5067 5.09436V5.40684ZM5.51169 5.40684V5.09436C4.63139 5.09436 3.80958 5.6609 3.62957 6.56644L3.93607 6.62736L4.24255 6.68829C4.35625 6.11631 4.88557 5.71932 5.51169 5.71932V5.40684Z" fill="white"/><path d="M9.00033 8.00039C9.00033 7.44814 8.55288 7.00069 8.00063 7.00069C7.44838 7.00069 7.00094 7.44814 7.00094 8.00039C7.00094 8.55264 7.44838 9.00008 8.00063 9.00008C8.55288 9.00008 9.00033 8.55264 9.00033 8.00039ZM9.62578 8.00039C9.62578 8.8978 8.89804 9.62553 8.00063 9.62553C7.10323 9.62553 6.37549 8.8978 6.37549 8.00039C6.37549 7.10298 7.10323 6.37524 8.00063 6.37524C8.89804 6.37524 9.62578 7.10298 9.62578 8.00039Z" fill="white"/><path d="M4.43848 7.81286C4.43848 7.74383 4.49444 7.68787 4.56347 7.68787H5.25093C5.31995 7.68787 5.37592 7.74383 5.37592 7.81286V8.18784C5.37592 8.25686 5.31995 8.31283 5.25093 8.31283H4.56347C4.49444 8.31283 4.43848 8.25686 4.43848 8.18784V7.81286Z" fill="white"/><path d="M14.969 8.00055C14.969 4.15213 11.8494 1.03187 8.00104 1.03174C4.15254 1.03174 1.03222 4.15205 1.03222 8.00055C1.03236 11.8489 4.15262 14.9685 8.00104 14.9685C11.8493 14.9684 14.9689 11.8489 14.969 8.00055ZM15.0006 8.00055C15.0005 11.8661 11.8666 15 8.00104 15.0001C4.13536 15.0001 1.0016 11.8662 1.00146 8.00055C1.00146 4.13479 4.13528 1.00098 8.00104 1.00098C11.8667 1.00111 15.0006 4.13487 15.0006 8.00055Z" fill="url(#paint2_linear_8360_930)"/><defs><linearGradient id="paint0_linear_8360_930" x1="8.00055" y1="1.00073" x2="8.00055" y2="14.9999" gradientUnits="userSpaceOnUse"><stop stop-color="#070D48"/><stop offset="1" stop-color="#060C1C"/></linearGradient><radialGradient id="paint1_radial_8360_930" cx="0" cy="0" r="1" gradientUnits="userSpaceOnUse" gradientTransform="translate(8.00043 1.00085) rotate(90) scale(6.99957)"><stop stop-color="#FEFEFE"/><stop offset="1" stop-color="#BFBFBF"/></radialGradient><linearGradient id="paint2_linear_8360_930" x1="8.00079" y1="1.00073" x2="8.00079" y2="14.9999" gradientUnits="userSpaceOnUse"><stop stop-color="white"/><stop offset="1" stop-color="#DBDBDB"/></linearGradient></defs></svg>