<svg width="16" height="16" viewBox="0 0 16 16" fill="currentColor" xmlns="http://www.w3.org/2000/svg"><path d="M2.5 10C2.77614 10 3 10.2239 3 10.5V11C3 12.1046 3.89543 13 5 13H5.5C5.77614 13 6 13.2239 6 13.5C6 13.7761 5.77614 14 5.5 14H5C3.34315 14 2 12.6569 2 11V10.5C2 10.2239 2.22386 10 2.5 10Z"/><path d="M13.5 10C13.7761 10 14 10.2239 14 10.5V11C14 12.6569 12.6569 14 11 14H10.5C10.2239 14 10 13.7761 10 13.5C10 13.2239 10.2239 13 10.5 13H11C12.1046 13 13 12.1046 13 11V10.5C13 10.2239 13.2239 10 13.5 10Z"/><path fill-rule="evenodd" clip-rule="evenodd" d="M5.5 6.26758C5.50027 5.11312 6.75012 4.39154 7.75 4.96875L10.75 6.70117C11.7499 7.27854 11.7499 8.72146 10.75 9.29883L7.75 11.0312C6.81255 11.5724 5.65572 10.9719 5.51465 9.94336L5.5 9.73242V6.26758ZM6.5 9.73242C6.50027 10.1171 6.91677 10.3574 7.25 10.165L10.25 8.43262C10.5831 8.24014 10.5831 7.75987 10.25 7.56738L7.25 5.83496C6.91678 5.64257 6.50027 5.88289 6.5 6.26758V9.73242Z"/><path d="M5.5 2C5.77614 2 6 2.22386 6 2.5C6 2.77614 5.77614 3 5.5 3H5C3.89543 3 3 3.89543 3 5V5.5C3 5.77614 2.77614 6 2.5 6C2.22386 6 2 5.77614 2 5.5V5C2 3.34315 3.34315 2 5 2H5.5Z"/><path d="M11 2C12.6569 2 14 3.34315 14 5V5.5C14 5.77614 13.7761 6 13.5 6C13.2239 6 13 5.77614 13 5.5V5C13 3.89543 12.1046 3 11 3H10.5C10.2239 3 10 2.77614 10 2.5C10 2.22386 10.2239 2 10.5 2H11Z"/></svg>