<svg width="16" height="16" viewBox="0 0 16 16" fill="currentColor" xmlns="http://www.w3.org/2000/svg"><path fill-rule="evenodd" clip-rule="evenodd" d="M8.00146 6.37549C8.89862 6.37579 9.62646 7.10326 9.62646 8.00049C9.6262 8.89749 8.89846 9.62519 8.00146 9.62549C7.10422 9.62549 6.37673 8.89767 6.37646 8.00049C6.37646 7.10308 7.10406 6.37549 8.00146 6.37549ZM8.00146 7.00049C7.44921 7.00049 7.00146 7.44824 7.00146 8.00049C7.00173 8.55252 7.44938 9.00049 8.00146 9.00049C8.5533 9.00019 9.0012 8.55233 9.00146 8.00049C9.00146 7.44842 8.55346 7.00079 8.00146 7.00049Z"/><path d="M5.25146 7.68701C5.32022 7.68715 5.37621 7.74329 5.37646 7.81201V8.18701C5.37646 8.25595 5.32037 8.31187 5.25146 8.31201H4.56396C4.49494 8.31201 4.43896 8.25604 4.43896 8.18701V7.81201C4.43922 7.7432 4.49509 7.68701 4.56396 7.68701H5.25146Z"/><path fill-rule="evenodd" clip-rule="evenodd" d="M10.5073 5.09424C11.3769 5.09427 12.194 5.64862 12.3726 6.54736C12.4592 6.98341 12.5317 7.49609 12.5317 8.00049C12.5317 8.50472 12.4592 9.01674 12.3726 9.45264C12.194 10.3514 11.3769 10.9057 10.5073 10.9058H5.51221C4.63196 10.9057 3.81042 10.3395 3.63037 9.43408C3.54317 8.99533 3.47026 8.4849 3.47021 8.00049C3.47021 7.51594 3.54314 7.00481 3.63037 6.56592C3.81043 5.66049 4.63197 5.09427 5.51221 5.09424H10.5073ZM5.51221 5.71924C4.88612 5.71927 4.35637 6.11603 4.24268 6.68799C4.15956 7.10618 4.09521 7.57288 4.09521 8.00049C4.09526 8.42796 4.15959 8.89398 4.24268 9.31201C4.35637 9.88397 4.88612 10.2807 5.51221 10.2808H10.5073C11.1266 10.2807 11.6485 9.89303 11.7603 9.33154C11.8422 8.91896 11.9067 8.44983 11.9067 8.00049C11.9067 7.551 11.8423 7.08118 11.7603 6.66846C11.6485 6.10699 11.1266 5.71927 10.5073 5.71924H5.51221Z"/><path fill-rule="evenodd" clip-rule="evenodd" d="M8.00049 1.00049C11.8661 1.00049 15.0002 4.13401 15.0005 7.99951C15.0005 11.8653 11.8662 14.9995 8.00049 14.9995C4.13493 14.9993 1.00049 11.8651 1.00049 7.99951C1.00079 4.13415 4.13511 1.00072 8.00049 1.00049ZM8.00049 1.50049C4.41124 1.50072 1.50176 4.41027 1.50146 7.99951C1.50146 11.589 4.41105 14.4993 8.00049 14.4995C11.5901 14.4995 14.5005 11.5891 14.5005 7.99951C14.5002 4.41013 11.5899 1.50049 8.00049 1.50049Z"/></svg>