<svg width="16" height="16" viewBox="0 0 16 16" fill="none" xmlns="http://www.w3.org/2000/svg"><path d="M1 4.5C1 2.567 2.567 1 4.5 1H11.5C13.433 1 15 2.567 15 4.5V11.5C15 13.433 13.433 15 11.5 15H4.5C2.567 15 1 13.433 1 11.5V4.5Z" fill="url(#paint0_linear_8360_856)"/><path d="M5.90999 5.37504C6.15162 5.37504 6.34749 5.57092 6.34749 5.81254V12.2292C6.34749 12.4708 6.15162 12.6667 5.90999 12.6667C5.66837 12.6667 5.47249 12.4708 5.47249 12.2292V5.81254C5.47249 5.57092 5.66837 5.37504 5.90999 5.37504Z" fill="white"/><path d="M10.9173 3.33337C11.8838 3.33337 12.6673 4.11688 12.6673 5.08337V10.9167C12.6673 11.8832 11.8838 12.6667 10.9173 12.6667H9.60482C9.36319 12.6667 9.16732 12.4708 9.16732 12.2292C9.16732 11.9876 9.36319 11.7917 9.60482 11.7917H10.9173C11.4006 11.7917 11.7923 11.4 11.7923 10.9167V5.08337C11.7923 4.60012 11.4006 4.20837 10.9173 4.20837H5.08398C4.60074 4.20837 4.20898 4.60012 4.20898 5.08337V6.39587C4.20898 6.6375 4.01311 6.83337 3.77148 6.83337C3.52986 6.83337 3.33398 6.6375 3.33398 6.39587V5.08337C3.33398 4.11688 4.11749 3.33337 5.08398 3.33337H10.9173Z" fill="white"/><path d="M8.0485 6.54171C8.29013 6.54171 8.486 6.73758 8.486 6.97921V11.0625C8.486 11.3042 8.29013 11.5 8.0485 11.5C7.80688 11.5 7.611 11.3042 7.611 11.0625V6.97921C7.611 6.73758 7.80688 6.54171 8.0485 6.54171Z" fill="white"/><path d="M3.77148 8.00004C4.01311 8.00004 4.20898 8.19592 4.20898 8.43754V9.60421C4.20898 9.84583 4.01311 10.0417 3.77148 10.0417C3.52986 10.0417 3.33398 9.84583 3.33398 9.60421V8.43754C3.33398 8.19592 3.52986 8.00004 3.77148 8.00004Z" fill="white"/><path d="M10.187 8.00004C10.4286 8.00004 10.6245 8.19592 10.6245 8.43754V9.60421C10.6245 9.84583 10.4286 10.0417 10.187 10.0417C9.94539 10.0417 9.74951 9.84583 9.74951 9.60421V8.43754C9.74951 8.19592 9.94539 8.00004 10.187 8.00004Z" fill="white"/><defs><linearGradient id="paint0_linear_8360_856" x1="1" y1="1" x2="15" y2="15" gradientUnits="userSpaceOnUse"><stop stop-color="#17A9E5"/><stop offset="1" stop-color="#44CB62"/></linearGradient></defs></svg>