<svg width="16" height="16" viewBox="0 0 16 16" fill="none" xmlns="http://www.w3.org/2000/svg"><path d="M1 4.5C1 2.567 2.567 1 4.5 1H11.5C13.433 1 15 2.567 15 4.5V11.5C15 13.433 13.433 15 11.5 15H4.5C2.567 15 1 13.433 1 11.5V4.5Z" fill="url(#paint0_linear_8360_982)"/><path d="M3.76953 9.75004C4.01116 9.75004 4.20703 9.94592 4.20703 10.1875V10.9167C4.20703 11.4 4.59878 11.7917 5.08203 11.7917H5.8112C6.05282 11.7917 6.2487 11.9876 6.2487 12.2292C6.2487 12.4708 6.05282 12.6667 5.8112 12.6667H5.08203C4.11553 12.6667 3.33203 11.8832 3.33203 10.9167V10.1875C3.33203 9.94592 3.52791 9.75004 3.76953 9.75004Z" fill="white"/><path d="M12.2279 9.75004C12.4695 9.75004 12.6654 9.94592 12.6654 10.1875V10.9167C12.6654 11.8832 11.8819 12.6667 10.9154 12.6667H10.1862C9.94457 12.6667 9.7487 12.4708 9.7487 12.2292C9.7487 11.9876 9.94457 11.7917 10.1862 11.7917H10.9154C11.3986 11.7917 11.7904 11.4 11.7904 10.9167V10.1875C11.7904 9.94592 11.9862 9.75004 12.2279 9.75004Z" fill="white"/><path fill-rule="evenodd" clip-rule="evenodd" d="M5.95988 6.73767C6.01603 5.91633 6.8942 5.40929 7.63354 5.77152L7.70703 5.81083L9.7487 6.98946C10.5264 7.4385 10.5263 8.56095 9.7487 9.01005L7.70703 10.1887C6.95361 10.6237 6.01775 10.1108 5.95988 9.26184L5.95703 9.17867V6.82084L5.95988 6.73767ZM7.26953 6.56848C7.07523 6.45642 6.83233 6.59661 6.83203 6.82084V9.17867C6.83216 9.40309 7.07514 9.54326 7.26953 9.43103L9.3112 8.2524C9.50552 8.14009 9.5056 7.85935 9.3112 7.74711L7.26953 6.56848Z" fill="white"/><path d="M5.8112 3.33337C6.05282 3.33337 6.2487 3.52925 6.2487 3.77087C6.2487 4.0125 6.05282 4.20837 5.8112 4.20837H5.08203C4.59878 4.20837 4.20703 4.60012 4.20703 5.08337V5.81254C4.20703 6.05417 4.01116 6.25004 3.76953 6.25004C3.52791 6.25004 3.33203 6.05417 3.33203 5.81254V5.08337C3.33203 4.11688 4.11553 3.33337 5.08203 3.33337H5.8112Z" fill="white"/><path d="M10.9154 3.33337C11.8819 3.33337 12.6654 4.11688 12.6654 5.08337V5.81254C12.6654 6.05417 12.4695 6.25004 12.2279 6.25004C11.9862 6.25004 11.7904 6.05417 11.7904 5.81254V5.08337C11.7904 4.60012 11.3986 4.20837 10.9154 4.20837H10.1862C9.94457 4.20837 9.7487 4.0125 9.7487 3.77087C9.7487 3.52925 9.94457 3.33337 10.1862 3.33337H10.9154Z" fill="white"/><defs><linearGradient id="paint0_linear_8360_982" x1="1" y1="1" x2="15" y2="15" gradientUnits="userSpaceOnUse"><stop stop-color="#FF3C4E"/><stop offset="1" stop-color="#E845BA"/></linearGradient></defs></svg>