<svg width="16" height="16" viewBox="0 0 16 16" fill="none" xmlns="http://www.w3.org/2000/svg"><path d="M1 4.5C1 2.567 2.567 1 4.5 1H11.5C13.433 1 15 2.567 15 4.5V11.5C15 13.433 13.433 15 11.5 15H4.5C2.567 15 1 13.433 1 11.5V4.5Z" fill="url(#paint0_linear_8360_966)"/><path d="M8 11.2083C8.24153 11.2084 8.4375 11.4043 8.4375 11.6458V12.8125C8.4375 13.0541 8.24153 13.2499 8 13.25C7.75838 13.25 7.5625 13.0541 7.5625 12.8125V11.6458C7.5625 11.4042 7.75838 11.2083 8 11.2083Z" fill="white"/><path d="M5.11239 10.2684C5.28319 10.0977 5.5602 10.0978 5.73104 10.2684C5.90189 10.4392 5.90189 10.7168 5.73104 10.8876L4.90617 11.7125C4.73534 11.8832 4.45834 11.8832 4.28752 11.7125C4.1167 11.5417 4.11677 11.2647 4.28752 11.0938L5.11239 10.2684Z" fill="white"/><path d="M10.2684 10.2684C10.4392 10.0977 10.7162 10.0977 10.887 10.2684L11.7119 11.0938C11.8827 11.2647 11.8828 11.5416 11.7119 11.7125C11.5411 11.8831 11.2641 11.8833 11.0933 11.7125L10.2684 10.8876C10.0975 10.7168 10.0975 10.4392 10.2684 10.2684Z" fill="white"/><path fill-rule="evenodd" clip-rule="evenodd" d="M8 5.95833C8.97734 5.95833 9.79347 6.64525 9.99381 7.5625H12.8125C13.0541 7.5625 13.25 7.75838 13.25 8C13.25 8.24162 13.0541 8.4375 12.8125 8.4375H9.99381C9.79347 9.35475 8.97734 10.0417 8 10.0417C7.02265 10.0417 6.20653 9.35475 6.00618 8.4375H3.1875C2.94588 8.4375 2.75 8.24162 2.75 8C2.75 7.75838 2.94588 7.5625 3.1875 7.5625H6.00618C6.20653 6.64525 7.02265 5.95833 8 5.95833ZM8 6.83333C7.35567 6.83333 6.83333 7.35567 6.83333 8C6.83333 8.64433 7.35567 9.16667 8 9.16667C8.64433 9.16667 9.16667 8.64433 9.16667 8C9.16667 7.35567 8.64433 6.83333 8 6.83333Z" fill="white"/><path d="M4.28752 4.28752C4.45834 4.1168 4.73534 4.1168 4.90617 4.28752L5.73104 5.11239C5.90189 5.28324 5.90189 5.56075 5.73104 5.73161C5.5602 5.90225 5.28319 5.90231 5.11239 5.73161L4.28752 4.90617C4.11677 4.73531 4.1167 4.45834 4.28752 4.28752Z" fill="white"/><path d="M11.0933 4.28752C11.2641 4.11675 11.5411 4.11685 11.7119 4.28752C11.8828 4.45836 11.8827 4.73531 11.7119 4.90617L10.887 5.73161C10.7162 5.90226 10.4392 5.9023 10.2684 5.73161C10.0975 5.56075 10.0975 5.28324 10.2684 5.11239L11.0933 4.28752Z" fill="white"/><path d="M8 2.75C8.24153 2.75011 8.4375 2.94594 8.4375 3.1875V4.35417C8.4375 4.59572 8.24153 4.79156 8 4.79167C7.75838 4.79167 7.5625 4.59579 7.5625 4.35417V3.1875C7.5625 2.94588 7.75838 2.75 8 2.75Z" fill="white"/><defs><linearGradient id="paint0_linear_8360_966" x1="1" y1="1" x2="15" y2="15" gradientUnits="userSpaceOnUse"><stop stop-color="#FB7900"/><stop offset="1" stop-color="#E5C700"/></linearGradient></defs></svg>