<svg width="16" height="16" viewBox="0 0 16 16" fill="currentColor" xmlns="http://www.w3.org/2000/svg"><path d="M4.99988 6.5C4.99988 6.22386 5.22374 6 5.49988 6H10.4999C10.776 6 10.9999 6.22386 10.9999 6.5C10.9999 6.77614 10.776 7 10.4999 7H5.49988C5.22374 7 4.99988 6.77614 4.99988 6.5Z"/><path d="M5.49988 9C5.22374 9 4.99988 9.22386 4.99988 9.5C4.99988 9.77614 5.22374 10 5.49988 10H8.49988C8.77602 10 8.99988 9.77614 8.99988 9.5C8.99988 9.22386 8.77602 9 8.49988 9H5.49988Z"/><path fill-rule="evenodd" clip-rule="evenodd" d="M1.87141 11.3853L0.816074 14.5513C0.685781 14.9422 1.05765 15.3141 1.44853 15.1838L4.61454 14.1284C5.61781 14.6838 6.77191 15 7.99985 15C11.8658 15 14.9998 11.866 14.9998 8C14.9998 4.13401 11.8658 1 7.99985 1C4.13385 1 0.999846 4.13401 0.999846 8C0.999846 9.22794 1.31602 10.382 1.87141 11.3853ZM2.95892 11.2851L2.08098 13.9189L4.71478 13.0409L5.09886 13.2535C5.95768 13.729 6.94561 14 7.99985 14C11.3136 14 13.9998 11.3137 13.9998 8C13.9998 4.68629 11.3136 2 7.99985 2C4.68614 2 1.99985 4.68629 1.99985 8C1.99985 9.05423 2.27088 10.0422 2.7463 10.901L2.95892 11.2851Z"/></svg>