<svg width="16" height="16" viewBox="0 0 16 16" fill="currentColor" xmlns="http://www.w3.org/2000/svg"><path fill-rule="evenodd" clip-rule="evenodd" d="M7.99997 15C11.866 15 15 11.866 15 8C15 4.13401 11.866 1 7.99997 1C4.13397 1 0.999968 4.13401 0.999968 8C0.999968 9.22794 1.31615 10.382 1.87153 11.3853L0.816196 14.5513C0.685903 14.9422 1.05777 15.3141 1.44865 15.1838L4.61466 14.1284C5.61794 14.6838 6.77203 15 7.99997 15ZM5 6.5C5 6.22386 5.22386 6 5.5 6H10.5C10.7761 6 11 6.22386 11 6.5C11 6.77614 10.7761 7 10.5 7H5.5C5.22386 7 5 6.77614 5 6.5ZM5.5 9C5.22386 9 5 9.22386 5 9.5C5 9.77614 5.22386 10 5.5 10H8.5C8.77614 10 9 9.77614 9 9.5C9 9.22386 8.77614 9 8.5 9H5.5Z"/></svg>