<svg width="16" height="16" viewBox="0 0 16 16" fill="currentColor" xmlns="http://www.w3.org/2000/svg"><path fill-rule="evenodd" clip-rule="evenodd" d="M12.8011 1.10083C12.9264 1.19531 13 1.34311 13 1.5V11C13 12.1046 12.1046 13 11 13C9.89543 13 9 12.1046 9 11C9 9.89544 9.89543 9 11 9C11.3643 9 11.7058 9.0974 12 9.26757V2.16287L6 3.87716V13C6 14.1046 5.10457 15 4 15C2.89543 15 2 14.1046 2 13C2 11.8954 2.89543 11 4 11C4.36429 11 4.70583 11.0974 5 11.2676V3.5C5 3.27676 5.14799 3.08057 5.36264 3.01924L12.3626 1.01924C12.5135 0.97614 12.6758 1.00635 12.8011 1.10083ZM12 11C12 10.4477 11.5523 10 11 10C10.4477 10 10 10.4477 10 11C10 11.5523 10.4477 12 11 12C11.5523 12 12 11.5523 12 11ZM4 12C4.55228 12 5 12.4477 5 13C5 13.5523 4.55228 14 4 14C3.44772 14 3 13.5523 3 13C3 12.4477 3.44772 12 4 12Z"/></svg>