<svg width="16" height="16" viewBox="0 0 16 16" fill="currentColor" xmlns="http://www.w3.org/2000/svg"><path fill-rule="evenodd" clip-rule="evenodd" d="M8.73727 1.56934C9.52277 0.928699 10.6818 0.97492 11.414 1.70703L14.2929 4.58594L14.4306 4.73731C15.0286 5.47047 15.0286 6.52953 14.4306 7.2627L14.2929 7.41406C13.9179 7.78908 13.4092 7.99993 12.8789 8H11.914C11.8146 8.00003 11.7182 8.02963 11.6367 8.08399L11.5605 8.14649L11.1464 8.56055C11.0527 8.65428 11 8.78152 11 8.91406V10.8789C10.9998 12.6605 8.84579 13.5527 7.5859 12.293L5.99996 10.707L2.85348 13.8535C2.65822 14.0488 2.34171 14.0488 2.14645 13.8535C1.95118 13.6583 1.95118 13.3417 2.14645 13.1465L5.29293 10L3.70699 8.41406C2.44728 7.15417 3.33945 5.00019 5.12106 5H7.0859C7.21844 4.99995 7.34569 4.94724 7.43942 4.85352L7.85348 4.43946C7.94719 4.34573 7.99992 4.21848 7.99996 4.08594V3.1211C8.00003 2.59075 8.21088 2.08205 8.5859 1.70703L8.73727 1.56934ZM10.707 2.41406C10.3409 2.0481 9.76183 2.02551 9.3691 2.34571L9.29293 2.41406C9.10545 2.60154 9.00003 2.85597 8.99996 3.1211V4.08594C8.99992 4.4837 8.84176 4.86522 8.56051 5.14649L8.14645 5.56055C7.86519 5.84181 7.48366 5.99995 7.0859 6H5.12106C4.23035 6.00019 3.78428 7.07711 4.41402 7.70703L8.29293 11.5859C8.92286 12.2157 9.99978 11.7696 9.99996 10.8789V8.91406C10 8.5163 10.1581 8.13478 10.4394 7.85352L10.8535 7.43946L10.9638 7.33985C11.2307 7.12124 11.566 7.00004 11.914 7H12.8789C13.144 6.99993 13.3984 6.89451 13.5859 6.70703L13.6543 6.63086C13.9531 6.26432 13.9531 5.73568 13.6543 5.36914L13.5859 5.29297L10.707 2.41406Z"/></svg>