<svg width="16" height="16" viewBox="0 0 16 16" fill="currentColor" xmlns="http://www.w3.org/2000/svg"><path d="M11.8536 13.8537C11.6583 14.0489 11.3417 14.0489 11.1465 13.8537L8.14645 10.8538C7.95119 10.6585 7.95118 10.3419 8.14644 10.1466C8.3417 9.95138 8.65828 9.95138 8.85355 10.1466L11 12.293L11.0002 2.49999C11.0002 2.22385 11.2241 2 11.5002 2C11.7763 2 12.0002 2.22387 12.0002 2.50001L12 12.293L14.1464 10.1465C14.3417 9.95128 14.6583 9.95128 14.8536 10.1465C15.0488 10.3418 15.0488 10.6584 14.8536 10.8537L11.8536 13.8537Z"/><path d="M4.85355 2.14654C4.65829 1.95128 4.34171 1.95128 4.14645 2.14654L1.14645 5.14654C0.951184 5.34181 0.951184 5.65839 1.14645 5.85365C1.34171 6.04891 1.65829 6.04891 1.85355 5.85365L4.00001 3.70719L4.0001 13.4001C4.0001 13.6762 4.22396 13.9001 4.5001 13.9001C4.77624 13.9001 5.0001 13.6762 5.0001 13.4001L5.00001 3.70721L7.14645 5.85365C7.34171 6.04891 7.65829 6.04891 7.85355 5.85365C8.04882 5.65839 8.04882 5.34181 7.85355 5.14654L4.85355 2.14654Z"/></svg>