<svg width="16" height="16" viewBox="0 0 16 16" fill="currentColor" xmlns="http://www.w3.org/2000/svg"><path fill-rule="evenodd" clip-rule="evenodd" d="M7.33333 1.45646C7.74587 1.21829 8.25413 1.21829 8.66667 1.45646L13.3333 4.15077C13.7459 4.38894 14 4.82911 14 5.30547V10.6941C14 11.1704 13.7459 11.6106 13.3333 11.8488L8.66667 14.5431C8.25413 14.7812 7.74587 14.7812 7.33333 14.5431L2.66667 11.8488C2.25413 11.6106 2 11.1704 2 10.6941V5.30547C2 4.82911 2.25413 4.38894 2.66667 4.15077L7.33333 1.45646ZM10.8536 6.14645C11.0488 6.34171 11.0488 6.65829 10.8536 6.85355L7.35355 10.3536C7.15829 10.5488 6.84171 10.5488 6.64645 10.3536L4.64645 8.35355C4.45118 8.15829 4.45118 7.84171 4.64645 7.64645C4.84171 7.45118 5.15829 7.45118 5.35355 7.64645L7 9.29289L10.1464 6.14645C10.3417 5.95118 10.6583 5.95118 10.8536 6.14645Z"/></svg>