<svg width="16" height="16" viewBox="0 0 16 16" fill="currentColor" xmlns="http://www.w3.org/2000/svg"><path d="M9 7C10.1046 7 11 7.89543 11 9V13C11 14.1046 10.1046 15 9 15H3C1.89543 15 1 14.1046 1 13V9C1 7.89543 1.89543 7 3 7H9ZM2 13C2 13.5523 2.44772 14 3 14H9C9.55229 14 10 13.5523 10 13V10H2V13ZM3 8C2.44772 8 2 8.44772 2 9H10C10 8.44772 9.55229 8 9 8H3ZM13 1C14.0761 1 15 1.92386 15 3V7C15 8.07614 14.0761 9 13 9H12.5C12.2239 9 12 8.77614 12 8.5C12 8.22386 12.2239 8 12.5 8H13C13.5239 8 14 7.52386 14 7V4H6V5.5C6 5.77614 5.77614 6 5.5 6C5.22386 6 5 5.77614 5 5.5V3C5 1.92386 5.92386 1 7 1H13ZM7 2C6.47614 2 6 2.47614 6 3H14C14 2.47614 13.5239 2 13 2H7Z"/></svg>