<svg width="24" height="24" viewBox="0 0 24 24" fill="currentColor" xmlns="http://www.w3.org/2000/svg"><path d="M10 3.5C9.58579 3.5 9.25 3.16421 9.25 2.75C9.25 2.33579 9.58579 2 10 2C10.4142 2 10.75 2.33579 10.75 2.75C10.75 3.16421 10.4142 3.5 10 3.5Z"/><path d="M18 7C18.5523 7 19 6.55228 19 6C19 5.44772 18.5523 5 18 5C17.4477 5 17 5.44772 17 6C17 6.55228 17.4477 7 18 7Z"/><path d="M12 12C13.1046 12 14 11.1046 14 10C14 8.89543 13.1046 8 12 8C10.8954 8 10 8.89543 10 10C10 11.1046 10.8954 12 12 12Z"/><path d="M18 11C18.5523 11 19 10.5523 19 10C19 9.44772 18.5523 9 18 9C17.4477 9 17 9.44772 17 10C17 10.5523 17.4477 11 18 11Z"/><path d="M5 14C5 13.4477 5.44772 13 6 13C6.55228 13 7 13.4477 7 14C7 14.5523 6.55228 15 6 15C5.44772 15 5 14.5523 5 14Z"/><path d="M5 18C5 17.4477 5.44772 17 6 17C6.55228 17 7 17.4477 7 18C7 18.5523 6.55228 19 6 19C5.44772 19 5 18.5523 5 18Z"/><path d="M14 7C14.5523 7 15 6.55228 15 6C15 5.44772 14.5523 5 14 5C13.4477 5 13 5.44772 13 6C13 6.55228 13.4477 7 14 7Z"/><path d="M9 18C9 17.4477 9.44772 17 10 17C10.5523 17 11 17.4477 11 18C11 18.5523 10.5523 19 10 19C9.44772 19 9 18.5523 9 18Z"/><path d="M21.25 9.25C20.8358 9.25 20.5 9.58579 20.5 10C20.5 10.4142 20.8358 10.75 21.25 10.75C21.6642 10.75 22 10.4142 22 10C22 9.58579 21.6642 9.25 21.25 9.25Z"/><path d="M3.50024 14.0001C3.50024 14.4143 3.16446 14.7501 2.75024 14.7501C2.33603 14.7501 2.00024 14.4143 2.00024 14.0001C2.00024 13.5859 2.33603 13.2501 2.75024 13.2501C3.16446 13.2501 3.50024 13.5859 3.50024 14.0001Z"/><path d="M14.75 21.25C14.75 20.8358 14.4142 20.5 14 20.5C13.5858 20.5 13.25 20.8358 13.25 21.25C13.25 21.6642 13.5858 22 14 22C14.4142 22 14.75 21.6642 14.75 21.25Z"/><path d="M21.25 13.25C20.8358 13.25 20.5 13.5858 20.5 14C20.5 14.4142 20.8358 14.75 21.25 14.75C21.6642 14.75 22 14.4142 22 14C22 13.5858 21.6642 13.25 21.25 13.25Z"/><path d="M3.5 9.99988C3.5 10.4141 3.16421 10.7499 2.75 10.7499C2.33579 10.7499 2 10.4141 2 9.99988C2 9.58566 2.33579 9.24988 2.75 9.24988C3.16421 9.24988 3.5 9.58566 3.5 9.99988Z"/><path d="M10.75 21.25C10.75 20.8358 10.4142 20.5 10 20.5C9.58579 20.5 9.25 20.8358 9.25 21.25C9.25 21.6642 9.58579 22 10 22C10.4142 22 10.75 21.6642 10.75 21.25Z"/><path d="M14 3.5C13.5858 3.5 13.25 3.16421 13.25 2.75C13.25 2.33579 13.5858 2 14 2C14.4142 2 14.75 2.33579 14.75 2.75C14.75 3.16421 14.4142 3.5 14 3.5Z"/><path d="M11 6C11 5.44772 10.5523 5 10 5C9.44772 5 9 5.44772 9 6C9 6.55228 9.44772 7 10 7C10.5523 7 11 6.55228 11 6Z"/><path d="M14 19C13.4477 19 13 18.5523 13 18C13 17.4477 13.4477 17 14 17C14.5523 17 15 17.4477 15 18C15 18.5523 14.5523 19 14 19Z"/><path d="M7 6C7 5.44772 6.55228 5 6 5C5.44772 5 5 5.44772 5 6C5 6.55228 5.44772 7 6 7C6.55228 7 7 6.55228 7 6Z"/><path d="M18 19C17.4477 19 17 18.5523 17 18C17 17.4477 17.4477 17 18 17C18.5523 17 19 17.4477 19 18C19 18.5523 18.5523 19 18 19Z"/><path d="M7 10C7 9.44772 6.55228 9 6 9C5.44772 9 5 9.44772 5 10C5 10.5523 5.44772 11 6 11C6.55228 11 7 10.5523 7 10Z"/><path d="M18 15C17.4477 15 17 14.5523 17 14C17 13.4477 17.4477 13 18 13C18.5523 13 19 13.4477 19 14C19 14.5523 18.5523 15 18 15Z"/><path d="M11 13C9.89543 13 9 13.8954 9 15C9 15.5523 9.44772 16 10 16H14C14.5523 16 15 15.5523 15 15C15 13.8954 14.1046 13 13 13H11Z"/></svg>