<svg width="24" height="24" viewBox="0 0 24 24" fill="currentColor" xmlns="http://www.w3.org/2000/svg"><path fill-rule="evenodd" clip-rule="evenodd" d="M15 12C15 15.866 11.866 19 8 19C4.13401 19 1 15.866 1 12C1 8.13401 4.13401 5 8 5C11.866 5 15 8.13401 15 12ZM4.21967 8.21967C4.51256 7.92678 4.98744 7.92678 5.28033 8.21967L7.78033 10.7197C8.07322 11.0126 8.07322 11.4874 7.78033 11.7803C7.48744 12.0732 7.01256 12.0732 6.71967 11.7803L4.21967 9.28033C3.92678 8.98744 3.92678 8.51256 4.21967 8.21967Z"/><path d="M14.4755 6.21234C14.6826 5.85362 15.1413 5.73072 15.5 5.93782C16.5641 6.5522 17.4478 7.43587 18.0622 8.5C18.6766 9.56413 19 10.7712 19 12C19 13.2288 18.6766 14.4359 18.0622 15.5C17.4478 16.5641 16.5641 17.4478 15.5 18.0622C15.1413 18.2693 14.6826 18.1464 14.4755 17.7877C14.2684 17.4289 14.3913 16.9702 14.75 16.7631C15.5861 16.2804 16.2804 15.5861 16.7631 14.75C17.2459 13.9139 17.5 12.9655 17.5 12C17.5 11.0345 17.2459 10.0861 16.7631 9.25C16.2804 8.41389 15.5861 7.71959 14.75 7.23686C14.3913 7.02975 14.2684 6.57106 14.4755 6.21234Z"/><path d="M18.4755 6.21234C18.6826 5.85362 19.1413 5.73072 19.5 5.93782C20.5641 6.5522 21.4478 7.43587 22.0622 8.5C22.6766 9.56413 23 10.7712 23 12C23 13.2288 22.6766 14.4359 22.0622 15.5C21.4478 16.5641 20.5641 17.4478 19.5 18.0622C19.1413 18.2693 18.6826 18.1464 18.4755 17.7877C18.2684 17.4289 18.3913 16.9702 18.75 16.7631C19.5861 16.2804 20.2804 15.5861 20.7631 14.75C21.2459 13.9139 21.5 12.9655 21.5 12C21.5 11.0345 21.2459 10.0861 20.7631 9.25C20.2804 8.41389 19.5861 7.71959 18.75 7.23686C18.3913 7.02975 18.2684 6.57106 18.4755 6.21234Z"/></svg>