<svg width="20" height="20" viewBox="0 0 20 20" fill="currentColor" xmlns="http://www.w3.org/2000/svg"><path fill-rule="evenodd" clip-rule="evenodd" d="M9.25 3.20096C9.7141 2.93301 10.2859 2.93301 10.75 3.20096L17.25 6.95374C18.25 7.53109 18.25 8.97446 17.25 9.55181L17 9.69616V14.5C17 14.7762 16.7761 15 16.5 15C16.2239 15 16 14.7762 16 14.5V10.2735L15 10.8509V13.4793C15 14.0152 14.7141 14.5104 14.25 14.7783L10.75 16.799C10.2859 17.067 9.7141 17.067 9.25 16.799L5.75 14.7783C5.2859 14.5104 5 14.0152 5 13.4793V10.8509L2.75 9.55181C1.75 8.97446 1.75 7.53109 2.75 6.95374L9.25 3.20096ZM9.75 4.06699L3.25 7.81977C2.91667 8.01222 2.91667 8.49334 3.25 8.68579L9.75 12.4386C9.9047 12.5279 10.0953 12.5279 10.25 12.4386L16.75 8.68579C17.0833 8.49334 17.0833 8.01222 16.75 7.81977L10.25 4.06699C10.0953 3.97767 9.9047 3.97767 9.75 4.06699ZM10.75 13.3046L14 11.4282V13.4793C14 13.6579 13.9047 13.823 13.75 13.9123L10.25 15.933C10.0953 16.0223 9.9047 16.0223 9.75 15.933L6.25 13.9123C6.0953 13.823 6 13.6579 6 13.4793V11.4282L9.25 13.3046C9.7141 13.5725 10.2859 13.5725 10.75 13.3046Z"/></svg>