<svg width="24" height="24" viewBox="0 0 24 24" fill="currentColor" xmlns="http://www.w3.org/2000/svg"><path d="M7 8C7.55228 8 8 7.55228 8 7C8 6.44772 7.55228 6 7 6C6.44772 6 6 6.44772 6 7C6 7.55228 6.44772 8 7 8Z"/><path d="M8 10C8 10.5523 7.55228 11 7 11C6.44772 11 6 10.5523 6 10C6 9.44772 6.44772 9 7 9C7.55228 9 8 9.44772 8 10Z"/><path d="M7 18C7.55228 18 8 17.5523 8 17C8 16.4477 7.55228 16 7 16C6.44772 16 6 16.4477 6 17C6 17.5523 6.44772 18 7 18Z"/><path d="M11.3333 7C11.3333 7.55228 10.8856 8 10.3333 8C9.78103 8 9.33331 7.55228 9.33331 7C9.33331 6.44772 9.78103 6 10.3333 6C10.8856 6 11.3333 6.44772 11.3333 7Z"/><path d="M10.3333 11C10.8856 11 11.3333 10.5523 11.3333 10C11.3333 9.44772 10.8856 9 10.3333 9C9.78103 9 9.33331 9.44772 9.33331 10C9.33331 10.5523 9.78103 11 10.3333 11Z"/><path d="M11.3333 17C11.3333 17.5523 10.8856 18 10.3333 18C9.78103 18 9.33331 17.5523 9.33331 17C9.33331 16.4477 9.78103 16 10.3333 16C10.8856 16 11.3333 16.4477 11.3333 17Z"/><path d="M13.6666 8C14.2189 8 14.6666 7.55228 14.6666 7C14.6666 6.44772 14.2189 6 13.6666 6C13.1143 6 12.6666 6.44772 12.6666 7C12.6666 7.55228 13.1143 8 13.6666 8Z"/><path d="M14.6666 10C14.6666 10.5523 14.2189 11 13.6666 11C13.1143 11 12.6666 10.5523 12.6666 10C12.6666 9.44772 13.1143 9 13.6666 9C14.2189 9 14.6666 9.44772 14.6666 10Z"/><path d="M13.6666 18C14.2189 18 14.6666 17.5523 14.6666 17C14.6666 16.4477 14.2189 16 13.6666 16C13.1143 16 12.6666 16.4477 12.6666 17C12.6666 17.5523 13.1143 18 13.6666 18Z"/><path d="M17.9999 7C17.9999 7.55228 17.5522 8 16.9999 8C16.4477 8 15.9999 7.55228 15.9999 7C15.9999 6.44772 16.4477 6 16.9999 6C17.5522 6 17.9999 6.44772 17.9999 7Z"/><path d="M16.9999 11C17.5522 11 17.9999 10.5523 17.9999 10C17.9999 9.44772 17.5522 9 16.9999 9C16.4477 9 15.9999 9.44772 15.9999 10C15.9999 10.5523 16.4477 11 16.9999 11Z"/><path d="M17.9999 17C17.9999 17.5523 17.5522 18 16.9999 18C16.4477 18 15.9999 17.5523 15.9999 17C15.9999 16.4477 16.4477 16 16.9999 16C17.5522 16 17.9999 16.4477 17.9999 17Z"/><path d="M6.75 12.5C6.33579 12.5 6 12.8358 6 13.25C6 13.6642 6.33579 14 6.75 14L17.25 14C17.6642 14 18 13.6642 18 13.25C18 12.8358 17.6642 12.5 17.25 12.5L6.75 12.5Z"/><path fill-rule="evenodd" clip-rule="evenodd" d="M3 5C3 3.89543 3.89543 3 5 3H19C20.1046 3 21 3.89543 21 5V19C21 20.1046 20.1046 21 19 21H5C3.89543 21 3 20.1046 3 19V5ZM5 4.5H19C19.2761 4.5 19.5 4.72386 19.5 5V19C19.5 19.2761 19.2761 19.5 19 19.5H5C4.72386 19.5 4.5 19.2761 4.5 19V5C4.5 4.72386 4.72386 4.5 5 4.5Z"/></svg>