<svg width="24" height="24" viewBox="0 0 24 24" fill="none" xmlns="http://www.w3.org/2000/svg"><path d="M4.85917 15.9618C3.64986 14.8433 2.78283 13.6609 2.27658 12.882C1.92465 12.3406 1.92465 11.6594 2.27658 11.118C3.49949 9.23662 6.82759 5 12 5C13.1767 5 14.258 5.21927 15.2407 5.58019L14.0467 6.77428C13.4042 6.59966 12.7215 6.5 12 6.5C7.66514 6.5 4.7288 10.0977 3.53424 11.9355C3.51657 11.9626 3.51263 11.9843 3.51263 12C3.51263 12.0157 3.51657 12.0374 3.53424 12.0645C4.03361 12.8328 4.83735 13.9086 5.9204 14.9005L4.85917 15.9618Z" fill="#151515"/><path d="M8.07033 12.7506C8.02417 12.5075 8.00002 12.2566 8.00002 12C8.00002 9.79086 9.79088 8 12 8C12.2566 8 12.5075 8.02415 12.7506 8.07031L11.1851 9.63583C10.4599 9.88574 9.88576 10.4599 9.63585 11.1851L8.07033 12.7506Z" fill="#151515"/><path d="M9.78396 13.1583L8.69232 14.2499C9.4123 15.3064 10.6252 16 12 16C14.2092 16 16 14.2091 16 12C16 10.6251 15.3064 9.41228 14.25 8.6923L13.1583 9.78394C13.9558 10.2017 14.5 11.0373 14.5 12C14.5 13.3807 13.3807 14.5 12 14.5C11.0373 14.5 10.2017 13.9558 9.78396 13.1583Z" fill="#151515"/><path d="M15.5824 7.35989C17.9715 8.54033 19.6374 10.6611 20.4658 11.9355C20.4835 11.9626 20.4874 11.9843 20.4874 12C20.4874 12.0157 20.4835 12.0374 20.4658 12.0645C19.2712 13.9023 16.3349 17.5 12 17.5C10.0803 17.5 8.43494 16.7944 7.09361 15.8486L6.01892 16.9233C7.59846 18.0885 9.60084 19 12 19C17.1724 19 20.5006 14.7634 21.7235 12.882C22.0754 12.3406 22.0754 11.6594 21.7235 11.118C20.9235 9.88735 19.2229 7.64899 16.6945 6.24778L15.5824 7.35989Z" fill="#151515"/><path d="M2.21967 20.7197C1.92678 21.0126 1.92678 21.4874 2.21967 21.7803C2.51256 22.0732 2.98744 22.0732 3.28033 21.7803L21.7803 3.28033C22.0732 2.98744 22.0732 2.51256 21.7803 2.21967C21.4874 1.92678 21.0126 1.92678 20.7197 2.21967L2.21967 20.7197Z" fill="#C02335"/></svg>