<svg width="16" height="16" viewBox="0 0 16 16" fill="currentColor" xmlns="http://www.w3.org/2000/svg"><path fill-rule="evenodd" clip-rule="evenodd" d="M8 15C11.866 15 15 11.866 15 8C15 4.13401 11.866 1 8 1C4.13401 1 1 4.13401 1 8C1 11.866 4.13401 15 8 15ZM5.5 5.75C5.5 6.16421 5.16421 6.5 4.75 6.5C4.33579 6.5 4 6.16421 4 5.75C4 5.33579 4.33579 5 4.75 5C5.16421 5 5.5 5.33579 5.5 5.75ZM5.5 8C5.5 8.41421 5.16421 8.75 4.75 8.75C4.33579 8.75 4 8.41421 4 8C4 7.58579 4.33579 7.25 4.75 7.25C5.16421 7.25 5.5 7.58579 5.5 8ZM4.75 11C5.16421 11 5.5 10.6642 5.5 10.25C5.5 9.83579 5.16421 9.5 4.75 9.5C4.33579 9.5 4 9.83579 4 10.25C4 10.6642 4.33579 11 4.75 11ZM12 5.75C12 6.16421 11.6642 6.5 11.25 6.5C10.8358 6.5 10.5 6.16421 10.5 5.75C10.5 5.33579 10.8358 5 11.25 5C11.6642 5 12 5.33579 12 5.75ZM11.25 8.75C11.6642 8.75 12 8.41421 12 8C12 7.58579 11.6642 7.25 11.25 7.25C10.8358 7.25 10.5 7.58579 10.5 8C10.5 8.41421 10.8358 8.75 11.25 8.75ZM12 10.25C12 10.6642 11.6642 11 11.25 11C10.8358 11 10.5 10.6642 10.5 10.25C10.5 9.83579 10.8358 9.5 11.25 9.5C11.6642 9.5 12 9.83579 12 10.25ZM9.08331 6.5C9.49753 6.5 9.83331 6.16421 9.83331 5.75C9.83331 5.33579 9.49753 5 9.08331 5C8.6691 5 8.33331 5.33579 8.33331 5.75C8.33331 6.16421 8.6691 6.5 9.08331 6.5ZM9.83331 8C9.83331 8.41421 9.49753 8.75 9.08331 8.75C8.6691 8.75 8.33331 8.41421 8.33331 8C8.33331 7.58579 8.6691 7.25 9.08331 7.25C9.49753 7.25 9.83331 7.58579 9.83331 8ZM9.08331 11C9.49753 11 9.83331 10.6642 9.83331 10.25C9.83331 9.83579 9.49753 9.5 9.08331 9.5C8.6691 9.5 8.33331 9.83579 8.33331 10.25C8.33331 10.6642 8.6691 11 9.08331 11ZM7.66666 5.75C7.66666 6.16421 7.33087 6.5 6.91666 6.5C6.50244 6.5 6.16666 6.16421 6.16666 5.75C6.16666 5.33579 6.50244 5 6.91666 5C7.33087 5 7.66666 5.33579 7.66666 5.75ZM6.91666 8.75C7.33087 8.75 7.66666 8.41421 7.66666 8C7.66666 7.58579 7.33087 7.25 6.91666 7.25C6.50244 7.25 6.16666 7.58579 6.16666 8C6.16666 8.41421 6.50244 8.75 6.91666 8.75ZM7.66666 10.25C7.66666 10.6642 7.33087 11 6.91666 11C6.50244 11 6.16666 10.6642 6.16666 10.25C6.16666 9.83579 6.50244 9.5 6.91666 9.5C7.33087 9.5 7.66666 9.83579 7.66666 10.25Z"/></svg>