<svg width="16" height="16" viewBox="0 0 16 16" fill="currentColor" xmlns="http://www.w3.org/2000/svg"><path d="M5.5 5.75C5.5 6.16421 5.16421 6.5 4.75 6.5C4.33579 6.5 4 6.16421 4 5.75C4 5.33579 4.33579 5 4.75 5C5.16421 5 5.5 5.33579 5.5 5.75Z"/><path d="M4.75 8.75C5.16421 8.75 5.5 8.41421 5.5 8C5.5 7.58579 5.16421 7.25 4.75 7.25C4.33579 7.25 4 7.58579 4 8C4 8.41421 4.33579 8.75 4.75 8.75Z"/><path d="M5.5 10.25C5.5 10.6642 5.16421 11 4.75 11C4.33579 11 4 10.6642 4 10.25C4 9.83579 4.33579 9.5 4.75 9.5C5.16421 9.5 5.5 9.83579 5.5 10.25Z"/><path d="M11.25 6.5C11.6642 6.5 12 6.16421 12 5.75C12 5.33579 11.6642 5 11.25 5C10.8358 5 10.5 5.33579 10.5 5.75C10.5 6.16421 10.8358 6.5 11.25 6.5Z"/><path d="M12 8C12 8.41421 11.6642 8.75 11.25 8.75C10.8358 8.75 10.5 8.41421 10.5 8C10.5 7.58579 10.8358 7.25 11.25 7.25C11.6642 7.25 12 7.58579 12 8Z"/><path d="M11.25 11C11.6642 11 12 10.6642 12 10.25C12 9.83579 11.6642 9.5 11.25 9.5C10.8358 9.5 10.5 9.83579 10.5 10.25C10.5 10.6642 10.8358 11 11.25 11Z"/><path d="M9.83331 5.75C9.83331 6.16421 9.49753 6.5 9.08331 6.5C8.6691 6.5 8.33331 6.16421 8.33331 5.75C8.33331 5.33579 8.6691 5 9.08331 5C9.49753 5 9.83331 5.33579 9.83331 5.75Z"/><path d="M9.08331 8.75C9.49753 8.75 9.83331 8.41421 9.83331 8C9.83331 7.58579 9.49753 7.25 9.08331 7.25C8.6691 7.25 8.33331 7.58579 8.33331 8C8.33331 8.41421 8.6691 8.75 9.08331 8.75Z"/><path d="M9.83331 10.25C9.83331 10.6642 9.49753 11 9.08331 11C8.6691 11 8.33331 10.6642 8.33331 10.25C8.33331 9.83579 8.6691 9.5 9.08331 9.5C9.49753 9.5 9.83331 9.83579 9.83331 10.25Z"/><path d="M6.91666 6.5C7.33087 6.5 7.66666 6.16421 7.66666 5.75C7.66666 5.33579 7.33087 5 6.91666 5C6.50244 5 6.16666 5.33579 6.16666 5.75C6.16666 6.16421 6.50244 6.5 6.91666 6.5Z"/><path d="M7.66666 8C7.66666 8.41421 7.33087 8.75 6.91666 8.75C6.50244 8.75 6.16666 8.41421 6.16666 8C6.16666 7.58579 6.50244 7.25 6.91666 7.25C7.33087 7.25 7.66666 7.58579 7.66666 8Z"/><path d="M6.91666 11C7.33087 11 7.66666 10.6642 7.66666 10.25C7.66666 9.83579 7.33087 9.5 6.91666 9.5C6.50244 9.5 6.16666 9.83579 6.16666 10.25C6.16666 10.6642 6.50244 11 6.91666 11Z"/><path fill-rule="evenodd" clip-rule="evenodd" d="M8 15C11.866 15 15 11.866 15 8C15 4.13401 11.866 1 8 1C4.13401 1 1 4.13401 1 8C1 11.866 4.13401 15 8 15ZM8 14C11.3137 14 14 11.3137 14 8C14 4.68629 11.3137 2 8 2C4.68629 2 2 4.68629 2 8C2 11.3137 4.68629 14 8 14Z"/></svg>