<svg width="16" height="16" viewBox="0 0 16 16" fill="currentColor" xmlns="http://www.w3.org/2000/svg"><path d="M3.5 7C3.77614 7 4 7.22386 4 7.5V8.5C4 8.77614 3.77614 9 3.5 9C3.22386 9 3 8.77614 3 8.5V7.5C3 7.22386 3.22386 7 3.5 7Z"/><path d="M5.3 5.5C5.57614 5.5 5.8 5.72386 5.8 6V10C5.8 10.2761 5.57614 10.5 5.3 10.5C5.02386 10.5 4.8 10.2761 4.8 10V6C4.8 5.72386 5.02386 5.5 5.3 5.5Z"/><path d="M7.60001 7.5C7.60001 7.22386 7.37615 7 7.10001 7C6.82386 7 6.60001 7.22386 6.60001 7.5V8.5C6.60001 8.77614 6.82386 9 7.10001 9C7.37615 9 7.60001 8.77614 7.60001 8.5V7.5Z"/><path d="M8.90001 4C9.17615 4 9.40001 4.22386 9.40001 4.5V11.5C9.40001 11.7761 9.17615 12 8.90001 12C8.62387 12 8.40001 11.7761 8.40001 11.5V4.5C8.40001 4.22386 8.62387 4 8.90001 4Z"/><path d="M10.2 10C10.2 10.2761 10.4239 10.5 10.7 10.5C10.9762 10.5 11.2 10.2761 11.2 10V6C11.2 5.72386 10.9762 5.5 10.7 5.5C10.4239 5.5 10.2 5.72386 10.2 6V10Z"/><path d="M12.5 9C12.2239 9 12 8.77614 12 8.5V7.5C12 7.22386 12.2239 7 12.5 7C12.7761 7 13 7.22386 13 7.5V8.5C13 8.77614 12.7761 9 12.5 9Z"/><path fill-rule="evenodd" clip-rule="evenodd" d="M8 15C11.866 15 15 11.866 15 8C15 4.13401 11.866 1 8 1C4.13401 1 1 4.13401 1 8C1 11.866 4.13401 15 8 15ZM8 14C11.3137 14 14 11.3137 14 8C14 4.68629 11.3137 2 8 2C4.68629 2 2 4.68629 2 8C2 11.3137 4.68629 14 8 14Z"/></svg>